<svg width="30" height="30" viewBox="0 0 30 30" fill="none" xmlns="http://www.w3.org/2000/svg">
<path d="M15 7.38884C10.7881 7.38884 7.38886 10.7881 7.38886 15C7.38886 19.2119 10.7881 22.6111 15 22.6111C19.2119 22.6111 22.6111 19.2119 22.6111 15C22.6111 10.7881 19.2119 7.38884 15 7.38884ZM15 19.9467C12.2762 19.9467 10.0533 17.7238 10.0533 15C10.0533 12.2761 12.2762 10.0533 15 10.0533C17.7238 10.0533 19.9467 12.2761 19.9467 15C19.9467 17.7238 17.7238 19.9467 15 19.9467ZM22.9229 5.3033C21.9395 5.3033 21.1453 6.09744 21.1453 7.08084C21.1453 8.06424 21.9395 8.85838 22.9229 8.85838C23.9063 8.85838 24.7004 8.06795 24.7004 7.08084C24.7007 6.84733 24.6549 6.61605 24.5657 6.40026C24.4765 6.18446 24.3455 5.98839 24.1804 5.82327C24.0153 5.65816 23.8192 5.52724 23.6034 5.43801C23.3876 5.34878 23.1564 5.30301 22.9229 5.3033V5.3033ZM29.8363 15C29.8363 12.9515 29.8549 10.9217 29.7398 8.87693C29.6248 6.50193 29.083 4.39412 27.3463 2.6574C25.6059 0.916972 23.5018 0.378887 21.1268 0.263848C19.0783 0.148809 17.0484 0.167364 15.0037 0.167364C12.9553 0.167364 10.9254 0.148809 8.88066 0.263848C6.50566 0.378887 4.39785 0.920683 2.66113 2.6574C0.920696 4.39783 0.38261 6.50193 0.267571 8.87693C0.152532 10.9254 0.171087 12.9552 0.171087 15C0.171087 17.0447 0.152532 19.0783 0.267571 21.123C0.38261 23.498 0.924407 25.6058 2.66113 27.3425C4.40156 29.083 6.50566 29.6211 8.88066 29.7361C10.9291 29.8511 12.959 29.8326 15.0037 29.8326C17.0521 29.8326 19.082 29.8511 21.1268 29.7361C23.5018 29.6211 25.6096 29.0793 27.3463 27.3425C29.0867 25.6021 29.6248 23.498 29.7398 21.123C29.8586 19.0783 29.8363 17.0484 29.8363 15V15ZM26.5707 23.7504C26.2998 24.4258 25.9732 24.9304 25.45 25.45C24.9268 25.9732 24.4258 26.2998 23.7504 26.5707C21.7984 27.3463 17.1635 27.1718 15 27.1718C12.8365 27.1718 8.19785 27.3463 6.24589 26.5744C5.5705 26.3035 5.06581 25.9769 4.54628 25.4537C4.02304 24.9304 3.69648 24.4295 3.42558 23.7541C2.6537 21.7984 2.82812 17.1635 2.82812 15C2.82812 12.8365 2.6537 8.19783 3.42558 6.24588C3.69648 5.57049 4.02304 5.0658 4.54628 4.54627C5.06953 4.02674 5.5705 3.69646 6.24589 3.42557C8.19785 2.65369 12.8365 2.8281 15 2.8281C17.1635 2.8281 21.8021 2.65369 23.7541 3.42557C24.4295 3.69646 24.9342 4.02303 25.4537 4.54627C25.977 5.06951 26.3035 5.57049 26.5744 6.24588C27.3463 8.19783 27.1719 12.8365 27.1719 15C27.1719 17.1635 27.3463 21.7984 26.5707 23.7504Z" fill="#0A2782"/>
</svg>
