<svg viewBox="0 0 19 29" fill="none" xmlns="http://www.w3.org/2000/svg"><path d="M9.221 14.77c4.073 0 7.468-3.229 7.468-7.102S13.294.568 9.22.568s-7.467 3.227-7.467 7.1c0 3.873 3.394 7.101 7.467 7.101Zm0-10.652c2.037 0 3.734 1.614 3.734 3.55 0 1.937-1.697 3.55-3.734 3.55-2.036 0-3.733-1.613-3.733-3.55 0-1.936 1.697-3.55 3.733-3.55Zm8.655 11.62c-.339-.807-1.527-1.453-3.224-.323-2.036 1.613-5.43 1.613-5.43 1.613s-3.395 0-5.431-1.613c-1.528-1.13-2.716-.484-3.225.322-.679 1.453.17 2.098 2.037 3.228 1.527.968 3.733 1.291 5.26 1.452l-1.187 1.13-4.413 4.196c-.679.646-.679 1.614 0 2.26l.17.16a1.7 1.7 0 0 0 2.376 0l4.412-4.195 4.413 4.196a1.7 1.7 0 0 0 2.376 0l.17-.162c.678-.645.678-1.613 0-2.26l-4.413-4.195-1.188-1.13c1.358-.161 3.564-.484 5.261-1.452 2.037-1.13 2.885-1.937 2.037-3.228Z"/></svg>