<svg viewBox="0 0 26 21" fill="none" xmlns="http://www.w3.org/2000/svg"><path d="M25.412 3.201c-.885.417-1.916.695-2.948.695 1.032-.556 1.916-1.528 2.21-2.639-1.031.556-2.063.972-3.242 1.111-.884-.972-2.211-1.527-3.685-1.527-2.8 0-5.16 2.083-5.16 4.86 0 .416 0 .694.148 1.11A14.324 14.324 0 0 1 2.27 1.814c-.442.694-.737 1.527-.737 2.36A4.79 4.79 0 0 0 3.743 8.2c-.884 0-1.62-.278-2.358-.555 0 2.36 1.77 4.304 4.128 4.72-.443.14-.885.14-1.327.14-.295 0-.59 0-1.032-.14.59 1.945 2.506 3.333 4.717 3.333-1.769 1.25-3.98 2.083-6.338 2.083H.353c2.212 1.389 4.865 2.222 7.813 2.222 9.433 0 14.445-7.36 14.445-13.608V5.84c1.327-.833 2.064-1.667 2.8-2.639Z" /></svg>