<svg viewBox="0 0 18 19" fill="none" xmlns="http://www.w3.org/2000/svg"><path d="M16.07 10.125c-.694-.694-1.25-1.25-2.637-1.388v-.139c.971-.416 1.665-.833 2.082-1.527.555-.694.694-1.388.694-2.36 0-.694-.139-1.388-.555-1.943-.417-.556-.972-1.11-1.666-1.388-.694-.278-1.388-.556-2.221-.695C11.073.547 9.407.547 7.74.547H.384v17.907H8.99c1.388 0 2.637-.139 3.609-.277.972-.278 1.804-.556 2.498-1.111.695-.416 1.25-.972 1.527-1.666.417-.694.556-1.388.556-2.36 0-1.25-.417-2.22-1.11-2.915ZM5.66 4.017H7.88c.694 0 1.388.139 1.943.278.556.277.833.694.833 1.527 0 .694-.277 1.11-.694 1.388-.416.278-.971.416-1.666.416H5.66V4.017Zm4.58 10.55a5.179 5.179 0 0 1-1.665.278H5.659V10.54h3.054c.694 0 1.25.14 1.527.278.694.278.972.833.972 1.666.138 1.11-.278 1.805-.972 2.082Z"/></svg>