<svg width="38" height="28" viewBox="0 0 38 28" fill="none" xmlns="http://www.w3.org/2000/svg">
<path d="M37.375 13.8852C37.375 13.795 37.375 13.6924 37.3709 13.5735C37.3668 13.2413 37.3586 12.868 37.3504 12.4702C37.3176 11.3258 37.2602 10.1856 37.1699 9.11099C37.0469 7.63032 36.8664 6.39575 36.6203 5.4688C36.3606 4.50144 35.8516 3.61919 35.144 2.91023C34.4365 2.20127 33.5553 1.69042 32.5885 1.42876C31.4277 1.11704 29.1555 0.924267 25.9562 0.805322C24.4346 0.7479 22.8062 0.710986 21.1779 0.690478C20.6078 0.682275 20.0787 0.678174 19.6029 0.674072H18.3971C17.9213 0.678174 17.3922 0.682275 16.8221 0.690478C15.1937 0.710986 13.5654 0.7479 12.0437 0.805322C8.84453 0.928369 6.56816 1.12114 5.41152 1.42876C4.44438 1.68978 3.56282 2.20041 2.8552 2.90947C2.14758 3.61853 1.63874 4.50113 1.37969 5.4688C1.12949 6.39575 0.953125 7.63032 0.830078 9.11099C0.739844 10.1856 0.682422 11.3258 0.649609 12.4702C0.637305 12.868 0.633203 13.2413 0.629101 13.5735C0.629101 13.6924 0.625 13.795 0.625 13.8852V14.1149C0.625 14.2051 0.625 14.3077 0.629101 14.4266C0.633203 14.7588 0.641406 15.1321 0.649609 15.5299C0.682422 16.6743 0.739844 17.8145 0.830078 18.8891C0.953125 20.3698 1.13359 21.6043 1.37969 22.5313C1.90469 24.496 3.44687 26.0463 5.41152 26.5713C6.56816 26.8831 8.84453 27.0758 12.0437 27.1948C13.5654 27.2522 15.1937 27.2891 16.8221 27.3096C17.3922 27.3178 17.9213 27.3219 18.3971 27.326H19.6029C20.0787 27.3219 20.6078 27.3178 21.1779 27.3096C22.8062 27.2891 24.4346 27.2522 25.9562 27.1948C29.1555 27.0717 31.4318 26.879 32.5885 26.5713C34.5531 26.0463 36.0953 24.5001 36.6203 22.5313C36.8705 21.6043 37.0469 20.3698 37.1699 18.8891C37.2602 17.8145 37.3176 16.6743 37.3504 15.5299C37.3627 15.1321 37.3668 14.7588 37.3709 14.4266C37.3709 14.3077 37.375 14.2051 37.375 14.1149V13.8852ZM34.4219 14.0985C34.4219 14.1846 34.4219 14.279 34.4178 14.3897C34.4137 14.7096 34.4055 15.0624 34.3973 15.4438C34.3686 16.5348 34.3111 17.6258 34.225 18.6389C34.1143 19.9596 33.9584 21.0424 33.7656 21.7684C33.5113 22.7159 32.7648 23.4665 31.8215 23.7167C30.9602 23.9463 28.7904 24.1309 25.8414 24.2417C24.3484 24.2991 22.7406 24.336 21.1369 24.3565C20.575 24.3647 20.0541 24.3688 19.5865 24.3688H18.4135L16.8631 24.3565C15.2594 24.336 13.6557 24.2991 12.1586 24.2417C9.20957 24.1268 7.03574 23.9463 6.17852 23.7167C5.23516 23.4624 4.48867 22.7159 4.23438 21.7684C4.0416 21.0424 3.88574 19.9596 3.775 18.6389C3.68887 17.6258 3.63555 16.5348 3.60273 15.4438C3.59043 15.0624 3.58633 14.7055 3.58223 14.3897C3.58223 14.279 3.57812 14.1805 3.57812 14.0985V13.9016C3.57812 13.8155 3.57813 13.7211 3.58223 13.6104C3.58633 13.2905 3.59453 12.9377 3.60273 12.5563C3.63145 11.4653 3.68887 10.3743 3.775 9.36118C3.88574 8.04048 4.0416 6.95767 4.23438 6.23169C4.48867 5.28423 5.23516 4.53364 6.17852 4.28345C7.03984 4.05376 9.20957 3.86919 12.1586 3.75845C13.6516 3.70103 15.2594 3.66411 16.8631 3.6436C17.425 3.6354 17.9459 3.6313 18.4135 3.6313H19.5865L21.1369 3.6436C22.7406 3.66411 24.3443 3.70103 25.8414 3.75845C28.7904 3.87329 30.9643 4.05376 31.8215 4.28345C32.7648 4.53774 33.5113 5.28423 33.7656 6.23169C33.9584 6.95767 34.1143 8.04048 34.225 9.36118C34.3111 10.3743 34.3645 11.4653 34.3973 12.5563C34.4096 12.9377 34.4137 13.2946 34.4178 13.6104C34.4178 13.7211 34.4219 13.8196 34.4219 13.9016V14.0985ZM15.3496 19.4961L24.8652 13.959L15.3496 8.50396V19.4961Z" fill="#0A2782"/>
</svg>
