<svg viewBox="0 0 705 624" fill="none" xmlns="http://www.w3.org/2000/svg"><g clip-path="url(#a)"><path d="M265.124 532.579a117.558 117.558 0 0 1-25.621-2.945 25.838 25.838 0 0 1-10.82-5.441 556.995 556.995 0 0 0-3.315 18.386 527.806 527.806 0 0 0-6.954 81.034c.024.118.063.231.117.338h40.865s-.377-12.382-.339-15.902c.034-3.715.339-7.448 1.353-11.05.966-3.43 2.64-6.619 4.021-9.899a38.13 38.13 0 0 0 2.753-10.007c.98-7.389.486-15.036-.121-22.435-.607-7.4-2.116-14.664-1.939-22.079Z" fill="#D16D60"/><path d="M225.357 555.941v-.375c-.234-9.171-.43-16.157-.468-18.251 0-.109-28.261-1.419-46.665-.398-18.479 1.024-36.931.544-55.403.807-10.397.15-20.798.578-31.135 1.718-.238.027-.241.402 0 .376l.965-.102c-1.421 6.649-4.276 12.848-7.402 18.855-3.153 6.068-6.412 12.072-9.429 18.207a428.637 428.637 0 0 0-16.51 38.07c-1.17 3.111-2.187 6.004-3.285 9.152H225.81c.947-6.18.144-44.337-.452-68.059Z" fill="#222C44"/><path d="M239.65 236.48a46.851 46.851 0 0 0-2.108-30.206 54.017 54.017 0 0 0-3.462-6.642c-1.509-2.536-3.017-5.14-3.421-8.112-.377-2.912.155-5.842.559-8.728.32-2.25.483-4.519.486-6.791-.023-8.698-2.478-17.475-7.278-24.765a37.414 37.414 0 0 0-21.828-15.61c-10.699-2.852-21.964-1.501-32.455 1.565-.212.06-.419.127-.63.191-8.467-2.626-17.755-2.574-26.127.492a41.555 41.555 0 0 0-15.882 10.632 41.288 41.288 0 0 0-9.408 16.587c-1.011 3.553-1.652 7.223-2.998 10.675-1.381 3.55-3.602 6.311-6.555 8.701-2.753 2.229-5.702 4.207-7.987 6.946a26.746 26.746 0 0 0-4.609 8.206c-2.353 6.589-2.398 13.677-1.199 20.499 1.358 7.722 3.93 16.157.547 23.744-2.915 6.529-10.261 9.088-14.029 14.946-3.767 5.857-3.228 13.133-2.078 19.635.29 1.618.626 3.227.977 4.837a.198.198 0 0 0 .097.106.199.199 0 0 0 .144.01c2.98-.919 6.057-1.838 9.206-1.778 1.719.02 3.411.425 4.951 1.185 1.316.657 2.516 1.501 3.772 2.252a12.901 12.901 0 0 0 7.919 1.876c2.995-.255 5.872-1.31 8.576-2.567 5.691-2.626 11.366-6.405 17.943-5.339 3.017.484 5.974 1.786 8.991 2.578l.087.037a5.348 5.348 0 0 0 1.81.375c1.689.324 3.427.291 5.102-.097a9.84 9.84 0 0 0 2.75-1.126c4.695-.259 9.33 1.28 13.742 2.758 5.197 1.741 10.337 3.216 15.869 3.223 5.593 0 10.782-1.467 16.009-3.302 5.065-1.782 10.514-3.846 15.975-2.893 4.88.852 8.64 4.878 13.61 5.295 3.889.33 7.833-1.876 9.7-5.253 2.38-4.308.698-9.28-.792-13.572-.867-2.492-1.772-5.017-2.036-7.655a22.065 22.065 0 0 1 .852-8.026c1.38-5.084 3.824-9.801 5.208-14.889Z" fill="#764038"/><path d="M265.981 426.784c-.352-9.486-.816-18.969-1.392-28.45-.494-7.943-1.162-15.894-2.606-23.725-1.422-7.689-3.617-15.291-7.184-22.281a60.753 60.753 0 0 0-13.697-17.561c-6.49-5.816-13.848-10.454-21.383-14.814-6.332 3.929-12.347 8.296-18.856 11.861 1.463 6.548 2.64 13.174 3.933 19.741a1106.426 1106.426 0 0 1 9.342 55.845 1106.697 1106.697 0 0 1 6.49 56.64c1.663 18.803 2.843 42.896 3.541 61.755.079 2.233.117 4.466.234 6.694.075 1.501.237 3.089.845 4.503 1.546 3.591 5.321 3.527 8.696 3.482l14.561-.187 7.165-.094c1.848-.023 3.771.09 5.6-.297 1.452-.311 2.768-1.058 3.443-2.424.755-1.5.702-3.302.777-4.93.227-4.803.423-9.608.589-14.416.335-9.614.554-24.48.66-34.101.196-19.079-.057-38.159-.758-57.241ZM124.797 312.914a10.624 10.624 0 0 0-1.938-2.77.076.076 0 0 0 0-.03v-.75a.204.204 0 0 0 0-.334v-.056a.188.188 0 0 0-.377 0v.146a1155.344 1155.344 0 0 0-31.249 12.698c-8.877 3.752-18.101 7.609-25.157 14.367-7.29 6.987-13.317 12.597-17.133 21.763-4.224 10.132-24.192 78.371-30.713 100.231-3.22 10.784-6.09 21.681-8.259 32.728-2.153 10.953-3.654 22.018-4.902 33.106-.638 5.655-1.207 11.317-1.765 16.983-.132 1.317-.268 2.627-.378 3.955-.067.75-.143 1.501.502 2.019.645.517 1.912.461 2.678.551 1.4.16 2.8.308 4.197.443a195.106 195.106 0 0 0 42.588-.664.206.206 0 0 0 .181-.139l5.054-26.15c.833-4.326 1.648-8.652 2.512-12.971.791-3.963 1.685-7.929 3.148-11.707 2.972-7.685 8.508-13.955 12.902-20.829 4.307-6.754 7.825-13.944 10.936-21.295 3.214-7.583 6.034-15.328 8.84-23.065 2.927-8.047 5.761-16.13 8.504-24.247 5.472-16.296 10.443-32.769 14.474-49.478a429.853 429.853 0 0 0 5.28-25.087c1.063-6.124 2.919-13.486.075-19.418Z" fill="#D16D60"/><path d="M75.285 332.245a153.338 153.338 0 0 0 1.237 21.291c1.23 8.311 2.719 16.585 3.956 24.896 1.603 10.795 3.017 21.572 3.443 32.48.347 8.63.287 17.26.226 25.891-.105 14.78-.06 29.507 1.618 44.19 1.018 6.492 2.414 12.938 4.624 19.137a49.909 49.909 0 0 0 2.534 4.476c.411.435.83.859 1.263 1.276.656.393 1.326.768 2.01 1.126a71.654 71.654 0 0 0 10.394 2.563c15.141 1.5 30.524.337 45.601-1.558 9.96-1.411 20.143-3.23 29.597-6.649a54.269 54.269 0 0 0 5.51-3.129 52.675 52.675 0 0 0 3.13-3.122 57.718 57.718 0 0 0 3.583-6.281c3.997-10.623 6.497-21.737 8.194-32.949 1.038-8.702 1.682-17.444 2.139-26.195.777-14.833-.125-29.643.332-44.487.584-18.926 3.175-39.11 13.452-55.533a30.258 30.258 0 0 1 6.222-7.194c-1.508-.986-3.017-1.958-4.525-2.938a44.44 44.44 0 0 0-2.214-1.324c-4.526-2.57-13.316-7.096-21.247-11.325-7.709-4.127-14.606-7.939-15.975-9.422a1.215 1.215 0 0 1-.211-.292c-.943-2.064-3.251-6.225-3.937-7.505-.506-.942-1.03-1.932-1.841-2.656-2.002-1.79-4.148-.045-6.034.968a29.526 29.526 0 0 1-8.123 2.893 30.992 30.992 0 0 1-17.178-1.452c-.181-.068-.354-.143-.532-.218a.18.18 0 0 0-.117-.049c-.026 0-.26-5.369-1.448-5.369-.399 0-.909.611-1.557 2.251a33.66 33.66 0 0 0-.905 2.69c-3.64 12.248-15.342 17.711-27.459 22.548-4.284 1.707-8.621 3.339-12.675 5.167l-2.459 1.125c-1.003.458-2.002.916-3.016 1.381l-1.113.522-2.218 1.054-1.104.537-.355.172-1.833.912a148.249 148.249 0 0 0-6.087 3.242l-.754.439c-.503.288-1.005.581-1.508.878l-.683.413-.63.375c-.35.214-.697.432-1.044.649l-.543.349c.185 1.244.272 2.499.26 3.756ZM218.32 165.854c-2.014-4.228-5.28-6.168-9.692-7.245-11.159-2.721-21.157.987-30.924 6.232-9.3 4.995-17.619 10.991-24.215 19.294a66.955 66.955 0 0 0-13.098 27.583c-1.074 5.074-1.81 10.758 1.132 15.385.694 1.088 2.817 19.294 9.428 25.936 27.22 27.297 34.518 25.421 44.417 23.399 3.677-.751 12.645-7.291 17.506-19.336 6.294-15.587 9.903-33.969 10.152-40.948.068-1.877.396-6.466.513-12.33a166.04 166.04 0 0 0 0-7.025c-.151-10.427-1.282-22.652-5.219-30.945Z" fill="#F79C6D"/><path d="M156.159 218.27a9.433 9.433 0 0 0 1.131-4.458c.057-1.823.053-4.945-1.614-5.628-1.508-.615-3.967-.109-5.148 1.212-.916 1.028-1.47 2.653-1.746 4.311-.426-.052-5.517 38.086-7.418 55.219-.63 5.692-1.282 11.392-1.885 17.103-1.332 12.904-2.365 25.872-2.165 38.978 0 .398.302.619.562.548a14.91 14.91 0 0 0 2.214-.825c2.319 5.519 6.901 16.273 6.991 16.296l32.501-9.092c.109.026-1.218-4.127-1.207-4.293.577-7.846 1.75-18.652 3.123-30.187.535-4.502 1.105-9.106 1.678-13.692l.056-.446c.295-2.332.587-4.646.879-6.942l.192-1.501c2.561-20.097 4.963-38.018 5.125-41.939.257-6.21-21.726-11.508-33.269-14.664Z" fill="#F79C6D"/><path d="M180.9 216.135c.086-3.595-1.235-6.541-2.951-6.582-1.716-.041-3.176 2.841-3.262 6.435-.086 3.594 1.235 6.541 2.951 6.582 1.716.04 3.176-2.841 3.262-6.435ZM216.291 215.422c-.087 3.595-1.546 6.476-3.262 6.435-1.716-.041-3.04-3.002-2.953-6.581.087-3.58 1.546-6.477 3.262-6.435 1.716.041 3.055 2.994 2.953 6.581Z" fill="#222C44"/><path d="M234.872 330.591a29.915 29.915 0 0 0-.815-.781l-.056-.052a19.55 19.55 0 0 0-.834-.751c-.283-.24-.479-.42-.72-.626-.132-.113-.26-.222-.377-.327-.223-.187-.445-.375-.671-.551a54.483 54.483 0 0 0-.857-.68l-.656-.499c-3.224-2.435-6.69-4.589-10.042-6.784a44.44 44.44 0 0 0-2.214-1.324c-4.526-2.571-13.316-7.096-21.247-11.325-.068 6.12-1.188 12.068-2.685 17.947-1.833 7.201-3.67 14.657-6.63 21.096-2.904 6.307-6.664 12.24-10.48 18.011a89.028 89.028 0 0 0-5.035 8.472c-1.365 2.657-2.749 5.254-4.59 7.632a.93.93 0 0 1-1.312 0c-5.065-5.433-10.537-10.457-15.99-15.496-8.538-7.88-16.872-16.135-24.456-24.964a97.599 97.599 0 0 1-4.952-6.274c-.377-.375-.754-.792-1.131-1.205-5.114-5.658-8.297-13.264-8.052-20.847-4.284 1.707-8.621 3.339-12.675 5.167l-2.459 1.125c-1.003.458-2.002.916-3.017 1.381l-1.112.522-2.218 1.054-1.105.537-.354.172-1.833.912a148.31 148.31 0 0 0-6.087 3.242l-.754.439c-.503.288-1.006.58-1.509.878l-.682.413-.63.375c-.35.214-.698.432-1.045.649-7.308 4.612-14.281 10.338-18.558 17.955-4.74 8.442-5.174 18.356-4.167 27.767 1.131 10.416 3.71 20.637 6.185 30.768.592 2.439 1.399 5.254 2.364 8.477 1.226 12.585 1.848 25.226 2.316 37.86.535 14.634.864 29.268 1.648 43.872.377 7.32.905 14.634 1.614 21.936.355 3.612.76 7.219 1.218 10.821.415 3.25.754 6.552 1.475 9.756.584 2.627 1.572 5.362 3.654 7.212 2.082 1.85 4.74 2.446 7.414 2.398 2.945-.057 5.834-.818 8.644-1.644l3.115-.919c.328.634 1.818.187 2.64.105 1.406-.146 26.602-2.668 37.591-4.015 10.869-1.336 21.775-2.976 32.742-3.223 10.597-.24 21.119 1.234 31.614 2.386 11.533 1.265 23.276 2.087 34.696-.424a.19.19 0 0 0 .098-.067.191.191 0 0 0 .037-.113c2.263-24.697 4.526-49.402 6.589-74.122 1.029-12.297 2.013-28.349 2.937-40.653.894-11.909 1.909-23.838 2.452-35.774.24-4.354.204-8.719-.11-13.069.769-4.79 1.224-9.624 1.362-14.472.188-10.923-2.24-22.39-10.288-30.356Z" fill="#D16D60"/><path d="M206.912 227.362a122.89 122.89 0 0 0-5.106-14.026c-.098-.222-.457-.102-.377.12a128.194 128.194 0 0 1 3.13 7.943c.984 2.773 2.112 5.666 2.583 8.574.471 2.908-.43 5.708-3.371 6.886a21.294 21.294 0 0 1-8.674 1.501c-.242 0-.219.375.022.375 3.16.148 6.31-.434 9.206-1.7 2.198-1.013 3.319-3.002 3.349-5.384a14.732 14.732 0 0 0-.762-4.289Z" fill="#D56C4E"/><path d="M203.224 249.14c.041-.098-7.354.638-10.828.979l-.822.075c-.98.683-2.074.923-3.318 1.04a11.931 11.931 0 0 1-6.634-1.437l.219.33c.002.02.009.04.02.058a.14.14 0 0 0 .044.043c1.131 1.715 2.432 3.403 4.412 4.503 2.044 1.148 4.571 1.606 7.06 1.557a29.329 29.329 0 0 0 5.197-.781c2.926-.664 4.118-5.114 4.65-6.367Z" fill="#fff"/><path d="M225.108 181.49a137.397 137.397 0 0 0-3.085-14.311c-1.131-4.019-2.775-8.319-6.034-11.122-3.179-2.739-7.648-3.351-11.691-3.489-4.877-.164-9.741.6-14.33 2.251a38.077 38.077 0 0 1-.143-.555c-.046-.181-.419-.117-.378.116l.147.566-.218.087c-1.049-.087-2.093-.244-3.059-.323-3.051-.255-5.785.619-8.674 1.527-5.984 1.876-12 4.034-17.208 7.606-4.902 3.351-8.907 7.797-12.445 12.499-3.613 4.777-6.988 9.816-9.669 15.178-2.587 5.178-4.484 10.761-4.903 16.559-.049.694-.267 1.876.607 2.18.487.161 1.049-.109 1.509-.259l2.681-.874 10.02-3.257c2.938-.957 6.227-1.681 8.761-3.528 1.946-1.414 3.322-3.425 4.405-5.538 1.173-2.289 2.048-4.713 3.145-7.039a29.685 29.685 0 0 1 4.816-7.242 29.494 29.494 0 0 1 6.788-5.576c2.504-1.501 5.238-2.627 7.542-4.394 4.198-3.219 5.706-8.341 6.008-13.411.068-1.185.075-2.367.042-3.553.912 3.407 2.07 6.81 4.397 9.531 2.327 2.72 5.585 4.6 8.824 6.172 3.432 1.674 7.007 3.104 10.145 5.314a17.972 17.972 0 0 1 4.099 3.853 16.454 16.454 0 0 1 2.553 5.587c1.056 3.775 1.848 8.135 5.48 10.357a.2.2 0 0 0 .083.021c.03 0 .058-.006.085-.018a.205.205 0 0 0 .067-.053.194.194 0 0 0 .037-.078c.761-4.915.403-9.891-.404-14.784Zm-30.588-27.605c-1.181.998-2.64 1.234-4.183 1.2a38.681 38.681 0 0 1 4.183-1.2Z" fill="#764038"/><path d="M188.21 199.689c-1.478-2.327-4.314-2.421-6.471-2.867-.041 0-7.784-.281-11.57.116-2.236.203-4.412.83-6.411 1.846a13.73 13.73 0 0 0-2.666 1.813c-.608.529-1.615 1.261-1.716 2.206-.238 2.165 2.47 2 3.628 1.91 2.741-.21 5.472-.567 8.213-.814 2.742-.248 13.132.96 15.345.131 1.648-.615 2.757-2.596 1.648-4.341ZM222.804 196.736c-3.798-.263-11.521.277-11.566.289-2.139.521-4.975.716-6.366 3.088-1.049 1.782.132 3.73 1.784 4.285 2.262.75 12.599-.822 15.337-.668.509.026 1.026.056 1.539.094.041-2.192.056-4.559 0-7.024a11.983 11.983 0 0 0-.728-.064ZM149.461 279.124a15.485 15.485 0 0 0-.818-3.88c-.962-2.675-2.587-5.058-3.575-7.726a26.664 26.664 0 0 1-1.648-8.442c-.095-3.058.562-5.963.999-8.968a26.292 26.292 0 0 0-.087-8.067c-.882-5.378-3.198-10.417-5.936-15.092-2.127-3.629-4.978-7.129-6.75-11.032l.041-.041c.144-.146-.03-.342-.192-.3a18.514 18.514 0 0 1-1.131-3.434 12.03 12.03 0 0 1-.155-4.502c.038-.237-.328-.319-.377-.079-.456 2.897.23 5.628 1.399 8.225-1.663 1.73-3.338 3.508-4.488 5.628-1.259 2.319-1.508 4.833-1.576 7.422-.189 6.064-1.184 12.071-1.335 18.135-.147 5.929.814 11.793 2.263 17.531a189.132 189.132 0 0 0 2.492 8.709c.411 1.332.755 2.705 1.275 4.003.332.845 3.349 2.961 8.576 3.576 2.462.293 4.288 2.709 6.66 3.449 1.557.484 3.669.131 4.276-1.58.393-1.069.189-2.413.087-3.535Z" fill="#764038"/><path d="M150.332 227.197c-.271-1.764-.735-3.494-1.161-5.224-.377-1.602-.724-3.253-1.365-4.784a6.786 6.786 0 0 0-2.207-3.002c-.554-.394 1.709-2.589 1.068-2.769-1.403-1.91-4.978-3.377-7.26-3.752-2.919-.462-5.657 1.171-7.06 3.167-1.553 2.251-1.859 5.276-1.799 7.936.068 2.672.627 5.31 1.648 7.782a22.38 22.38 0 0 0 4.149 6.552c1.674 1.838 3.907 3.842 6.354 4.551 2.387.698 4.722-.48 6.166-2.379 1.758-2.307 1.908-5.279 1.467-8.078Z" fill="#F79C6D"/><path d="M145.965 223.966c-2.119 1.039-3.183-1.681-3.507-3.223-.283-1.347-.543-2.694-1.162-3.936-1.033-2.079-3.307-3.753-5.698-2.875-.226.083-.109.439.121.376 1.697-.62 3.499.206 4.559 1.579 1.015 1.314 1.414 2.965 1.735 4.556.249 1.219.502 2.6 1.508 3.448a2.398 2.398 0 0 0 2.64.409c.23-.124.019-.439-.196-.334ZM147.191 233.197c-.027-.241-.4-.218-.377.022a4.175 4.175 0 0 1-.481 2.403 4.206 4.206 0 0 1-1.748 1.725c-.215.116 0 .427.207.315a4.555 4.555 0 0 0 2.399-4.465ZM203.231 249.009c-.833-1.445-1.335-2.871-3.326-2.563-1.539.236-2.663 1.429-3.798 2.428a1.38 1.38 0 0 0-.482-1.438c-1-.844-2.64-.637-3.772-.296-1.531.454-2.858 1.343-4.295 2.004a7.954 7.954 0 0 1-5.781.457.235.235 0 0 0-.133.044.227.227 0 0 0-.007.365c3.27 2.252 7.807 2.252 11.691 2.293 4.759.056 8.21-.428 9.805-2.867.106-.184.185-.277.098-.427Z" fill="#D56C4E"/><path d="M234.438 403.7c-.517-11.039-5.604-21.283-10.491-30.979-.11-.218-.438-.026-.329.188 4.503 8.926 9.131 18.228 10.247 28.288a37.824 37.824 0 0 1-1.395 14.848c-1.381 4.75-3.293 9.332-4.496 14.138-2.451 9.786-2.576 19.948-2.692 29.977-.124 10.724-.249 21.45-.378 32.176l-.418 36.292a.188.188 0 0 0 .377 0l.754-65.102c.121-10.405 0-20.953 2.233-31.178 1.082-4.986 2.945-9.71 4.48-14.562 1.459-4.593 2.334-9.253 2.108-14.086ZM186.189 506.224a104.902 104.902 0 0 1-28.62-14.961 134.141 134.141 0 0 1-23.634-22.405 172.266 172.266 0 0 1-18.947-28.176c-6.034-11.118-11.091-22.75-15.56-34.577-4.469-11.827-8.39-23.864-12.241-35.913-.468-1.471-.937-2.94-1.407-4.409-.071-.232-.437-.131-.377.098 3.873 12.157 7.754 24.322 12.151 36.307 4.344 11.85 9.194 23.538 15.006 34.757 5.325 10.27 11.46 20.12 18.664 29.193a138.393 138.393 0 0 0 23.177 23.212 107.829 107.829 0 0 0 27.794 15.857c1.283.5 2.575.96 3.877 1.38.245.057.347-.303.117-.363ZM172.79 516.208c-12.656-4.379-23.566-12.36-33.719-20.874-2.896-2.431-5.747-4.915-8.594-7.403-.181-.157-.449.105-.264.267 10.077 8.802 20.319 17.725 32.27 23.954a75.196 75.196 0 0 0 10.205 4.42c.23.079.336-.285.102-.364ZM77.932 448.555a195.068 195.068 0 0 1-4.868 19.05c-.072.233.29.33.377.102a194.886 194.886 0 0 0 4.872-19.055c.03-.236-.324-.334-.38-.097ZM192.087 401.283a69.543 69.543 0 0 1-25.712-20.491c-.147-.191-.475 0-.324.188a69.922 69.922 0 0 0 25.844 20.637c.219.094.411-.229.192-.334Z" fill="#222C44"/><path d="M225.357 555.941v-.375c-14.255-.165-28.51-.131-42.766.101-2.323.043-4.645.088-6.965.135.019-1.08.045-2.161.056-3.238.061-5.083.047-10.165-.041-15.245a.188.188 0 0 0-.377 0c.1 6.161.1 12.323 0 18.487-17.398.37-34.782 1.04-52.152 2.008-11.09.62-22.173 1.359-33.247 2.217-.242 0-.253.375 0 .375a1532.832 1532.832 0 0 1 59.426-3.452c8.654-.33 17.313-.58 25.977-.75-.038 2.139-.09 4.278-.155 6.416-.26 8.492-.63 17.009-1.441 25.471-.32 3.332-.543 8.255-4.205 9.756-.222.09-.124.454.099.375 2.639-1.081 3.624-3.914 4.061-6.518.686-4.056.834-8.255 1.09-12.349.478-7.707.784-15.42.92-23.14 11.062-.232 22.125-.346 33.187-.341 5.496-.02 11.007.002 16.533.067Z" fill="#495A7F"/><path d="M186.453 616.574c-2.263-2.84-4.439-5.805-7.203-8.187-1.369-1.175-2.802-2.282-4.254-3.377-.46-.391-.921-.78-1.384-1.167-4.178-3.482-8.421-6.89-12.66-10.297-8.47-6.814-32.67-22.753-33.526-21.879a66.232 66.232 0 0 0-2.953 3.227c-3.315 3.872-6.219 8.067-9.051 12.292-.188-.127-.445.128-.256.274l.049.038c-.362.533-.721 1.068-1.075 1.606-.136.199.188.375.324.187l1.049-1.564c3.115 2.424 6.305 4.975 8.319 8.42 2.104 3.602 2.165 8.03 5.2 11.118 2.78 2.825 6.668 4.39 10.021 6.416a121.125 121.125 0 0 1 11.573 8.056c.911.706 1.811 1.42 2.701 2.143l.105-.098.162.162 16.096-.045a89.71 89.71 0 0 0-6.249-8.143l.347-.255c.536.48 1.082.953 1.644 1.403a38.359 38.359 0 0 0 3.794 2.548c1.965 1.22 3.477 2.784 4.955 4.435l17.884-.048a254.591 254.591 0 0 0-5.612-7.265Z" fill="#F79C6D"/><path d="M138.592 571.419c-1.131-.112-10.14-6.544-12.196-7.681a244.384 244.384 0 0 1-12.626-7.504c-8.198-5.182-16.152-10.735-24.105-16.278l-12.77-8.892c-3.888-2.706-7.946-5.28-11.596-8.3-3.229-2.668-6.076-5.937-7.064-10.094-1.037-4.379 10.899-25.763 15.145-32.348a33.201 33.201 0 0 1-.12-1.723 22.28 22.28 0 0 1 .317-4.754c-5.186-1.621-10.428-3.054-15.677-4.461-8.327-2.229-16.657-4.453-24.989-6.672l-8.504-2.274a30.028 30.028 0 0 1-3.858 2.293 611.37 611.37 0 0 1-1.444 4.589c-1.49 4.66-3.017 9.309-4.563 13.955-3.017 9.17-6.034 18.356-8.508 27.684-2.455 9.201-4.416 18.555-5.382 28.033-.513 4.593-.719 9.215-.614 13.835.135 4.079.686 8.217 2.285 12.007 3.153 7.467 10.27 11.43 17.789 13.527 8.602 2.405 17.887 2.514 26.044 6.431 7.312 3.516 12.332 11.148 20.463 13.051 4.668 1.092 9.496.176 14.168-.435 4.673-.612 9.175-.683 13.742.397a33.484 33.484 0 0 1 11.733 5.321c.905.649 1.757 1.355 2.602 2.079.656.563 1.361 1.171 2.214 1.399 1.697.454 2.915-.874 3.854-2.078 6.411-8.207 12.758-16.492 19.131-24.739 1.561-2.026 3.125-4.051 4.692-6.075.098-.135-.049-.281-.163-.293Z" fill="#D16D60"/><path d="M182.384 620.551a26.55 26.55 0 0 0-3.926-3.977c-1.361-1.126-2.942-2-4.118-3.317-1.132-1.261-1.399-2.964-2.504-4.236a6.469 6.469 0 0 0-3.753-2.113c-.237-.045-.339.315-.101.375a6.118 6.118 0 0 1 4.148 2.758c.419.676.634 1.452 1.003 2.154.355.656.815 1.25 1.361 1.76 1.173 1.126 2.588 1.97 3.84 3.002a26.253 26.253 0 0 1 3.797 3.876c.14.172.404-.094.253-.282ZM159.493 621.238a8.476 8.476 0 0 0-1.891-3.136 8.53 8.53 0 0 0-3.042-2.053c-.227-.09-.325.274-.102.375a8.109 8.109 0 0 1 2.881 1.952 8.071 8.071 0 0 1 1.792 2.975c.075.214.441.116.362-.113Z" fill="#D56C4E"/><path d="M36.97 529.758a171.007 171.007 0 0 0-20.12 13.711c-.193.15.08.412.264.266a170.428 170.428 0 0 1 20.044-13.654.19.19 0 0 0 .073-.114.184.184 0 0 0-.021-.132.185.185 0 0 0-.105-.085.191.191 0 0 0-.136.008Z" fill="#222C44"/><path d="M198.476 556.178c-.049-.237-.415-.139-.377.097a98.33 98.33 0 0 1 1.802 25.891c0 .24.377.24.377 0a98.892 98.892 0 0 0-1.802-25.988ZM209.771 561.423c-.095-.221-.419-.03-.325.188a45.679 45.679 0 0 1 3.556 14.165c.023.24.4.243.378 0a46.271 46.271 0 0 0-3.609-14.353ZM135.489 559.588l-1.056 6.207c-.042.236.324.337.377.097.354-2.066.706-4.134 1.056-6.202.026-.237-.336-.338-.377-.102Z" fill="#495A7F"/><path d="M139.954 182.402c-3.394 5.508-6.509 11.362-7.241 17.879-.026.241.351.241.377 0 .724-6.446 3.832-12.243 7.188-17.692.128-.187-.2-.378-.324-.187ZM183.519 144.879c-.185-.15-.452.113-.264.267 3.289 2.656 6.238 6.176 6.087 10.63 0 .24.377.24.377 0 .155-4.544-2.832-8.176-6.2-10.897ZM219.945 165.303c-.158-.18-.426.086-.264.266a20.048 20.048 0 0 1 4.944 11.58c.019.24.396.24.377 0a20.434 20.434 0 0 0-5.057-11.846ZM228.596 220.758c-.056-.237-.418-.135-.377.101a25.199 25.199 0 0 1-.558 13.775c-.075.228.291.33.377.101a25.602 25.602 0 0 0 .558-13.977ZM125.069 189.404a22.345 22.345 0 0 0-1.927 15.819c.056.233.422.135.377-.101a21.97 21.97 0 0 1 1.885-15.531c.102-.214-.222-.405-.335-.187ZM111.198 277.158c-4.178-3.808-4.148-9.756-3.394-14.919.034-.236-.328-.341-.377-.101-.781 5.291-.807 11.384 3.473 15.287.212.165.479-.09.298-.267ZM118.36 276.085a10.048 10.048 0 0 1-3.564-2.828 9.982 9.982 0 0 1-1.942-4.102c-.053-.233-.415-.135-.377.101a10.338 10.338 0 0 0 2.007 4.232 10.42 10.42 0 0 0 3.672 2.924c.23.101.423-.203.204-.327Z" fill="#222C44"/><path d="M151.592 315.011c-3.67-4.54-10.017-3.823-15.145-3.032-.238.034-.136.398.101.376 4.997-.773 11.193-1.501 14.776 2.938.151.172.419-.094.268-.282ZM176.482 310.103a21.186 21.186 0 0 0-12.268 4.934c-.185.158.083.421.268.267a20.715 20.715 0 0 1 12-4.826c.241-.015.245-.39 0-.375ZM168.638 266.828a.194.194 0 0 0-.31.001.19.19 0 0 0-.037.112c.05 1.346.304 2.677.754 3.947.317.882.679 1.756 1.509 2.252 1.131.641 1.829 1.125 2.353 2.352.377.901.611 1.876.95 2.781.637 1.722 1.69 2.878 3.583 3.148 1.131.165 2.428.037 3.499.548.868.416 1.351 1.467 2.237 1.816l.056-.447c.295-2.331.587-4.645.879-6.941a26.9 26.9 0 0 1-15.473-9.569Z" fill="#D56C4E"/><path d="M142.775 232.855c-.672-.972-2.263-1.103-2.987-.112-.788 1.069-.419 3.121.947 3.519h.037c.381.119.793.091 1.154-.079 1.233-.551 1.592-2.255.849-3.328ZM143.058 241.204c-.672-.972-2.263-1.103-2.987-.113-.788 1.07-.419 3.122.946 3.52h.038c.381.119.793.091 1.154-.079 1.233-.551 1.592-2.255.849-3.328ZM143.714 251.47c.079-1.625 0-4.371-1.908-4.469-2.075-.105-2.791 2.184-2.863 3.899-1.772 1.426-3.085 4.003-2.64 6.288.445 2.286 2.863 3.554 5.027 3.554 4.944-.004 6.464-7.092 2.384-9.272Z" fill="#fff"/><path d="M412.84 510.505c4.966-4.942 12.034-8.229 19.105-9.006 3.771-2.784 12.995-8.288 13.55-9.722 5.656-14.634 17.796-54.209 25.38-79.976a233.975 233.975 0 0 1-17.642-1.125c-10.295-1.081-21.119-2.184-31.026-5.498-.377-.127-.754-.262-1.154-.397-.719 3.73-1.425 7.462-2.119 11.197-3.771 20.168-7.422 40.352-11.129 60.528l-6.302 34.303a.191.191 0 0 0 .106.202 63.025 63.025 0 0 0 7.81 3.423 24.515 24.515 0 0 1 3.421-3.929Z" fill="#F79C6D"/><path d="M530.276 295.747c-.336-10.3-3.017-20.39-6.766-29.954a143.758 143.758 0 0 0-6.174-13.768c-2.221-4.296-4.849-8.405-8.368-11.77-7.048-6.755-16.499-10.507-25.18-14.687l-6.227-2.979c-.23-2.252-.675-4.503-1.131-6.728-.045-.236-.411-.139-.377.098.43 2.135.863 4.277 1.097 6.438l-.792-.375c-.218-.105-.411.222-.192.327l1.026.487c.053.567.098 1.126.117 1.7a23.998 23.998 0 0 1-1.132 7.985c-1.327 4.371-3.247 8.728-2.466 13.396.754 4.502 3.42 8.401 4.371 12.848 1.01 4.712-.754 9.219-2.014 13.695-1.101 3.936-1.686 8.053.407 11.779 1.984 3.527 5.593 6.116 6.788 10.09 1.543 5.133-1.742 10.063-2.704 14.971-.377 1.876.042 3.377 1.441 4.672 1.531 1.426 3.315 2.386 4.356 4.281 2.048 3.752 1.301 8.379 1.686 12.454.135 1.456.199 3.827 1.968 4.255.773.188 1.58-.083 2.263-.401a28.49 28.49 0 0 0 3.266-1.877c4.027-2.555 7.708-5.594 11.566-8.393a64.303 64.303 0 0 1 6.083-3.997 64.072 64.072 0 0 1 6.015-2.855c3.771-1.632 7.644-3.569 9.428-7.478.894-1.978 1.218-4.154 1.418-6.297.242-2.632.317-5.276.227-7.917Z" fill="#222C44"/><path d="M704.702 413.542c-.404-4.713-5.823-18.12-7.81-22.138-4.084-8.225-8.365-9.985-8.459-19.381-.045-4.36.437-8.814-.524-13.133-.841-3.752-2.953-6.754-5.865-9.219-2.76-2.33-5.917-4.128-8.771-6.345-3.323-2.563-5.861-5.666-7-9.756-1.169-4.218-1.018-8.664-1.131-12.994-.125-4.15-.543-8.255-2.157-12.113a25.858 25.858 0 0 0-6.788-9.474c-3.221-2.818-7.226-4.484-10.583-7.129a16.278 16.278 0 0 1-1.749-1.591 14.391 14.391 0 0 0-1.373-3.028 16.089 16.089 0 0 0-2.455-3.096c-1.837-4.375-2.704-9.291-4.65-13.655a20.902 20.902 0 0 0-7.331-8.735c-3.417-2.368-7.286-3.974-11.08-5.628-5.714-2.496-11.74-5.689-14.855-10.934a8.9 8.9 0 0 1 .128-.698c.377-1.741 1.03-3.404 1.26-5.182a17.4 17.4 0 0 0-.619-7.25 17.448 17.448 0 0 0-3.53-6.371c-2.127-2.503-4.77-4.578-6.614-7.321-2.482-3.688-2.184-7.917-1.599-12.101a26.825 26.825 0 0 0 3.941-13.737c.037-7.565-3.47-14.964-9.149-19.955a26.418 26.418 0 0 0-4.439-3.151c-1.773-.999-3.677-1.843-5.219-3.194-3.621-3.17-2.501-7.879-2.135-12.071.317-3.643-.415-7.069-2.485-10.131a20.667 20.667 0 0 0-7.988-6.78c-7.451-3.689-15.903-2.773-23.887-1.088-3.13-2.627-6.584-4.841-10.468-6.225-5.095-1.813-10.56-1.993-15.444-.166a28.905 28.905 0 0 0-14.511 6.578c-3.296 2.822-5.393 7.156-9.756 8.507-1.969.607-4.002.949-5.951 1.643a31.698 31.698 0 0 0-5.054 2.308c-6.441 3.651-11.898 9.662-14.247 16.727-1.2 3.614-1.566 7.719.026 11.28.871 1.947 2.734 3.696 1.339 5.891-1.075 1.685-3.017 2.701-4.462 4.034a21.773 21.773 0 0 0-6.411 10.956c-.46 1.959-.822 4.39.46 6.131.39.566.944 1 1.588 1.245a3.418 3.418 0 0 0 2.018.125c-1.705 4.529-3.293 10.945 1.915 13.808 4.318 2.372 9.496.541 12.823-2.626a29.795 29.795 0 0 0 4.465-5.895c.03.405.068.81.117 1.216.026.24.403.24.377 0a35.478 35.478 0 0 1-.159-1.768c.297-.487.591-.975.883-1.463a.187.187 0 0 0-.209-.275.186.186 0 0 0-.115.084l-.593.99c-.418-9.287 2.889-18.589 8.821-25.763a36.574 36.574 0 0 1 11.514-9.317c4.525-2.296 9.428-3.583 14.168-5.343 2.927-1.092 5.804-2.39 8.327-4.169a49.884 49.884 0 0 1 15.462 20.383 48.623 48.623 0 0 1 3.56 17.358c.166 7.091-.709 14.232.419 21.282a37.396 37.396 0 0 0 8.632 18.435c0 8.053.309 16.101 1.395 24.086a98.213 98.213 0 0 0 7.728 27.137c5.657 12.592 13.576 23.954 21.771 35.057a98.095 98.095 0 0 1 .053 19.377c-.962 9.46-3.236 18.761-6.068 27.808-4.563 14.615-12.686 25.763-19.026 48.123-2.881 10.169-4.872 16.116-5.053 26.701a.182.182 0 0 0 .074.148c.023.018.049.03.078.035a.175.175 0 0 0 .085-.003c6.362-.923 12.853-5.857 19.279-5.11a30.558 30.558 0 0 1 9.496 2.6c2.64 1.25 5.057 2.946 7.485 4.567 2.32 1.549 4.703 3.073 7.339 4.045a18.778 18.778 0 0 0 8.297.983c5.887-.567 32.432-2.135 35.34-1.126 2.798.961 5.657 1.831 8.617 2.079a24.386 24.386 0 0 0 7.969-.773c5.449-1.377 10.45-4.026 15.726-5.903a32.573 32.573 0 0 1 8.214-1.939c2.971-.244 5.849.303 8.772.75 2.639.413 5.487.75 8.059-.188 2.572-.938 4.227-3.088 5.347-5.482 1.509-3.249 2.093-2.251 2.176-5.797.238-.206.445-.445.615-.709-.184 1.176-.38 2.349-.588 3.52-.042.236.32.337.377.101 1.682-9.448 2.643-19.099 1.825-28.679Z" fill="#222C44"/><path d="M475.099 210.071c0 6.983.641 26.81 4.525 43.151 3.127 13.186 11.638 20.638 20.259 21.598 10.028 1.126 22.628.995 50.946-23.928 7.041-6.202 4.601-25.89 5.332-26.949 3.115-4.502 2.587-10.21 1.697-15.316a66.893 66.893 0 0 0-12.068-28.037c-6.29-8.541-14.387-14.833-23.494-20.161-9.583-5.599-19.437-9.663-30.691-7.351-4.461.915-7.139 3.14-9.948 6.897-2.335 3.118-3.93 11.444-4.963 20.866a217.024 217.024 0 0 0-.754 8.401c-.604 7.696-.841 15.321-.841 20.829Z" fill="#F79C6D"/><path d="M561.271 303.976c-.264-17.231-6.762-93.62-7.184-93.605-.113-1.677-.498-3.343-1.294-4.45-1.025-1.418-3.367-2.142-4.902-1.666-1.682.526-1.973 3.632-2.089 5.452a9.698 9.698 0 0 0 .671 4.541c-11.502 2.123-33.338 5.425-33.658 11.632-.208 3.917.475 21.98 1.105 42.216.06 1.974.119 3.964.177 5.97.026.848.049 1.696.075 2.548l.166 5.914c.377 14.634.66 28.934.457 38.648 0 .158-1.682 4.184-1.569 4.169l30.72 11.951c.091 0 5.533-10.311 8.297-15.602.663.393 1.356.733 2.074 1.017.249.097.558-.098.6-.492 2.04-18.799 6.629.409 6.354-18.243Z" fill="#F79C6D"/><path d="M516.982 207.962c-.045 3.595 1.308 6.526 3.017 6.548 1.708.023 3.145-2.874 3.19-6.469.046-3.594-1.308-6.529-3.017-6.548-1.708-.018-3.145 2.875-3.19 6.469ZM485.532 205.31c.036-3.595-1.326-6.524-3.042-6.541-1.716-.017-3.137 2.884-3.173 6.48-.036 3.595 1.326 6.524 3.042 6.541 1.716.017 3.137-2.884 3.173-6.48Z" fill="#222C44"/><path d="M493.664 254.07a9.067 9.067 0 0 0 6.513.184c.23-.078.377.263.155.342a9.471 9.471 0 0 1-6.788-.177.184.184 0 0 1-.086-.224.18.18 0 0 1 .081-.099.189.189 0 0 1 .125-.026Z" fill="#D56C4E"/><path d="M508.844 241.148c.052-.124-.166-.162-.276-.113-1.61.679-3.394.751-5.129.904-1.734.154-3.45.274-5.174.312a14.921 14.921 0 0 1-5.019-.751 17.89 17.89 0 0 0-4.039-.99c-.053-.21-.377-.113-.358.116.354 2.304 1.259 5.107 3.081 6.698 1.644 1.433 4.205 1.876 6.32 1.703a10.093 10.093 0 0 0 5.932-2.559c1.041-.945 3.915-3.591 4.662-5.32Z" fill="#fff"/><path d="M508.38 241.05c-1.72.544-3.515.878-4.963-.506-1.203-1.149-2.169-2.556-3.5-3.576-.962-.751-2.244-1.28-3.473-.938a2.429 2.429 0 0 0-1.822 2.273.271.271 0 0 0 0 .057c-.807-.972-1.75-2.072-3.039-2.327-2.927-.585-3.259 3.122-2.587 5.073a.746.746 0 0 0 .196.338c2.496 2.334 6.034 2.934 9.379 2.777 1.979-.125 3.94-.45 5.853-.972 1.508-.375 2.998-.822 4.148-1.876.064-.023.294-.252.185-.375-.11-.124-.366.041-.377.052ZM503.507 227.054c-2.639.751-5.815.814-8.327-.476-2.922-1.501-2.9-4.533-2.172-7.34a76.783 76.783 0 0 1 6.227-15.966c.109-.214-.215-.405-.325-.191a81.707 81.707 0 0 0-4.001 8.983c-1.079 2.896-2.293 6.003-2.674 9.088-.313 2.551.604 4.765 3.017 5.887 2.568 1.205 5.68 1.156 8.365.375a.188.188 0 1 0-.11-.36Z" fill="#D56C4E"/><path d="M512.966 155.172c-1.109-4.015-6.789-4.409-10.183-4.86-8.146-1.088-17.51.057-23.151 6.664-3.179 3.719-4.597 8.788-5.314 13.509a40.68 40.68 0 0 0-.441 7.478 38.59 38.59 0 0 0 .29 3.61c.215-.037.431-.061.649-.072.377-1.043.754-2.082 1.195-3.099 1.686-3.921 3.836-8.135 6.883-11.193 1.659-1.67 3.669-2.732 6.068-2.743 2.063 0 4.129.548 6.192.206 2.063-.341 3.451-1.789 5.087-2.956 2.033-1.453 4.239-1.415 6.638-1.483 2.794-.06 7.097-1.41 6.087-5.061ZM602.189 148.632c-1.267-.999-2.889-1.1-4.45-1.014 3.518-1.876 5.378-6.514 3.665-10.221-1.248-2.705-4.148-4.304-7.044-4.405a9.257 9.257 0 0 0-3.584-4.91 9.33 9.33 0 0 0-5.871-1.645 10.208 10.208 0 0 0-6.309 2.791c.121-2.446-1.342-4.682-3.451-5.924-2.481-1.467-5.622-1.715-8.432-1.355-5.152.657-9.888 3.591-12.988 7.7a18.066 18.066 0 0 0-3.134 6.577c-.765.097-1.516.28-2.24.545-.226.082-.128.446.102.375.66-.244 1.344-.419 2.04-.522-.087.402-.166.807-.226 1.22-.034.236.328.337.377.097.064-.461.158-.915.264-1.369 4.834-.522 9.545 2.472 12.264 6.424a27.86 27.86 0 0 1 3.62 8.037c.803 2.758 1.297 5.508 2.896 7.955.755 1.155 1.686 2.352 2.44 3.609.326.533.61 1.09.849 1.666.09.211.166.421.234.631a31.63 31.63 0 0 1-1.935-.653c-.226-.083-.324.278-.098.375.705.267 1.429.503 2.153.717a5.637 5.637 0 0 1-.09 3.204c-.075.233.287.331.377.102a5.937 5.937 0 0 0 .125-3.194c.377.109.78.211 1.172.304.835.203 1.676.368 2.523.496.569.09 1.142.161 1.72.214a30.35 30.35 0 0 0 4.767.09 28.84 28.84 0 0 0 6.788-1.227 24.458 24.458 0 0 0 8.263-4.383c2.425-1.989 5.072-4.807 5.072-8.139-.038-1.542-.626-3.185-1.859-4.168Z" fill="#222C44"/><path d="M558.017 193.768c-1.03-5.895-2.339-11.79-4.669-17.328-2.44-5.801-6.106-10.653-10.56-15.077-2.157-2.146-4.389-4.278-6.98-5.91-2.591-1.632-5.612-2.627-8.674-3.167-3.519-.641-7.109-.87-10.669-1.201-1.606-.15-3.632-.679-5.2-.123a2.051 2.051 0 0 0-1.456 2.33c.01.035.03.066.058.09.028.024.062.04.099.044a.185.185 0 0 0 .106-.017.186.186 0 0 0 .08-.072 4.44 4.44 0 0 1 .6-.822 1.22 1.22 0 0 1 .196-.154c.471 3.332.826 6.709 1.508 10.008.566 2.675 1.509 5.388 3.395 7.433 4.031 4.33 10.834 3.846 15.13 7.831a12.676 12.676 0 0 1 4.012 8.172c.219 2.739-.562 5.711.547 8.33 1.109 2.619 3.922 3.306 6.004 4.938 2.64 2.057 2.455 5.629 3.36 8.544.849 2.728 2.429 5.325 5.193 6.443 3.172 1.279 6.788.473 9.918-.484a.199.199 0 0 0 .098-.068.199.199 0 0 0 .038-.112c.336-6.548-1.014-13.201-2.134-19.628Z" fill="#222C44"/><path d="M638.359 382.275v-.781c0-.375-.023-.75-.038-1.126a58.77 58.77 0 0 0-1.226-9.977 46.389 46.389 0 0 0-1.572-5.606 38.415 38.415 0 0 0-3.364-7.178c-6.434-19.512-29.261-37.752-48.419-49.939a221.2 221.2 0 0 0-4.224-2.627c-2.609 2.169-5.325 3.595-8.553 4.852-4.902 1.914-10.45 2.424-15.684 2.409-5.948-.019-11.929-.855-17.767-1.932a144.27 144.27 0 0 1-10.759-2.421c-7.112 1.659-14.33 2.871-21.571 2.353-4.269-.304-7.735-2.51-9.459-6.274l-3.394 1.764-18.803 9.816-14.217 7.418-.502.327c-4.099 2.686-8.225 5.35-12.068 8.382s-7.429 6.484-10.235 10.533a52.654 52.654 0 0 0-6.098 12.213c-2.059 5.693-3.447 11.58-4.933 17.441a224.878 224.878 0 0 1-1.701 6.379 116.234 116.234 0 0 1-1.131 3.752 71.121 71.121 0 0 1-5.853 13.381c-1.158 2.03-2.383 4.022-3.605 6.003-1.305 2.12-2.606 4.237-3.828 6.402-.272.48-.539.964-.799 1.452-1.886 3.531-3.538 7.231-4.394 11.159-1.131 5.216-.128 10.285-.117 15.535 0 3.752-.946 7.29-2.217 10.75 4.148 2.709 9.122 3.351 14.108 3.478 5.955.15 11.939-.131 17.8 1.152 4.307.942 8.297 2.135 11.042 5.629.472.6 1.09 4.097 1.776 9.354.543 4.184 1.132 9.49 1.712 15.332 1.275 12.758 2.546 28.044 3.376 39.965.151 2.154.286 4.199.407 6.098.449 7.129.656 12.225.49 13.373a63.615 63.615 0 0 1 3.368-.154h.377c3.417-.034 6.788.694 10.126 1.392 4.19.871 15.394 2.454 18.935 4.878 3.719 2.529 6.521 6.462 10.842 8.056 4.262 1.569 9.002.935 13.347.09 5.114-.994 10.11-2.476 15.085-4.018 9.367-2.908 18.701-5.895 28.521-6.552a17.817 17.817 0 0 1 2.263-3.133c6.411-7.156 16.073-9.197 24.136-13.797a.482.482 0 0 1-.042-.248c.755-7.103 1.954-14.146 3.338-21.151.319-1.629.65-3.255.992-4.878l.102-.488c.211-1.001.426-2.014.645-3.039l.203-.957.189-.875c.153-.72.309-1.439.467-2.157 1.886-8.72 3.828-17.433 5.28-26.232.377-2.285.83-4.601.992-6.912.117-1.613.094-3.231.377-4.829.249-1.479.882-2.878 1.508-4.236.185-.398.302-.785.755-.954.505-.191 1.335.094 1.863.072 1.55-.068 2.945-.259 4.525-.105 2.485.24 4.673.375 7.007-.751.792-.375 1.558-.792 2.331-1.197a50.314 50.314 0 0 0 3.416-.409c2.09-.319 10.119-1.745 10.703-1.812 4.017-.473 8.108-.342 11.789 1.501a.194.194 0 0 0 .283-.165c.6-6.848.181-13.707-.106-20.563-.022-.619-.049-1.234-.071-1.853-.031-.866-.053-1.73-.068-2.593a163.67 163.67 0 0 1 .954-19.512c.456-4.405.946-8.863 1.222-13.317.083-1.323.143-2.646.181-3.97v-.116c0-.375.019-.724.022-1.085-.002-.925-.015-1.849-.037-2.772Z" fill="#EC6F5F"/><path d="M555.237 292.531c-.252 1.389-40.729 1.689-40.729 1.689l-22.182 11.572c-.973 13.088-6.114 25.838-5.465 39.095.411 8.457 4.19 16.157 5.344 24.476 1.154 8.319.143 16.634-.471 24.9-.66 8.897-.902 18.063 2.481 26.495a.191.191 0 0 0 .31.11.19.19 0 0 0 .067-.11c2.078-5.036 4.224-10.195 7.92-14.308 3.53-3.936 8.07-6.818 11.559-10.81 6.509-7.444 9.775-16.96 14.881-25.298 5.238-8.551 12.562-15.512 19.901-22.258 7.542-6.938 15.005-13.839 21.096-22.12 3.831-5.212 7.448-10.559 11.54-15.579.754-.913 1.508-1.819 2.263-2.717-14.531-9.223-26.927-14.972-28.515-15.137Z" fill="#F79C6D"/><path d="M600.443 310.137c-.78-3.685-1.69-7.337-2.731-10.957a164.106 164.106 0 0 0-30.637-58.479c-1.312-1.602-2.696-3.144-4.016-4.739a8.245 8.245 0 0 1-1.769-3.279 23.252 23.252 0 0 0-.784-2.938c-1.154-2.848-4.582-5.137-7.418-2.924-.189.151.079.413.267.267a3.501 3.501 0 0 1 1.69-.717c.765 4.702.355 9.52-1.196 14.026-1.406 4.053-3.835 7.88-3.578 12.319.233 4.127 2.198 7.846 2.952 11.85a15.554 15.554 0 0 1-.275 6.709c-.498 2.045-1.199 4.052-1.486 6.146a9.418 9.418 0 0 0 .63 5.253c.754 1.685 2.01 3.088 3.111 4.559a11.54 11.54 0 0 1 2.429 5.899c.211 1.876.279 3.82 1.256 5.508 1.716 2.964 5.181 4.405 8.334 5.298 4.005 1.126 8.297 1.876 11.103 5.254 1.572 1.876 2.726 4.014 4.499 5.725 1.508 1.438 3.266 2.92 5.438 2.957 1.229 0 2.436-.161 3.665-.071a14.71 14.71 0 0 1 3.44.668c2.342.75 6.034 1.043 7.757 2.788a.19.19 0 0 0 .321-.131c.128-4.064-2.165-7.047-3.002-10.991ZM531.147 191.501c-3.13-2.112-6.117-2.799-10.228-2.908-3.224-.086-9.647.214-10.91 4.128-.441 1.373-.068 2.87 1.335 3.335.68.186 1.389.239 2.089.154 1.203-.086 2.399-.199 3.605-.229 2.47-.038 4.935.201 7.351.713 1.976.402 4.057 1.029 6.086.916 1.509-.086 3.123-.826 3.345-2.589.196-1.535-1.534-2.754-2.673-3.52ZM493.687 188.248c-3.13-2.113-6.121-2.799-10.228-2.908-3.224-.083-9.65.214-10.91 4.128-.441 1.377-.068 2.87 1.335 3.335.68.186 1.39.238 2.09.154 1.203-.086 2.398-.199 3.601-.229a33.268 33.268 0 0 1 7.354.713c1.976.402 4.058 1.032 6.087.916 1.508-.087 3.119-.826 3.345-2.589.196-1.531-1.535-2.751-2.674-3.52ZM557.187 529.953l-10.899-9.974c-3.221-2.953-6.464-5.951-8.975-9.549-2.595-3.715-4.07-8.004-5.846-12.128a91.225 91.225 0 0 0-6.034-11.433c-4.48-7.328-9.639-14.217-14.134-21.538a114.072 114.072 0 0 1-11.076-24.277c-2.263-6.848-4.013-13.827-5.657-20.844a1.552 1.552 0 0 1-.328.236c3.394 14.57 7.437 29.069 14.956 42.12 4.371 7.587 9.628 14.634 14.331 21.996a106.529 106.529 0 0 1 6.43 11.373c1.931 4.045 3.3 8.356 5.498 12.273 2.361 4.218 5.804 7.655 9.327 10.919 4.02 3.715 8.074 7.396 12.113 11.092.203.162.471-.101.294-.266Z" fill="#222C44"/><path d="M540.816 141.296c-2.161-.957-4.492-.803-6.694-.041a18.418 18.418 0 0 0-3.3 1.549c-1.131.672-2.18 1.565-3.394 2.071-1.508.62-3.055.282-4.597.072a10.637 10.637 0 0 0-3.715.09 9.844 9.844 0 0 0-5.69 3.564 9.895 9.895 0 0 0-1.912 7.317c.034.237.411.237.377 0a9.249 9.249 0 0 1 1.472-6.592 9.333 9.333 0 0 1 5.569-3.861c1.655-.409 3.22-.233 4.902 0 1.282.18 2.565.258 3.771-.252 1.328-.551 2.455-1.535 3.7-2.251 2.798-1.599 6.223-2.732 9.341-1.351.2.109.393-.218.17-.315ZM573.618 190.466c-.072-.229-.437-.132-.377.101.72 2.3 1.467 4.657 1.433 7.092a8.875 8.875 0 0 1-2.64 6.24c-1.184 1.238-2.53 2.401-3.186 4.022-.706 1.734-.491 3.873-1.886 5.276a.185.185 0 0 0 0 .266.188.188 0 0 0 .268 0c1.338-1.332 1.274-3.23 1.81-4.923.698-2.18 2.61-3.508 4.024-5.2 3.141-3.764 1.882-8.646.554-12.874ZM565.608 203.929l-.754 3.189c-.057.233.305.334.377.098l.754-3.19c.049-.236-.313-.334-.377-.097ZM568.395 160.222a18.102 18.102 0 0 0-5.563-9.463 18.266 18.266 0 0 0-10.027-4.544c-.242-.03-.238.349 0 .375a17.891 17.891 0 0 1 9.798 4.465 17.738 17.738 0 0 1 5.426 9.265c.053.236.419.135.366-.098ZM484.221 160.534a15.291 15.291 0 0 0-11.11 2.18c-.203.131 0 .457.189.326a14.915 14.915 0 0 1 10.823-2.146c.234.045.336-.315.098-.36ZM545.934 169.145c-.166-.176-.434.09-.268.263a9.105 9.105 0 0 1 2.239 3.937 9.074 9.074 0 0 1 .061 4.524c-.056.233.306.334.377.098a9.449 9.449 0 0 0-.068-4.718 9.495 9.495 0 0 0-2.341-4.104ZM553.687 171.997c-.113-.214-.437-.023-.328.191a6.24 6.24 0 0 1-.912 7.062c-.163.18.101.443.264.266a6.646 6.646 0 0 0 .976-7.519ZM583.872 166.376c-.226-1.219-.415-2.548-.924-3.688-.89-2-2.983-2.867-4.978-3.378-1.448-.375-2.681-.806-3.017-2.431-.222-1.021-.196-2.038-.709-2.979a4.836 4.836 0 0 0-1.988-1.924 4.881 4.881 0 0 0-2.722-.527.202.202 0 0 0-.079.028.195.195 0 0 0-.095.133.194.194 0 0 0 0 .083.225.225 0 0 0 .019.045.141.141 0 0 0 .019.034.127.127 0 0 0 .042.041c3.484 2.409 1.584 7.216 2.681 10.773.11.359.255.706.434 1.036.12.221.259.432.415.63a4.697 4.697 0 0 0 1.923 1.475 5.7 5.7 0 0 0 1.546.401c.328.038.652.068.977.094.577.037 1.151.109 1.719.214 1.585.156 3.178.186 4.767.09a.767.767 0 0 0-.03-.15Z" fill="#495A7F"/><path d="M574.659 199.516c.038-.229-.486 2.045-1.697 3.595-.754.979-2.512 2.304-3.488 3.913-.864 1.426-1 3.133-1.268 4.18-.32 1.257-1.712 2.601-2.394 3.186-1.132.979-1.886 1.126-2.64 1.97-.962 1.058-.434 3.178-1.041 4.454a.194.194 0 0 0-.08-.07.195.195 0 0 0-.104-.016.187.187 0 0 0-.155.131c-.472 1.782-.992 3.561-1.411 5.358-.271 1.171.596 1.974 1.55 2.556.845.51 1.908.697 2.734.041.826-.657.947-1.816 1.022-2.841.091-1.219 1.034-1.347 1.916-1.797a4.91 4.91 0 0 0 1.509-1.227 6.971 6.971 0 0 0 1.489-3.591c.46-3.452-1.233-6.987.702-10.176.905-1.501 1.855-2.871 2.417-4.54a14.38 14.38 0 0 0 .754-4.3c.082-.271.143-.547.185-.826Z" fill="#495A7F"/><path d="M563.304 214.083a7.435 7.435 0 0 0-3.333-3.092 7.485 7.485 0 0 0-4.519-.582c-3.541.555-6.2 3.021-8.232 5.816a5.194 5.194 0 0 1-.378 2.176 67.587 67.587 0 0 1-.132 17.524.188.188 0 0 0 .057.155.19.19 0 0 0 .158.051c6.988-1.009 13.407-5.58 16.315-12.037 1.399-3.156 1.832-6.893.064-10.011Z" fill="#F79C6D"/><path d="M562.968 233.947c-.98-.75-2.553-.623-3.646-.672a38.47 38.47 0 0 0-2.448-.03c.038-.454.079-.904.109-1.358.061-.822.113-1.643.151-2.469.019-.315.11-.75-.166-1.043-.275-.293-.671-.206-.992-.21-.865-.015-1.73.051-2.583.195-.532.086-.415.525-.467 1.294-.068.984-.129 2.436-.193 3.974-1.652 0-3.447.282-4.488 1.291-.626.604-.886 1.467-1.131 2.296-.377 1.302-.671 2.627-.935 3.959a58.014 58.014 0 0 0-1.003 7.79 21.804 21.804 0 0 0-.091 3.332 1.78 1.78 0 0 0 1.098 1.594c.954.402 2.164.286 3.145.327a92.48 92.48 0 0 0 4.487.071 74.44 74.44 0 0 0 4.096-.131c.992-.053 2.108 0 2.866-.638a4.053 4.053 0 0 0 1.041-1.775c.419-1.251.749-2.53.988-3.827a60.44 60.44 0 0 0 .913-7.797c.131-1.303.194-2.612.188-3.922-.041-.806-.23-1.703-.939-2.251Zm-7.101 7.366c.339-.48.275-1.501.351-2.079.105-.798.203-1.598.294-2.401h1.214c.755 0 1.509.225 1.652 1.099.04.363.047.728.019 1.092-.049 1.812-.125 3.628-.283 5.429a31.887 31.887 0 0 1-.777 5.021c-.2.777-.49 1.002-1.354 1.126-.476.048-.954.072-1.433.071a132.231 132.231 0 0 1-5.389.116 6.338 6.338 0 0 1-1.335 0c-1.067-.236-1.109-.844-1.044-1.613.139-1.677.475-3.34.716-4.994.178-1.677.485-3.338.916-4.968.329-1.07.86-1.997 1.969-2.383a5.205 5.205 0 0 1 1.211-.237c-.046.95-.087 1.839-.132 2.559-.046.721-.483 2.124.467 2.492.679.255 2.497.281 2.938-.33Z" fill="#EEDED4"/><path d="M607.337 263.616c-3.726-1.876-8.218-2.424-11.438-5.212-3.345-2.893-4.398-7.474-4.737-11.684-.223-2.773-.192-5.569-.483-8.338-.222-2.101-.565-4.285-2.044-5.902-.166-.18-.43.086-.267.266 1.602 1.753 1.832 4.282 2.017 6.54.204 2.473.204 4.961.4 7.434.294 3.688 1.097 7.538 3.458 10.506 2.568 3.212 6.573 4.214 10.265 5.587a23.963 23.963 0 0 1 10.083 7.038 23.784 23.784 0 0 1 5.236 11.093c.041.237.407.139.377-.097a24.269 24.269 0 0 0-4.421-10.103 24.433 24.433 0 0 0-8.446-7.128ZM628.708 308.553c-2.583-1.797-5.487-2.735-8.391-3.864a16.437 16.437 0 0 1-4.586-2.477c-1.474-1.219-2.394-2.844-3.1-4.593-1.274-3.148-2.187-6.889-5.46-8.589-.215-.112-.408.214-.193.323 3.232 1.677 4.081 5.422 5.348 8.514 1.169 2.852 2.968 4.878 5.755 6.263 2.787 1.384 5.826 2.067 8.542 3.568a22.634 22.634 0 0 1 7.41 6.651 22.483 22.483 0 0 1 3.82 9.172c.042.237.408.135.378-.101a22.957 22.957 0 0 0-3.275-8.376 23.087 23.087 0 0 0-6.248-6.491ZM642.13 308.576c-.136-.199-.464 0-.324.191a17.337 17.337 0 0 1 2.93 12.222c-.034.236.332.337.377.097a17.699 17.699 0 0 0-2.983-12.51ZM657.667 310.73a17.132 17.132 0 0 0-3.627-6.55 17.25 17.25 0 0 0-6.083-4.392c-.223-.094-.415.229-.193.327a16.859 16.859 0 0 1 5.977 4.295 16.767 16.767 0 0 1 3.564 6.421.192.192 0 0 0 .091.103.19.19 0 0 0 .271-.204ZM592.244 307.964c-4.929 1.501-8.87-2.551-11.404-6.202-.136-.195-.464 0-.324.191 2.64 3.79 6.728 7.925 11.826 6.379.234-.075.136-.439-.098-.368Z" fill="#495A7F"/><path d="M615.445 623.67H443.722v-.124h-25.079c.038-.285.091-.578.159-.878a164.564 164.564 0 0 1 4.552-16.187 238.173 238.173 0 0 1 3.315-9.268 274.991 274.991 0 0 1 1.712-4.391c.03-.078.06-.157.094-.236a320.768 320.768 0 0 1 1.769-4.338c.313-.75.633-1.531.958-2.296a694.952 694.952 0 0 1 3.53-8.191l1.176-2.664c1.39-3.145 2.788-6.287 4.194-9.426 3.228-7.25 6.411-14.514 9.345-21.88 3.447-8.705 6.494-17.564 8.696-26.581a21.582 21.582 0 0 1-1.425-2.281c-.113-.207.226-.375.339-.188.365.677.767 1.333 1.203 1.966.411-1.711.8-3.429 1.132-5.155.049-.237.426-.237.377 0a154.152 154.152 0 0 1-1.233 5.557c.135.192.275.38.418.563-.053-.274-.102-.552-.155-.826-.052-.274.329-.334.378-.101l.26 1.414c.503.576.999 1.152 1.489 1.73a.171.171 0 0 1 0 .225 31.74 31.74 0 0 0 2.331 2.451c.17.161-.117.424-.287.266a31.114 31.114 0 0 1-3.367-3.752 941.794 941.794 0 0 1 3.477 19.864c4.491-4.709 8.787-9.909 11.826-15.639 2.863-5.388 5.518-10.837 7.283-16.596l1.697.318a237.775 237.775 0 0 0 21.454 3.062c13.475 1.287 27.1 1.775 40.428 3.876 12.909 2.03 20.919 8.357 32.832 13.261 24.2 9.97 36.954 90.197 36.845 96.445Z" fill="#EC6F5F"/><path d="M453.388 394.743c1.784-5.673 3.017-11.549 2.84-17.515 0-.24-.378-.244-.378 0 .585 21.478-16.646 39.744-13.482 61.466.736 5.024 2.621 9.853 5.917 13.767.155.187.423-.079.264-.263-6.328-7.504-7.135-18.011-5.321-27.316 2.044-10.458 6.981-20.026 10.16-30.139ZM576.167 379.396c-.018-.24-.396-.24-.377 0 .294 4.03-.803 7.918-1.885 11.76-1.083 3.842-1.841 7.628-1.931 11.632-.095 4.195.256 8.394 0 12.589-.268 4.094-1.301 8.071-2.131 12.075-.875 4.199-1.482 8.484-.679 12.758.045.236.408.135.377-.102-1.508-8.011 2.007-15.759 2.742-23.639.377-4.128.072-8.255.087-12.405a45.707 45.707 0 0 1 1.75-12.139c1.112-4.108 2.364-8.236 2.047-12.529Z" fill="#222C44"/><path d="M560.781 218.529c-1.807-2.139-4.869-1.193-6.528.589-1.094 1.171-1.788 2.627-2.523 4.022-.777 1.501-2.312 4.544-4.458 3.314a.187.187 0 0 0-.188.322c2.715 1.557 4.506-2.562 5.434-4.334.796-1.523 1.693-3.11 3.179-4.067 1.486-.957 3.598-1.024 4.816.416.158.188.422-.078.268-.262ZM527.089 262.055a.219.219 0 0 0-.073-.041.202.202 0 0 0-.162.021.204.204 0 0 0-.059.058 54.848 54.848 0 0 1-12.683 11.97c.026.848.049 1.696.075 2.547l.166 5.914c.222-.284.412-.591.566-.916.351-.75.464-1.602 1.162-2.131 1.033-.777 2.492-.675 3.669-1.126a3.162 3.162 0 0 0 1.942-1.921c.449-1.174.407-2.461.736-3.666.433-1.598 1.663-2.709 2.839-3.801 1.788-1.636 4.19-4.653 1.822-6.908ZM522.846 306.077a44.653 44.653 0 0 0-13.116-2 .188.188 0 0 0-.189.188c0 .05.02.097.056.132a.184.184 0 0 0 .133.055c4.414.01 8.801.681 13.014 1.989.249.071.332-.293.102-.364ZM551.277 305.364c-5.136-1.501-10.887-1.647-15.462 1.501-.196.139 0 .465.189.326 4.48-3.118 10.107-2.941 15.157-1.501a.183.183 0 0 0 .168-.124.185.185 0 0 0-.052-.202Z" fill="#D56C4E"/><path d="M424.278 468.873c-5.491-6.878-44.222-72.441-61.66-105.814-2.063 1.163-11.076 6.259-15.733 8.563 10.205 32.303 32.251 98.283 34.352 104.722 2.413 7.418 4.793 14.919 8.368 21.887 3.221 6.285 7.497 12.06 13.241 16.285 5.374 3.955 12.332 6.679 19.109 5.779 7.184-.954 12.445-7.411 16.14-13.133 3.9-6.053 6.521-12.818 8.852-19.591.577-1.677 1.131-3.358 1.689-5.043.208.142-17.781-5.418-24.358-13.655Z" fill="#F79C6D"/><path d="M367.751 377.967a14.54 14.54 0 0 0-.536-2.019c-.203-.773-.411-1.549-.618-2.322-.423-1.576-.844-3.154-1.264-4.732.717-8.097 1.196-16.296-.294-24.326-.856-4.608-2.553-8.923-4.265-13.268-1.603-4.06-3.658-11.403-5.913-14.566-.773-1.081-2.022-2.83-3.583-2.537-1.376.263-1.637 1.85-1.621 3.002.06 4.563 2.526 13.928 3.277 18.476.55 3.377 1.037 6.754 1.606 10.131a62.788 62.788 0 0 0-6.12-7.985c-2.342-2.532-4.741-5.016-7.166-7.504-4.359-6.086-1.972-3.295-6.332-9.381-4.865-6.788-9.688-13.643-15.318-19.834a87.558 87.558 0 0 0-4.352-4.477c-1.252-1.193-2.546-2.518-4.183-3.171-2.557-1.02-4.782-.589-3.831 2.492.531 1.718 1.912 3.129 2.998 4.503a590.002 590.002 0 0 1 4.265 5.5 633.78 633.78 0 0 1 7.973 10.642c5.027 6.87 3.156 4.972 7.893 12.041-.947 1.062-.864.893-1.792 1.97-5.208-6.604-18.347-27.114-24.513-34.27-1.312-1.523-4.103-6.21-6.411-4.66-1.486.998-1.301 2.773-.965 4.281.486 2.192 17.604 27.017 20.606 31.144 1.652 2.285 3.217 4.631 4.736 6.998.495.751.973 1.539 1.456 2.308-1.003 1.261-.592 1.159-1.572 2.439-4.526-5.917-19.611-21.429-24.325-24.607-1.105-.751-3.352-1.408-4.054.093-.701 1.501-1.131 2.957-.294 4.379 2.134 3.689 4.567 5.745 6.622 8.63.027.038.057.076.083.117a15.44 15.44 0 0 0-.652-.308c-1.335-.593-2.64-.66-3.277.871-.596 1.437-.181 3.193.43 4.551.78 1.741 7.821 9.069 19.938 19.024 10.691 8.784 31.38 28.405 36.204 32.195-.377.094-.721.191-1.083.281a.193.193 0 1 0 .098.375c.453-.112.906-.236 1.358-.352.79.623 1.574 1.248 2.353 1.876.189.15.457-.113.268-.267-.72-.581-1.448-1.155-2.176-1.729a94.438 94.438 0 0 0 6.291-1.922 61.62 61.62 0 0 0 7.24-2.848c.585-.262.886-.555.815-1.234Z" fill="#F79C6D"/><path d="M318.325 342.943a43.987 43.987 0 0 0-15.948-13.827c-.215-.113-.404.21-.189.323a43.67 43.67 0 0 1 15.809 13.677c.143.21.468.022.328-.173ZM350.184 359.337a14.595 14.595 0 0 0-6.58-3.535c-3.066-.799-6.196-1.167-9.089-2.548a20.905 20.905 0 0 1-7.471-6.041c-.147-.191-.411.075-.264.267 3.277 4.217 7.841 6.754 13.03 7.879 2.832.608 5.728 1.092 8.191 2.713a14.172 14.172 0 0 1 4.786 5.419 13.67 13.67 0 0 1 1.365 8.307c-.038.237.328.338.377.098a14.45 14.45 0 0 0-.645-6.803 14.51 14.51 0 0 0-3.7-5.756Z" fill="#D56C4E"/><path d="M632.178 446.893c-1.528-.06-6.385-.417-7.92-.237-.584.064-8.613 1.501-10.699 1.805a48.525 48.525 0 0 1-3.42.417c-.773.405-1.539.821-2.331 1.193-2.331 1.096-4.525.972-7.007.728-1.561-.147-2.96.041-4.506.109-.528.022-1.358-.263-1.886-.068-.441.169-.558.555-.754.953a16.99 16.99 0 0 0-1.509 4.236c-.271 1.595-.249 3.212-.377 4.822-.166 2.315-.615 4.63-.992 6.919-.935 5.629-2.07 11.257-3.266 16.859 2.074 23.703 4.103 45.226 4.364 48.922.546 7.756 1.482 57.703 3.303 73.391a1869.57 1869.57 0 0 0 2.04 17.032h27.036c.268-41.414 8.674-111.176 8.727-118.197.072-2.536.913-33.575-.803-58.884Z" fill="#F79C6D"/><path d="M428.286 480.247a317.362 317.362 0 0 0-13.18-26.642c-.117-.21-.441-.022-.324.192a324.903 324.903 0 0 1 13.199 26.641c.079.221.404.03.305-.191ZM614.196 530.583a83.595 83.595 0 0 0-13.783-24.626c-.151-.188-.415.079-.268.266a83.016 83.016 0 0 1 13.689 24.458c.079.229.445.131.362-.098Z" fill="#D56C4E"/><path d="M538.61 533.968c-5.242.664-10.526.645-15.802.796-5.149.1-10.278.68-15.318 1.733a69.72 69.72 0 0 1-7.75 1.4 56.316 56.316 0 0 1-8.184.116c-5.351-.24-10.699-.634-16.042-.964l-18.295-1.126c-.241 0-.241.375 0 .375 10.824.664 21.647 1.373 32.474 1.993 5.235.296 10.292.168 15.436-.908 2.527-.526 5.038-1.126 7.595-1.501a77.315 77.315 0 0 1 8.086-.683c5.939-.24 11.894-.117 17.8-.863.222-.023.241-.398 0-.368ZM573.011 527.338a27.892 27.892 0 0 1-13.991 3.185c-.242 0-.242.376 0 .376a28.335 28.335 0 0 0 14.179-3.235c.215-.112.027-.428-.188-.326Z" fill="#222C44"/><path d="M489.656 592.222c-5.993-.297-11.974.375-17.959.461-5.985.087-12.034-.45-18.008-1.009a206.313 206.313 0 0 1-23.445-3.426 246.305 246.305 0 0 0-1.769 4.338 46.604 46.604 0 0 0 4.397 1.696c5.691 1.854 11.653 3.051 17.536 4.127a191.923 191.923 0 0 0 35.899 3.205c2.602-.023 5.234-.169 7.757-.841 2.037-.547 4.733-1.501 5.759-3.497 2.395-4.69-7.871-4.942-10.167-5.054Zm-15.911-16.885c5.279-1.824 10.529-4.015 15.156-7.13 3.715-2.514 7.32-6.003 8.207-10.574.358-1.853.275-4.127-1.924-4.682-2.428-.612-4.801 1.459-6.705 2.626a595.61 595.61 0 0 1-16.216 9.696c-5.359 3.088-10.737 6.184-16.284 8.931-7.437 3.681-15.278 6.202-23.276 8.217-.503 1.176-1.006 2.354-1.509 3.535 8.497-.717 16.899-3.156 25.056-5.404 5.868-1.621 11.751-3.227 17.495-5.219v.004Zm2.066 38.708c-2.179-1.298-4.695-2.157-7.022-3.167l-7.897-3.441-15.462-6.727c-5.611-2.447-11.634-4.751-17.061-7.88a294.77 294.77 0 0 0-1.712 4.39c2.987 2.863 6.219 5.49 9.428 8.015 7.841 6.206 16.409 11.771 26.09 14.634a48.224 48.224 0 0 0 7.199 1.561c2.025.277 4.205.589 6.222.075 1.441-.376 2.776-1.28 3.017-2.837.302-2.004-1.203-3.674-2.802-4.627v.004Zm-12.271-60.168c2.568-3.41 4.714-7.193 5.902-11.305.377-1.336.713-3.212-.875-3.91-1.509-.672-3.315.3-4.526 1.148-1.742 1.205-3.152 2.803-4.525 4.379a1453.056 1453.056 0 0 1-5.076 5.734 1210.873 1210.873 0 0 1-10.397 11.496 869.928 869.928 0 0 1-3.915 4.244c-1.4 3.14-2.798 6.282-4.194 9.426l-1.176 2.664a99.413 99.413 0 0 0 9.579-5.943c7.109-4.998 13.953-10.946 19.203-17.933ZM572.415 508.235c3.941-1.899 7.976-3.925 11.408-6.657a495.81 495.81 0 0 0-.992 4.878 70.498 70.498 0 0 1-7.893 8.011c-4.94 4.27-10.608 8.195-16.669 10.717-2.119.882-6.49 2.3-8.014-.334-1.32-2.289 1.022-5.103 2.64-6.514 2.478-2.154 5.638-3.437 8.565-4.844l10.955-5.257ZM584.306 497.968l.264.068a251.172 251.172 0 0 0-.645 3.039 44.179 44.179 0 0 1-15.579 2.383 43.644 43.644 0 0 1-17.725-4.233c-2.293-1.125-4.974-2.671-5.121-5.504-.132-2.514 2.055-3.91 4.397-3.464 1.426.274 2.64 1.126 3.798 1.959a40.116 40.116 0 0 0 4.325 2.698 38.604 38.604 0 0 0 26.369 3.542 2.232 2.232 0 0 1-.155-.116c-8.606-2.304-16.258-7.37-22.454-13.7-5.728-5.853-10.936-13.095-12.381-21.301a21.949 21.949 0 0 1-.252-5.963c.143-1.456.245-3.853 1.799-4.581 1.289-.608 2.805.21 3.824.99 1.595 1.231 2.952 2.927 4.197 4.503 9.605 12.18 12.826 29.958 25.339 39.68Z" fill="#764056"/><path d="M585.43 494.062a258.5 258.5 0 0 0-.468 2.158c-.064.293-.124.582-.189.874a65.252 65.252 0 0 1-10.001-16.709c-2.794-6.814-4.688-14.375-4.733-21.763a19.44 19.44 0 0 1 .732-5.801c.46-1.52 1.21-3.343 2.512-4.349 1.225-.942 2.315-.405 2.967.852a21.538 21.538 0 0 1 1.822 5.114c1.761 7.505.667 15.313 1.886 22.889a56.175 56.175 0 0 0 5.472 16.735ZM473.62 315.645l-14.217 7.415c-.166.112-.336.221-.502.326-.66 1.704.151 3.276 1.776 4 1.912.848 4.119.496 6.068-.022 2.712-.717 5.28-1.876 7.946-2.773a90.813 90.813 0 0 1 14.659-3.58 7.82 7.82 0 0 0-.343.488c-9.285 3.944-18.502 8.968-23.491 18.011-1.169 2.12-2.319 4.638-2.519 7.073-.125 1.501.245 3.831 2.078 4.082 1.056.151 1.927-.517 2.572-1.275.992-1.149 1.806-2.477 2.685-3.711 2.046-2.895 4.094-5.785 6.143-8.672 2.202-3.114 4.36-6.262 6.626-9.332 1.509-2.056 3.228-4.075 5.423-5.384a18.916 18.916 0 0 0-.735 1.583c-8.84 9.831-17.001 21.523-16.341 35.242.132 2.735.588 6.127 3.217 7.639a4.282 4.282 0 0 0 3.454.458c1.335-.447 2.056-1.7 2.569-2.923 1.365-3.246 1.444-6.844 1.508-10.315.046-3.926.351-7.844.913-11.73a80.33 80.33 0 0 1 2.922-12.431c.626-1.951 1.305-3.895 2.109-5.775.516-.57 1.037-1.125 1.561-1.703.249-1.197.501-2.39.754-3.587-5.359-1.719-11.208-3.329-16.835-3.104ZM620.623 363.877a62.75 62.75 0 0 0 17.724 18.386v-.78c0-.375-.022-.751-.037-1.126-2.78-4.345-5.129-8.953-7.411-13.572-1.508-3.08-3.017-6.176-4.608-9.219a120.489 120.489 0 0 0-2.55-4.653c-.705-1.223-1.376-2.552-2.3-3.628-.554-.65-1.339-1.34-2.244-1.385-.905-.045-1.576.668-1.904 1.501-.921 2.285-.683 5.013-.038 7.332a27.451 27.451 0 0 0 3.368 7.144Zm-2.508 7.448-8.636-8.855c-.913-.938-1.856-1.955-3.278-1.895a4.04 4.04 0 0 0-2.779 1.479c-1.855 2.153-1.007 5.091.377 7.26 3.553 5.602 9.711 9.516 15.734 12.008a69.339 69.339 0 0 0 11.792 3.557c1.935.42 3.892.84 5.853 1.125.386.061.775.096 1.166.105 0-.375.018-.724.022-1.084-4.439-.75-8.625-3.118-12.109-5.947-2.923-2.349-5.525-5.07-8.142-7.753Zm-14.108 18.364a49.674 49.674 0 0 0-13.509-.45c-1.746.206-3.326.934-3.824 2.739-.498 1.805.26 3.523 1.38 4.878 2.591 3.156 6.623 4.837 10.481 5.857 4.148 1.092 8.587 1.903 12.875 1.858a29.617 29.617 0 0 0 11.852-2.725 40.812 40.812 0 0 0 11.484-7.973 49.152 49.152 0 0 0 3.394-3.662c.083-1.324.143-2.647.181-3.97a41.734 41.734 0 0 1-20.293 5.313c-4.771-.004-9.353-1.111-14.021-1.865Z" fill="#764056"/><path d="M510.171 379.359c-3.666 7.932-7.334 15.863-11.004 23.793-.102.218.226.406.328.188 3.665-7.927 7.334-15.857 11.004-23.79.106-.217-.222-.409-.328-.191Z" fill="#D56C4E"/><path d="M404.268 69.53c-.14-8.672-1.86-18.218-5.337-26.187-6-13.753-22.25-37.362-56.662-42.026-24.468-3.306-47.518.375-52.545 2.041a153.3 153.3 0 0 0-26.776 12.008c-8.077 4.57-15.586 10.13-21.654 17.178a66.457 66.457 0 0 0-13.011 23.14c-5.377 16.941-2.99 36.115 7.166 50.839 10.329 14.961 27.53 23.332 44.5 28.593 19.546 6.06 40.601 8.469 60.811 4.439 16.594-3.314 32.534-11.216 44.414-23.328 12.181-12.401 19.38-29.26 19.094-46.697ZM442.904 226.87c-2.942-13.947-9.523-27.429-20.161-37.147-11.035-10.098-27.304-16.777-41.989-18.567-17.182-2.093-34.254 3.377-42.268 6.942-13.237 5.887-27.775 19.816-33.624 32.896-6.072 13.576-8.214 29.827-2.832 43.947 5.445 14.296 17.159 25.598 30.437 32.862 14.602 7.993 31.049 11.737 47.314 14.687 8.674 1.576 17.6 3.182 26.448 2.071a35.03 35.03 0 0 0 10.31-2.897.162.162 0 0 0 .245.105c.623-.375 1.226-.75 1.826-1.159a27.01 27.01 0 0 0 6.562-5.069c.377-.376.701-.785 1.033-1.194 6.897-6.923 11.796-15.759 14.772-25.087 4.329-13.632 4.868-28.424 1.927-42.39Z" fill="#fff"/><path d="M281.206 66.214c0 1.406-1.04 2.055-3.12 1.948-.108 1.416-.161 3.355-.161 5.816 0 .507.048 1.782.146 3.823.108 2.031.161 3.818.161 5.361 0 .313.044.776.132 1.392.088.615.132 1.079.132 1.391 0 .557-.2 1.016-.601 1.377-.39.371-.874.557-1.45.557-1.191 0-1.865-.6-2.021-1.802-.186-1.406-.279-2.378-.279-2.915 0-1.514-.049-3.257-.146-5.23-.098-1.972-.147-3.29-.147-3.954 0-2.56.049-4.527.147-5.904-.459.069-1.597.103-3.413.103-2.412 0-4.761-.04-7.046-.117.039.38.088.957.146 1.728.157 4.785.235 7.373.235 7.764 0 .459-.03 1.098-.088 1.919a41.615 41.615 0 0 0-.117 1.919c-.01.38-.01.874 0 1.48.009.81.014 1.308.014 1.493 0 1.123-.073 1.89-.219 2.3-.284.82-.904 1.23-1.861 1.23-.576 0-1.064-.18-1.465-.541-.39-.362-.586-.82-.586-1.377 0-2.325.01-3.882.03-4.673.009-.371.049-.996.117-1.875.058-.801.088-1.426.088-1.875 0-.352-.078-2.906-.235-7.661 0-.03-.053-.664-.161-1.905-.586.01-1.103.015-1.552.015-.586 0-1.075-.186-1.465-.557-.381-.37-.572-.835-.572-1.391 0-1.338 1.026-2.007 3.077-2.007h.586c.253.01.434.014.542.014.771 0 1.918.03 3.442.088 1.533.059 2.685.088 3.457.088l12.202.03c.586 0 1.074.185 1.465.556.391.371.586.835.586 1.392Zm9.799 21.65c-.84 0-1.724-.097-2.651-.293l-.015 5.977c0 .566-.19 1.035-.571 1.406-.381.371-.864.557-1.45.557s-1.07-.186-1.451-.557c-.38-.371-.571-.84-.571-1.406 0-.46.01-2.28.029-5.464.02-2.363.02-4.292 0-5.786a97.56 97.56 0 0 0-.205-5.45c-.146-2.099-.219-3.06-.219-2.885 0-.81.18-1.504.542-2.08.42-.654.986-.982 1.699-.982.547 0 1.006.186 1.377.557.371.371.556.815.556 1.333l-.014.147a8.383 8.383 0 0 1 1.963-.82 7.37 7.37 0 0 1 1.992-.28c2.246 0 3.887.953 4.922 2.857.771 1.436 1.157 3.296 1.157 5.581 0 2.139-.61 3.912-1.831 5.318-1.309 1.513-3.062 2.27-5.259 2.27Zm1.011-12.114c-.615 0-1.24.147-1.875.44-.635.283-1.275.712-1.919 1.288.117 2.012.176 4.029.176 6.05a8.371 8.371 0 0 0 2.607.425c1.006 0 1.777-.356 2.315-1.07.488-.644.732-1.513.732-2.607 0-1.318-.059-2.231-.176-2.739-.283-1.191-.903-1.787-1.86-1.787ZM316.8 85.945c0 .537-.195.987-.586 1.348-.39.371-.874.557-1.45.557-.586 0-1.074-.186-1.465-.557a1.763 1.763 0 0 1-.586-1.348c0-.586.03-1.464.088-2.636a58.13 58.13 0 0 0 .088-2.652c0-.537-.024-1.103-.073-1.699-1.816 2.451-3.447 4.253-4.893 5.405-1.308 1.035-2.28 1.86-2.915 2.476-.634.605-1.318.908-2.05.908a2.668 2.668 0 0 1-1.465-.41c-.498-.332-.747-.796-.747-1.392 0-2.588-.049-5.288-.147-8.1a948.87 948.87 0 0 0-.161-4.292c0-.557.191-1.016.571-1.377.381-.371.874-.557 1.48-.557 1.094 0 1.763.567 2.007 1.7.039.156.083 1.103.132 2.841l.146 5.581c1.26-1.133 2.603-2.534 4.028-4.204.332-.39 1.548-1.89 3.648-4.497.693-.87 1.465-1.304 2.314-1.304.576 0 1.06.186 1.45.557.391.361.586.81.586 1.348 0 1.015.02 2.539.059 4.57.039 2.031.059 3.555.059 4.57 0 .352-.02.88-.059 1.582-.039.703-.059 1.23-.059 1.582Zm5.83 1.729c-.527 0-1.016-.186-1.465-.557-.488-.39-.732-.845-.732-1.362v-2.578c0-1.094.019-2.525.058-4.292.059-2.315.088-3.74.088-4.278.01-.732.073-1.26.191-1.582.195-.547.585-.893 1.171-1.04.84-.224 2.037-.337 3.589-.337 1.67 0 3.194.381 4.571 1.143 1.689.918 2.534 2.173 2.534 3.765 0 1.181-.532 2.119-1.597 2.812 1.787 1.133 2.681 2.324 2.681 3.574 0 1.778-1.46 3.077-4.38 3.897-1.963.556-4.199.835-6.709.835Zm3.398-12.583h-.6c-.371 0-.684.005-.938.015v.98c0 .196.015.528.044.997.039.547.059.879.059.996.41.03.718.044.923.044.654 0 1.298-.107 1.933-.322.85-.293 1.275-.708 1.275-1.245 0-.323-.308-.645-.923-.967-.615-.332-1.206-.498-1.773-.498Zm1.04 5.566c-.214-.039-1.113-.083-2.695-.132-.019.362-.029.89-.029 1.582v2.08c3.535-.156 5.302-.61 5.302-1.362 0-.42-.332-.874-.996-1.362-.586-.44-1.113-.708-1.582-.806Zm16.626 7.017c-2.334 0-4.243-.557-5.728-1.67-1.64-1.23-2.461-2.964-2.461-5.2 0-2.471.65-4.56 1.949-6.27 1.445-1.894 3.393-2.842 5.844-2.842 1.699 0 3.111.274 4.234.82 1.474.723 2.212 1.846 2.212 3.37 0 1.074-.601 2.026-1.802 2.856-.547.381-1.646.938-3.296 1.67l-4.937 2.183a4.437 4.437 0 0 0 1.7 1.142c.664.254 1.425.381 2.285.381 1.308 0 2.417-.268 3.325-.805.81-.479 1.46-.718 1.948-.718 1.016 0 1.524.493 1.524 1.48 0 1.113-.816 2.02-2.447 2.724a10.924 10.924 0 0 1-4.35.879Zm-.396-12.437c-.908 0-1.684.303-2.329.909-.644.605-1.162 1.513-1.553 2.724 1.104-.478 2.203-.952 3.296-1.42 1.319-.597 2.368-1.148 3.15-1.656-.655-.371-1.509-.557-2.564-.557Zm20.742.176a35.2 35.2 0 0 1-1.187-.03c-.517-.028-.908-.043-1.172-.043-.146 0-.307.01-.483.03.205 4.384.308 7.48.308 9.286 0 2.188-.713 3.281-2.139 3.281-.527 0-.991-.16-1.392-.483-.429-.342-.644-.776-.644-1.304 0-.341.015-.859.044-1.552.029-.704.044-1.226.044-1.568 0-1.338-.088-3.872-.264-7.602h-1.304c-.996 0-1.723-.093-2.182-.279-.733-.293-1.099-.854-1.099-1.684 0-.528.181-.982.542-1.362.371-.391.85-.586 1.436-.586h8.657c1.904 0 2.856.654 2.856 1.963 0 .546-.19 1.005-.571 1.376-.371.372-.854.557-1.45.557Zm6.459 7.236c-.547 0-1.001-.17-1.362-.512-.352-.342-.527-.772-.527-1.29 0-.38-.015-.947-.044-1.699-.02-.761-.03-1.333-.03-1.713 0-1.348.01-3.37.03-6.065.029-2.695.044-4.717.044-6.064 0-.518.18-.948.542-1.29.361-.351.81-.527 1.347-.527.537 0 .987.176 1.348.528a1.7 1.7 0 0 1 .542 1.289v15.542a1.7 1.7 0 0 1-.542 1.289c-.352.341-.801.512-1.348.512Zm-.044 5.318c-.586 0-1.133-.313-1.64-.938-.459-.576-.689-1.113-.689-1.611 0-.508.2-.933.601-1.274a2.04 2.04 0 0 1 1.362-.513c.586 0 1.128.312 1.626.937.459.576.689 1.109.689 1.597 0 .498-.201.923-.601 1.274-.391.352-.84.528-1.348.528ZM337.206 230.214c0 1.406-1.04 2.056-3.12 1.948-.108 1.416-.161 3.355-.161 5.816 0 .507.048 1.782.146 3.823.108 2.031.161 3.818.161 5.361 0 .313.044.776.132 1.392.088.615.132 1.079.132 1.391 0 .557-.2 1.016-.601 1.377-.39.371-.874.557-1.45.557-1.191 0-1.865-.601-2.021-1.802-.186-1.406-.279-2.378-.279-2.915 0-1.514-.049-3.257-.146-5.229-.098-1.973-.147-3.291-.147-3.955 0-2.559.049-4.527.147-5.904-.459.069-1.597.103-3.413.103-2.412 0-4.761-.039-7.046-.117.039.38.088.957.146 1.728.157 4.785.235 7.373.235 7.764 0 .459-.03 1.098-.088 1.919a41.568 41.568 0 0 0-.117 1.919c-.01.381-.01.874 0 1.479.009.811.014 1.309.014 1.494 0 1.123-.073 1.89-.219 2.3-.284.82-.904 1.231-1.861 1.231-.576 0-1.064-.181-1.465-.542-.39-.362-.586-.821-.586-1.377 0-2.325.01-3.882.03-4.673.009-.371.049-.996.117-1.875.058-.801.088-1.426.088-1.875 0-.352-.078-2.906-.235-7.661 0-.03-.053-.664-.161-1.905-.586.01-1.103.015-1.552.015-.586 0-1.075-.186-1.465-.557-.381-.371-.572-.835-.572-1.391 0-1.338 1.026-2.007 3.077-2.007h.586c.253.01.434.015.542.015.771 0 1.918.029 3.442.087a97.88 97.88 0 0 0 3.457.088l12.202.03c.586 0 1.074.185 1.465.556.391.371.586.835.586 1.392Zm9.799 21.65c-.84 0-1.724-.097-2.651-.293l-.015 5.977c0 .566-.19 1.035-.571 1.406-.381.371-.864.557-1.45.557s-1.07-.186-1.451-.557c-.38-.371-.571-.84-.571-1.406 0-.459.01-2.28.029-5.464.02-2.363.02-4.292 0-5.786a97.506 97.506 0 0 0-.205-5.449c-.146-2.1-.219-3.062-.219-2.886 0-.811.18-1.504.542-2.08.42-.654.986-.982 1.699-.982a1.87 1.87 0 0 1 1.377.557c.371.371.556.815.556 1.333l-.014.147a8.356 8.356 0 0 1 1.963-.821 7.393 7.393 0 0 1 1.992-.278c2.246 0 3.887.952 4.922 2.856.771 1.436 1.157 3.296 1.157 5.581 0 2.139-.61 3.912-1.831 5.318-1.309 1.513-3.062 2.27-5.259 2.27Zm1.011-12.114c-.615 0-1.24.146-1.875.439-.635.284-1.275.713-1.919 1.29.117 2.011.176 4.028.176 6.049a8.348 8.348 0 0 0 2.607.425c1.006 0 1.777-.356 2.315-1.069.488-.645.732-1.514.732-2.608 0-1.318-.059-2.231-.176-2.739-.283-1.191-.903-1.787-1.86-1.787Zm24.784 10.195c0 .537-.195.987-.586 1.348-.39.371-.874.557-1.45.557-.586 0-1.074-.186-1.465-.557a1.763 1.763 0 0 1-.586-1.348c0-.586.03-1.465.088-2.636.059-1.182.088-2.066.088-2.652 0-.537-.024-1.103-.073-1.699-1.816 2.451-3.447 4.253-4.893 5.405-1.308 1.035-2.28 1.861-2.915 2.476-.634.605-1.318.908-2.05.908a2.672 2.672 0 0 1-1.465-.41c-.498-.332-.747-.796-.747-1.392 0-2.588-.049-5.288-.147-8.1-.107-2.92-.161-4.351-.161-4.292 0-.557.191-1.016.571-1.377.381-.371.874-.557 1.48-.557 1.094 0 1.763.567 2.007 1.699.039.157.083 1.104.132 2.842l.146 5.581c1.26-1.133 2.603-2.534 4.028-4.204.332-.391 1.548-1.89 3.648-4.497.693-.869 1.465-1.304 2.314-1.304.576 0 1.06.186 1.45.557.391.361.586.811.586 1.348 0 1.015.02 2.539.059 4.57.039 2.031.059 3.555.059 4.57 0 .352-.02.879-.059 1.582a31.412 31.412 0 0 0-.059 1.582Zm5.83 1.729c-.527 0-1.016-.186-1.465-.557-.488-.39-.732-.845-.732-1.362v-2.578c0-1.094.019-2.525.058-4.292.059-2.315.088-3.74.088-4.278.01-.732.073-1.259.191-1.582.195-.546.585-.893 1.171-1.04.84-.224 2.037-.337 3.589-.337 1.67 0 3.194.381 4.571 1.143 1.689.918 2.534 2.173 2.534 3.765 0 1.181-.532 2.119-1.597 2.812 1.787 1.133 2.681 2.324 2.681 3.574 0 1.778-1.46 3.077-4.38 3.897-1.963.557-4.199.835-6.709.835Zm3.398-12.583h-.6c-.371 0-.684.005-.938.014v.982c0 .195.015.527.044.996.039.547.059.879.059.996.41.029.718.044.923.044.654 0 1.298-.107 1.933-.322.85-.293 1.275-.708 1.275-1.245 0-.323-.308-.645-.923-.967-.615-.332-1.206-.498-1.773-.498Zm1.04 5.566c-.214-.039-1.113-.083-2.695-.132-.019.362-.029.889-.029 1.582v2.081c3.535-.157 5.302-.611 5.302-1.363 0-.42-.332-.874-.996-1.362-.586-.44-1.113-.708-1.582-.806Zm16.626 7.017c-2.334 0-4.243-.557-5.728-1.67-1.64-1.231-2.461-2.964-2.461-5.2 0-2.471.65-4.561 1.949-6.27 1.445-1.894 3.393-2.842 5.844-2.842 1.699 0 3.111.274 4.234.821 1.474.722 2.212 1.845 2.212 3.369 0 1.074-.601 2.026-1.802 2.856-.547.381-1.646.938-3.296 1.67l-4.937 2.183a4.434 4.434 0 0 0 1.7 1.142c.664.254 1.425.381 2.285.381 1.308 0 2.417-.268 3.325-.805.81-.479 1.46-.718 1.948-.718 1.016 0 1.524.493 1.524 1.479 0 1.114-.816 2.022-2.447 2.725a10.924 10.924 0 0 1-4.35.879Zm-.396-12.437c-.908 0-1.684.303-2.329.909-.644.605-1.162 1.513-1.553 2.724 1.104-.478 2.203-.952 3.296-1.421 1.319-.595 2.368-1.147 3.15-1.655-.655-.371-1.509-.557-2.564-.557Zm20.742.176c-.264 0-.659-.01-1.187-.029-.517-.03-.908-.044-1.172-.044-.146 0-.307.01-.483.029.205 4.385.308 7.481.308 9.287 0 2.188-.713 3.282-2.139 3.282a2.16 2.16 0 0 1-1.392-.484c-.429-.342-.644-.776-.644-1.304 0-.341.015-.859.044-1.552.029-.703.044-1.226.044-1.568 0-1.338-.088-3.872-.264-7.602h-1.304c-.996 0-1.723-.093-2.182-.279-.733-.293-1.099-.854-1.099-1.684 0-.527.181-.982.542-1.362.371-.391.85-.586 1.436-.586h8.657c1.904 0 2.856.654 2.856 1.962 0 .547-.19 1.006-.571 1.377-.371.372-.854.557-1.45.557Zm6.459 7.236c-.547 0-1.001-.17-1.362-.512-.352-.342-.527-.772-.527-1.289 0-.381-.015-.948-.044-1.7-.02-.761-.03-1.333-.03-1.713 0-1.348.01-3.37.03-6.065.029-2.695.044-4.717.044-6.064 0-.518.18-.948.542-1.289.361-.352.81-.528 1.347-.528.537 0 .987.176 1.348.528.361.341.542.771.542 1.289v15.542c0 .517-.181.947-.542 1.289-.352.342-.801.512-1.348.512Zm-.044 5.318c-.586 0-1.133-.313-1.64-.938-.459-.576-.689-1.113-.689-1.611 0-.508.2-.933.601-1.274.4-.342.854-.513 1.362-.513.586 0 1.128.312 1.626.937.459.577.689 1.109.689 1.597 0 .498-.201.923-.601 1.274-.391.352-.84.528-1.348.528Z" fill="#0A2782"/></g><defs><clipPath id="a"><path fill="#fff" d="M0 0h705v624H0z"/></clipPath></defs></svg>