<svg xmlns="http://www.w3.org/2000/svg" viewBox="0 0 712 266.22"><defs><style>.cls-1{fill:#0f2345}.cls-2{fill:#0f2345}</style></defs><g id="Слой_2" data-name="Слой 2"><g id="Layer_1" data-name="Layer 1"><path class="cls-1" d="m200.21 171.15-100.07-70.16-.01-.02-.01.01v-.01l-.02.02-93.55 65.73 5.75 8.19 87.82-61.71 100.09 70.18v-12.23z"/><path class="cls-1" d="m200.24 146.76-100.1-70.19-.01-.02-.01.01v-.01l-.02.02L6.55 142.3l5.75 8.2 87.82-61.72 100.12 70.2v-12.22z"/><path class="cls-2" d="m100.13 125.44-76.35 53.62c-2.86-7-3.75-11.83-3.75-23.92v-34.66l80.1-56.13 100.08 70.2v-24.44L100.13 39.94 0 110.12v50.27a70.83 70.83 0 0 0 18.29 46.93l81.8-57.38 65.49 45.87-65.45 46-48-33.67-17.55 12.21 65.55 45.87 100.11-70.57Z"/><path class="cls-2" d="M.07 0 0 85.66l20.03-14.03V19.89H180.1v51.67l20.11 14.1-.1-85.66H.07zM262.69 21.07h12.24v68.81h28.31V21.07h12.23v68.81h28.31V21.07h12.24v80.38h-93.33V21.07zM394.64 53.13l30.95-32.06h16.07l-36.1 36.4 36.34 43.98h-16.31l-28.55-35.67-2.4 2.41v33.26H382.4V21.07h12.24v32.06zM536.93 61.32c0 23.62-17.64 41.7-41.63 41.7s-41.62-18.08-41.62-41.7 17.63-41.69 41.62-41.69 41.63 18.07 41.63 41.69m-12.24 0c0-17.83-12.24-30.32-29.39-30.32s-29.39 12.54-29.39 30.37 12.24 30.37 29.39 30.37 29.39-12.54 29.39-30.37M612.24 21.07v80.38H600V32.64h-26.63v40c0 9.16-.36 18.44-7.92 24.7a22.84 22.84 0 0 1-14.51 4.82 21.86 21.86 0 0 1-5.4-.72V90.12a15.59 15.59 0 0 0 4.44.73 10.15 10.15 0 0 0 7.2-2.77c4.08-4 4-12 4-19v-48ZM685.65 82.05h-34.19l-8.76 19.4h-13.19l39.82-85.08 37.91 85.08H694Zm-4.92-11.57-11.87-27.23-12.36 27.23ZM260.89 192.31a4 4 0 0 0 .95.1q6 0 6.05-9.23v-55.06h65.47v80h-20.8v-62.39h-24v37.77a31.05 31.05 0 0 1-1.8 10.82 24.82 24.82 0 0 1-5.2 8.49 23.07 23.07 0 0 1-8.23 5.57 28.59 28.59 0 0 1-10.88 2h-1.58ZM393.74 145.73h-24.73v13.37h23.34v17.61h-23.34v13.79h24.73v17.62h-45.53v-80h45.53v17.61zM440.94 145.73v62.39h-20.79v-62.39h-17.08v-17.61h54.96v17.61h-17.09zM458.83 168.12a41.84 41.84 0 0 1 3.29-16.61 41.36 41.36 0 0 1 9.12-13.42 41.78 41.78 0 0 1 14-9 50.94 50.94 0 0 1 35.7 0 42.12 42.12 0 0 1 14.06 9 41.06 41.06 0 0 1 9.18 13.42 43.55 43.55 0 0 1 0 33.21 41.06 41.06 0 0 1-9.18 13.42 42.12 42.12 0 0 1-14.06 9 50.79 50.79 0 0 1-35.7 0 41.78 41.78 0 0 1-14-9 41.36 41.36 0 0 1-9.12-13.42 41.82 41.82 0 0 1-3.29-16.6m21.75 0a21.16 21.16 0 0 0 1.81 8.8 22 22 0 0 0 12 11.62 23.5 23.5 0 0 0 17.3 0 22.66 22.66 0 0 0 7.22-4.61 21.75 21.75 0 0 0 4.93-7 22.32 22.32 0 0 0 0-17.61 21.71 21.71 0 0 0-4.93-7 23.37 23.37 0 0 0-24.52-4.62 22.09 22.09 0 0 0-12 11.62 21.2 21.2 0 0 0-1.81 8.81M556.34 128.11h31q11 0 16.76 5.31t5.73 15.28a20.77 20.77 0 0 1-2.18 10 18.3 18.3 0 0 1-6.63 6.73 25.51 25.51 0 0 1 7.59 2.6 16.45 16.45 0 0 1 5.09 4.3 16.16 16.16 0 0 1 2.82 5.73 26.54 26.54 0 0 1 .84 6.79 24 24 0 0 1-2 10 20.27 20.27 0 0 1-5.52 7.32 23.6 23.6 0 0 1-8.64 4.45 41 41 0 0 1-11.47 1.49h-33.39Zm20.8 31.41H581q9.75 0 9.76-7.74T581 144h-3.82Zm0 32.47h4.56c5.24 0 9-.67 11.25-2A7.86 7.86 0 0 0 593 177c-2.27-1.34-6-2-11.25-2h-4.56ZM623.4 168.12a41.84 41.84 0 0 1 3.29-16.61 41.36 41.36 0 0 1 9.12-13.42 41.78 41.78 0 0 1 14-9 50.94 50.94 0 0 1 35.7 0 42.12 42.12 0 0 1 14.06 9 41.06 41.06 0 0 1 9.18 13.42 43.55 43.55 0 0 1 0 33.21 41.06 41.06 0 0 1-9.18 13.42 42.12 42.12 0 0 1-14.06 9 50.79 50.79 0 0 1-35.7 0 41.78 41.78 0 0 1-14-9 41.36 41.36 0 0 1-9.12-13.42 41.82 41.82 0 0 1-3.29-16.6m21.75 0a21.16 21.16 0 0 0 1.81 8.8 22.09 22.09 0 0 0 4.88 7 21.86 21.86 0 0 0 7.16 4.61 23.17 23.17 0 0 0 24.51-4.61 21.91 21.91 0 0 0 4.93-7 22.32 22.32 0 0 0 0-17.61 21.87 21.87 0 0 0-4.93-7 23.35 23.35 0 0 0-24.51-4.62 22.06 22.06 0 0 0-12 11.62 21.2 21.2 0 0 0-1.81 8.81"/></g></g></svg>