<svg viewBox="0 0 292 108" fill="none" xmlns="http://www.w3.org/2000/svg"><path d="M82.104 69.432 41.066 40.97l-.004-.008-.004.003v-.004l-.008.009L2.686 67.635l2.358 3.322 36.014-25.034 41.046 28.47v-4.961Z" fill="#0A2782"/><path d="m82.116 59.538-41.05-28.475-.004-.008-.004.004v-.004l-.008.008L2.686 57.728l2.358 3.327 36.014-25.039 41.058 28.479v-4.958Z" fill="#0A2782"/><path d="M41.062 50.889 9.752 72.64c-1.173-2.84-1.538-4.8-1.538-9.704v-14.06l32.848-22.772 41.042 28.48v-9.916L41.062 16.203 0 44.673v20.394a28.555 28.555 0 0 0 7.5 19.039l33.546-23.278 26.857 18.608-26.84 18.661-19.685-13.659-7.197 4.953L41.062 108l41.054-28.629L41.062 50.89Z" fill="#0A2782"/><path d="M.029 0 0 34.75l8.214-5.691V8.069h65.643V29.03l8.247 5.72L82.063 0H.029ZM107.726 8.548h5.02v27.914h11.609V8.548h5.016v27.914h11.61V8.548H146v32.608h-38.274V8.548ZM161.838 21.554 174.53 8.548h6.59l-14.804 14.766 14.902 17.842h-6.688l-11.708-14.47-.984.977v13.493h-5.02V8.548h5.02v13.006ZM220.189 24.876c0 9.582-7.234 16.917-17.072 16.917s-17.068-7.335-17.068-16.917 7.23-16.913 17.068-16.913c9.838 0 17.072 7.331 17.072 16.913Zm-5.019 0c0-7.233-5.02-12.3-12.053-12.3-7.033 0-12.052 5.087-12.052 12.32 0 7.234 5.019 12.321 12.052 12.321 7.033 0 12.053-5.087 12.053-12.32M251.073 8.548v32.608h-5.019V13.241h-10.921V29.47c0 3.716-.148 7.48-3.248 10.02a9.417 9.417 0 0 1-5.95 1.955 9.062 9.062 0 0 1-2.215-.292V36.56a6.45 6.45 0 0 0 1.821.296 4.198 4.198 0 0 0 2.953-1.124c1.673-1.623 1.64-4.868 1.64-7.708V8.552l20.939-.004ZM281.178 33.286h-14.021l-3.593 7.87h-5.409l16.33-34.515 15.547 34.515h-5.43l-3.424-7.87Zm-2.018-4.694-4.868-11.046-5.068 11.046h9.936ZM106.988 78.016a1.8 1.8 0 0 0 .39.04c1.64 0 2.467-1.247 2.481-3.744V51.976h26.848V84.43h-8.529V59.12h-9.843v15.322a12.396 12.396 0 0 1-.738 4.39 10.036 10.036 0 0 1-2.132 3.444 9.501 9.501 0 0 1-3.375 2.26c-1.42.555-2.936.83-4.462.81h-.648l.008-7.33ZM161.469 59.12h-10.142v5.424h9.572v7.144h-9.572v5.594h10.142v7.148h-18.672V51.976h18.672v7.144ZM180.825 59.12v25.31h-8.526V59.12h-7.004v-7.144h22.538v7.144h-7.008ZM188.161 68.203a16.788 16.788 0 0 1 5.09-12.183 17.166 17.166 0 0 1 5.741-3.65 21.086 21.086 0 0 1 14.64 0 17.278 17.278 0 0 1 5.766 3.65 16.65 16.65 0 0 1 3.764 5.444 17.473 17.473 0 0 1 0 13.473 16.648 16.648 0 0 1-3.764 5.444 17.277 17.277 0 0 1-5.766 3.651 21.04 21.04 0 0 1-14.64 0 17.168 17.168 0 0 1-5.741-3.65 16.858 16.858 0 0 1-3.795-5.574 16.719 16.719 0 0 1-1.295-6.597v-.008Zm8.92.008a8.499 8.499 0 0 0 .742 3.57 8.978 8.978 0 0 0 4.921 4.714 9.735 9.735 0 0 0 7.095 0 9.273 9.273 0 0 0 2.96-1.87 8.772 8.772 0 0 0 2.022-2.84 8.984 8.984 0 0 0 0-7.144 8.771 8.771 0 0 0-2.022-2.84 9.613 9.613 0 0 0-4.753-2.376 9.677 9.677 0 0 0-5.302.502 9.009 9.009 0 0 0-4.921 4.714 8.518 8.518 0 0 0-.742 3.574M228.149 51.972h12.713c3.007 0 5.298.718 6.873 2.154 1.575 1.436 2.358 3.502 2.35 6.199a8.352 8.352 0 0 1-.894 4.056 7.463 7.463 0 0 1-2.719 2.73 10.55 10.55 0 0 1 3.112 1.055 6.726 6.726 0 0 1 2.088 1.745 6.52 6.52 0 0 1 1.156 2.324c.234.9.349 1.826.345 2.755a9.607 9.607 0 0 1-.82 4.057 8.278 8.278 0 0 1-2.264 2.97 9.695 9.695 0 0 1-3.543 1.805 16.895 16.895 0 0 1-4.704.604h-13.693V51.972Zm8.53 12.742h1.583c2.665 0 4-1.047 4.002-3.14.003-2.093-1.331-3.145-4.002-3.156h-1.567l-.016 6.296Zm0 13.172h1.87c2.149 0 3.691-.271 4.613-.81a3.169 3.169 0 0 0 0-5.274c-.93-.544-2.46-.812-4.613-.812h-1.87v6.896ZM255.65 68.203a16.754 16.754 0 0 1 1.349-6.739 16.727 16.727 0 0 1 3.74-5.444 17.166 17.166 0 0 1 5.741-3.65 21.086 21.086 0 0 1 14.64 0c2.15.823 4.11 2.065 5.766 3.65a16.668 16.668 0 0 1 3.765 5.444c1.8 4.315 1.8 9.159 0 13.473a16.666 16.666 0 0 1-3.765 5.444 17.267 17.267 0 0 1-5.766 3.651 21.04 21.04 0 0 1-14.64 0 17.168 17.168 0 0 1-5.741-3.65 16.873 16.873 0 0 1-3.795-5.574 16.718 16.718 0 0 1-1.294-6.597v-.008Zm8.919.008a8.499 8.499 0 0 0 .742 3.57 8.937 8.937 0 0 0 2.002 2.84 8.93 8.93 0 0 0 2.936 1.87 9.594 9.594 0 0 0 5.302.517 9.532 9.532 0 0 0 4.749-2.387 8.926 8.926 0 0 0 2.022-2.84 8.984 8.984 0 0 0 0-7.144 8.897 8.897 0 0 0-2.022-2.84 9.61 9.61 0 0 0-4.75-2.38 9.668 9.668 0 0 0-5.301.498 8.978 8.978 0 0 0-4.921 4.714 8.518 8.518 0 0 0-.742 3.574" fill="#0A2782"/></svg>