<svg viewBox="0 0 510 532" fill="none" xmlns="http://www.w3.org/2000/svg"><g clip-path="url(#a)"><path d="M509.33 250.04c0-138.75-121.58-250-260.33-250S0 124.12 0 262.87s115.94 239.58 254.65 239.58 254.68-113.69 254.68-252.41Z" fill="#43538A"/><path d="M484.57 254.71c0-129.11-99.7-230.67-227.09-230.67S23.31 131.71 23.31 260.82s103.2 227.66 230.63 227.66c127.43 0 230.63-104.66 230.63-233.77Z" fill="#A8B8F0"/><path d="M387.07 108.43c.31.1.66-.3.61-.69-.08-.66-.49-1.13-1-1.08-.3 0-.44.26-.48.59-.019.268.058.534.218.75.159.217.39.369.652.43Zm3.06 97.56a14.242 14.242 0 0 1-.33-3.3 1.11 1.11 0 0 0-.24-.5 3.152 3.152 0 0 1-.54-2.38 14.36 14.36 0 0 0-.21-2.77 77.282 77.282 0 0 1-.87-8.84 50.351 50.351 0 0 0-1.55-9.31c0-.23-.36-.4-.49-.53a.641.641 0 0 0-.554.103.643.643 0 0 0-.266.497c.25 1.71-.2 3.49.48 5.16a1.508 1.508 0 0 1 0 1.6c-1.11 1.32-.47 3-1 4.45a1.005 1.005 0 0 0 .12.8c1 1.22 1 2.75 1.33 4.17.046.371.203.72.45 1 1.4 1.14 1.27 2.79 1.45 4.32 0 .43 0 1.12-.25 1.31-1.23.88-.7 1.93-.54 3 .386 2.378.642 4.775.77 7.18.07 2.62.81 5.13.94 7.73 0 .51.24 1.34.81 1.32 1 0 .14-.83.3-1.24a4.002 4.002 0 0 0 0-2.44 8.008 8.008 0 0 1 0-2.23c0-.53.34-.89.9-.78.85.17.74-.65 1.1-1a1.162 1.162 0 0 0 .46-1.2c-.16-.82-.08-1.68-1.13-2-.5-.16-.54-.74-.47-1.2a6.12 6.12 0 0 0-.65-2.87l-.02-.05Zm2.81 51.81c.38-1.13-.08-2.15-.58-3.67-.44 1.49-1.12 2.44-.8 3.61a.667.667 0 0 0 .53.56.694.694 0 0 0 .733-.253.694.694 0 0 0 .117-.247Zm-.93-32.12c-.9-.66-.6-1.68-.8-2.56a.948.948 0 0 0-.49-.59c-.37-.13-.4.24-.43.49a5.788 5.788 0 0 1-.36 2.18 1.349 1.349 0 0 0 .12 1.79.491.491 0 0 1 0 .48c-1.25 1.44-.55 3.21-.81 4.81-.06.43-.06 1.09.56 1 .62-.09.52-.7.51-1.14 0-.65-.11-1.29-.16-1.93 0-.28.32-.59.49-.52a.372.372 0 0 1 .3.4c0 .84-.07 1.68 0 2.51a2.446 2.446 0 0 1-1.23 2.58.868.868 0 0 0-.4 1c.47 2 0 4.07.06 6.11 0 .46 0 .92.08 1.37 0 .048.012.096.035.138a.285.285 0 0 0 .375.112c.15-.07.38-.19.39-.31.11-1.1.18-2.22.26-3.33 0-.74.06-1.48.12-2.23s.16-1.34.24-2c.155.18.272.39.343.617.07.227.093.467.067.703a1.279 1.279 0 0 0 1.22 1.54.797.797 0 0 1 .77.7c.09 1.65.78 3.26.44 5-.08.4-.2.75-.65.71-.71-.06-1 .25-1 .94s.4 1 1 1.1l.24-.22v.14a1.65 1.65 0 0 1-.19.09c-.206.184-.4.381-.58.59-1 1.25-.86 2 .39 2.95.229.135.403.348.49.6.298 1.262.455 2.553.47 3.85-.18 1.76-.2 3.53-.27 5.3 0 .32-.12.77.49.8a3.51 3.51 0 0 0 1.25-2.92 9.327 9.327 0 0 1 1.57-5.81.9.9 0 0 0-.1-1.26c-.57-.54-.39-1.11-.21-1.78.46-1.78 1-3.59-.28-5.3a.63.63 0 0 1-.14-.52 4.166 4.166 0 0 0-.43-4.15.921.921 0 0 1 0-.55c.22-1.24-.35-2.38-.45-3.57-.06-.74-.48-.8-1.15-.76-1 .06-1.44-.35-1.49-1.18-.043-.65-.026-1.303.05-1.95.13-2.09-1.16-3.97-.78-6.02h.07Zm-2.22 43.36a.532.532 0 0 0 .53-.37c1.45-2.7 1.13-5.76 2-8.6h-.41a4.53 4.53 0 0 0-.48.26c-.78.43-.53 1.5-1.41 2.39 0-1.22.09-2 .13-2.84.09-1.95.18-3.91.25-5.86 0-.49-.11-1-.66-1.08a1.188 1.188 0 0 0-1.22.51 4.696 4.696 0 0 0-1 2.86c-.11 2.7-.26 5.4-.39 8.1a8.126 8.126 0 0 0 0 2.51c.334 1.831.405 3.699.21 5.55 0 .29-.28.72.38.93.6-1.11 1.31-2.13 1-3.54-.13-.68-.03-.75 1.07-.82Zm-3.26-103.9c.119.549.272 1.09.46 1.62.49-.95 1.19-.84 1.81-1a1.441 1.441 0 0 0 1.13-1.43 14.695 14.695 0 0 0-.45-3c0-.15-.43-.28-.68-.33a.687.687 0 0 0-.46.24c-.12.139-.2.309-.23.49-.18 1 .15 2.35-1.45 2.64-.09.04-.16.52-.13.76v.01Zm-.6-9.35a.375.375 0 0 0-.16-.22.384.384 0 0 0-.23-.08h-.25a1.355 1.355 0 0 0-.24.48c-.53 2.28.67 4.25 1.16 6.35 0 .06.14.11.22.13.4.08.37-.26.43-.44a4.36 4.36 0 0 0 0-.87c-.27-1.78-.6-3.57-.92-5.36l-.01.01ZM150.13 364.7c.45 0 1 .2 1.31-.2.48-.62-.13-1-.51-1.34-.13-.13-.31-.24-.37-.4a.42.42 0 0 1 .53-.6 13.77 13.77 0 0 0 3.92 1.3c.89.23 1.762.524 2.61.88.56.21.51.39-.29 1 2.85 1.71 5.27 2.35 7.28 1.87a2.721 2.721 0 0 0-1.79-.76 3.113 3.113 0 0 1-2.38-1.2c-1.11-1.11-2.3-2.15-3.47-3.2a3.353 3.353 0 0 0-.94-.58 29.987 29.987 0 0 0-5.41-2.07 30.657 30.657 0 0 1-6-2.05c-.26-.11-.53-.17-.8-.26-1-.3-1.25 0-1.25 1.05a2.558 2.558 0 0 0 1.39 2.25c.965.6 1.959 1.151 2.98 1.65a4.39 4.39 0 0 1 2.15 2.06 1.269 1.269 0 0 1 1.04.59v.01Zm-57.84-24.64s.12.07.2.11c-.07-.3-.15-.34-.2-.13v.02Zm.21.14v-.05.05ZM382.18 98.73a1 1 0 0 0-.5 1.18c.52 2.56 2.54 3.94 4.19 5.67.16-.22.25-.29.27-.38.036-.46-.069-.92-.3-1.32-.38-1-1.1-2-1.07-3.13-.46-.57-.89-1.16-1.37-1.7-.32-.41-.72-.68-1.22-.37v.05Zm-44.96 240.05-.59.53.59-.53Zm-92.28 38.64a.836.836 0 0 0-.65-.29c-.55 0-.64.49-.74.92a8.799 8.799 0 0 0 1-.06c.3-.06.52-.33.39-.57Zm147.79-176.49s.11-.12.13-.2c.037-.151.064-.305.08-.46a2.108 2.108 0 0 0-.36.3c-.14.18-.07.33.15.36Zm-55.4 137.63s-.08.12-.12.2c.25-.07.3-.14.12-.2Zm-115.14-310c.29 0 .53-.22.5-.53 0-.14-.21-.29-.36-.38-.44-.27-1.07 0-1.58-.59-2.98.493-5.947 1.043-8.9 1.65a49.63 49.63 0 0 0 10.34-.14v-.01ZM30.57 252.29c.13-.08.33-.22.32-.33a8.135 8.135 0 0 0-.19-1.08c0-.46 0-.48.79-1 .3-.19.74-.25.68-.73-.13-1-.28-2-.49-3 0-.21-.36-.42-.6-.51-.065-.021-.134-.028-.202-.021a.489.489 0 0 0-.428.381c-.2.72-.28 1.49-1.25 1.63-.1 0-.25.28-.24.43a7.492 7.492 0 0 0 1.36 4.14c.03.036.069.064.113.079.044.016.091.02.137.011ZM215.14 30.54a2.87 2.87 0 0 0 1.64-.15c.06 0 .16-.13.15-.19-.01-.06-.07-.43-.15-.45a9.064 9.064 0 0 0-1.62-.3c-1.84-.1-3.68-.17-5.51-.26-1.38.3-2.76.6-4.13.93h.41c3.07.15 6.14.3 9.21.42ZM32.63 235.41a.55.55 0 0 0 .45.21c.12 0 .21-.22.38-.41-.63-2.73-1.26-5.51-1.92-8.29h-.44a1.88 1.88 0 0 0-.4 1c.05.827.18 1.648.39 2.45a21.922 21.922 0 0 0 1.54 5.04Zm188.93-205a1.51 1.51 0 0 0 1.27.82c.1 0 .25-.17.35-.29a.263.263 0 0 0 0-.24 1.875 1.875 0 0 0-1.37-.72c-.12.15-.3.34-.25.43ZM27.72 239.63c.383-3.173.1-6.392-.83-9.45-.61 4-.57 5.65.07 8.58a.93.93 0 0 0 .76.87Zm7.49 19.41a.784.784 0 0 0 .7.29c.3 0 .35-.4.26-.66-.57-1.56-1.16-3.11-1.75-4.66a2.142 2.142 0 0 0-1-1.22c-.25 2.33.94 4.25 1.79 6.25Zm449.35-9.32v-1.25c0-1.35-.09-2.7-.15-4.05 0-.72-.05-1.44-.09-2.16-.04-.72-.09-1.52-.14-2.28a233.51 233.51 0 0 0-79.54-161.4 225.8 225.8 0 0 0-23.56-17.59l-.24-.15c-1.24-.807-2.49-1.6-3.75-2.38-.21-.12-.41-.25-.61-.38l-3.63-2.19-.78-.45c-1.2-.7-2.41-1.4-3.62-2.08l-.8-.44c-1.23-.68-2.46-1.36-3.7-2l-.65-.34a229.051 229.051 0 0 0-21.25-9.83l-1.27-.51c-1.09-.43-2.2-.85-3.3-1.26l-1.7-.64-3.13-1.12-1.93-.67c-1-.35-2-.68-3-1l-2.09-.66-3-.92-2.21-.65-2.93-.83c-.78-.22-1.56-.42-2.34-.63l-2.86-.74c-.87-.22-1.75-.42-2.62-.63-1.13-.27-2.26-.54-3.4-.79-1.45-.32-2.91-.64-4.38-.93-.78-.16-1.57-.3-2.35-.45-1-.2-2-.4-3.07-.58l-2.46-.41c-1-.17-2-.34-3-.49-.82-.13-1.65-.24-2.48-.36-1-.15-2-.29-3.06-.42-.82-.11-1.65-.21-2.48-.3-1-.13-2.08-.24-3.12-.35l-2.46-.25-3.22-.28c-.8-.06-1.59-.13-2.39-.18-1.13-.08-2.27-.15-3.41-.21l-2.25-.13c-1.26-.06-2.53-.1-3.79-.14l-1.91-.06h-4.23c-11.661.07-23.3 1.046-34.81 2.92 1.51-.08 2.9-.76 4.35 0 .2.1.54-.06.81-.12.69-.18 1.08.08 1.14.79 0 .47.07 1 .59 1.15 1.16.36.56 1.28.52 1.87 0 .77-.85.5-1.34.45-.74-.06-1.45-.28-2.18-.38-.12 0-.32.18-.4.32a.603.603 0 0 0 .15.75c.55.46 1.24.3 1.88.38.64.08.78.35.71.92 0 .28.18.65.44.57 1.63-.5 3.31 0 5-.23 0-.48-.06-.92-.1-1.46a9.62 9.62 0 0 1 3.87.34c1.068.329 2.183.477 3.3.44 1 .05 1-.08.78-1.39.5-.35 1.07-.16 1.6-.14a3.816 3.816 0 0 0 3.64-2c.45-.69 1-1.22.52-2.23a17.812 17.812 0 0 1 4.19.27c1.53.364 3.09.592 4.66.68 1.86.21 3.61.67 4.83 2.36a4.359 4.359 0 0 0 2.85 1.59c.33.06.86-.18.91.31 0 .67-.55.59-1 .6h-.84a1.603 1.603 0 0 0-.54.07.636.636 0 0 0-.33.37c0 .14.11.41.21.43 1.111.108 2.175.5 3.09 1.14a.653.653 0 0 1 .22.47c0 .36-.31.37-.58.39a4.468 4.468 0 0 1-1.9-.37 5 5 0 0 0-3.19-.12c1.28.07 2.13 1.31 3.29 1.29a1.923 1.923 0 0 1 2.16 1.65c.22.82.79.95 1.48.95.186.026.374.026.56 0a4.82 4.82 0 0 1 3.52.11 3.57 3.57 0 0 0 2.46.16 7.74 7.74 0 0 1 5.21-.42c1.52-.56 2.8-.06 4.15.69.71.4 1.51.52 2 1.31a2.864 2.864 0 0 0 2.39 1.23 26.354 26.354 0 0 1 8.21 2.23c.51.19.55.63.1 1-.85.66-1.08 1.15-.85 1.75a2.057 2.057 0 0 0 2.102 1.264c.292-.028.574-.118.828-.264a5.42 5.42 0 0 0 2.28-1.86 3.44 3.44 0 0 0 3.6 2.24c.284-.02.565.065.79.24.84.78 2 1 2.92 1.58.52.33 1.55.51 1.36 1.19-.29 1-1.06-.11-1.61 0-.09 0-.19 0-.27.05-.08.05-.18.11-.2.19-.02.08 0 .18.09.26.52.72 1.5.61 2.13 1.24a8.816 8.816 0 0 0 2.13 1.31c.41.208.853.343 1.31.4a.939.939 0 0 0 .74-.25c.19-.24 0-.52-.25-.67-.25-.15-.35-.15-.51-.24-.16-.09-.39-.4-.22-.66a.492.492 0 0 1 .47-.16c1.061.303 2.072.762 3 1.36.385.407.877.698 1.42.84 2 .26 3.32 2 5.18 2.61.39.13.43.59.12.91-.31.32-.53.56-.11.9.42.34.66.16 1-.12.289-.22.597-.414.92-.58.08-.05.19 0 .27-.08.42-.25.38-.57.08-.88-.3-.31-.94-.56-.6-1 .34-.44.85-.06 1.27.12.157.096.329.164.51.2a4.11 4.11 0 0 0 1.64 0c.33-.13.47-.73.69-1.12 1.24.14 2 1.27 3.09 1.61a1.091 1.091 0 0 0 .396.769 1.09 1.09 0 0 0 .834.231l.57.59c-.12 2.07.24 3 1.49 3.38a2.66 2.66 0 0 0 1.6.07c.28-.11.34-.78.51-1.19 0-.08.09-.16.13-.24l1 .11c0 .73 1 1.47 0 2.21-.29.21-.08.5.06.73.262.372.369.83.3 1.28-.17 1.47.49 1.89 1.81 1.25.91-.45 2.47.28 2.53 1.22 0 .46-.38.53-.75.63-.72.19-.32.69-.26 1.09.45 0 .94 0 1.29.33a.495.495 0 0 1 0 .47.53.53 0 0 1-.45.19 1.435 1.435 0 0 1-.91-1c-1 .39-1.16.71-.65 1.21a6.996 6.996 0 0 1 2.07 2.8 3 3 0 0 0 1.07 1.22c1.51 1.18 3.37 1.83 4.74 3.25.23.24.66-.09.73-.53 0-.27 0-.54.07-.82a3.446 3.446 0 0 1-.54-.11c-.07 0-.19-.15-.17-.19.06-.23.23-.31.43-.18.135.12.252.258.35.41a5.139 5.139 0 0 1 3.18 2.08c1.13 1.42 2.81 2.08 4.21 3.12.3.22.72-.07 1-.37a.75.75 0 0 0 0-1 3.632 3.632 0 0 0-.86-.69c-1.47-.94-3-1.84-4.42-2.8-.92-.61-1.81-1.27-2.68-2a2.129 2.129 0 0 1-.8-1.41 1.123 1.123 0 0 1 .745-1.312 1.12 1.12 0 0 1 .545-.038c.71.15 1.41.41 2.11.62.75 1.14 2.22 1.4 3 2.28a15.467 15.467 0 0 0 3.59 2.59c1.4.85 2.83 2.26 4.84 1.29.52-.25 1.07.12 1.45.59.137.197.288.384.45.56 1.29-.8 2 .85 3 .75a3.884 3.884 0 0 0 .25 2.18.74.74 0 0 0 1.16.23 7.3 7.3 0 0 0 .78-.79l1.08.16a3.003 3.003 0 0 0 1.26 2.64 4.28 4.28 0 0 0 3.15.84c.162.042.319.099.47.17-.39 2 .31 3.81.93 5.65.24.705.703 1.313 1.32 1.73.7.48.67-.22.78-.61.01-.09.01-.18 0-.27a8.394 8.394 0 0 1 1.7 2.14c.16.326.388.612.67.84a1 1 0 0 0 .76.09c.35-.11.29-.44.1-.66a6.377 6.377 0 0 1-1.62-2.5 11.696 11.696 0 0 0-1.53-2.88c.45-.95.74-1.12 1.22-.67a21.453 21.453 0 0 1 3.11 3.67c-.02.18-.02.36 0 .54l.44.64c.033.275.121.54.26.78a4.544 4.544 0 0 1 .65 5.35c.27.05.64.22.78.11.72-.57 1.27-.7 1.66.32a26.973 26.973 0 0 0 2.76 5.13c.3.44 1.1 1.54-.59 1.3-.06 0-.25.28-.22.36.187.521.428 1.02.72 1.49a40.136 40.136 0 0 1 3.94 7.33c.198.518.457 1.012.77 1.47a19.392 19.392 0 0 1 2.44 5.56c.87 2.62 1.51 5.33 2.44 7.94.268.883.485 1.782.65 2.69-.08 2.31.94 4.47 1 6.77.95 1.56.9 3.35 1.26 5.06a7.996 7.996 0 0 1-.38 3.52c-.075.332-.254.63-.511.852-.258.221-.58.354-.919.378-1-1.45-1.25-3.26-2-4.86-.75-1.6-1.16-3.35-2-4.91-.84-1.56-1.17-3.17-2.38-4.67-.29 1.43.45 2.4.52 3.51.07 1.11.94 2 1.23 3.07.18.67.46 1.13-.17 1.67-.17.15-.18.51-.22.78-.09.57.28.79 1 .52.28-.1.49-.18.71 0 .22.18.34.55.14.75-.91.91-1.39 2.54-3.23 2-.21-.06-.51.14-.88.25.31 2.4.59 4.77.93 7.14.28 1.92.69 3.83 1 5.75-.02 1.003.04 2.006.18 3 .3.9 1.63 1.11 2 2.14-.55.47-1.11.95-1.68 1.42-.34.29-.64.7-1.28.35a14.556 14.556 0 0 0-.69-6 7.737 7.737 0 0 1-.11-1.94 12.313 12.313 0 0 0-1.34-5.35 1.244 1.244 0 0 0-.57-.52c-.34-.11-.45.22-.57.46a7.22 7.22 0 0 0-.74 4.07c.27 2.3.63 4.59 1 6.86.32 1.83.77 3.63 1.18 5.44.32 1.44.67 2.89 1 4.33-.24 1.12.45 2.11.42 3.19-.63 2.56 0 5.07.32 7.59 0 .14.24.25.37.38 0 .33 0 .67.05 1a.878.878 0 0 0-.079.711.9.9 0 0 0 .469.539c0 .35 0 .69.08 1a6.27 6.27 0 0 0-1.83 2.14c-.21-1.94-.38-3.46-.54-5-.06-.51-.4-.92-.61-.7a1.318 1.318 0 0 0-.39.66 7.998 7.998 0 0 0 .16 3 26.43 26.43 0 0 1 .87 9.37c1.26 2.21 1.39 4.73 1.88 7.13.29 1.45.22 3 .57 4.4a7.355 7.355 0 0 1-.16 4.36 6.693 6.693 0 0 0-.19 3c.38 3.3.73 6.61 1 9.92a1.829 1.829 0 0 0 1 1.76 1.005 1.005 0 0 1 .571.741.993.993 0 0 1-.291.889c-.48.4-1 .5-.27 1.11a2.27 2.27 0 0 1 .82 1.72 42.744 42.744 0 0 0 .34 6.09c.04.464-.032.93-.21 1.36a2.997 2.997 0 0 0-.13 2.16c.33 1 .15 2.14.92 3.13a2.67 2.67 0 0 1-.1 2.67 15.345 15.345 0 0 0-1.1 5c-.4 4 .41 8 0 11.95 0 .55-.07 1.1-.11 1.65a1.376 1.376 0 0 0-.525 1.725c.089.201.224.377.395.515l-.12 1.08a1.15 1.15 0 0 0-.49 1.15c-.74 2-1.47 4-2.24 6-.77 2-1.71 4.12-2.47 6.22a18.782 18.782 0 0 0-1 3.75 5.824 5.824 0 0 1-1.13 3.09c-.37.537-.705 1.098-1 1.68-.62 1-1 2.2-2.2 2.79a.818.818 0 0 0-.37 1c.11.46.36.93.13 1.36-.76 1.47-1.28 3.11-2.81 4.05l-.42-.37c-2.5-2.24-2.45-2.3-.37-5.11.64-.86 1.67-1.61 1.58-2.85a7.087 7.087 0 0 1 1.81-4.84 2.503 2.503 0 0 0 .85-2.25 3.633 3.633 0 0 1 .14-2.71.468.468 0 0 0-.22-.41.487.487 0 0 0-.45.18c-.61 1-.67 2.33-1.62 3.18a3.46 3.46 0 0 0-1.13 2.16c-.37 2.39-2.69 3.72-3.3 6a5.764 5.764 0 0 1-1.29 1.78.873.873 0 0 1-1 .33c-1.67-.57-2.92.39-3.82 1.42-2.19 2.5-4.16 5.19-6.22 7.81-.35.43-.82.83-.79 1.42a6.18 6.18 0 0 1-1.26 3.59.608.608 0 0 0 .07.52.464.464 0 0 0 .45 0c.75-.53 1.48-1.1 2.22-1.65a1.753 1.753 0 0 1 .53-1.25c2.12-1.81 3.31-4.43 5.49-6.22a12.23 12.23 0 0 0 1.71-2.5c.64-.89.66-.88 1.87-.59.89.2 1 .38.64 1-.54.85-1.15 1.67-1.71 2.52-.31.45-.83.9-.86 1.38a4 4 0 0 1-2 2.88c-1.4 1.1-2.33 2.62-3.57 3.86-.26.26-.46.58-.73.83a.577.577 0 0 1-.49.13c-.29-.12-.3-.42-.22-.7a3.72 3.72 0 0 0 .2-.51c.07-.65-.43-.71-.88-.82.09 1.11-1 2.27.19 3.33.06 0 0 .35-.15.49a.5.5 0 0 1-.315.233.484.484 0 0 1-.385-.073c-1.3-.65-1.31-.64-1.95.14-.12.14-.24.29-.35.44a29.343 29.343 0 0 1-4.54 5.24 28.263 28.263 0 0 0-2.91 3.34.586.586 0 0 0 0 .5c.08.12.38.27.43.23.68-.54 1.69-.31 2.28-.81 1.6-1.37 3.64-2.17 5-3.9.45-.585.931-1.146 1.44-1.68.57-.6.83-1.59 1.68-1.77 1.17-.25.32-1.32.89-1.77.57-.45 1-1.3 1.8-1.67 1.08-.48 2.12-1.15 1.8-2.72-.07-.37.63-.53.85-.3 1.09 1.14 1.89.62 2.75-.3.86-.92 2.17-1.74 2.56-3.21a.81.81 0 0 1 .429-.528.832.832 0 0 1 .681-.022c.37.15.37.6.45 1-1.39 1.73-2.89 3.38-4.13 5.2-1.78 2.59-3.36 5.32-5 8a26.78 26.78 0 0 1-7.84 8.47 10.597 10.597 0 0 0-2.78 2.26c-.63.84-.86 2-2 2.45-1.68 3-4.59 5-6.67 7.7-.85-.31-1.63.22-2.43.22-2.41 0-3.79 1.5-5.16 3.12a18.476 18.476 0 0 0-4.87 3.17c-2.12 1.62-4.5 2.92-6.09 5.18-.322.462-.76.831-1.27 1.07-1.79.77-3.25 2.08-5 3-.27-.07-.53-.16-.81-.21-.79-.16-1.56.78-2.37.05.08-1.27 1.51-.76 2-1.52.18-.27.63-.37 1-.51a1.76 1.76 0 0 0 1.33-1.86 2.469 2.469 0 0 1 1.06-1.88 2.311 2.311 0 0 0 .5-3c-.63-1-.2-1.47.43-2.11.63-.64 1.65-.9.66-2-.29-.3 0-.46.22-.66a10.348 10.348 0 0 1 1.86-1.63c1.11-.76 2.4-1.46 2.68-3a3.256 3.256 0 0 0-1 .28 498.95 498.95 0 0 0-7.32 5.5 51.662 51.662 0 0 1-7.49 5.21 14.19 14.19 0 0 0-1.66 1c-.286.229-.53.507-.72.82-.07.11 0 .34.08.5a.236.236 0 0 0 .21.14c.27 0 .54-.1.81-.15a17.472 17.472 0 0 0 5.3-2.39c.48-.26.87-.75 1.47-.71.261.046.5.176.68.37.09.08.06.4 0 .51a8.565 8.565 0 0 1-1.55 1.57 5.242 5.242 0 0 0-2.5 3.19c-.139.443-.374.85-.69 1.19-.23.27-.63.65-.88.6-1.51-.28-2.51 1-3.9 1.18-1.06.12-1.21.67-.82 1.84.22.66.78 1.29 0 2-.29.27.18.35.38.48.29.214.567.444.83.69l-.24.44a9.712 9.712 0 0 0-3.78 1.61 30.169 30.169 0 0 1-4.92 2.54c-3.16 1.26-6.14 2.9-9.48 3.79a65.545 65.545 0 0 0-7.7 3c-.85.35-1.69.75-2.54 1.12a1.278 1.278 0 0 0-.72 1.09c-.43-.15-.94-.54-1.28-.43-1.46.49-3-.22-4.5.47a32.212 32.212 0 0 1-5.83 1.55c-.71.17-1.59 0-2.16.34-1.35.86-2.91 1.08-4.33 1.68-2.09.42-4.23.58-6.16 1.62a4.847 4.847 0 0 1-1.35.29 49.6 49.6 0 0 1-6.09.39 8.228 8.228 0 0 1-4-.53 1.517 1.517 0 0 1 0-.33c.1-1.49.1-1.48 1.38-1.68a10.943 10.943 0 0 0 3.21-.87c.63-.31.62-.58 0-1.15-.2-.18-.55-.39-.54-.56 0-.42.42-.55.82-.55a9.652 9.652 0 0 0 3.58-.38 10.09 10.09 0 0 1 3-.55c.829-.096 1.648-.26 2.45-.49a.324.324 0 0 0 .238-.145.332.332 0 0 0 .042-.275.483.483 0 0 0-.58-.42c-.37 0-.72.2-1.08.26-.974.308-1.981.496-3 .56-2.5-.18-5 .6-7.49.24a1.781 1.781 0 0 0-.55.1c-.56.13-.8.64-.6 1.29.37 1.18.33 1.28-.76 1.25a32.289 32.289 0 0 0-7.22.18 1.787 1.787 0 0 1-2-.6c-2.13-.09-4.26-.19-6.4-.26a6.983 6.983 0 0 0-1.37.09.536.536 0 0 0-.33.38.64.64 0 0 0 .14.5c.188.2.403.371.64.51.35.23 1 .23.72.9-.17.38-.62.35-1 .32a8.263 8.263 0 0 1-3-.37 2.222 2.222 0 0 0-2.94.76 1.567 1.567 0 0 1-1.67.63c-.63-.08-.48-.38-.22-.72.1-.14.32-.34.28-.42a9.183 9.183 0 0 0-.9-1.66c-.29-.38-.84-.34-1.3-.35a7.289 7.289 0 0 1-1.89-.41c-1.23-.38-2.49-.66-3.76-.92-.41-.09-.75.08-.51.61s.38.89-.37 1c-.54.07-1 .34-1.62.08a4.437 4.437 0 0 0-2.2-.2c-.13 0-.36.2-.35.3a.638.638 0 0 0 .27.44 3.147 3.147 0 0 0 1.88.35 1.784 1.784 0 0 1 1.9 1.23c.4 1 .91 1 2.21.41.56-.25 1.19-.38 1.57 0a3.787 3.787 0 0 0 3 1 8.204 8.204 0 0 1 3.53 1.09 2.91 2.91 0 0 0-2.43 1.2c-.33.46-.83.3-1.24 0-.41-.3-.57-.45-.85-.68.183.01.367.01.55 0 .08 0 .21-.11.2-.16a.255.255 0 0 0-.033-.135.252.252 0 0 0-.367-.075 1.928 1.928 0 0 0-.39.37l-2.19-.1-.26-.24c.079.089.152.182.22.28 0 .75-.12 1.51.85 1.79a.72.72 0 0 1 .51.87c0 .44.15.73.58.75 1.2.11 2.406.14 3.61.09 2.53-.2 5-1.09 7.61-.1.357.12.743.12 1.1 0a15.105 15.105 0 0 1 5-.2h3.61c.43 0 1.13-.47 1.22 0 .19.89-.74.46-1.15.66-.25.12-.47.28-.71.42-3.133.405-6.3.485-9.45.24a2.882 2.882 0 0 0-1.88.35h-.94l-1.77-.06c-3.17-.15-6.33-.29-9.49-.47-.6 0-1.55.28-1.74-.44-.25-1 1-.53 1.35-1 .248-.213.512-.407.79-.58l-2-.45a2.68 2.68 0 0 1 1.82-.63c.25 0 .38-.14.29-.36-.09-.22-.22-.36-.34-.37-1.58-.11-3.16-.18-4.73-.27-1.13 1-2.06.71-3-.33a2.829 2.829 0 0 0-1.69-.91c-1.87-.11-3.59-.88-5.47-1a37.59 37.59 0 0 1-5.75-1c-.78-.18-1.94-.24-1.75-1.65 0-.39-.46-.53-.77-.72a4.493 4.493 0 0 0-2.16-.42 13.768 13.768 0 0 1-3-.35 32.008 32.008 0 0 0-6.95-1.94c-.67-.07-1.46-.36-1.32-1.44.07-.58-.45-.77-.95-.73a2.728 2.728 0 0 0-1.05.28 13.611 13.611 0 0 1-2.91 1.5c-1.08.25-2.11-.55-3.15-.92a3.04 3.04 0 0 0-.54-.14 26.58 26.58 0 0 1-7.22-1.93.515.515 0 0 0-.27 0c-.17.05-.337.11-.5.18.07.16.1.4.21.46.75.361 1.521.675 2.31.94 1.59.5 3.23.83 4.43 2.18a2.06 2.06 0 0 0 1.29.39c1.12.015 2.22.307 3.2.85a3.327 3.327 0 0 0 1.58.47c1.577.072 3.138.355 4.64.84 1.507.469 3.072.721 4.65.75a2.19 2.19 0 0 1 1.78.64 6.559 6.559 0 0 0 4.77 1.93c.44 0 1.2-.06 1.2.43 0 .76-.67.11-1 .2a5.315 5.315 0 0 0-2.57.91 18.023 18.023 0 0 0-5.1-.77c-1.45 0-2.91-.16-4.36-.25-.09-1.13-.08-1.11-.74-.81-.387.246-.825.4-1.28.45a9.877 9.877 0 0 1-4.93-1.28c-.18-.12-.22-.44-.33-.66a1.25 1.25 0 0 1 .51-.15c.85.08 1.64 1 2.58.23-.43-1.34-1.7-.53-2.49-1a6.876 6.876 0 0 0-3.23-.6c-.92-.4-1.82-.88-2.77-1.2-3.13-1-6.3-2-9.32-3.39a1.002 1.002 0 0 0-1.13-.47 8.42 8.42 0 0 0-3.85-.81c-.19-.61-.63-1.19-.31-1.86a1.24 1.24 0 0 0-.74-1.81c-2.11-.78-3.73-2.37-5.74-3.31a3.809 3.809 0 0 1-1.78-1.23 1.253 1.253 0 0 1-1.09-.61 4.72 4.72 0 0 1-2.07-.36 6.79 6.79 0 0 0-2.84-.55 2.804 2.804 0 0 0-.4-.37.286.286 0 0 0-.133-.056.283.283 0 0 0-.263.097.286.286 0 0 0-.064.129s.07.18.15.21c.164.081.334.148.51.2a14.65 14.65 0 0 0 2.94 2.06l4.71 2.36c1.46.73 2.76 1.77 4.4 2.19.91.22 1.29.92.89 1.28-.64.57-1-.12-1.38-.4-.38-.28-.83-.34-1.17.13a8.25 8.25 0 0 1-1.23-.49 11.848 11.848 0 0 0-4.29-1.41 2.317 2.317 0 0 1-1.91-1.45 3.319 3.319 0 0 0-2.26-1.83c-1.46-.55-3-1-3.85-2.52a.998.998 0 0 0-.39-.37c-.55-.25-2.53.21-2.79.72-.53 1 .73 1.09 1 1.69.08.168.173.328.28.48a3.8 3.8 0 0 1-2.14-.51c-1.78-1.35-4-1.95-5.75-3.34a80.146 80.146 0 0 0-9-5.88c0-.08-.08-.23-.12-.23a2.564 2.564 0 0 0-.47.07h-1c.18-1.06-1-1.57-1-2.49a2.736 2.736 0 0 0-1.67-2.36c-4-2.36-7.73-5.13-12.13-6.72l-.78-.29a1.474 1.474 0 0 1-.823-.505 1.475 1.475 0 0 1-.337-.905c0-1.82-1.28-2.41-2.73-2.6a3.707 3.707 0 0 1-3-1.73 1.578 1.578 0 0 0-1.7-.71.606.606 0 0 0-.542.523.609.609 0 0 0 .022.267 5.88 5.88 0 0 0 1.63 1.88c.27.25.64.5.35.9a1.002 1.002 0 0 1-.73.26 3.203 3.203 0 0 1-2.6-.73 2.603 2.603 0 0 0-1.81-.55c.07.35 0 .78.24 1 1.32 1.62 2.53 3.36 4.52 4.25 1 1.2 2.46 1.61 3.61 2.54 1.74 1.43 3.2 3.17 5.07 4.52a8.443 8.443 0 0 1-3.6-.34 22.856 22.856 0 0 1-6.3-4.42c-2.33-2.37-4.42-5-7.08-7a36.51 36.51 0 0 1-5.46-4.7 2.133 2.133 0 0 0-2-.71c-.11.06-.29.18-.38.22.09 0 .27-.16.39-.22.24-1.41.24-1.41 1.48-1.39 1 0 1.81-.23 2-1.37l1.08.11c0 .64 0 1.29.66 1.67 1.63.92 3.26 1.86 4.9 2.76.07 0 .28-.18.42-.28l-.21-.27.24.25 1.61.34c.67.15 2.37-.45 2.61-1.07.24-.62-.43-1.14-.82-1.62a3.484 3.484 0 0 0-2.5-1.55c-.43 0-.84-.39-1.28-.48a2.001 2.001 0 0 1-1.43-1.53c-.1-.352-.16-.714-.18-1.08-.07-.57-.38-.84-.93-.66a1.484 1.484 0 0 1-1.51-.38c-.86-.7-1.77-1.32-2.64-2-1-.84-1.41-.76-1.85.54a6.772 6.772 0 0 0-.21 1.36c-1.55-2.33-3.76-4-5.78-5.86-1.81-1.64-3-3.67-4.67-5.4a2.8 2.8 0 0 1-.36-1 2.403 2.403 0 0 0-.71-2.28c-.68-.88-1.42-1.72-2-2.65-.49-.77-1-1.62-.39-2.6a1.092 1.092 0 0 0-.12-1.29 2.491 2.491 0 0 1-.61-1.53c-.07-.1-.14-.19-.2-.29l.25.24a2.467 2.467 0 0 0 2-.55c.71-.65.82-1.15.23-1.85-.59-.7-1.2-1.37-1.83-2a2.642 2.642 0 0 1-.75-2.24l-.19-.32.29.23c.36.06.89 0 1.07.21 1.1 1.36 3.16 2 3.18 4.19 0 .59.48 1 .75 1.47a30.205 30.205 0 0 0 3.45 4.36c1.38 1.62 2.65 3.34 4 5 .165.227.29.481.37.75a10.997 10.997 0 0 0 2.8 3.78c.32.35.73.64 1.23.39a1.823 1.823 0 0 1 2.26.48c.27.26.7.4.9 0 .2-.4-.17-.7-.48-.9-.31-.2-.91-.35-1.19-.67-1.6-1.81-3.17-3.64-4.68-5.5a14.818 14.818 0 0 1-1.69-2.55 10.836 10.836 0 0 0-2.05-2.63c-.71-.72-.81-2-1.95-2.27-1.5-.38-.59-2.07-1.54-2.74a2.543 2.543 0 0 1-.37-.42 31.99 31.99 0 0 1-3.85-4.75c-.35-.59-.81-1.39-1.7-1.25-.89.14-.82.92-1.15 1.47-.21.36-.47.45-.75-.1-.38-.77-1.45-1.06-1.53-2.1 0-.21-.34-.44-.57-.58a.767.767 0 0 0-1 .07c-.22.21-.34.54-.16.75.566.837.939 1.79 1.09 2.79a1.53 1.53 0 0 1-.57 1.94.91.91 0 0 0-.21 1.25 9.978 9.978 0 0 0 1 1.69 5.944 5.944 0 0 1 1.26 5 10.174 10.174 0 0 0-2.29-2.9c-.59-.51-1.38-.94-1.45-1.88a.651.651 0 0 0-.47-.62 4.354 4.354 0 0 0-2.07-3.45 7.342 7.342 0 0 0-2.63-2.65 4.588 4.588 0 0 1-2.49-2.75 5.769 5.769 0 0 0-2-2.84 2.442 2.442 0 0 0-.51-1.83 3.788 3.788 0 0 1-1.13-2.47c0-.42-.38-.82-.57-1.24-.51-1.1-1-2.2-1.5-3.3a1.898 1.898 0 0 1-.1-1.86 1.29 1.29 0 0 0-.23-1.53c-.7-.93-.8-2.33-2.14-2.76.45-1.52-1.31-2.16-1.36-3.45a2.195 2.195 0 0 0-1.05-1.82 2.451 2.451 0 0 1-1-2.44 2.74 2.74 0 0 0-.56-1.82.576.576 0 0 0-.465-.24.576.576 0 0 0-.465.24 2.17 2.17 0 0 0-.62 1.78c.12.347.217.701.29 1.06 0 .25-.08.64-.25.73-.4.2-.63-.14-.86-.45-.42-.55-.35-1.49-1.26-1.68a1.428 1.428 0 0 0-.15 1.35c.19.62.48 1.21.68 1.83.08.26-.09.69-.32.65-1.19-.2-2.43-.45-3-1.65a17.652 17.652 0 0 1-1.24-3.06c-.24-.82.09-2.1-1.51-1.29-.09.05-.31-.16-.46-.25a3.332 3.332 0 0 1-1.8-3.22c0-.83.17-1.77-.71-2.25-1.38-.74-1.8-2-2.21-3.37a34.23 34.23 0 0 0-1.47-3.56c-1.39-.61-1-2-1.47-3.11-.47-1.11.48-2.29.2-3.49 0-.22.45-.21.7-.08a1.515 1.515 0 0 1 .68 1.16c.1.45.19.92.87.95a4.55 4.55 0 0 0-.26-3.47 15.389 15.389 0 0 1-.85-2.06.93.93 0 0 1 .69-1.29c.179-.035.345-.118.48-.24a.72.72 0 0 0 .1-.47c0-.06-.11-.16-.18-.18a2.29 2.29 0 0 0-.8-.17 2.796 2.796 0 0 1-2.68-1.09c-.367 4-.63 8.053-.79 12.16h.35c-.02.176-.067.349-.14.51a.727.727 0 0 1-.23.19c-.1 2.75-.17 5.52-.17 8.3 0 128.59 102.39 226.87 229.09 227.64h4.67c2.14-.06 4.26-.14 6.38-.26l1.9-.12c1.49-.09 3-.18 4.45-.3l2.29-.2 4-.39 2.41-.28c1.3-.15 2.59-.31 3.88-.49.81-.1 1.61-.22 2.42-.33 1.29-.19 2.58-.39 3.86-.6l2.34-.39c1.33-.23 2.66-.47 4-.73l2.15-.41c1.46-.29 2.91-.61 4.35-.92l1.71-.38c2-.46 4-.943 6-1.45h.15c1.4-.36 2.79-.74 4.17-1.13.19-.05.38-.09.56-.15l.92-.25c1-.28 2-.58 2.93-.87l.9-.27 1.77-.53c1-.3 1.91-.62 2.87-.93.96-.31 1.78-.57 2.66-.87l.71-.25 1.16-.41c1.2-.42 2.4-.84 3.6-1.28h.09l.73-.27a233.86 233.86 0 0 0 75.74-46.24l.19-.17 1-.92c1-.89 1.92-1.78 2.87-2.68l.56-.55 2.36-2.3 1-1c3.867-3.88 7.597-7.88 11.19-12l.16-.17c1.15-1.32 2.27-2.66 3.39-4l.2-.24c1.12-1.36 2.22-2.72 3.31-4.1a2.09 2.09 0 0 1 .19-.23 281.134 281.134 0 0 0 3.35-4.37 233.604 233.604 0 0 0 27.84-48.69c.11-.27.23-.53.34-.8.11-.27.34-.82.5-1.23.33-.77.64-1.55 1-2.33.24-.61.49-1.21.73-1.81.34-.87.66-1.74 1-2.61a108.818 108.818 0 0 0 1.68-4.57c.45-1.26.9-2.51 1.32-3.78l.14-.42c.05-.16.1-.32.16-.49.51-1.55 1-3.1 1.5-4.66v-.19c.62-2 1.21-4.02 1.77-6.06a208.96 208.96 0 0 0 1.62-6.18l.18-.72c.46-1.86.89-3.74 1.3-5.62 0-.21.1-.42.14-.63.42-2 .82-3.94 1.2-5.92 0-.11 0-.23.07-.35a235.19 235.19 0 0 0 3.4-26.27v-.52c.13-1.76.23-3.52.32-5.29v-.31l.06-1.7c0-1.26.1-2.51.13-3.76s0-2.19 0-3.29v-2.5c.07-1.59.04-3.15.01-4.71h.05Zm-241-221.24c-.14 0-.28-.15-.43-.23l.44-.23.43.25c-.24.08-.38.21-.53.21h.09Zm55 13.86a3.07 3.07 0 0 1-1.91-.47c.84-.17 1.46-.27 1.95.44l.22.27-.26-.24Zm4 1.07c0-.09 0-.22-.09-.26-.09-.04.06.17.09.26l1.27.79c-.195.17-.414.312-.65.42-.41.13-.88.18-1.07-.35-.19-.53.11-.61.33-.86h.12Zm8.14 5.83c-.23.62.26 1.69-.84 1.76-.73.05-.87-.84-1.23-1.34a1.586 1.586 0 0 0-1.16-.68c-2.43-.19-4.48-1.57-6.78-2.2a.535.535 0 0 1-.26-.42c0-.32.25-.44.56-.36.31.08.34.14.52.18 2.32.51 2.32.51 3.79-1.49l1 .27a1.115 1.115 0 0 0 .76 1c1 .3 1.94.58 2.87 1 1.18.54 1.22.71.65 2.28h.12Zm1.38 2.54a.178.178 0 0 1-.09-.17c0-.05.12-.08.18-.12.06-.04.18.06.19.11.01.05-.2.24-.42.18h.14Zm4.32-.59a.523.523 0 0 1-.46.16 3.179 3.179 0 0 1-1.61-.94c-.48-.55-.2-1 .28-1.35l1 .26c0 .6.44 1 .77 1.38a.571.571 0 0 1 .008.257.574.574 0 0 1-.108.233h.12Zm5.46 3c-.11.13-.27.35-.36.33-.87-.19-1.74-.4-2.59-.64-.33-.09-.3-.41-.22-.66a1.061 1.061 0 0 1 .87-.78 6.102 6.102 0 0 1 2.33 1.5c-.08.02-.11.16-.15.22l.12.03Zm3 2.28c-.37 0-.76-.08-.83-.52-.07-.44.36-.55.69-.67l.26-.07.92.33c-.16.64-.49.97-1.17.9l.13.03Zm13.91 7.72c-.11.06-.28 0-.42 0 .08-.1.14-.24.24-.28.16-.04.325-.061.49-.06-.22.08-.31.25-.44.31l.13.03Zm6.45 10.64-.22-.29.28.24.21.28-.27-.23Zm1.49-1.13a.862.862 0 0 1-.84-.54l-.22-.26.25.23c.35.05.71.09 1.05.16.07 0 .12.11.18.17-.27.05-.4.21-.55.21l.13.03Zm32 15v.57a1.612 1.612 0 0 0-.49-.07l.47-.48a1.462 1.462 0 0 1-.12-.42 1.272 1.272 0 0 1-.5-1.13c-.09-.14-.28-.35-.24-.41.23-.34.4-.08.57.11a1.244 1.244 0 0 1 .54 1.09l.56.17-.79.57Zm7.17-3.25c.1 0 .25-.06.36-.1-.22-.01-.37.01-.47.05l.11.05Zm3.56 8.66-.21.05.21-.05Zm5.38 11.56c-.65-1.67-1.21-3.39-2.67-4.57a2.527 2.527 0 0 0-.55-2.06 2.876 2.876 0 0 1-.88-1.37c-.1-.46 0-1.2.32-1.2.42 0 .63.33.85.62.37.5.56 1.17 1.25 1.39.21.55.21 1.19.73 1.6a1.212 1.212 0 0 0 .45 1.16 16.008 16.008 0 0 1 2.58 5.7c-1.07-.05-1.47-.96-2.19-1.32l.11.05Zm-18 202.57c-.029.179-.07.356-.12.53 0 .08-.14.19-.19.18a.258.258 0 0 1-.216-.163.258.258 0 0 1 .046-.267c.122-.129.256-.247.4-.35.5-1.2.84-1.56 1.34-1.37.087.04.155.111.19.2.07.46-.27.76-1.54 1.19l.09.05Zm2.53-2.81a.735.735 0 0 1-.2.09l-.26.23v-.16a.753.753 0 0 1 .21-.08l.25-.23s-.06.07-.09.1l.09.05Zm1.36-1.87c-.1.21-.35.47-.55.48-.2.01-.34-.32-.29-.58a.496.496 0 0 1 .53-.49.406.406 0 0 1 .223.224.425.425 0 0 1-.003.316l.09.05Zm-51.54 45.23a.462.462 0 0 1 .14.43c0 .11-.26.16-.4.23-.1-.12-.28-.25-.28-.36a.341.341 0 0 1 .45-.35l.09.05Zm-2.4 4.54a.352.352 0 0 1 .501-.144c.056.035.1.085.129.144.118.228.196.475.23.73l.21.28-.26-.23a3.201 3.201 0 0 1-.71-.29.48.48 0 0 1-.19-.54l.09.05Zm-142.86 23a.268.268 0 0 1-.22-.06v-.19c0-.07.15-.08.21-.06.09.02.11.11-.08.23l.09.08Zm-97.52-43.85a.468.468 0 0 0 0-.43.472.472 0 0 1-.09.35l.09.08Zm-1.77-2.53 1.57 1.84-1.57-1.84c-.25-.26-.5-.51-.74-.77.98-.03.98-.03.65.69l.09.08Zm-18.94-27.63c-.11 0-.2-.3-.17-.43s.23-.17.36-.25c.11.11.3.21.31.33a.33.33 0 0 1-.59.27l.09.08Zm-41.74-54.96.18-.48a3.01 3.01 0 0 0 0-.52c.01.173.01.347 0 .52-.09.16-.18.32-.18.48Zm1.06-4.38c0-.08.12-.14.18-.2s.16.13.17.21c.09.53.27 1.1-.14 1.55-.41.45-.53-.95-.27-1.56H25Zm1.24 13c-.07-.16-.21-.32-.2-.47.01-.15.18-.28.28-.42l.21.47-.29.42Zm14.8 17.86-.51.13c-.25.06-.57.19-.66-.15-.09-.34.21-.45.48-.51a3.06 3.06 0 0 1 .53-.08c0 .2.1.41.16.61h.55-.55Zm.89.09c.126.061.244.139.35.23a1.616 1.616 0 0 0-.34-.23h-.01Zm8.73 16.63a.879.879 0 0 1 .28.26 1.003 1.003 0 0 0-.31-.26h.03Zm28.13 42.48-1.62-.87a1.9 1.9 0 0 1-1-1.7 1.303 1.303 0 0 1-1.13-.59c.12-.31.11-.77.55-.74.19 0 .41.33.51.55.071.247.101.503.09.76 1.46-.13 2.24.82 2.89 1.9.08.13-.17.45-.27.68.13 1 1 1.48 1.68 2-.75-.55-1.55-.99-1.7-1.99Zm1.87-.89c-.34.22-.84-.23-.88-.75 0-.16.13-.33.2-.5l.12-.25.55.53c-.02.3.43.68.01.94v.03Zm116.44 56a13.307 13.307 0 0 1-2.46-.3 11.916 11.916 0 0 0-3.28-.51 7.089 7.089 0 0 1-4.16-1.29l.12-1c1.518.215 3.024.512 4.51.89a16.76 16.76 0 0 0 3.21.51c.89.31 2 .33 2.06 1.68v.02Zm47.6-4.39a3.162 3.162 0 0 1-2.45-1c-.31-.32-.91 0-1.08.47-.24.61.25 1.28-.22 1.9-.253.06-.511.093-.77.1-2.08-.19-4.12-.74-6.25-.33-1 .19-1.41-.67-1.94-1.53 1-.38 2 0 2.92-.09.37 0 .84-.08.89-.49.22-1.9 1.89-.85 2.76-1.4a9.562 9.562 0 0 0 5.17.29c.61-.11 1.81 0 1.16 1.33.97.47 1.05.72-.19.73v.02Zm-5.68-3.22c-.13 0-.28-.25-.3-.39a.545.545 0 0 1 .17-.46c.4-.2.92-.58 1.25-.47 2.23.77 4.56.4 6.82.72.14 0 .25.15.5.31-2.86.96-5.65.65-8.44.27v.02Zm11.17 2.67a.245.245 0 0 1-.096.065.245.245 0 0 1-.114.015c-.22-.07-.24-.2 0-.31h.23c.08 0 .01.18-.02.21v.02Zm45.06-.82v-.14.14c.09.09.18.23.26.29-.08-.08-.17-.22-.26-.31v.02Zm23.19-15.43a27.206 27.206 0 0 0-5.79 2.61 3.993 3.993 0 0 1-1.57.52c-.13-2 1.25-2.92 2.77-3.65.55-.27 1.17-.38 1.74-.71 1.71-1 2-.86 2.85 1.23Zm.61.38a2.255 2.255 0 0 1 0-.26c.01.07 0 .16 0 .24v.02Zm51.67-34.69.17.14-.17-.14Zm24.65-130.89c.16-1 1.34-1.4.84-2.76 1 .69.44 1.68 1.17 2l.13 1.67a2.854 2.854 0 0 1-2.14-.93v.02Zm3.24 10v.59c-.72.38-.56 1.09-.67 1.71a4.328 4.328 0 0 1-.4 1 .304.304 0 0 1-.23.13c-.15 0-.37-.09-.42-.2a2.471 2.471 0 0 1-.29-1.06 4.531 4.531 0 0 0-.38-2.67c-.13-.23-.27-.6-.18-.78.67-1.31.12-2.54-.25-3.75a2.205 2.205 0 0 1 .34-1.83 1.732 1.732 0 0 1 1.81-1c.36-.46.46-.66.24-.85.22.19.12.39-.24.85v2.19a2.068 2.068 0 0 1 .33 1.71 2.073 2.073 0 0 0-.33-1.76c-.18.8-.49 1.61.27 2.3v2.19a.913.913 0 0 0 .41 1.15c.23.14.31.27.25.39.07-.1-.03-.23-.26-.37v.06Zm0-58.89v-2.7a1.804 1.804 0 0 1-.37-.36c-.12-.21 0-.37.2-.39 0 0 .12.13.13.21.01.18.01.36 0 .54a5.835 5.835 0 0 1 1.33 2 .718.718 0 0 1-.3.94.858.858 0 0 1-.48.21c-.18-.07-.47-.21-.48-.51l-.03.06Zm-2.25 133.76c1-2.16 1.35-4.58 2.88-6.49.59.13 1 .42 1 1.09 0 .67-.09 1.46-.14 2.18-.79.76-1.73 1.4-1.77 2.67 0 .33.1.79-.4.9a4.375 4.375 0 0 1-1.08.15c-.25-.09-.57-.32-.46-.56l-.03.06Zm3.78 7.06a15.16 15.16 0 0 1-.68 1.81c-1.1 1.9-2.26 3.77-3.44 5.62a.861.861 0 0 1-.75.19c-.32-.05-.3-.39-.28-.66.026-.926.177-1.844.45-2.73.63-1.74 1.17-3.51 1.7-5.29a27.11 27.11 0 0 1 2.25-5.08 2.948 2.948 0 0 1 1.81-1.62c0 .57-.17 1.17.39 1.61a16.784 16.784 0 0 1-1.42 6.09l-.03.06Zm1.74-52.48.45.23-.45-.23Zm3.83-121.33-.19.05.19-.05Zm0 102.37-.07 3.3-1.21.07-1.4-2.43c.47 0 1.07-.1.92-.72a14.618 14.618 0 0 1 .14-6c0-.14-.13-.32-.2-.48.33-1.17-.52-2-1-2.85l.09-1.06a5.12 5.12 0 0 0 .57-2.77c-.34-.08-.69-.13-1-.23.33.1.68.15 1 .23a1.61 1.61 0 0 1 .73-1.21 1.504 1.504 0 0 0 .91 1.77c0 1.49-.11 3-.16 4.48v1.09l-.06 1.7c0 .6-.19 1.22.37 1.69 0 .55.06 1.1.1 1.66.221.206.366.481.41.78a1.291 1.291 0 0 0-.42-.78 1.822 1.822 0 0 0 .36 1.7l-.08.06Zm.37-89.43c-.11.13-.28.24-.32.39 0-.15.21-.26.32-.39a.81.81 0 0 1 .75.32.813.813 0 0 0-.67-.38l-.08.06ZM32.94 251.92c-.09 0-.32.19-.32.29a.653.653 0 0 0 .27.42c.164.075.34.122.52.14a1.78 1.78 0 0 0-.09-.53.631.631 0 0 0-.38-.32Zm323 77.65c0-.07-.08-.14-.12-.21-.04-.07-.18.06-.2.11a.28.28 0 0 0 0 .24c.19.15.32.09.32-.14Zm22.84-35.65c.17 0 .42 0 .49-.08.3-.45.57-.93.83-1.41a37.356 37.356 0 0 0 3-6.19c0-.13-.12-.31-.18-.47-.16.06-.42.07-.47.18a63.732 63.732 0 0 1-3.68 6.42 1.458 1.458 0 0 0-.09 1.33c.01.08.08.21.13.22h-.03Zm-6.2-204.2a.542.542 0 0 0 .25-.72 6.371 6.371 0 0 0-2.93-3c.27 1.47 1.26 2.49 2 3.65.04.1.5.14.71.07h-.03Zm12.58 27.41c.423.829.794 1.684 1.11 2.56.34 1.1.93 2.25-.11 3.34a.99.99 0 0 0-.182.521.991.991 0 0 0 .122.539 13.74 13.74 0 0 0 1 2.29c.45.7 0 1.72.79 2.24a2.917 2.917 0 0 0 1.22-.61c.61-.46 1-1.31 1.57 0a1.233 1.233 0 0 1 .951.462 1.245 1.245 0 0 1 .249 1.028c0 .56.55.76 1 .63a1.006 1.006 0 0 1 .785.025.99.99 0 0 1 .525.585c1 2 2 3.94 3.07 6 .68-1.14.1-2.13-.26-2.93a43.334 43.334 0 0 1-2.31-7.93 7.126 7.126 0 0 0-.56-1.85 17.85 17.85 0 0 1-2-5.71 14.07 14.07 0 0 0-.89-2.62.52.52 0 0 0-.68-.3.633.633 0 0 0-.26.46c0 .36-.11.86.08 1.07 1.32 1.45.43 3.25.86 4.83-1 1.32-.23 2.6.09 3.89a1.128 1.128 0 0 1-.36 1.32c-.75-1.7-1.5-3.36-2.22-5-.807-1.873-1.6-3.753-2.38-5.64a3.931 3.931 0 0 0-1.7-2.1 5.114 5.114 0 0 0 .52 2.9h-.03Zm-.7-3.11s.1.07.18.11c-.04-.21-.11-.26-.15-.09l-.03-.02ZM107.17 338.51c1.81 1.09 3.58 2.26 5.34 3.44.396.236.713.584.91 1a3.891 3.891 0 0 0 2.44 2.12c.346.124.662.318.93.57a15.908 15.908 0 0 0 3.57 2.63c.77.46 1.41 1.3 2.35.26.11-.12.53 0 .77.06a6.926 6.926 0 0 1 3.15 1.7c1 1.15 2.62 1.35 3.88 2.09a.835.835 0 0 0 .79 0c.83-.79 1.51-.36 2.18.2.36.3.68.66 1.19.66.174-.025.339-.094.48-.2a.348.348 0 0 0-.06-.26 10.042 10.042 0 0 0-1-1 38.858 38.858 0 0 0-6.47-4.22c-2.85-1.56-5.77-3-8.62-4.54-2.28-1.24-4.45-2.67-6.65-4.06a50.415 50.415 0 0 0-6.74-3c-.15.08-.27.11-.3.17-.03.06-.17.38-.11.49a5.233 5.233 0 0 0 1.97 1.89Zm34.51 17.58a1.316 1.316 0 0 0-.74-1.05c-.83-.5-1.64-1.2-2.94-.65.72.68 1.32 1.33 2 1.86.48.37 1.68.19 1.68-.16Zm153.81 13.61a46.99 46.99 0 0 0 4.69-1.76 26.772 26.772 0 0 0 3.48-2.25.551.551 0 0 0 .14-.5.48.48 0 0 0-.64-.32c-2.81.63-5.11 2.61-8 3.07a1.004 1.004 0 0 0-.68 1.05.776.776 0 0 0 .327.608.775.775 0 0 0 .683.102Zm57.87-38.47a18.439 18.439 0 0 0-3.55 3.89c-.5.74-.95.77-1.56.21-.44-.41-.84-.19-1.24.09a71.153 71.153 0 0 0-7.84 6.22c-.16.15-.08.36.19.51.236.028.474.028.71 0 1-.29 2-1.34 2.95 0 .08.12.52 0 .78-.05a5.61 5.61 0 0 0 2.09-1.35c1.46-1.3 2.91-2.61 4.38-3.9a1.645 1.645 0 0 1 1.48-.51c1.37.19 1.58.09 1.8-1a4.583 4.583 0 0 1 2.13-3.23l-.54-.61c-.88-.91-.98-.93-1.78-.27Zm-9.77 9.69c-.16.06-.25 0-.2-.24l.17-.14.12.18c-.02.07-.04.18-.09.2Z" fill="#93A4E0"/><path d="M253.73 38.69h-1.37a5.33 5.33 0 0 0-5.33 5.33v50.6a5.33 5.33 0 0 0 5.33 5.33h1.37a5.33 5.33 0 0 0 5.33-5.33v-50.6a5.33 5.33 0 0 0-5.33-5.33Z" fill="#43538A"/><path d="M253.73 400.77h-1.37a5.33 5.33 0 0 0-5.33 5.33v50.6a5.33 5.33 0 0 0 5.33 5.33h1.37a5.33 5.33 0 0 0 5.33-5.33v-50.6a5.33 5.33 0 0 0-5.33-5.33Z" fill="#3B466D"/><path d="M34.27 251.82v1.37a5.33 5.33 0 0 0 5.33 5.33h50.6a5.33 5.33 0 0 0 5.33-5.33v-1.37a5.33 5.33 0 0 0-5.33-5.33H39.6a5.33 5.33 0 0 0-5.33 5.33ZM403.88 251.81v1.37a5.33 5.33 0 0 0 5.33 5.33h50.6a5.33 5.33 0 0 0 5.33-5.33v-1.37a5.33 5.33 0 0 0-5.33-5.33h-50.6a5.33 5.33 0 0 0-5.33 5.33ZM103.169 97.54l-.968.968a5.329 5.329 0 0 0 0 7.538l35.779 35.78a5.331 5.331 0 0 0 7.538 0l.969-.969a5.331 5.331 0 0 0 0-7.538l-35.78-35.78a5.33 5.33 0 0 0-7.538 0ZM359.208 353.577l-.969.969a5.33 5.33 0 0 0 0 7.537l35.78 35.78a5.33 5.33 0 0 0 7.537 0l.969-.969a5.328 5.328 0 0 0 0-7.537l-35.779-35.78a5.33 5.33 0 0 0-7.538 0ZM98.404 403.72l.969.969a5.329 5.329 0 0 0 7.537 0l35.78-35.779a5.33 5.33 0 0 0 0-7.538l-.969-.969a5.33 5.33 0 0 0-7.537 0l-35.78 35.78a5.33 5.33 0 0 0 0 7.537ZM359.749 142.37l.969.969a5.33 5.33 0 0 0 7.538 0l35.779-35.78a5.328 5.328 0 0 0 0-7.537l-.968-.97a5.33 5.33 0 0 0-7.538 0l-35.78 35.781a5.33 5.33 0 0 0 0 7.537Z" fill="#43538A"/><path d="M252.21 263.3c7.147 0 12.94-5.794 12.94-12.94 0-7.147-5.793-12.94-12.94-12.94-7.147 0-12.94 5.793-12.94 12.94 0 7.146 5.793 12.94 12.94 12.94Z" fill="#FAE5D7"/><path d="m254.39 253.96-.71.37a3.15 3.15 0 0 1-4.22-1.36l-72.81-142.3a3.133 3.133 0 0 1-.195-2.388 3.116 3.116 0 0 1 1.555-1.822l.71-.37a3.133 3.133 0 0 1 4.21 1.36l72.82 142.3a3.12 3.12 0 0 1-1.36 4.21Z" fill="#FAE5D7"/><path d="m355.049 222.637-.222-.769a3.13 3.13 0 0 0-3.876-2.138l-98.984 28.589a3.13 3.13 0 0 0-2.139 3.875l.222.769a3.13 3.13 0 0 0 3.876 2.138l98.984-28.589a3.13 3.13 0 0 0 2.139-3.875Z" fill="#FAE5D7"/><path d="M320.04 523.23c-13.15 3.38-58.15 11.07-65.36 7.8-18.82-8.53-6.9 0-21.57-1.49a3.37 3.37 0 0 1-2-.89 3.008 3.008 0 0 1-1.352-1.988 3.007 3.007 0 0 1 .542-2.342 142.087 142.087 0 0 0 10.17-17.63 2.705 2.705 0 0 1 1.504-1.502 2.697 2.697 0 0 1 2.126.052 3.165 3.165 0 0 1 1.13-.09 16.57 16.57 0 0 0 11.16-2.68l.11-.07a23.21 23.21 0 0 0 5.26-5.18c2.88-3.78 5.81-7.06 10.67-8.13a32.01 32.01 0 0 1 14.69.66 3.459 3.459 0 0 1 1.75 0 82.198 82.198 0 0 1 31.84 15.93c4.86 4 19.65 1.45 22.21 7.45-3.65 4.07-18.36 8.91-22.88 10.1Z" fill="#43538A"/><path d="M303.75 296.87c-16.78 18.31-41.71 25.46-66 22-14.76-2.13-28.55-8.4-40.47-17.25-5.5-4.08-5.89-3.71-10.54-8.71 14.07-32.53 22-106.39 27.4-125.94 6-21.66 30.86-38 52.28-30.55 18.63 6.45 23.63 26.46 25.06 37.24 5.34 40.28 17 100.83 25.85 114.78 1.54 2.42-5.61-5.75-4.58-4.09a67.098 67.098 0 0 1-9 12.52Z" fill="#B55846"/><path d="M217.83 244.91a137.84 137.84 0 0 0 7.22-35.71.568.568 0 0 1 .591-.47.567.567 0 0 1 .539.53 139.208 139.208 0 0 1-7.28 36 .561.561 0 0 1-.71.36.56.56 0 0 1-.36-.71ZM281.37 207.23a229.738 229.738 0 0 0 3.74 40.29c.14.71-1 1-1.09.25a230.367 230.367 0 0 1-3.78-40.59c0-.72 1.13-.67 1.13.05Z" fill="#87392E"/><path d="M281.12 202.61c-.13-1.52-1-3.37-2.87-3-1.87.37-2.78 3-3.43 4.52a33.932 33.932 0 0 0-2.63 9.58c-.14 1.31-.48 4.22.94 5.11.91.58 1.87.06 2.63-.62a.595.595 0 0 0 .308-.162.595.595 0 0 0 .162-.308c.18-.2.35-.39.49-.56a23.202 23.202 0 0 0 4.4-14.56ZM225.74 215.86c.14.18.31.37.49.57a.572.572 0 0 0 .47.46c.77.69 1.72 1.21 2.64.63 1.41-.89 1.07-3.81.93-5.11a33.577 33.577 0 0 0-2.63-9.58c-1.23-2.89-5.77-7.65-6.3-1.5a23.168 23.168 0 0 0 4.4 14.53Z" fill="#FF9F85"/><path d="M317.37 296.71c0-1.22.06-2.44.08-3.66.422.819.758 1.681 1 2.57a4.287 4.287 0 0 0-1.08 1.09Z" fill="#754537"/><path d="M172.25 283.56c2.71-4.62 5.53-12.76 10.31-15.19 31.21-15.85 126.61-8.37 132.62.81 5.29 8.1 8.53 12.91 7.3 24.4-5.44 11.7-5.1 22.73-11.08 34.15-6.63 12.66 3.32-3.93 4.33 10.1.7 9.82-1.43 31.6 1.56 103.13 1.91-3.67-31.31 15.5-32.33 15.14-16.06 3.16-31.5 5.73-48 4.25a136.034 136.034 0 0 1-23.44-4.16c-6-1.62-11.92-3.79-14.78-9.7a3.74 3.74 0 0 1-.29-.9c-.11-.2-17.68-3-17.76-3.22.12-13.87 8.6-99.74 10.65-107.49 1.88-7.07 4.61-9.66 1.31-16.18-4.85-9.59-21.69-15.17-22.37-26.24-.34-4.42-.22-5.18 1.97-8.9Z" fill="#F7DBC6"/><path d="M218.62 269.48a11.556 11.556 0 0 1 2-1.36 2.855 2.855 0 0 0-.46 2.51c3.1 12.32 16.11 18.26 28 17.75 13.33-.58 27.22-7.66 36.74-16.79.292-.291.532-.629.71-1 3.48.26 4.93-5.21 1.2-6.29-7.87-2.28-20.42 1.24-23-11.05-2-9.31.77-24.57 2.54-34.77a3.599 3.599 0 0 0-4.61-4c-5.15-1.51-10.89-.78-16.28-.36-.62-3.64-6.51-3.72-6.37.26v.94a2.564 2.564 0 0 0-.88 2.29c.44 6.33-1.36 11.23-1.45 17.56.13 6.78.66 15.05-.12 19.28-1.4 7.6-13 5.33-14.29 6-3 1.68-4.78 1.43-8.12 4.22-3.19 2.75 1.22 7.46 4.39 4.81Z" fill="#FF9F85"/><path d="M226.69 188.04c0 1.18-1 3.23-1.07 4.41-.2 11.07 2.16 26.88 6.22 37.12 2.33 5.88 8.86 17 18.12 17.37 9.26.37 16.25-10.27 19.5-17.84 3.7-8.61 7.69-21.11 8.56-30.36.38-4.05.14-8 .14-12 0-6.55 0-13.39-3.82-19.2-3.1-4.78-8.1-8.44-13.31-11-5.63-2.7-11.9-3.45-17.71-.86-5.6 2.5-8.6 7.71-11.16 12.67a45.693 45.693 0 0 0-5.47 19.69Z" fill="#FF9F85"/><path d="M205.36 294.52c11.3 10.87 30.46 15.12 45.66 14.64 14.65-.47 32.45-5.53 41.57-17.9 4-5.48 5.42-12.57 2.22-18.78-1.29-2.49-1.64-4.87-4.11-6.26-1.29-.72.17-1.51-1.29-1.71-2.08-.3-5.07-1-8.41-1.3-.68-.05-3.73-.5-4.28-.52-1.53-.11-8.88-2.44-8.88-2.44-2.7 6.54-7 14.12-18.84 14.46-8.14.23-14.17-9.87-16.08-15.57 0 0-16.72.9-19.59 3.1-.94-.27 2.85.28 1.93 1.25-4.86 5.19-12.54 4-15.35 11.31-2.71 7.04.25 14.72 5.45 19.72Z" fill="#F7DBC6"/><path d="M214.24 191.81a7.503 7.503 0 0 1 2.58-4.1 5.911 5.911 0 0 1 .1-4c2.25-6.23 6.72-11.67 10.29-17.34a146.646 146.646 0 0 1 4.27-7.92c2.4-5 4.65-10.24 7.88-14.62a3.15 3.15 0 0 1 .33-.39c.07-.74.18-1.48.32-2.23a.788.788 0 0 1 .93-.52c.215-.212.474-.373.76-.47 9-3.12 20.23 8.72 25.15 14.86 6.51 8.14 11.15 17.39 16 26.56 1.16 2 2.28 4.13 3.34 6.25a4.27 4.27 0 0 1-.14 4.39 12.096 12.096 0 0 1 2 3.37c1 2.7-.39 7-4.08 6.43-6.35-1-11.43-6.94-16.15-11.11-5.69-5-11.31-10.29-15.9-16.36-1.74-2.32-3.5-4.8-5.12-7.4a66.982 66.982 0 0 1-6.44 13c-4.28 6.7-13.75 27.33-23.8 20.24-1.5-.97-2.62-7.05-2.32-8.64Z" fill="#B55846"/><path d="M53.59 453.63c3.56 9.88 12.67 17.9 20 23.26 13 9.42 27.67 15.86 42.62 20.18 28.67 8.29 58.51 8.87 88 8.87 15.88 0 31.78-.14 47.64.8 15.54.92 31.09 3.09 46.7 2 15-1 29.5-5.21 43.77-10.3 14.92-5.33 29.69-11.25 44.3-17.57 19.46-8.42 43.31-18.29 52-41.33a4.005 4.005 0 0 0 5.026-2.064c.281-.605.406-1.27.364-1.936-.24-17.38-19.53-20.4-31.55-19.37a450.31 450.31 0 0 0-50.84 7.75 533.599 533.599 0 0 0-45.11 11.18c-15 4.43-30 9.77-45.64 10.08-14.87.3-29.45-2.95-43.82-6.75-15.14-4-30.21-8.23-45.43-11.86a1001.65 1001.65 0 0 0-46.12-9.86c-14.57-2.76-29.56-6.23-44.41-6.4-12.26-.15-25.62 3.05-33.86 14.2-5.62 7.67-10.01 20.95-3.64 29.12Z" fill="#D19C78"/><path d="M66.19 420.04c.12-.08 16.12.3 16.24.23 7-4.31 5.81-1.23 12.76 1.25 10.12 3.61 20.09 7.61 30 11.81 20.16 8.55 39.94 18 60 26.87 35.8 15.93 71.88 31.4 109.43 42.72l.17.09 1.43.64c-10.9 11-22.44 21.19-36.3 28-35.9-1-74.79-.73-109-11.65a383.316 383.316 0 0 1-46-18c-17.26-8.06-37.95-20.59-48.51-37.34-10.26-16.16-7.58-33.7 9.78-44.62Z" fill="#D19C78"/><path d="M220.3 490.56c5.53 11.74 18.75 18.34 29 22.32 13.93 5.41 7.49 11.35 22.16 12.26 29.09 1.81 64.39-4.07 93.14-9.38 22.21-4.1 49.9-15.19 68.4-31 23.5-20.06 18.87-57.49-3-67.91-4.54-2.16-14.23.2-19.18 1.4a72.519 72.519 0 0 0-19.29 8.31c-8 4.74-15.7 10.31-23.88 14.7-9 4.8-18.39 8.25-27.85 11.41a1105.725 1105.725 0 0 1-116.34 31.78 2.86 2.86 0 0 0-1.82 1.23 3.759 3.759 0 0 0-1.34 4.88Z" fill="#D19C78"/><path d="M232.18 202.91c3.24 2.16 6.9 4.56 10.72 3.12 1.33-.5 2.11 1.73.78 2.23-4.41 1.67-8.64-.73-12.43-3.26-1.22-.82-.31-2.96.93-2.09ZM260.86 207.04a10.594 10.594 0 0 0 9.75-2.62 1.025 1.025 0 0 1 1.44 1.46 12.824 12.824 0 0 1-11.75 3.32c-1.28-.3-.72-2.46.56-2.16Z" fill="#693223"/><path d="M250.05 219.67c2.53-1.29 2.65-6.2 2.84-8.6.19-2.4.16-5 .13-7.55 0-.73 1.12-.68 1.13 0a59.314 59.314 0 0 1-.55 10.9c-.39 2.27-.78 5.05-3 6.2a.563.563 0 0 1-.362-.027.565.565 0 0 1-.345-.596.566.566 0 0 1 .157-.327ZM240.26 198.4a8.364 8.364 0 0 1 2.2 3.75c.19.7-.91.95-1.1.25a7.273 7.273 0 0 0-1.93-3.24c-.49-.51.32-1.27.83-.76ZM260.59 203.36a13.448 13.448 0 0 1 2.65-4.13c.5-.53 1.26.31.76.83a11.994 11.994 0 0 0-2.34 3.65c-.27.67-1.35.33-1.07-.35Z" fill="#C7674C"/><path d="m226.71 192.33 8.83.6c2.058.275 4.141.325 6.21.15a3.288 3.288 0 0 0 1.24-.39c4-2.58-4.56-5.69-6.24-5.7a19.076 19.076 0 0 0-7.62 1.68c-.802.427-1.562.93-2.27 1.5-1.18.96-2.02 2.04-.15 2.16ZM274.82 192.77a14.134 14.134 0 0 0-1.88-1.73 18.017 18.017 0 0 0-6.94-2.75c-1.59-.25-10.15 1.39-6.78 4.43.332.261.713.451 1.12.56 1.928.485 3.903.757 5.89.81l8.43.78c1.76.17 1.13-1.01.16-2.1Z" fill="#B55846"/><path d="M239.14 240.32c2.74 3.65 6.43 7.37 11.51 7.07 4.42-.26 8.29-4.09 11-7.18.48-.55 1.28.28.8.83-3 3.37-7.31 7.49-12.22 7.52-5.2 0-9.09-3.67-11.94-7.48-.43-.58.41-1.35.85-.76ZM244.66 230.55a.546.546 0 0 1 .27-.22 16.091 16.091 0 0 1 11 .24c.23.08.54.09.64.37.1.28-3.43 1.83-3.83 2a9.15 9.15 0 0 1-4.87.1h-.09c-1-.51-2.46-1-3.6-1.7a.461.461 0 1 1 .48-.79Z" fill="#C7674C"/><path d="M58.44 414.58a2.082 2.082 0 0 0-1.49-1.6 51.511 51.511 0 0 1-23.14-14.41 1.73 1.73 0 0 0-.65-.46 2.25 2.25 0 0 0-3-.18c-.42.31-.84.6-1.27.9a63.89 63.89 0 0 1-9.25 7 4.24 4.24 0 0 0-2.05 3.72c0 .58.07 1.18.14 1.78a2.688 2.688 0 0 0-2.15 2.55 13.07 13.07 0 0 0 .2 3.87 1.92 1.92 0 0 0-.22 1.12c.389 4.18 1.76 8.21 4 11.76a1.802 1.802 0 0 0 1.3.89c.193.136.41.235.64.29 23.67 4.91 54.64-6 44.37-5.42 8.79-6.47-14.71-4.48-14.15-5 3.7-3.69 5.65.41 7.41-4.43a2.11 2.11 0 0 0-.69-2.38Zm-19.14 0c-.21 2.81-2.33 3.46-4.49 3.44a19.727 19.727 0 0 0-3.14-6.25 8.67 8.67 0 0 0-5.24-2.55 93.742 93.742 0 0 0 5-5.17c.39.33.78.65 1.17 1l.43.39a29.77 29.77 0 0 1 4.13 4.44c.98 1.26 2.27 2.96 2.14 4.67v.03Z" fill="#FDAB86"/><path d="M71.57 412.3c-1.81-.72-3.68 0-5.46.41a53.13 53.13 0 0 1-11.6 1.16 2.999 2.999 0 0 0-2.81 4 31.195 31.195 0 0 0-7.09 5.06 2.683 2.683 0 0 0-.93 2.08c-2.5 1-2.28 5.45 1 5.66a55.509 55.509 0 0 0 20.19-2.39c.668.034 1.338.004 2-.09a8.62 8.62 0 0 0 5.45-2.94c.239-.217.433-.478.57-.77a10.32 10.32 0 0 0 1.46-3.65c.59-2.95.59-7.19-2.78-8.53Z" fill="#FDAB86"/><path d="M203.16 285.25c-2-6.06-5.4-21.36-11.43-20.37-17.42 2.85-21.59 20.28-24.56 31.23-2.29 8.43-4.5 16.89-7.06 25.26-4.89 15.93-17.6 42.39-26.31 56.42-7.56 12.16-20.39 14.73-33.5 18.7-14.09 4.26-40.08 10.09-48.57 12a1.804 1.804 0 0 0-1.32 1.123 1.803 1.803 0 0 0 .24 1.717c5.56 7.46 12.59 18.31 18.67 25.76a5.142 5.142 0 0 0 4.44 1.89c17.27-1.49 81.57-16 89.63-22.21 9.72-7.43 32.29-34.34 47.87-72.74a3.19 3.19 0 0 0 1.16-1.86c4.35-17.8-3.43-39.43-9.26-56.92Z" fill="#F7DBC6"/><path d="M25.13 408.97a27.558 27.558 0 0 0-6.14.65c-.71.16-.32 1.22.38 1.07a26.204 26.204 0 0 1 5.85-.6c.72.01.63-1.11-.09-1.12ZM32.7 423.04c-1.21-2.47-2.28-5.69-4.88-7.05-3.07-1.6-6.67-.2-9.89 0a.56.56 0 0 0-.515.605.562.562 0 0 0 .605.515c2.65-.19 5.57-1.29 8.19-.52 3.1.91 4.13 4.16 5.43 6.8.3.65 1.38.27 1.06-.35ZM28.07 427.84c-1.69-2.76-4.45-5.66-8-4.34a.561.561 0 0 0-.05 1.039c.135.064.29.071.43.021 3-1.13 5.28 1.63 6.7 3.92.38.62 1.3-.02.92-.64Z" fill="#C7674C"/><path d="M308.38 341.85a482.842 482.842 0 0 1 6.89 34.17c.12.71-1 1-1.1.25a477.003 477.003 0 0 0-6.89-34.17.565.565 0 0 1 1.1-.25ZM139.87 383.61l13.63-5.77c.67-.28 1 .78.38 1.06l-13.63 5.77c-.66.29-1.04-.78-.38-1.06ZM346.59 382.75a132.51 132.51 0 0 0 18 1.25c.72 0 .67 1.12-.05 1.12a130.742 130.742 0 0 1-18-1.25c-.71-.1-.67-1.22.05-1.12ZM240.23 478.1c37.22-7.45 73.19-19.63 108.87-32.41a.582.582 0 0 1-.496-.72.579.579 0 0 1 .166-.28 430.852 430.852 0 0 0 16.07-16.29c.5-.53 1.25.31.76.84a456.86 456.86 0 0 1-16.07 16.28c5.113-1.833 10.213-3.67 15.3-5.51.68-.24.92.86.25 1.1-40.86 14.76-81.91 29.52-124.6 38.07a.564.564 0 0 1-.593-.432.562.562 0 0 1 .343-.648ZM128.03 442.13c7.19 1.74 14.3 3.72 21.36 5.84a153.188 153.188 0 0 0-16.15-10.78c-.63-.36 0-1.31.61-.94a153.369 153.369 0 0 1 16.65 11.15.578.578 0 0 1 .162.708.569.569 0 0 1-.162.202c37.55 11.43 73.49 27.7 109.93 42.21 12.31 4.91 24.71 9.6 37.26 13.87a.532.532 0 0 1 .35.64.58.58 0 0 1 .52 1 181.352 181.352 0 0 1-25.87 20.77c-.6.4-1.12-.6-.52-1a178.858 178.858 0 0 0 25.29-20.29.482.482 0 0 1-.12 0c-44.6-15.15-87.05-35.92-131.64-51.1-12.52-4.26-25.19-8.05-38-11.15-.76-.22-.38-1.3.33-1.13Z" fill="#2C2A57"/><path d="M246.2 153.4c4.37-3.21 10.49 1.11 13.85 4 5.58 4.78 9.16 11.29 12.64 17.65.35.63-.65 1.16-1 .52-2.7-4.93-5.42-9.94-9.18-14.16-2.94-3.31-10.73-10.7-15.55-7.17-.58.42-1.35-.41-.76-.84ZM248.46 146.71a13.513 13.513 0 0 1 12.88-3.43c.7.18.35 1.25-.35 1.08a12.279 12.279 0 0 0-11.77 3.19c-.52.49-1.28-.33-.76-.84ZM231.81 163.75a16.568 16.568 0 0 1 7.71-8.4.564.564 0 0 1 .52 1 15.472 15.472 0 0 0-7.16 7.76c-.28.65-1.35.31-1.07-.36Z" fill="#87392E"/><path d="M228.06 215.44a129.14 129.14 0 0 0-2.38-9.72.57.57 0 0 0-1.09.3c.927 3.207 1.72 6.447 2.38 9.72.15.71 1.23.41 1.09-.3ZM275.49 210.8c-.77 2.39-1.53 4.78-2.3 7.17-.22.69.87 1 1.09.3.76-2.39 1.53-4.78 2.29-7.17.23-.7-.86-.99-1.08-.3ZM32.65 398.67c-.18-.7-1.3-.57-1.12.13a5.63 5.63 0 0 1-.3 3.73.559.559 0 0 0 1 .45 6.53 6.53 0 0 0 .42-4.31Z" fill="#C7674C"/><path d="M437.33 416.87c1.76 4.84 3.71.74 7.41 4.42.56.56-22.93-1.43-14.15 5-10.27-.56 20.7 10.33 44.37 5.42.23-.055.447-.154.64-.29a1.836 1.836 0 0 0 1.31-.89 26.776 26.776 0 0 0 3.94-11.76 1.92 1.92 0 0 0-.22-1.12 12.76 12.76 0 0 0 .2-3.87 2.686 2.686 0 0 0-2.15-2.55c.081-.59.127-1.185.14-1.78a4.22 4.22 0 0 0-2.05-3.72 63.917 63.917 0 0 1-9.25-7l-1.27-.9a2.242 2.242 0 0 0-3 .18 1.898 1.898 0 0 0-.65.46 51.57 51.57 0 0 1-23.13 14.41 1.995 1.995 0 0 0-1.49 1.6 2.107 2.107 0 0 0-.65 2.39Zm21.84-7.09a30.307 30.307 0 0 1 4.13-4.44l.44-.39c.38-.35.77-.67 1.16-1a118.61 118.61 0 0 0 5 5.17 8.67 8.67 0 0 0-5.24 2.55 19.719 19.719 0 0 0-3.14 6.25c-2.15 0-4.28-.63-4.49-3.44-.09-1.71 1.2-3.44 2.14-4.7Z" fill="#FDAB86"/><path d="M424.81 412.23c1.8-.72 3.68 0 5.45.41a53.13 53.13 0 0 0 11.6 1.16 3.001 3.001 0 0 1 2.81 4 31.206 31.206 0 0 1 7.09 5.06 2.615 2.615 0 0 1 .93 2.08c2.5 1 2.28 5.45-1 5.66a55.51 55.51 0 0 1-20.19-2.39 10.45 10.45 0 0 1-2-.09 8.652 8.652 0 0 1-5.45-2.94 2.455 2.455 0 0 1-.57-.77 10.128 10.128 0 0 1-1.45-3.65c-.6-2.95-.58-7.19 2.78-8.53Z" fill="#FDAB86"/><path d="M293.21 285.18c2-6.06 5.92-21.4 12-20.42 17.42 2.86 21.07 20.33 24 31.28 2.29 8.43 4.5 16.89 7.07 25.26 4.88 15.93 17.59 42.39 26.31 56.42 7.55 12.16 20.38 14.73 33.5 18.7 14.08 4.26 40.07 10.09 48.56 12a1.803 1.803 0 0 1 1.32 1.123 1.797 1.797 0 0 1-.24 1.717c-5.55 7.46-12.58 18.31-18.67 25.76a5.138 5.138 0 0 1-4.44 1.89c-17.27-1.49-81.56-16.06-89.63-22.21-9.72-7.43-32.28-34.34-47.87-72.74a3.24 3.24 0 0 1-1.18-1.92c-4.34-17.74 3.44-39.37 9.27-56.86Z" fill="#F7DBC6"/><path d="M471.24 408.9a27.556 27.556 0 0 1 6.14.65c.71.16.32 1.22-.38 1.06a26.619 26.619 0 0 0-5.85-.59c-.72.02-.63-1.11.09-1.12ZM463.67 422.94c1.21-2.47 2.28-5.69 4.88-7 3.07-1.6 6.67-.2 9.89 0a.561.561 0 0 1-.09 1.12c-2.65-.19-5.56-1.29-8.19-.52-3.1.91-4.13 4.16-5.42 6.8-.32.62-1.38.25-1.07-.4ZM468.3 427.77c1.69-2.76 4.46-5.66 8-4.34a.565.565 0 0 1 .05 1.039.563.563 0 0 1-.43.021c-3-1.13-5.28 1.63-6.69 3.92-.38.63-1.29-.02-.93-.64Z" fill="#C7674C"/><path d="m356.5 383.54-13.62-5.77c-.67-.28-1 .78-.39 1.06l13.63 5.77c.67.29 1.04-.78.38-1.06Z" fill="#2C2A57"/><path d="M463.73 398.6c.17-.7 1.29-.57 1.11.13a5.634 5.634 0 0 0 .3 3.73.556.556 0 0 1-.317.632.56.56 0 0 1-.683-.182 6.532 6.532 0 0 1-.41-4.31Z" fill="#C7674C"/><path d="M253.65 283.04a23.63 23.63 0 0 1-25-17.19.517.517 0 1 0-1 .27 24.618 24.618 0 0 0 26 17.92c.63 0 .64-1 0-1ZM258.57 419.04c-12.71-22.1-17.31-47.45-21.69-72.23-.12-.64-1.08-.37-1 .26 4.4 24.88 9 50.3 21.79 72.47a.516.516 0 0 0 .9-.5ZM273.94 414.29l-15-28.48c-.3-.57-1.16-.07-.86.5 5.013 9.5 10.013 18.997 15 28.49.27.57 1.14.06.86-.51ZM194.37 335.88a5210.59 5210.59 0 0 1-6.1 31.48c-.12.63.84.9 1 .27 2-10.5 4.033-20.993 6.1-31.48.09-.63-.87-.9-1-.27ZM305.02 335.04c-.09-.63-1.09-.64-1 0a659.217 659.217 0 0 0 6.23 38.68c.12.63 1.09.37 1-.26a641.73 641.73 0 0 1-6.23-38.42Z" fill="#2C2A57"/></g><defs><clipPath id="a"><path fill="#fff" d="M0 0h509.33v531.83H0z"/></clipPath></defs></svg>