<svg viewBox="0 0 657 590" fill="none" xmlns="http://www.w3.org/2000/svg"><g clip-path="url(#a)"><path d="M288.394 98.423c2.867-2.837 11.802 15.508 13.517 17.861 16.929 23.156 37.542 41.052 56.282 62.78 3.386 3.93 7.036 8.398 6.781 13.596a13.321 13.321 0 01-2.498 6.882 17.077 17.077 0 01-10.5 7.102c-.07.925 1.345 1.066 2.022 1.709.678.644.335 2.23-.633 2.758a4.29 4.29 0 01-3.21.089c-7.035-1.904-11.177-9.006-15.09-14.636a449.524 449.524 0 01-13.798-21.059 434.116 434.116 0 01-8.794-14.98c-6.059-10.714-15.355-21.015-20.983-31.967-2.331-4.529-1.003-9.693-3.333-14.266-.589-.96-1.126-14.486.237-15.87zm36.795 73.636c-.053.124-.167.265-.141.344.027.079.22.115.334.168.053-.124.167-.265.132-.344-.035-.079-.184-.079-.334-.132l.009-.036z" fill="#FC8D6A"/><path d="M604.182 408.812c-.492 3.075-2.225 3.013-5.373 2.749a30.363 30.363 0 00-9.735 1.093c-9.867 2.361-19.919 3.524-30.014 4.317a183.534 183.534 0 00-37.182 6.908c-8.539 2.538-16.436 0-21.246-7.481-1.671-2.643-3.72-3.392-6.156-4.194-4.345-1.436-8.891-1.762-13.376-2.396-5.787-.829-5.804-.776-3.518-6.045 2.058-4.735 4.133-9.458 6.226-14.169.423-.969.792-1.762-.07-2.828-.862-1.066-.228-2.802.123-4.062 2.067-7.393.651-14.697-.299-22.029-.492-3.859-1.89-7.595-1.504-11.587.059-1.118.266-2.223.616-3.286a2.177 2.177 0 012.005-1.577c8.478-.564 16.894-1.763 25.292-3.031 7.844-1.155 15.654-2.644 23.428-4.221 16.339-3.375 32.643-6.917 48.956-10.406 1.838-.388 3.676-.811 5.488-1.296a1.87 1.87 0 012.357 1.137 28.297 28.297 0 012.146 5.904c3.201 11.358 6.155 22.786 7.853 34.487.879 6.08.826 7.437 2.014 13.464a62.83 62.83 0 011.969 28.549z" fill="#F2C89A"/><path d="M514.403 454.261c.64-5.772.793-11.587.458-17.385-.607-9.543-4.916-17.931-5.277-27.43-.255-7.049 1.372-13.966.624-20.988-1.037-9.754-14.264-11.772-19.109-14.054-1.205-.564-10.826 1.762-4.925-6.812.633-.881-.334 12.469-5.593 24.011-7.343 16.108-12.312 31.149-19.98 47.079-7.44 15.464-63.555 136.894-56.722 140.101 11.344 5.287 24.623 4.406 37.005 3.701 9.779-.582 22.997 0 31.809-4.617 10.262-5.375 12.795-19.147 17.676-28.681 5.892-11.455 11.775-23.007 17.483-34.602a15.2 15.2 0 001.952-5.869c.185-4.018-3.131-7.357-6.939-8.001 3.711.626 9.058-30.628 9.674-33.844.765-4.185 1.407-8.388 1.864-12.609z" fill="#F2C89A"/><path d="M532.871 409.12c1.381.591 28.669-1.832 40.11-4.679 2.313-.581 25.503-7.428 27.262-7.049 1.758.379 4.247.088 3.966 1.393 2.392 7.472-.959 17.569-2.893 24.795-2.841 10.626-6.737 20.847-9.542 31.518-7.414 28.196-11.098 56.833-16.304 85.391-2.041 11.067-4.169 22.108-6.271 33.166a3.934 3.934 0 000 1.427c.317 2.115-2.638 5.851-4.757 6.239a217.487 217.487 0 01-28.414 3.806c-14.123.758-28.203.635-42.106-2.511-1.812-.405-2.709-1.031-2.568-3.146.879-13.217.202-26.584 2.102-39.783 1.249-8.732 1.46-17.552 2.515-26.302 4.283-35.351 7.167-71.037 12.523-106.238.369-2.432 1.591-3.648 3.35-3.613 1.759.035 17.008 3.903 21.027 5.586z" fill="#F2C89A"/><path d="M538.438 572.192a.79.79 0 01-.783-.669c-1.126-7.138 4.547-191.736 4.793-199.587a.79.79 0 011.364-.525.807.807 0 01.219.57c-.062 1.92-5.919 192.299-4.811 199.295a.792.792 0 01-.659.881l-.123.035zm22.011-118.971a.794.794 0 01-.774-.643l-9.313-47.581a.807.807 0 01.087-.63.785.785 0 01.521-.363.786.786 0 01.837.377c.055.094.09.199.103.307l9.313 47.582a.775.775 0 01-.115.599.781.781 0 01-.509.335l-.15.017zm-46.266-23.041a.767.767 0 01-.677-.397c-1.011-1.762-3.016-4.97-5.962-9.613-4.397-6.988-9.515-14.821-9.559-14.891a.778.778 0 01-.118-.599.787.787 0 01.945-.61.809.809 0 01.501.345c.044.071 5.127 7.93 9.568 14.909 2.954 4.661 4.968 7.93 5.988 9.692a.794.794 0 01-.281 1.084.882.882 0 01-.405.08z" fill="#CA883F"/><path d="M493.35 544.525h-.053a.801.801 0 01-.738-.882c2.867-44.515 15.688-121.79 15.829-122.566a.787.787 0 01.88-.652.803.803 0 01.65.881c-.123.776-12.936 77.972-15.829 122.408a.804.804 0 01-.739.811zm-50.874 2.009h-.193a.812.812 0 01-.281-.131.813.813 0 01-.314-.52.809.809 0 01.014-.31c8.372-34.144 50.479-156.904 50.901-158.146a.797.797 0 011.011-.485.772.772 0 01.455.4.773.773 0 01.029.605c-.422 1.233-42.502 123.931-50.857 158.005a.79.79 0 01-.765.582zm-15.231 17.816a.908.908 0 01-.255 0 .8.8 0 01-.459-.398.779.779 0 01-.042-.606c.817-2.432 3.517-12.75 6.569-24.672 9.832-38.012 12.839-48.648 13.974-49.485a.793.793 0 011.108.159.802.802 0 01-.097 1.057c-1.363 1.939-8.636 30.047-13.446 48.665-3.105 11.975-5.778 22.319-6.605 24.804a.795.795 0 01-.747.476z" fill="#CA883F"/><path d="M657 350.974c-.097 2.538-1.645 4.529-3.614 6.168a57.143 57.143 0 01-19.69 10.768c-1.39.423-49.854 23.147-51.209 23.72-.993.423 6.877-17.341 6.411-18.504-.466-1.163 35.3-11.384 36.109-11.807 6.93-3.63 17.025-2.15 23.331-6.758 2.128-1.56 4.467-3.093 3.359-6.45-.255-.793.457-1.445 1.143-1.842a1.883 1.883 0 012.322.264 5.704 5.704 0 011.838 4.441zm-148.884-16.865h1.248a1.39 1.39 0 011.46.97c.246.766-.316 1.215-.879 1.462-8.152 3.463-14.168 9.948-20.702 15.482-10.72 9.075-18.986 20.266-23.216 34.029-1.759 5.604-1.258 11.737-3.184 17.253-.343 1.004-3.201 2.326-3.658.881a2.591 2.591 0 01.097-1.366c.774-3.357-.713-6.74-1.425-10.045-.809-3.762.062-7.392.413-11.164.669-7.163 1.284-14.345 1.495-21.543.291-10.16-.545-20.46-3.517-30.223-3.078-10.239-6.279-20.443-9.427-30.664-.264-.837-.352-1.762-1.759-1.586-1.407.176-1.363-1.031-1.504-1.868-1.847-10.574-3.852-21.147-5.365-31.774-.562-3.974-.677-8.062-1.002-12.098-.484-6.044-.361-12.177-2.093-18.063-.712-2.414-1.759-4.714-2.454-7.128-1.099-3.833-.149-7.649.484-11.455.532-2.674.777-5.398.73-8.124-.967-21.791 5.276-41.837 14.774-61.072a14.847 14.847 0 001.302-3.295c.571-2.644 2.576-4.089 4.792-5.208a21.727 21.727 0 015.136-1.762c5.76-1.278 8.979-.159 12.189 4.829 4.59 7.128 8.794 14.512 11.335 22.627 3.861 12.186 8.179 24.249 10.553 36.849 1.021 5.358 1.249 10.812 1.926 16.213.094 1.463.363 2.91.801 4.309a55.032 55.032 0 013.35 17.402c.326 7.005 1.926 13.825 3.122 20.698 2.251 13.006 4.828 25.95 7.185 38.929 1.354 7.41 1.011 14.979.36 22.557a59.231 59.231 0 01-2.638 13.948.35.35 0 00-.141.062v.106l.212-.168zM362.265 122.214c-.07.29-.193.978-.404 1.638a64.81 64.81 0 00-2.137 8.539 4.558 4.558 0 01-1.328 2.335 111.724 111.724 0 01-11.213 10.397c-1.143.881-2.357 1.859-3.931.643-.695-.537-.967.212-1.24.652-1.512 2.415-4.195 1.974-6.367 2.318-1.556.255-1.847-1.454-1.205-2.785a230.43 230.43 0 014.635-9.128c1.697-3.172 4.96-4.741 7.035-7.604 2.753-3.877 6.578-6.785 10.333-9.693a3.93 3.93 0 014.301-.625c1.196.555 1.521 1.656 1.521 3.313z" fill="#BAD7E0"/><path d="M305.103 57.811c.238-2.238.387-4.352-.642-6.467-.598-1.225-.475-2.873-.439-4.327a96.14 96.14 0 011.864-18.08c.721-3.305 1.899-6.239 4.397-8.583.756-.713 1.416-1.674 2.638-1.34 1.223.336 1.671 1.402 1.873 2.547.695 3.78 1.311 7.57 2.049 11.332a226.99 226.99 0 006.429 25.8c4.177 13.014 8.178 26.125 14.501 38.338.634 1.224.678 1.762-1.055 1.841-3.377.15-6.156 2.141-9.031 3.648-2.639 1.384-4.459 1.384-7.449 0-5.743-2.643-7.774-7.199-9.128-12.591a104.774 104.774 0 00-8.742-23.491 52.113 52.113 0 01-3.262-8.177c-.466-1.472-.378-3.287.879-3.719a3.001 3.001 0 013.31.58c.286.276.515.606.674.971.317.61.697 1.187 1.134 1.718zm.194 65.451c1.758 1.63-.123 2.388-.818 3.313-.88 1.155-2.146 1.031-3.43.494a20.857 20.857 0 01-9.928-8.688c-.88-1.481-1.759-2.159-3.518-1.683-2.067.555-3.316-.177-4.52-2.15-4.67-7.649-7.335-16.081-10.122-24.487a59.579 59.579 0 01-2.419-8.811c-.686-4.186-1.161-8.556 0-12.83.238-.877.371-1.779.396-2.687.079-2.644-.105-5.287 1.539-7.675a3.88 3.88 0 00.308-2.256 38.264 38.264 0 01-.053-5.022c.211-1.577.879-2.776 2.489-2.908a3.038 3.038 0 012.207.596 3.052 3.052 0 011.17 1.968c1.662 8.019 5.276 15.455 6.877 23.482.146.49.337.965.571 1.42.616 0 .677-.406.88-.67.826-1.084 1.759-2.221 3.262-1.692 1.504.528 2.023 1.965 1.961 3.41-.193 5.507.88 10.838 1.962 16.177 1.38 6.547 4.115 12.601 6.903 18.619a44.961 44.961 0 007.281 11.455c.502.564.88 1.224.247 1.824-.633.599-.88-.335-1.267-.547-.554-.282-.949-1.04-1.978-.652z" fill="#FC8D6A"/><path d="M328.689 88.792c-.563-1.542.668-2.344.695-3.665.026-1.322 1.231-1.022 1.996-.203a29.232 29.232 0 013.324 5.075c3.738 6.248 7.387 12.53 11.16 18.751 4.617 7.622 10.553 14.274 16.093 21.147 10.369 12.821 23.023 23.412 34.368 35.246 1.116 1.163 2.251 2.308 3.438 3.392 4.564 4.203 4.696 9.331 3.14 14.821a5.557 5.557 0 01-1.24 2.176c-1.161 1.295-2.841 2.159-2.208 4.564.335 1.287-1.556 1.983-2.99 1.181-.879-.511-1.758-1.181-2.638-1.656-.879-.476-1.759-.979-3.034-.247-1.275.731-3.131-.141-4.52-.881-5.672-3.19-10.28-7.71-14.783-12.283-5.681-5.781-10.984-11.913-16.26-18.081-5.76-6.723-10.333-14.231-14.889-21.773-6.903-11.455-13.666-22.954-19.426-35.025-.73-1.534-1.855-3.04-.369-4.838.448-.546-.159-1.348-.334-2-.563-2.088-.546-4.08 1.108-5.648 1.653-1.568 3.781-1.013 5.769-.687.548.171 1.083.383 1.6.634z" fill="#FC8D6A"/><path d="M398.778 72.87c-6.516-.123-13.824-8-13.587-14.486.238-6.485 3.518-11.208 7.51-15.728a2.475 2.475 0 012.999-.881c1.24.572 2.638 1.057 2.805 2.784.124 1.357.88 2.723-.079 4.062-.316.458-.079.758.282 1.049 2.058 1.665 2.374 4.035 2.462 6.44.132 3.666-.053 7.297-2.207 10.486-.669.987-.185 1.392.747 1.516 1.243.176 2.492.308 3.747.396.58 0 1.152.08 1.38.705.229.626-.202.881-.519 1.278a6.278 6.278 0 01-5.54 2.379z" fill="#87391F"/><path d="M494.177 363.116l-.097-.097a80.04 80.04 0 01.484 17.227c-.167 2.114-1.056 4.81-3.166 4.766a3.933 3.933 0 01-2.638-1.612c-6.974-7.825-7.203-19.385-7.502-29.853-1.31-45.008-11.758-96.238-20.754-134.259-3.904-16.53-13.701-33.113-11.432-50.568a784.644 784.644 0 015.602-36.329 5.28 5.28 0 01.809-2.344c3.28-4.327 10.333 6.212 14.484 2.705 1.055-.881 1.319-2.406 1.556-3.771a64.373 64.373 0 0115.979-32.382c1.469-1.586 3.131-3.163 5.224-3.674 2.735-.661 5.531.634 7.994 2 22.363 12.415 38.931 33.536 50.249 56.507 11.318 22.971 17.888 47.943 24.386 72.729l15.364 58.613 7.677 29.307 3.931 14.979c1.108 4.238 2.339 7.499-1.064 11.05-9.383 9.833-21.396 16.741-33.418 22.777-12.417 6.247-25.072 12.23-37.902 17.623-7.915 3.277-19.998 9.974-26.48.793-3.614-5.137-4.889-11.763-9.286-16.187z" fill="#F7E1DA"/><path d="M493.35 361.319a.764.764 0 01-.677-.397c-1.539-2.643-5.496-37.968-9.427-73.945-1.003-9.181-1.759-15.807-1.891-16.741-.624-3.648-17.808-75.038-17.984-75.778a.8.8 0 01.589-.961.792.792 0 01.95.591c.712 2.943 17.368 72.165 18.001 75.866.176 1.013.88 7.322 1.909 16.873 2.506 22.963 7.721 70.747 9.216 73.311a.807.807 0 01-.281 1.093.886.886 0 01-.405.088zm-15.407-148.595c-1.135-1.762-2.374-.502-2.638.996-.431 2.476-.607 5.198.738 7.313.88 1.357 1.926.705 2.401-.52a8.635 8.635 0 00-.501-7.789zm10.386 44.585c-.159-.678-.378-1.348-.537-1.947-.29-1.031-1.205-5.128-3.069-3.709-.33.284-.566.662-.677 1.083-.783 2.529.44 5.331 1.574 7.552.396.766 1.354 1.921 2.181.987.959-1.093.853-2.565.528-3.966zm5.848 30.558a9.69 9.69 0 00-.88-3.524 1.204 1.204 0 00-.984-.67 1.274 1.274 0 00-.88.467 4.41 4.41 0 00-.967 3.19 17.69 17.69 0 001.002 5.824c.264.661 1.064 2.52 2.032 2 .65-.344.756-1.621.818-2.247.148-1.68.101-3.371-.141-5.04zm3.623 37.052a1.27 1.27 0 00-1.011.555c-.95 1.604-.51 3.031-.106 4.776.405 1.744 1.011 3.886 2.207 5.287.106.123.238.264.396.264 1.478 0 1.143-4.873 1.055-5.498-.29-1.904-1.064-5.129-2.541-5.384z" fill="#D49272"/><path d="M151.206 380.043c-.281.573-5.593 1.93-7.712 1.568-10.078-1.709-19.611-5.762-28.836-10.177a364.075 364.075 0 01-26.101-13.86c-1.398-.82-3.58-1.507-4.045-3.155-.977-3.454 1.143-7.163 2.858-10 1.504-2.494 3.007-4.979 4.652-7.376 4.705-6.846 11.23-13.217 19.461-14.336 1.706-.229 6.033-2.202 6.666-2.537 1.548-.829 3.447-.097 5.004.722 8.794 4.582 15.988 11.631 22.865 18.742a485.354 485.354 0 019.673 10.248c2.172 2.387 4.397 4.978 4.951 8.159.554 3.181-8.644 20.407-9.436 22.002z" fill="#D41F73"/><path d="M220.266 374.465c.774-1.401.282-3.128.378-4.723.097-1.594 1.566-3.436 2.982-2.696.809.423 1.046 1.454 1.187 2.353 2.154 14.257-.238 28.751-1.091 43.175-3.016 50.56 12.963 100.723 10.861 151.327a6.397 6.397 0 01-.782 3.392 6.15 6.15 0 01-3.518 2.088c-7.378 2.177-15.056 2.864-21.431 7.525-6.921 5.058-11.908 10.274-20.684 11.843-19.233 3.427-39.099-.441-57.567-6.803-10.473-3.612-22.513.467-28.695-8.749-4.458-6.662-5.047-24.24-11.265-29.298-5.276-4.309-12.593-5.022-19.409-4.917-6.815.106-13.806.829-20.297-1.251-6.49-2.079-12.417-7.983-11.836-14.785.308-3.595 1.934-8.23-1.152-10.089a7.1 7.1 0 00-3.158-.732 64.111 64.111 0 01-29.073-9.86c-3.043-1.947-6.252-4.96-5.593-8.511.405-2.168 2.163-3.789 3.834-5.234 31.66-27.492 63.582-55.195 100.157-75.646 10.218-5.71 21.299-11.314 27.358-21.35 5.602-9.261 5.919-20.733 9.603-30.91a12.293 12.293 0 012.779-4.864c2.779-2.643 7.352-2.582 10.791-.881 3.843 1.947 5.953 5.798 9.532 7.93 3.342 1.983 7.977 2.643 10.888 5.639 1.301 1.322 2.409 2.89 4.01 3.824a12.818 12.818 0 005.61 1.296 380.255 380.255 0 0035.581.907z" fill="#C97988"/><path d="M145.868 564.35a.795.795 0 01-.692-.416.79.79 0 01.033-.809c24.192-37.06 50.706-152.436 51.005-153.573a.8.8 0 01.338-.536.775.775 0 01.621-.118.792.792 0 01.58 1.006c-.263 1.164-26.839 116.786-51.19 154.085a.783.783 0 01-.695.361zm21.73-31.95a.821.821 0 01-.316-.07.807.807 0 01-.405-1.049l13.825-31.668a.793.793 0 011.042-.41.798.798 0 01.409 1.045l-13.825 31.72a.807.807 0 01-.73.432zm-74.785 4.238a.786.786 0 01-.686-.396.793.793 0 010-.793c8.944-15.684 74.17-106.882 74.829-107.807a.801.801 0 011.108-.176.792.792 0 01.176 1.101c-.659.925-65.832 92.052-74.75 107.675a.79.79 0 01-.677.396zm5.074-22.909a.764.764 0 01-.527-.203.771.771 0 01-.261-.548.79.79 0 01.208-.571l18.344-20.116a.793.793 0 011.378.503.799.799 0 01-.208.572l-18.38 20.072a.766.766 0 01-.554.291zm-53.336-4.239a.803.803 0 01-.756-.551.788.788 0 01.246-.841c.985-.881 98.732-84.016 119.046-104.582a.789.789 0 011.082.027.793.793 0 01.044 1.083C143.845 425.254 46.046 508.468 45.061 509.305a.788.788 0 01-.51.185z" fill="#942D4A"/><path d="M108.616 442.471a.768.768 0 01-.651-.343.797.797 0 01.203-1.102c.466-.317 46.609-32.293 54.963-39.536a.79.79 0 011.308.655.792.792 0 01-.27.543c-8.408 7.305-53.205 38.33-55.104 39.651a.765.765 0 01-.449.132zm-67.169 37.616a.808.808 0 01-.799-.806c0-.209.081-.41.227-.56.528-.511 52.563-50.973 58.982-57.397a.791.791 0 011.117 1.119c-6.42 6.441-58.472 56.904-58.99 57.415a.8.8 0 01-.537.229zm182.02-25.236a.8.8 0 01-.782-.661c-2.823-16.133-6.156-30.566-6.156-30.707a.793.793 0 011.539-.361c0 .141 3.377 14.609 6.156 30.839a.785.785 0 01-.642.881l-.115.009zm-4.221 4.239a.786.786 0 01-.774-.644l-3.174-16.618a.793.793 0 01.637-.858.788.788 0 01.91.558l3.175 16.619a.773.773 0 01-.624.881l-.15.062zm-9.568-58.085c-37.656 0-66.492-14.979-66.835-15.182a.764.764 0 01-.388-.464.76.76 0 01.063-.602.79.79 0 011.064-.335c.299.159 30.357 15.817 69.042 14.98a.804.804 0 01.756 1.08.795.795 0 01-.721.506l-2.981.017z" fill="#942D4A"/><path d="M348.265 211.552c.756-4.15 3.614-7.816 6.077-11.085 6.155-8.15 15.398-12.195 23.137-18.221 10.034-7.807 19.954-15.711 29.513-24.117 6.868-6.036 12.426-13.217 18.784-19.685 4.397-4.502 9.129-8.423 15.214-10.388a4.194 4.194 0 014.881 1.409 5.243 5.243 0 01.58 5.71c-2.357 3.71-11.362 57.151-14.378 60.023-6.226 5.939-12.506 11.799-19.514 16.812a359.005 359.005 0 01-33.348 20.901c-2.251 1.269-4.573 2.414-6.815 3.692-2.805 1.595-5.954 1.207-8.961 1.524-1.117.124-2.146-.881-3.017-1.762a42.19 42.19 0 01-7.967-10.856c-1.979-3.824-4.679-8.133-4.344-12.75.035-.387.087-.793.158-1.207z" fill="#BAD7E0"/><path d="M455.289 116.927c3.826 4 10.966 10.697 5.277 16.177-3.272 3.128-3.632 7.191-4.01 11.323-1.126 12.177-1.847 24.372-2.252 36.602-.598 18.161 1.566 36.25 4.309 54.164 2.691 17.482 4.582 34.761 5.62 52.436 1.152 19.764 2.893 39.872 2.383 59.662-.114 4.406-.141 8.811-1.433 13.217-.88 2.811-.317 5.957-.546 8.961-.879 10.935-1.662 21.879-1.802 32.849a8.97 8.97 0 01-.299 1.85c-.264 1.084-.81 2.062-2.032 2.08-5.496.088-7.484-22.83-7.677-26.954-1.759-36.373-10.729-71.945-18.652-107.34-4.072-18.187-8.329-36.356-11.433-54.745-1.908-11.455-4.256-22.989-3.676-34.655.581-11.666 4.687-22.989 9.234-33.598 2.638-6.053 6.411-11.455 9.788-17.032 3.113-5.164 5.092-11.455 10.095-15.209 2.305-1.665 5.048-1.929 7.106.212zm-137.188 51.106c.66-1.19 4.072-2.432 5.215-3.12 2.788-1.674 5.822-3.269 8.196-5.516a9.452 9.452 0 002.876-4.714c.109-.772.277-1.535.501-2.282 1.108-2.881 7.141-2.114 8.53.185a90.839 90.839 0 008.029 11.455c1.152 1.375 1.056 9.375 2.841 10.979 5.936 5.331 19.206 14.495 24.702 20.266 4.002 4.194 0 5.225 3.518 9.834a6.051 6.051 0 011.469 2.96c.079.679-15.443 29.483-17.844 30.047-4.344 1.022-10.412-3.789-12.311-5.525-12.796-11.569-22.733-25.341-30.92-40.435-.88-1.551-1.434-2.053-3.131-1.093-2.454 1.384-4.529.67-5.716-1.877a144.453 144.453 0 01-5.576-14.433 5.155 5.155 0 012.093-6.414c.792-.547 1.381-1.392 2.146-1.992 2.515-1.929 4.265-1.418 5.382 1.675z" fill="#BAD7E0"/><path d="M467.909 375.796a.794.794 0 01-.783-.705c-.061-.564-6.367-56.622-11.661-82.025-5.294-25.403-11.626-85.25-11.687-85.849a.793.793 0 011.284-.701.79.79 0 01.29.533c.061.6 6.367 60.297 11.661 85.7 5.294 25.403 11.661 81.602 11.661 82.166a.802.802 0 01-.704.881h-.061zm-22.232-224.893h-.079a.769.769 0 01-.544-.288.776.776 0 01-.168-.593c.052-.555 1.354-13.71 5.021-23.041a.795.795 0 011.465-.023.782.782 0 01.004.604c-3.588 9.129-4.899 22.478-4.916 22.61a.78.78 0 01-.783.731zm-63.282 67.046h-.071a.803.803 0 01-.547-.287.805.805 0 01-.174-.594c.783-9.111-1.187-19.737-1.213-19.843a.79.79 0 01.633-.925.79.79 0 01.923.634c0 .106 2.032 10.935 1.231 20.266a.784.784 0 01-.782.749z" fill="#5B8BA3"/><path d="M384.048 200.194l7.915 11.649-7.915-11.649z" fill="#9B9960"/><path d="M321.689 187.418a.797.797 0 01-.769-.7.792.792 0 01.584-.86c11.714-2.846 20.227-16.072 23.006-20.416.293-.505.622-.988.985-1.445a.79.79 0 011.334.528.799.799 0 01-.182.556c-.097.114-.458.678-.809 1.225-2.876 4.476-11.635 18.098-23.956 21.094a.78.78 0 01-.193.018z" fill="#5B8BA3"/><path d="M470.617 139.678c-6.375-3.904-21.053-13.658-25.186-20.073-.879-1.365 1.02-1.357.994-2.132-.123-3.524.818-6.934 1.345-10.389a150.89 150.89 0 014.775-20.9c1.715-5.64 7.915-26.055 8.161-28.699.08-.987 2.902-1.691 3.571-1.172 1.706 1.322 2.383 3.181 3.104 5.076 1.363 3.524 2.454 7.243 4.397 10.573 4.96 8.565 9.551 17.72 18.714 22.443 1.68.881 5.277 4 5.277 4.547.299 3.383-24.518 41.113-25.152 40.726z" fill="#FC8D6A"/><path d="M401.197 101.066c.65-4.405.967-11.736-.106-15.86-1.002-3.886-3.781-6.01-5.039-9.807a24.642 24.642 0 01-.818-8.036c.062-9.023.29-18.619 5.277-26.161 3.597-5.472 9.401-9.243 15.627-11.279 6.226-2.035 12.857-2.432 19.4-2.202 8.328.282 17.096 1.762 23.489 7.12 7.413 6.211 10.21 17.19 7.193 26.39-.73 2.202-1.758 4.308-2.33 6.555a42.914 42.914 0 01-1.319 5.383c-.985 2.45-2.964 4.468-3.615 7.05-.65 2.581.115 5.234.66 7.815 1.557 7.26 1.345 14.98-1.433 21.888-2.779 6.908-8.047 12.635-13.192 18.133a22.173 22.173 0 01-5.109 4.459 7.458 7.458 0 01-6.525.652c-1.082-.485-3.245-4.485-4.125-5.287-2.638-2.37-3.939-1.551-6.543-3.921a3.757 3.757 0 01-1.433-2.097c-.167-1.189.792-2.203 1.618-3.084 1.24-1.313 5.725-9.04 3.395-10.662-1.302-.881-4.081 2.335-5.127 3.146-1.759 1.339-3.518 2.873-5.655 3.269-2.137.397-4.828-.96-4.863-3.163 0-2.459 1.504-6.168-2.506-4.635-2.753 1.04-7.141 3.163-7.212-1.692-.009-1.33.088-2.659.291-3.974zM216.81 172.729c.062-.361 2.639-1.401 3.078-1.612a16.512 16.512 0 013.078-1.481 2.306 2.306 0 011.838.212c1.214.793 1.425 2.308 2.902 2.943 1.029.449 2.568.308 3.43 1.101 1.319 1.216-.712 1.851-1.68 2.009-1.723.22-3.418.622-5.056 1.199a21.251 21.251 0 00-9.401 7.172c-4.767 6.529-5.356 15.085-7.15 22.971-.325 1.428-1.407 3.234-2.752 2.644a3.855 3.855 0 01-1.108-1.005c-1.566-1.604-4.125-1.489-6.359-1.322-7.98.58-16 .24-23.902-1.013-2.972-.476-6.314-1.366-7.686-4.053-1.601-3.163.413-6.864 2.137-9.966a54.857 54.857 0 006.974-22.786c.738-11.455-2.771-22.909-2.111-34.364a2.43 2.43 0 01.501-1.622 1.823 1.823 0 011.187-.467c2.208-.132 3.861 1.93 4.978 3.842a54.039 54.039 0 015.91 14.75 1.75 1.75 0 00.694 1.234c.537.282 1.17-.079 1.715-.361 2.92-1.507 6.605-.74 9.296 1.128a17.692 17.692 0 014.458 4.89c.968 1.454 2.067 4.617 4.204 4.503 1.065-.2 2.114-.477 3.139-.829a6.075 6.075 0 016.156 2.917 10.589 10.589 0 011.53 7.366z" fill="#FC8D6A"/><path d="M158.813 134.127v-2.943c.704-.485.475-1.278.563-1.921a51.57 51.57 0 014.837-16.011c7.158-14.653 19.945-23.253 37.814-20.82 6.921.933 13.112 3.762 19.295 6.705a9.094 9.094 0 013.676 3.172c2.392 3.586 5.54 6.776 7.035 10.838 3.887 10.485 14.264 14.309 15.398 14.979 2.814 1.762 1.557 6.23-1.02 7.375-3.579 1.604-5.408 3.86-2.638 6.168 2.515 2.071 3.263 4.661.325 6.247-2.365 1.278-4.757 1.56-7.387 2.283-.826.229-1.187 2.114-.563 2.687a13.748 13.748 0 006.033 3.472c2.419.555 4.098 2.766 3.14 4.934-1.407 3.154-1.381 6.362-1.46 9.648a5.031 5.031 0 01-1.37 3.104 5.006 5.006 0 01-3.027 1.522 43.42 43.42 0 01-6.851-.158 17.61 17.61 0 00-11.617 3.524c-2.946 2.142-3.702 2.133-7.915 8.309-.439.635-38.228-33.139-42.361-35.65-6.156-3.754-10.553-8.917-11.503-16.407.036-.388.053-.837-.404-1.057z" fill="#FC8D6A"/><path d="M413.711 71.68c1.002.141 2.515.097 3.359.732 2.084 1.568-.659 3.066-1.996 3.4a15.932 15.932 0 00-5.092 2.3c-1.108.767-2.542 2-3.685.618a2.983 2.983 0 01-.079-4.027c1.477-1.895 4.485-3.11 7.493-3.023z" fill="#87391F"/><path d="M221.788 120.028c-1.302-.114-.994-1.462-.493-2.766 1.214-3.146 1.654-5.234 3.685-6.115 1.381-.6 2.234-1.719 3.518-1.084.879.423 1.556 2.414.879 3.093-1.838 1.894-3.781 3.692-5.698 5.498-.361.352-1.381 1.41-1.891 1.374z" fill="#4F332A"/><path d="M418.864 85.505a1.153 1.153 0 01-.114.265c-1.698 2.6-5.022-2.75-5.374-3.763a1.498 1.498 0 01.335-1.832 1.752 1.752 0 011.574-.097c1.521.581 2.638 2.423 3.192 3.639.296.547.43 1.168.387 1.788zm-190.569 33.413c.141-.537.185-1.119.88-1.233.695-.115 1.02.493 1.275.942a12.242 12.242 0 011.618 4.67c.062.714.123 1.948-.703 2.124-.827.176-1.531-1.128-1.838-1.665a8.605 8.605 0 01-1.232-4.838z" fill="#181616"/><path d="M448.993 124.337a.804.804 0 01-.691-.423.8.8 0 01.031-.81c2.911-4.406 10.5-16.557 10.72-19.588.264-3.754-2.084-15.28-2.11-15.402a.794.794 0 111.556-.318c.097.485 2.418 11.86 2.128 15.861-.29 4-9.876 18.689-10.966 20.345a.78.78 0 01-.668.335z" fill="#CF4929"/><path d="M395.032 54.058a.688.688 0 01-.229 0 12.851 12.851 0 01-7.035-5.366.784.784 0 01-.079-.603.785.785 0 01.369-.481.793.793 0 011.082.29 11.433 11.433 0 006.156 4.644.788.788 0 01.564.678.787.787 0 01-.028.309.783.783 0 01-.8.529z" fill="#61200A"/><path d="M484.547 89.506v.423a9.33 9.33 0 01-8.917.123c-3.518-1.621-21.203-6.503-26.884-9.692-2.225.449-3.517-.582-4.221-2.75a54.256 54.256 0 00-6.938-14.239c-4.037-5.745-9.12-9.64-16.586-9.824a95.79 95.79 0 00-14.836.766c-3.816.494-7.413.881-11.133-1.03-4.195-2.177-7.8-4.759-8.557-9.587-.756-4.83 1.566-8.706 5.435-11.526a39.255 39.255 0 0110.403-5.789 6.517 6.517 0 003.149-2.573c1.97-2.643 2.638-6.168 5.549-7.736a51.58 51.58 0 0112.531-4.318 47.9 47.9 0 0114.581-.757c4.652.36 9.164.934 13.191 3.524a4.17 4.17 0 001.997.555c8.125.423 15.504 3.287 22.636 6.97a9.53 9.53 0 014.247 4.23c3.984 7.868 3.914 16.221 2.348 24.574-1.504 8.019-3.016 15.958-1.372 24.126.994 4.864 1.575 9.833 3.377 14.53z" fill="#87391F"/><path d="M402.129 51.555h-.15c-7.141-1.304-9.858-4.705-10.869-7.322-1.258-3.242-.44-6.538 0-7.102a.79.79 0 011.362.323.793.793 0 01-.061.558 8.656 8.656 0 00.51 6.353c1.46 2.855 4.608 4.75 9.366 5.613a.794.794 0 01.41 1.379.792.792 0 01-.551.198h-.017zm12.338 2.555h-1.223a.799.799 0 01-.883-.709.8.8 0 01.708-.885.77.77 0 01.448 0c2.102.238 16.516-.07 19.031-8.741a.795.795 0 01.676-.566.792.792 0 01.309.028.766.766 0 01.475.375.787.787 0 01.061.603c-2.647 9.147-15.522 9.896-19.602 9.896z" fill="#61200A"/><path d="M426.462 46.057a.79.79 0 01-.768-.98.79.79 0 01.24-.404l.185-.22c4.195-5.04 15.75-15.481 32.538-3.595a.792.792 0 01-.879 1.295c-15.706-11.12-26.488-1.392-30.401 3.314a1.77 1.77 0 01-.44.458.773.773 0 01-.475.132z" fill="#61200A"/><path d="M458.121 42.295a.803.803 0 01-.792-.882c.51-9.64-9.568-15.402-10.755-15.79a.794.794 0 01-.167-1.56c1.091-.308 4.872 2.644 4.907 2.688 2.999 2.388 7.977 7.481 7.598 14.75a.8.8 0 01-.791.794zm7.642-3.904a.799.799 0 01-.791-.758c-.335-7.472-2.762-13.05-7.212-16.556-6.71-5.287-15.644-4.15-16.26-4.062a.825.825 0 01-1.003-.758c0-.81.546-.881 2.903-.978 5.197-.168 22.196.987 23.154 22.284a.798.798 0 01-.206.571.792.792 0 01-.55.257h-.035zm10.166 2.124a.721.721 0 01-.352-.088.79.79 0 01-.401-.453.777.777 0 01.041-.605c3.113-6.38-2.375-12.776-2.428-12.847a.798.798 0 01.071-1.119.8.8 0 011.125.08c.256.29 6.227 7.269 2.639 14.582a.788.788 0 01-.695.45z" fill="#61200A"/><path d="M440.533 67.195c-.12-2.042.18-4.087.879-6.009 1.425-3.877 5.47-4.758 8.328-1.833 5.523 5.64 7.282 14.627 4.107 20.9-1.583 3.129-4.089 4.151-6.604 2.547a11.341 11.341 0 01-4.925-5.797 26.407 26.407 0 01-1.785-9.808z" fill="#FC8D6A"/><path d="M445.677 77.135a.796.796 0 01-.756-.556 27.433 27.433 0 01-1.152-7.419c0-2.802.66-4.987 1.917-6.485a.792.792 0 011.397.443.797.797 0 01-.183.58c-1.02 1.206-1.539 3.048-1.539 5.471a25.478 25.478 0 001.073 6.926.803.803 0 01-.054.606.788.788 0 01-.465.39.762.762 0 01-.238.044z" fill="#CF4929"/><path d="M444.56 69.953a.783.783 0 01-.782-.749c-.115-2.423 3.948-3.603 4.766-3.815a.79.79 0 01.922.58.792.792 0 01-.526.953c-1.486.388-3.623 1.401-3.588 2.203a.793.793 0 01-.201.57.787.787 0 01-.547.258h-.044z" fill="#CF4929"/><path d="M476.835 182.439a459.668 459.668 0 01-2.164-34.849 107.457 107.457 0 0110.932-49.872c1.169-2.44 3.517-7.745 5.98-9.093 4.678-2.564 14.255 1.762 18.01 4.538 27.956 20.451 30.243 18.407 46.204 48.462 5.382 10.151 26.84 56.208 31.193 66.817 9.383 22.909 16.278 46.7 28.625 68.191 13.042 22.724 27.561 44.471 39.688 67.742 6.032 11.578-10.368 18.882-18.626 22.292-15.056 6.212-30.393 11.631-44.226 20.443-3.975 2.528-10.421 9.067-15.223 8.811-4.801-.256-7.729-6.018-10.675-8.97-4.398-4.406-61.419-83.849-75.533-131.906a402.596 402.596 0 01-14.185-72.606z" fill="#BAD7E0"/><path d="M512.469 167.249c-11.107 3.392-32.987 17.869-42.713 23.958-11.345 7.11-23.745 13.155-35.019 20.371-3.649 2.336-7.369 4.556-11.054 6.829a3.514 3.514 0 01-2.374.644c-.132 0 .958-27.862.765-29.845-.431-4.485-5.162-13.851.176-17.067 4.951-2.97 30.524-28.382 40.602-35.246 7.036-4.767 12.048-9.393 18.354-13.878 10.025-7.137 12.399-25.447 12.918-27.315 1.381-4.96 1.689-5.163 6.824-3.974 9.797 2.282 19.734 1.12 28.08 7.57 7.035 5.436 11.705 13.393 15.829 21.147 12.207 22.671 24.307 45.36 33.796 69.345 2.946 7.454-9.594-12.759-8.31-4.767.264 1.648.519 3.304.712 4.97.097.819-.141 1.577-1.108 1.762-.967.185-46.987-27.703-57.478-24.504z" fill="#BAD7E0"/><path d="M360.453 119.191a27.362 27.362 0 017.036 6.345c8.468 9.754 18.019 18.318 28.018 26.434 8.187 6.643 16.559 13.076 24.06 20.539 1.645 1.63 3.518 3.313 4.151 5.463.932 3.348 1.759 6.45 4.652 8.811 1.152.952.713 2.838-.554 3.939a8.406 8.406 0 00-2.963 6.168 2.82 2.82 0 01-.686 1.709 1.852 1.852 0 00-.613 1.296 1.853 1.853 0 00.49 1.348 2.445 2.445 0 002.867 1.136c2.189-.634 3.148.494 2.488 2.75-.316 1.066-.765 2.097-1.152 3.145.088.044.211.159.317.141.985-.15 2.11-.951 2.884.185.774 1.137-.211 2.027-.809 2.961-.598.934-.994 2.159-1.592 3.172-3.658 6.168-10.368 6.987-15.547 3.842-12.312-7.499-37.059-21.791-48.368-30.902-10.096-9.542-11.239-10.573-13.71-23.623-.616-3.234-2.867 4.873-5.373.476-.273-.467-10.8-11.807-11.239-12.142-2.155-1.639-2.375-2.52-.88-4.705.739-1.093 1.68-2.054 2.524-3.076a2.535 2.535 0 012.251-.881c5.04.291 8.241-1.762 12.312-4.828a23.138 23.138 0 008.24-10.768c.985-2.828 2.366-5.657 1.196-8.935z" fill="#BAD7E0"/><path d="M420.895 171.725a.807.807 0 01-.615-.282.801.801 0 01.105-1.119c2.639-2.212 65.174-54.164 80.299-61.891 11.661-5.957 20.702-7.843 26.866-5.613 5.444 1.974 7.44 6.608 8.627 9.375.159.37.299.696.44.987 2.322 4.978 6.807 23.385 4.573 34.99a.784.784 0 01-.879.625.78.78 0 01-.508-.331.798.798 0 01-.125-.594c2.172-11.269-2.19-29.174-4.45-34.012-.15-.308-.299-.652-.458-1.031-1.16-2.705-2.91-6.784-7.712-8.52-5.743-2.071-14.361-.212-25.608 5.533-14.95 7.649-79.359 61.16-80.027 61.68a.787.787 0 01-.528.203z" fill="#5B8BA3"/><path d="M435.441 185.347a.808.808 0 01-.598-.273c-10.553-12.16-29.9-24.549-30.111-24.672a.799.799 0 01-.01-1.333.799.799 0 01.889-.006c.194.123 19.787 12.635 30.454 24.971a.8.8 0 01-.079 1.119.774.774 0 01-.545.194zm8.31-8.256a.887.887 0 01-.325-.071c-5.787-2.643-19.022-6.335-20.429-6.45a.798.798 0 01-.905-.946.796.796 0 01.342-.499c1.144-.74 17.685 4.653 21.643 6.45a.8.8 0 01.418.441.793.793 0 01-.023.608.798.798 0 01-.721.467zm-19.47 42.277a.804.804 0 01-.677-.379.79.79 0 01.264-1.093c8.565-5.225 83.834-51.009 88.53-51.44 4.696-.432 22.346 0 23.094 0a.789.789 0 01.791.793.79.79 0 01-.791.793c-.185 0-18.354-.415-22.865 0-3.324.326-54.365 30.839-87.853 51.211a.793.793 0 01-.493.115z" fill="#5B8BA3"/><path d="M545.183 183.752a.757.757 0 01-.308-.062c-9.207-3.85-23.322-9.692-24.465-9.868a.759.759 0 01-.545-.235.748.748 0 01-.203-.558.802.802 0 01.88-.784c.993 0 16.084 6.256 24.993 9.983a.798.798 0 01.113 1.407.779.779 0 01-.465.117zm-16.48-26.029a.784.784 0 01-.73-.493c-.484-.987-9.085-15.094-11.433-18.046a.794.794 0 01.115-1.11.799.799 0 011.116.115c2.428 3.022 11.433 17.807 11.705 18.503a.797.797 0 01-.232.852.8.8 0 01-.269.153.807.807 0 01-.272.026zM588.107 338.7a.815.815 0 01-.651-.344c-18.107-26.108-47.655-94.079-63.537-130.593-5.972-13.737-10.712-24.672-11.609-25.861a.794.794 0 01-.019-1.29.787.787 0 01.468-.155c.879 0 1.02 0 12.611 26.672 15.829 36.47 45.369 104.344 63.388 130.32a.804.804 0 01-.194 1.101.807.807 0 01-.457.15zm27.657 1.692a.79.79 0 01-.606-.282c-24.052-28.787-43.901-59.036-51.376-70.491-1.679-2.564-3.007-4.6-3.289-4.926a.79.79 0 01-.083-1.058.796.796 0 01.484-.297.797.797 0 01.558.104c.29.194.563.59 3.658 5.287 7.458 11.393 27.262 41.634 51.261 70.341a.79.79 0 01.112.846.794.794 0 01-.719.458v.018zm-13.543-61.336a.802.802 0 01-.774-.608c-6.076-25.553-15.442-64.173-16.506-66.517a.801.801 0 01-.097-.811.79.79 0 011.038-.405c.536.238.879.388 9.102 34.091a6362.549 6362.549 0 018.002 33.272.785.785 0 01-.091.601.785.785 0 01-.489.359l-.185.018z" fill="#5B8BA3"/><path d="M602.221 257.309l4.793 13.579-4.793-13.579z" fill="#9B9960"/><path d="M334.819 146.744h-.431a.796.796 0 01-.699-.538.8.8 0 01.229-.853.798.798 0 01.575-.195c.713.053 17.65.882 24.975-20.574a.789.789 0 011.43-.069.795.795 0 01.066.58c-7.062 20.707-23.27 21.649-26.145 21.649z" fill="#5B8BA3"/><path d="M347.236 165.327a.816.816 0 01-.563-.229c-2.251-2.238-13.569-13.49-14.326-15.543-.756-2.053 4.239-10.353 6.429-13.798a.8.8 0 111.337.881c-3.245 5.084-6.569 11.269-6.27 12.406.299 1.137 7.334 8.397 13.701 14.715 2.401-.132 18.397-1.868 26.743-25.306a.8.8 0 01.708-.591.784.784 0 01.6.214.789.789 0 01.178.906c-9.287 26.064-27.93 26.345-28.537 26.345z" fill="#5B8BA3"/><path d="M406.376 215.2a.807.807 0 01-.457-.15c-1.961-1.392-48.069-34.206-50.478-36.47-2.41-2.265-4.397-12.195-4.608-13.305a.798.798 0 01.633-.926.797.797 0 01.879.635c.537 2.881 2.322 10.732 4.134 12.442 1.811 1.709 33.725 24.53 50.311 36.329a.794.794 0 01-.458 1.445h.044zM595.16 382.246a.787.787 0 01-.572-.256c-.571-.599-57.162-61.08-72.411-100.352-8.943-23.024-31.298-102.151-31.518-102.926a.788.788 0 01.051-.622.8.8 0 01.484-.392.788.788 0 01.854.293.818.818 0 01.133.289c.219.793 22.556 79.831 31.474 102.776 15.143 38.999 71.514 99.242 72.112 99.85a.797.797 0 010 1.119.75.75 0 01-.607.221zM497.694 111.64a.78.78 0 01-.633-.326c-1.354-1.842-4.476-6.291-4.247-7.842.184-1.181 5.566-4.82 16.005-10.812a.793.793 0 011.082.291.803.803 0 01-.299 1.084c-6.877 3.956-14.335 8.609-15.214 9.745.088.881 2.075 4.053 3.948 6.6a.792.792 0 01-.175 1.101.766.766 0 01-.467.159zm-125.905 52.445h-.149c-7.15-1.313-10.008-5.137-10.131-5.604a.802.802 0 01.246-.81.781.781 0 01.575-.193.799.799 0 01.542.272.759.759 0 01.114.176c.229.3 2.77 3.463 8.944 4.6a.79.79 0 01.41 1.378.797.797 0 01-.551.199v-.018z" fill="#5B8BA3"/><path d="M175.117 190.281c1.367.309 2.768.44 4.169.388 3.122-.203 5.989-2.291 8.873 0 .879.74 1.521 1.577 3.043 1.172 1.196-.308 2.26.811 3.245 1.63 4.81 3.983 8.724 8.811 12.883 13.446 12.831 14.257 21.229 28.672 25.187 47.511 6.648 31.668 6.551 63.971 6.956 96.167.079 6.256.308 12.803-1.513 18.865-2.278 7.605-9.234 10.036-16.049 12.336-28.766 9.693-60.811-.995-87.598-12.063-6.684-2.766-20.28-5.198-21.37-13.93-.484-3.842 1.354-7.701 2.154-11.455a360.015 360.015 0 002.727-14.16c3.517-20.354 4.995-40.735 10.368-60.798a232.956 232.956 0 0122.865-55.67c3.377-5.878 5.461-12.742 9.673-18.205 1.961-2.529 4.397-4.837 7.607-5.665 2.313-.494 4.538.017 6.78.431z" fill="#F6D1BC"/><path d="M220.363 351.609a.8.8 0 01-.343-.08.795.795 0 01-.361-1.057c3.993-8.265 14.449-52.666 14.555-53.115a.793.793 0 011.448-.24.798.798 0 01.1.601c-.431 1.833-10.606 45.026-14.687 53.441a.782.782 0 01-.712.45zm-20.165 27.738a.794.794 0 01-.36-1.507c.193-.097 20.912-11.243 30.093-19.596a.79.79 0 011.296.629.794.794 0 01-.232.542c-9.313 8.477-30.252 19.747-30.445 19.844a.756.756 0 01-.352.088zm3.184 1.921a.803.803 0 01-.757-.555.787.787 0 01.493-.987c.176-.062.747-.177 2.902-.635 4.643-.978 15.521-3.269 17.043-4.176a.789.789 0 011.086.277.797.797 0 01-.277 1.088c-1.609.961-9.885 2.758-17.527 4.362-1.372.291-2.559.538-2.735.59a.68.68 0 01-.228.036zm-54.814-7.226a.77.77 0 01-.519-.194c-4.397-3.824-12.839-9.622-13.965-9.992a.794.794 0 01.088-1.577c1.416 0 11.582 7.446 14.95 10.371a.782.782 0 01.189.245.775.775 0 01.043.605.8.8 0 01-.438.479.772.772 0 01-.348.063z" fill="#D49272"/><path d="M292.317 56.939c.052-4.617-1.847-8.714-3.14-12.953-.985-3.26-1.68-6.45-.879-9.877.475-1.974-.308-3.155 2.726-4.538 1.143-.52 2.427 1.172 3.306 2.027 1.311 1.277 2.911.352 4.494.88 2.401.74 5.734 6.028 6.209 7.006 3.324 6.881 3.518 11.798 7.255 18.768a38.213 38.213 0 013.201 7.137 48.375 48.375 0 012.638 20.848c-.598 5.533.95 10.794 1.205 16.195.131 1.533.09 3.076-.123 4.6-.176.96-.053 2.317-1.53 2.388-1.478.07-2.999.449-3.659-1.534a4.23 4.23 0 00-1.301-1.595 2.63 2.63 0 00-2.638-.167c-.757.238-.466 1.101-.396 1.674.193 1.454-.325 2.062-1.82 1.956a8.362 8.362 0 00-2.058.282c-.352.062-.88.159-.959-.123-.255-1.762-2.102-2.873-2.19-4.485-.545-9.692-3.139-18.848-6.419-27.826a174.963 174.963 0 00-7.915-17.57c-.457-.934-.879-1.895-1.302-2.855-.422-.96-.43-1.965.572-2.59a2.259 2.259 0 012.735.22c.744.63 1.412 1.345 1.988 2.132zm-18.794 36.708c.467-1.013.001-1.762-.254-2.52-1.029-3.04-2.375-5.983-2.639-9.243-.088-1.013 0-1.903 1.003-2.256 1.161-.405 1.6.529 1.97 1.392 2.638 6.063 6.156 11.614 9.673 17.112.66 1.013.563 2.379 1.319 3.278 3.404 4.036 3.289 10.424 3.404 14.909.07 2.643-1.759 3.331-4.565 4.599-.659.3-1.108 1.04-1.688 1.551-2.146 1.868-4.054 1.322-6.156-.493-5.276-4.503-6.156-11.552-10.131-16.83-3.051-4.062-5.364-8.662-8.389-12.776-1.038-1.41-2.507-2.803-1.073-4.847.369-.528-.299-1.004-.563-1.48-.959-1.762-2.339-3.207-2.111-5.516.115-1.11-.395-1.03-1.09-1.983-.695-.951-1.706-5.225 4.687-3.03 2.014.696 1.926-.335 3.949.651 2.7 1.304 5.786 5.648 7.528 8.09 2.172 3.057 2.946 6.238 5.126 9.392z" fill="#FC8D6A"/><path d="M288.034 117.112a.845.845 0 01-.246 0c-.625-.212-.634-.353-.88-4.018-.193-2.785-.483-6.996-1.029-8.433-.202-.528-1.398-2.81-2.779-5.454-2.444-4.67-5.786-11.05-7.651-15.296-1.116-2.556-2.427-3.296-3.104-3.525a1.886 1.886 0 00-.659-.088.782.782 0 01-.379.59.798.798 0 01-1.09-.255 1.135 1.135 0 010-1.19 1.844 1.844 0 011.759-.731c.703.053 3.139.511 4.916 4.555 1.838 4.186 5.171 10.574 7.598 15.191 1.671 3.199 2.638 5.04 2.858 5.622.633 1.665.879 5.674 1.134 8.899.079 1.225.176 2.6.255 2.996a.795.795 0 01-.703 1.172v-.035zm-11.863-12.089a.811.811 0 01-.678-.379c-1.248-2.018-17.79-26.558-17.957-26.804a.793.793 0 01.812-1.172c.197.03.375.134.498.29.686 1.014 16.709 24.813 17.993 26.857a.798.798 0 01-.029.882.812.812 0 01-.226.211.814.814 0 01-.413.115zm-4.749 0a.786.786 0 01-.695-.415c-1.557-2.828-15.064-20.83-16.208-22.028a.793.793 0 01.748-1.366c.237.08.536.177 8.073 10.3 2.286 3.067 7.721 10.425 8.794 12.337a.787.787 0 01-.077.878.775.775 0 01-.24.197.727.727 0 01-.395.097zm-2.647.846a.78.78 0 01-.66-.362c-1.979-3.022-10.483-14.979-10.553-15.138a.81.81 0 01-.174-.291c-.036-.11-.048-.225-.036-.338a.802.802 0 01.342-.57.785.785 0 01.653-.109.791.791 0 01.508.427c.352.494 8.601 12.133 10.553 15.191a.798.798 0 01.033.808.799.799 0 01-.693.417l.027-.035zm31.298-38.286a.78.78 0 01-.765-.59c-1.996-7.728-10.553-32.206-10.676-32.452a.8.8 0 01.032-.608.8.8 0 01.451-.406.8.8 0 011.012.485c.088.247 8.697 24.795 10.72 32.602a.803.803 0 01-.572.97h-.202zm.009 7.049a.783.783 0 01-.721-.458c-2.533-5.578-6.701-14.644-7.238-15.482a.796.796 0 01.008-1.086.79.79 0 011.083-.059c.175.141.545.44 7.58 15.966a.794.794 0 01-.136.869.782.782 0 01-.576.25zm4.256-7.798a.782.782 0 01-.783-.66c-.826-4.979-9.497-32.47-9.585-32.752a.784.784 0 01.054-.606.8.8 0 01.465-.39.789.789 0 01.845.248c.067.08.117.172.149.272.36 1.136 8.794 27.879 9.673 32.963a.785.785 0 01-.642.881l-.176.044zm3.702-2.114a.782.782 0 01-.756-.564l-8.68-29.695a.806.806 0 01.064-.605.795.795 0 01.781-.409.776.776 0 01.529.297.782.782 0 01.139.277l8.68 29.685a.806.806 0 01-.064.605.795.795 0 01-.473.382.937.937 0 01-.22.026z" fill="#CF4929"/><path d="M299.422 211.834c-4.854 4.943-11.186 5.771-17.526 6.564-4.169.52-6.49-1.691-7.484-5.586-.932-3.692 1.328-6.467 1.6-9.745.88-11.279 3.298-22.469 2.586-33.854-.572-9.066-1.917-18.063-3.377-27.033-.651-3.983-1.372-7.93-2.287-11.904a18.181 18.181 0 00-1.415-3.692c-1.39-2.917-.431-4.811 2.321-6.423 3.852-2.238 7.739-4.248 12.206-4.706 4.195-.44 8.179-.088 11.433 3.296a9.806 9.806 0 012.638 5.542c2.181 14.248 4.274 28.505 5.338 42.885.879 11.728 1.609 23.456.879 35.245 0 .274.08.688-.07.811-1.882 1.586-.879 3.692-.985 5.56a6.039 6.039 0 01-2.137 4.159c-1.75 1.577-2.84 1.304-3.72-1.119z" fill="#E2448E"/><path d="M195.713 243.81h-10.06c-10.201-1.154-20.156-3.004-28.194-10.15-6.156-5.499-8.302-12.847-5.365-19.209 2.639-5.657 6.253-10.38 12.646-12.186a16.381 16.381 0 005.699-2.987c2.928-2.282 6.428-2.705 9.955-2.441 6.076.458 12.153.256 18.221.273 6.068.018 12.312.45 18.406.776 10.465.563 20.93.061 31.404-.476 12.259-.626 23.392-4.979 34.561-9.384a2.97 2.97 0 001.051-.634c.303-.283.544-.625.708-1.005.167-.388.396-.74.536-1.137 2.638-7.322 8.794-6.353 12.655-1.278a28.597 28.597 0 015.488 14.539c.167 1.454.237 2.723 1.758 3.683 1.399.881.959 2.644.669 4.089a18.687 18.687 0 01-3.211 7.444 18.639 18.639 0 01-6.058 5.376 66.158 66.158 0 01-15.83 7.049c-11.538 3.269-23.049 6.635-34.499 10.204-6.886 2.15-14.027 2.978-21.247 3.401a92.37 92.37 0 00-15.961 2.08c-4.406.995-8.961.784-13.332 1.973z" fill="#E2448E"/><path d="M278.088 130.858a.81.81 0 01-.651-.344.793.793 0 01.202-1.101c.308-.212 7.572-5.226 11.714-5.375a.821.821 0 01.818.766.806.806 0 01-.464.749.804.804 0 01-.301.071c-3.676.132-10.791 5.04-10.87 5.093a.759.759 0 01-.448.141zm0 59.82a.79.79 0 01-.76-.563.796.796 0 01.32-.891c.404-.264 9.841-6.564 14.264-6.609a.792.792 0 01.56 1.354.792.792 0 01-.56.233c-3.271 0-10.773 4.59-13.393 6.344a.806.806 0 01-.431.132z" fill="#8C004F"/><path d="M289.379 193.348a.807.807 0 01-.422-.115c-2.365-1.48-7.246-3.357-11.001-2.449a.812.812 0 01-.959-.591.796.796 0 01.589-.951c4.565-1.102 9.982 1.251 12.207 2.643a.79.79 0 01.337.886.788.788 0 01-.751.577z" fill="#8C004F"/><path d="M230.494 175.963c-3.65 0-14.431-1.454-19.435-5.049a61.15 61.15 0 01-5.831-5.551 44.205 44.205 0 00-1.389-1.41.803.803 0 01-.28-.29.803.803 0 01-.107-.389.787.787 0 01.489-.732.788.788 0 01.303-.061c.404 0 .404 0 2.128 1.763a61.8 61.8 0 005.61 5.366c4.644 3.339 15.126 4.749 18.512 4.749.21 0 .411.084.56.232a.796.796 0 010 1.122.79.79 0 01-.56.232v.018zm57.021-77.47a.801.801 0 01-.756-.537c-3.606-10.653-1.46-21.5-1.372-21.95a.788.788 0 01.34-.504.789.789 0 01.882.004.792.792 0 01.334.818c0 .106-2.154 10.89 1.319 21.147a.768.768 0 01-.039.608.775.775 0 01-.462.396.805.805 0 01-.246.018zm-5.118-9.498a.798.798 0 01-.739-.494c-2.568-6.344-8.53-29.958-8.574-30.672a.775.775 0 01.174-.6.775.775 0 01.556-.281.798.798 0 01.879.705c.167.969 5.971 24.037 8.469 30.214a.801.801 0 01-.431 1.04.877.877 0 01-.334.088zm-5.171-2.353a.8.8 0 01-.748-.51c-.589-1.596-1.02-2.556-1.398-3.41-1.099-2.486-1.706-3.851-4.353-15.79a.797.797 0 01.602-.948.792.792 0 01.946.604c2.638 11.78 3.192 13.102 4.256 15.49.387.881.818 1.859 1.434 3.524a.806.806 0 01-.467 1.022.977.977 0 01-.272.018zm44.146 18.381a.8.8 0 01-.756-.555c-.633-2.027-3.236-13.887-3.351-14.39a.83.83 0 010-.14c-.237-6.706-.932-20.1-1.89-22.769-.959-2.67-4.784-12.556-6.824-17.808l-1.232-3.172c-1-2.5-2.151-4.936-3.447-7.296a.795.795 0 01.815-1.219.791.791 0 01.504.338 67.16 67.16 0 013.606 7.596l1.231 3.163c2.181 5.63 5.848 15.05 6.842 17.852 1.249 3.524 1.917 21.676 1.978 23.182.22.996 2.709 12.292 3.298 14.169a.792.792 0 01-.05.608.77.77 0 01-.469.388.764.764 0 01-.255.053z" fill="#CF4929"/><path d="M316.105 63.177a.793.793 0 01-.765-.608c0-.097-.59-2.51-2.894-15.86-1.398-8.08-1.16-13.27.695-15.429a.823.823 0 01.721-.45.792.792 0 01.792.794 1.033 1.033 0 01-.317.696c-1.486 1.762-1.609 6.74-.334 14.098 2.286 13.217 2.867 15.729 2.876 15.755a.794.794 0 01-.59.952.664.664 0 01-.184.052zm10.104 24.981c-.218 0-.436-.02-.651-.062-2.708-.476-4.792-3.789-5.364-4.793a.793.793 0 01-.078-.598.789.789 0 011.246-.42.787.787 0 01.204.233c.211.37 2.137 3.648 4.265 4.018a2.3 2.3 0 001.944-.625.797.797 0 011.268.358.801.801 0 01-.048.606.778.778 0 01-.192.243 3.96 3.96 0 01-2.594 1.04z" fill="#CF4929"/><path d="M310.529 50.621a.791.791 0 01-.782-.678c-3.518-23.615.492-27.694.967-28.082a.775.775 0 011.108.106.783.783 0 01-.079 1.092c-.115.115-3.755 4.239-.431 26.655a.782.782 0 01-.66.88l-.123.027zm-3.553-6.432a.79.79 0 01-.782-.696c-.625-4.96-1.091-9.772 0-14.098a.802.802 0 01.967-.573.786.786 0 01.487.365.807.807 0 01.085.604c-1.038 4.071-.59 8.715 0 13.526a.796.796 0 01-.686.88l-.071-.008z" fill="#CF4929"/><path d="M101.766 355.054c-3.79-.229-7.502.969-11.31 1.471-7.914 1.058-8.275-5.894-6.613-11.701 5.602-19.57 15.328-37.343 23.155-56.032 3.052-7.269 5.277-14.803 8.082-22.134a196.766 196.766 0 0010.896-38.708c2.576-15.711 19.514-27.403 33.523-32.426 6.428-2.308-.114-9.049 6.552-10.529 1.925-.432 13.701-1.022 15.627-.494 1.134.309 5.162 5.058 4.968 3.252-.272-2.6 2.243-2.706 4.565-1.516.438.217.844.496 1.204.828 5.391 5.076 11.011 9.922 15.891 15.535 14.317 16.442 15.83 41.871 15.751 62.675a276.695 276.695 0 01-27.201 116.31 3.515 3.515 0 01-3.078 2.15c-7.035 1.198-13.015-1.234-18.582-4.846-11.775-7.649-24.773-12.407-37.867-17.121-7.985-2.872-16.172-4.256-24.474-5.41-3.658-.467-7.246-1.524-11.089-1.304z" fill="#E2448E"/><path d="M194.456 255.97h-2.938c-.501-.784-1.398-1.436-.765-2.59.633-1.155 1.961-.573 2.753-1.498-3.263-3.525-6.437-7.173-9.788-10.636a63.898 63.898 0 01-15.829-27.553c-.449-1.586-.818-2.643-2.894-1.824a3.029 3.029 0 01-3.966-1.868 3.433 3.433 0 011.258-4.282c.607-.467 1.301-.82 1.934-1.26 1.654-1.146 3.606-2.044 4.872-3.525 3.703-4.326 4.521-4.643 9.973-2.643 1.214.449 2.392 1.269 3.808.881a10.255 10.255 0 014.397-.106c4.845.644 9.673 1.296 14.537 1.895a343.151 343.151 0 0037.814 2.837c10.905.141 21.801.432 32.679-.414 13.763-1.066 27.535-2.106 41.183-4.159 3.984-.599 7.035.511 10.078 2.643 5.083 3.525 8.029 8.265 8.064 14.61 0 .546-.079 1.092.449 1.524 1.521 1.26 1.213 2.784.299 4.141a28.862 28.862 0 01-8.478 8.521 88.379 88.379 0 01-13.868 6.811c-7.211 2.943-14.897 4.556-22.487 6.344-10.781 2.538-21.686 4.459-32.635 6.089-10.069 1.489-20.165 2.714-30.304 3.577-8.275.705-16.568 1.163-24.835 1.904-1.794.079-3.649-.326-5.311.581z" fill="#E2448E"/><path d="M336.657 201.842c0 1.965-.097 3.93-.229 5.895-.528 7.806-2.893 15.252-9.383 20.107-1.513 1.137-4.283 2.406-6.218 2.106-1.935-.3-.703-1.921-1.31-3.084a1.817 1.817 0 00-.88-.67 88.903 88.903 0 01-9.62-5.128c-6.235-4.124-17.509-9.023-16.34-16.636 5.277-5.516 7.774-25.42 7.299-36.62-.387-9.155 1.504-15.86.563-24.989-.879-8.908-2.322-17.746-3.641-26.592-.475-3.172-.351-6.424-1.328-9.534a2.177 2.177 0 01.994-2.397c5.373-3.525 11.107-5.956 17.712-5.163 4.599.564 7.976 3.18 11.063 6.59 2.937 3.252 2.875 7.235 3.517 11.023 1.759 10.266 2.718 20.654 4.045 30.981 1.293 10.072 2.173 20.187 2.735 30.329.493 7.798 1.126 15.887 1.021 23.782z" fill="#E2448E"/><path d="M117.428 356.649a1.011 1.011 0 01-.22 0c-7.106-2.115-17.887-3.155-30.366-2.943h-.519a.793.793 0 010-1.586h.493c12.646-.221 23.585.881 30.841 3.004a.81.81 0 01.472.382.787.787 0 01.064.605.804.804 0 01-.765.538zm-16.999-32.444a.784.784 0 01-.563-.238.78.78 0 01-.235-.564.795.795 0 01.235-.564c11.679-11.366 28.95-54.41 29.548-56.392a.794.794 0 01.88-.626.794.794 0 01.533.294.797.797 0 01.162.587c0 .317-17.589 45.238-30.006 57.318a.795.795 0 01-.554.185zm24.834-25.879a.816.816 0 01-.439-.132.784.784 0 01-.333-.507.784.784 0 01.122-.594l9.946-14.847a.783.783 0 01.83-.392.8.8 0 01.527.354.798.798 0 01.098.628.796.796 0 01-.145.291l-9.946 14.847a.796.796 0 01-.66.352zm22.865-77.152a.792.792 0 01-.316-1.516c.536-.414 2.963-3.083 5.54-5.903 9.489-10.424 18.257-19.826 21.308-20.354 4.511-.785 31.659 2.881 32.837 3.04a.796.796 0 01.343 1.391.783.783 0 01-.554.177c-9.673-1.313-28.932-3.639-32.353-3.049-2.771.485-14.247 13.094-20.42 19.861-5.752 6.327-5.822 6.327-6.35 6.353h-.035z" fill="#8C004F"/><path d="M187.262 238.338a.781.781 0 01-.704-.422c-6.323-12.213-11.23-30.611-11.282-30.796a.782.782 0 01.074-.608.788.788 0 011.091-.289.785.785 0 01.365.491c.053.185 4.916 18.416 11.151 30.47a.793.793 0 01-.334 1.066.744.744 0 01-.361.088zm35.493-39.518a106.426 106.426 0 01-15.495-.811.8.8 0 01-.515-.323.809.809 0 01-.026-.884.787.787 0 01.495-.352.79.79 0 01.31-.01c12.901 2.212 62.438-.326 89.752-5.542a.7.7 0 01.194 0c9.04.573 22.759 1.366 24.043 1.331a.817.817 0 01.348.006.817.817 0 01.533.423c.053.105.082.22.086.337a.796.796 0 01-.246.582c-.334.317-.457.432-24.764-1.084-20.701 3.912-53.978 6.327-74.715 6.327zm-29.188 65.644a.763.763 0 01-.562-.229.802.802 0 010-1.11l.105-.141c4.309-6.23 18.468-8.996 29.575-10.221a.788.788 0 01.875.7.795.795 0 01-.699.877c-15.249 1.683-25.354 5.066-28.449 9.543a2.21 2.21 0 01-.273.352.744.744 0 01-.572.229zm122.538-55.846a.775.775 0 01-.651-.353c-3.826-5.692-11.863-10.203-12.426-10.406a.813.813 0 01-.484-1.013.793.793 0 01.994-.494c1.029.353 9.242 5.093 13.191 11.032a.794.794 0 01-.66 1.234h.036z" fill="#8C004F"/><path d="M297.417 192.467a.79.79 0 01-.71-.563.782.782 0 01-.028-.319c0-.105.167-2.643 2.136-9.886 1.918-6.996-2.084-62.376-2.128-62.94a.795.795 0 011.583-.114c.167 2.291 4.063 56.216 2.076 63.442-1.918 6.987-2.093 9.534-2.093 9.551a.79.79 0 01-.836.829zm20.042-71.646a.772.772 0 01-.387-.105c-7.721-4.327-12.074-1.163-12.259-1.022a.803.803 0 01-1.243-.435.79.79 0 01.284-.826c.211-.167 5.277-3.965 13.992.882a.8.8 0 01.308 1.083.819.819 0 01-.695.423z" fill="#8C004F"/><path d="M37.463 197.718a30.069 30.069 0 014.054-8.397c4.89-6.935 12.778-11.517 20.807-13.825 11.503-3.304 23.691-2.917 35.555-4.406 11.863-1.489 24.315-5.436 31.562-14.979 7.035-9.296 7.747-21.808 11.564-32.858 5.479-15.86 18.248-29.13 34.077-34.549 15.83-5.419 34.385-2.59 47.488 7.85 3.325 2.644 3.404 3.605 2.709 7.808-.739 4.502-3.579 2.502-9.295 10.521-3.404 4.775 1.046 14.256-1.337 19.614a18.801 18.801 0 01-7.787 8.376 18.74 18.74 0 01-11.191 2.303c4.116 14.098 5.277 30.681-3.825 42.215-5.505 6.988-13.948 10.997-22.443 13.579-8.495 2.581-17.342 3.947-25.705 6.934a71.072 71.072 0 00-31.659 22.751c-4.678 5.921-8.469 12.662-14.246 17.508-4.75 3.983-9.032-.52-11.97-4.3-2.813-3.63-6.349-7.128-10.605-9.199-4.775-2.326-10.43-1.269-15.011-3.859a12.544 12.544 0 01-4.679-4.979c-1.952-3.621-2.638-7.798-4.186-11.604a15.115 15.115 0 00-4.626-6.406c-2.224-1.665-4.397-1.181-6.833-2.132-3.218-1.252-3.36-4.556-2.418-7.966z" fill="#4F332A"/><path d="M178.178 135.184a.782.782 0 01-.783-.767c-.404-15.622 5.277-24.812 10.105-29.782 5.065-5.199 10.289-7.05 11.027-7.05a.79.79 0 01.792.794.784.784 0 01-.721.784c-.537.141-20.35 6.547-19.62 35.193a.79.79 0 01-.219.566.798.798 0 01-.555.244l-.026.018zm-4.863-12.547a.577.577 0 01-.176 0 .806.806 0 01-.284-.126.805.805 0 01-.323-.516.771.771 0 01.009-.31 29.922 29.922 0 019.163-15.394.802.802 0 01.59-.204.802.802 0 01.554.288.795.795 0 01-.141 1.141 28.812 28.812 0 00-8.619 14.53.8.8 0 01-.773.591zm-87.423 96.695a.787.787 0 01-.71-.456.792.792 0 01.103-.839c9.138-11.129 24.694-19.676 46.231-25.394 10.131-2.697 29.205-15.358 29.399-15.482a.784.784 0 01.613-.161.797.797 0 01.51 1.26.794.794 0 01-.244.214c-.791.529-19.488 12.935-29.9 15.702-21.22 5.639-36.495 14.001-45.421 24.866a.799.799 0 01-.58.29zm10.694-16.935a.791.791 0 01-.756-1.039.79.79 0 01.29-.397c8.706-6.274 13.824-7.569 14.07-7.622a.799.799 0 01.973.891.797.797 0 01-.595.651c-.052 0-5.074 1.304-13.481 7.366a.77.77 0 01-.501.15zm-8.249 0a.679.679 0 01-.264-.044.81.81 0 01-.492-1.022c.457-1.384 7.413-6.406 10.447-7.93a.782.782 0 01.631-.09.792.792 0 01.081 1.499c-3.28 1.683-9.19 6.168-9.673 7.05a.77.77 0 01-.73.537z" fill="#381A13"/><path d="M184.826 139.942c0-3.991 3.043-6.45 6.886-5.243a20.553 20.553 0 018.613 5.007 20.608 20.608 0 015.255 8.475c1.205 3.48-.967 5.727-5.522 6.035-6.921.485-15.25-7.331-15.232-14.274z" fill="#FC8D6A"/><path d="M200.304 146.886a.76.76 0 01-.589-.265c-6.209-6.961-8.707-7.225-9.489-7.049a1.184 1.184 0 00-.783.881.8.8 0 01-.879.626.779.779 0 01-.499-.311.779.779 0 01-.143-.57 2.775 2.775 0 011.899-2.141c2.392-.679 6.024 1.762 11.116 7.472a.794.794 0 01-.062 1.119.766.766 0 01-.571.238z" fill="#CF4929"/><path d="M191.729 144.568h-.07a.794.794 0 01-.677-.881 3.42 3.42 0 011.442-2.3 3.786 3.786 0 013.201-.264c.1.029.193.078.274.144a.807.807 0 01.263.843.81.81 0 01-.382.473.788.788 0 01-.603.064 2.31 2.31 0 00-1.9.071c-.384.29-.645.715-.73 1.189a.78.78 0 01-.282.488.778.778 0 01-.536.173zm47.744-105.076a.828.828 0 01-.493-.176C223.45 26.98 198 7.19 195.397 6.432a.791.791 0 01-.707-1.209.793.793 0 01.443-.342c.659-.202 1.556-.475 23.471 16.451 10.676 8.239 21.256 16.663 21.361 16.742a.792.792 0 01-.03 1.274.79.79 0 01-.462.145zm5.452-5.515a.783.783 0 01-.554-.23l-32.872-32.39a.8.8 0 010-1.128.807.807 0 011.125 0l32.873 32.4a.783.783 0 01.173.862.783.783 0 01-.173.257.777.777 0 01-.572.229zm4.775-10.715a.778.778 0 01-.633-.317l-6.727-8.909a.798.798 0 01-.205-.607.787.787 0 01.311-.56.792.792 0 011.151.216l6.736 8.908a.785.785 0 01.155.405.784.784 0 01-.372.746.79.79 0 01-.416.118z" fill="#CF4929"/><path d="M156.799 82.765a15.976 15.976 0 00-5.364-3.269c-5.18-1.762-12.083 0-16.56 3.005-6.762 4.546-4.106 14.177-.114 19.64 2.964 4.054 9.348 7.499 14.59 7.71 3.464.141 6.076-.299 8.037-3.269.071-.088.123-.185.194-.273a12.382 12.382 0 004.397-6.168c.181-.361.342-.732.484-1.11 2.031-5.507-1.109-12.169-5.664-16.266z" fill="#4F332A"/><path d="M148.295 109.878a.765.765 0 01-.545-.221.79.79 0 010-1.119s2.77-2.934 6.481-6.432c3.518-3.295 3.984-3.868 4.002-3.886a.78.78 0 011.099-.114.776.776 0 01.141 1.092c-.176.238-1.363 1.428-4.16 4.062-3.676 3.472-6.385 6.336-6.411 6.371a.828.828 0 01-.607.247z" fill="#381A13"/></g><defs><clipPath id="a"><path fill="#fff" d="M0 0h657v590H0z"/></clipPath></defs></svg>