<svg viewBox="0 0 311 653" fill="none" xmlns="http://www.w3.org/2000/svg"><g clip-path="url(#a)"><path d="M170.213 150.354c-1.757-8.829-4.147-17.529-6.361-26.259-2.153-8.579-3.811-17.559-6.688-25.931-4.905-14.262-22.066-16.328-33.646-8.58a3.113 3.113 0 00-1.383 3.246c-7.424 8.786-12.919 19.97-14.108 31.338a3.3 3.3 0 00-1.378 2.316c-.43 3.168-.615 6.263-1.985 9.169-1.292 2.725-2.584 5.097-3.2 8.119-1.21 6-.559 12.074.22 18.079a3.337 3.337 0 001.878 2.622c.559 3.624 1.787 7.068 4.254 9.164 1.943 1.649 4.44.517 5.276-1.213 2.248 0 4.048.86 3.122-2.467-.655-2.35-2.76-6.027-3.411-9.1a.662.662 0 011.193-.521c3.743 4.998 9.582 8.433 16.567 9.294 14.306 1.756 28.854-4.305 38.19-15.131.341-.388.585-.851.711-1.352a3.098 3.098 0 00.749-2.793zm31.325 6.207c.002.669.208 1.323.59 1.872a33.683 33.683 0 0016.585-4.481 31.08 31.08 0 0010.507-9.621c2.455-3.676 2.899-8.308 5.349-11.889 2.799-4.094 8.234-5.015 11.627-8.45 5.396-5.45 5.401-13.018 2.223-19.518-3.372-6.887-5.836-13.878-6.055-21.222a41.414 41.414 0 01-.112-.86c-1.65-15.218 3.277-30.856-1.779-45.824-6.399-18.94-29.908-23.964-45.536-32.087-5.672-2.949-19.565-4.886-25.297-4.425-1.994.16-1.205 5.467-2.652 8.713-3.273 5.979-1.693 13.03.43 19.082 5.435 15.575 9.126 31.33 10.629 47.782 1.369 15.01 0 30.309 2.239 45.199 2.11 13.917 10.224 26.986 21.252 35.729z" fill="#995846"/><path d="M206.482 187.735a412.656 412.656 0 01-1.567-85.125 3.52 3.52 0 000-.74c.073-.134.159-.263.232-.4 1.972-3.737-3.699-7.064-5.68-3.32-4.483 8.481-14.044 14.477-21.692 19.884-8.096 5.725-16.696 10.452-26.549 12.221-2.05.37-2.653 2.096-2.252 3.659-.431.671.646 1.674.908 2.677 4.91 19.01 5.185 38.381 3.437 57.902a3.939 3.939 0 00-.095 1.697c.014.439.141.867.367 1.243.226.377.544.69.925.909.262.204.552.371.861.495a55.894 55.894 0 0050.575-5.876c2.033-1.369 1.779-3.835.53-5.226z" fill="#D68867"/><path d="M210.681 186.81a198.604 198.604 0 01-1.499-23.831c0-3.814.616-7.723.134-11.575-.905-7.228-3.674-5.898-9.156-3.013-14.508 7.61-30.761 10.481-46.94 9.973-1.249-.038-2.498-.103-3.743-.142-7.165-.223-4.771 12.531-4.737 16.746a122.22 122.22 0 01-.603 13.822c-.344 3.396-2.299 8.441-1.442 11.773 1.52 5.872 15.835 6.913 20.352 7.167 7.097.401 14.211-.611 21.136-2.178 9.905-2.243 26.141-4.261 27.131-17.408a1.323 1.323 0 00-.633-1.334z" fill="#5C2F2C"/><path d="M215.005 77.613c-.431-10.051 3.415-19.801 2.816-29.848-.478-8.033-3.445-15.459-10.336-20.232-7.936-5.515-18.384-8.709-27.561-11.666a3.014 3.014 0 00-1.916-.026c-27.049-9.97-47.346 18.032-52.927 40.184-6.89 27.348 2.089 52.621 14.857 77.187 4.987 9.595 11.964 18.747 21.64 24.601 10.857 6.569 25.839-2.47 35.891-14.386 8.966-10.637 12.854-21.781 15.757-34.936a3.087 3.087 0 00.543-1.615c.262-5.165 3.923-8.682 3.445-13.826-.478-5.144-1.998-10.241-2.209-15.437z" fill="#FEB793"/><path d="M191.379 63.348c-2.463-1.46-27.453 3.745-24.749 9.384 4.022 8.39 21.046-4.008 25.021-6.828.814-.572.68-1.721 0-2.363a1.826 1.826 0 00-.272-.193zm-45.037 8.54c-.702-3.34-4.173-2.837-6.46-1.576-2.153 1.197-4.035 3.091-6.029 4.576-2.665 2.002-5.43 3.844-8.255 5.596a1.44 1.44 0 00-.668.922c-.65.895-.288 2.526 1.107 2.483a29.625 29.625 0 0013.652-3.818c2.743-1.524 7.484-4.223 6.653-8.183z" fill="#995846"/><path d="M228.053 33.59c-3.57-14.503-17.656-19.832-30.632-23.453a2.46 2.46 0 00-.34-.06c-.108-.116-.207-.232-.319-.348-6.029-6.26-14.831-9.221-23.366-9.617-20.551-.951-37.273 12.966-51.291 26.258-7.471 7.099-14.663 14.722-19.146 24.107-4.38 9.173-7.502 19.676-9.255 29.702-.788 4.511-1.102 9.13-.107 13.641 1.18 5.3 4.711 8.976 7.209 13.569 5.68 10.469-6 21.092-10.13 30.094-4.258 9.311-5.83 20.662-.085 29.745a19.856 19.856 0 0011.765 8.644c3.471.886 12.416 1.467 13.888-2.953.638-1.903.078-4.107-1.985-4.701-17.708-5.075-9.797-29.474-4.078-40.684 6.597-12.944 15.886-24.269 22.781-37.02a88.197 88.197 0 008.014-20.421c2.037-8.11 3.179-16.43 5.526-24.468a73.02 73.02 0 011.813-5.445 11.403 11.403 0 016.847-6.69 47.966 47.966 0 0114.358-2.793c3.832-.147 8.462 0 12.768 1.046a6.664 6.664 0 015.112 6.427 64.363 64.363 0 005.095 25.091c5.081 11.821 15.46 21.253 28.853 19.742.056 0 .099.043.159.06l.582.155a3.185 3.185 0 003.096-.818c2.356-2.45 1.938-5.949 2.153-9.143l.978-14.498c.555-8.295 1.753-16.986-.263-25.17z" fill="#995846"/><path d="M204.906 45.608c-.28-.512-1.064-.056-.784.46a98.252 98.252 0 0110.848 32.42c.09.576.965.33.861-.242a98.913 98.913 0 00-10.925-32.638zm14.495 16.913a.457.457 0 00-.861.241 31.778 31.778 0 01.431 13.642c-.103.568.775.813.861.24.877-4.683.73-9.501-.431-14.123z" fill="#804332"/><path d="M221.288 73.416c-8.325-.86-12.187 7.068-13.725 13.504-1.477 6.164-3.333 17.92 2.433 22.47 7.485 5.902 13.807-9.233 15.237-13.818 1.882-6.044 6.821-21.032-3.945-22.156z" fill="#FEB793"/><path d="M223.458 78.117c-3.35-.534-5.848 3.18-7.239 5.746a38.942 38.942 0 00-1.964 4.284c0 .021 0 .038-.03.06-1.012 2.609-1.809 5.277-2.562 7.89a.43.43 0 00.809.224c.793-2.742 1.675-5.458 2.722-8.114a5.875 5.875 0 016.33-2.901c.53.112.754-.698.224-.81a6.806 6.806 0 00-5.529 1.236c1.356-3.013 3.789-7.318 7.015-6.802.53.1.758-.71.224-.813zm-58.486 36.262c-2.088-.602-4.616-.409-6.55-1.45-2.803-1.507-2.653-5.252-2.937-8.007a215.918 215.918 0 01-1.038-16.943.456.456 0 00-.908 0c.155 6.887.43 13.882 1.459 20.692.298 1.981.862 3.844 2.709 4.899 2.102 1.214 4.737 1.025 7.024 1.688a.458.458 0 00.241-.879z" fill="#D68867"/><path d="M168.383 107.565c-2.359.13-4.691.564-6.938 1.292-.573.185-.327 1.093.25.904a26.537 26.537 0 016.688-1.262c.598-.026.603-.968 0-.934z" fill="#D68867"/><path d="M185.764 86.115c-.048-2.1-.293-4.408-1.141-6.35-1.637-3.727-5.168-2.84-6.029.763-.767 3.331-.186 8.07 2.295 10.645.861.908 2.08 1.188 3.131.43 1.623-1.11 1.783-3.74 1.744-5.488zm-39.684 8.631c-.431-2.053-1.133-4.27-2.339-6.027-2.317-3.353-5.633-1.803-5.758 1.899-.116 3.413 1.366 7.95 4.307 10.008 1.029.723 2.269.762 3.156-.168 1.34-1.39 1.008-4.008.634-5.712z" fill="#5C2F2C"/><path d="M166.695 77.2a5.229 5.229 0 01-2.796-2.903 5.224 5.224 0 01.104-4.028c.22-.542-.659-.775-.861-.24a6.111 6.111 0 003.122 7.959c.517.245.977-.538.431-.788zm13.272 50.537c-1.878-.861-12.82-5.85-13.544-1.864-2.398-.663-4.306-.749-6.33.766-1.245.926-2.748 4.046-1.546 3.422 2.05-1.059 7.781-1.067 9.905-1.472a24.632 24.632 0 0110.809.245.429.429 0 00.521-.279c.379-.048.629-.616.185-.818zm-6.52 6.087a21.073 21.073 0 00-9.771.486.454.454 0 00.245.861 19.997 19.997 0 019.285-.482c.573.116.81-.758.241-.865z" fill="#D68867"/><path d="M184.403 29.836c-6.18-3.354-10.5-10.84-18.088-11.317-7.183-.452-11.476 7.718-14.521 13a.457.457 0 00.784.46c3.264-5.66 7.868-14.33 15.718-12.208 6.335 1.722 10.056 7.813 15.659 10.848.504.28.964-.503.448-.783zM108.079 80.7a310.692 310.692 0 00-5.232 32.689c-.065.581.861.577.909 0a309.076 309.076 0 015.202-32.448c.12-.569-.758-.814-.879-.241zm-7.08 8.583c.069-.581-.861-.577-.913 0a38.648 38.648 0 00.431 11.95c.112.577.99.331.861-.241a37.86 37.86 0 01-.379-11.709zm19.888 16.237c.344-.499-.47-.968-.814-.473-3.717 5.363-7.45 10.723-11.154 16.099-3.406 4.933-6.766 9.966-9.091 15.519-3.824 9.13-4.466 20.232 2.037 28.324.379.47 1.038-.198.663-.667-7.123-8.872-5.103-21.093-.327-30.563 5.064-10.013 12.312-19.052 18.686-28.239z" fill="#804332"/><path d="M113.135 154.606c-2.024-2.879-3.876-5.996-4.306-9.556-.431-3.689.917-7.206 2.217-10.589.211-.547-.671-.784-.861-.241-1.339 3.495-2.696 7.141-2.257 10.955.431 3.672 2.339 6.922 4.428 9.901.327.465 1.115.013.779-.47zm16.61-124.813a80.223 80.223 0 00-20.102 44.05c-.073.58.861.576.908 0a79.217 79.217 0 0119.836-43.409c.392-.43-.25-1.076-.642-.641zm94.897 78.711c-.133-.573-1.012-.332-.861.241 1.434 6.052 3.015 12.556 1.421 18.742-1.292 5.002-4.737 9.544-9.905 10.852a.457.457 0 00.246.861c5.034-1.291 8.54-5.424 10.154-10.223 2.231-6.643.509-13.874-1.055-20.473zm-98.76 46.438a12.714 12.714 0 01-10.271-10.761c-.082-.582-.96-.332-.861.241a13.557 13.557 0 003.627 7.444 13.576 13.576 0 007.281 3.95c.556.108.801-.766.224-.874zM210.87 31.98c-2.765-3.711-7.084-7.392-12.019-6.492-.577.103-.332.981.241.86 5.443-.99 10.103 4.237 12.562 8.46 2.584 4.407 3.742 9.418 4.642 14.39.108.577.982.331.862-.241-1.064-5.962-2.602-12.027-6.288-16.978z" fill="#804332"/><path d="M49.214 670.616a308.677 308.677 0 0050.817 4.007c11.976-.043 23.944-.861 35.907-.891.215-9.384.438-18.767.668-28.148.288-11.67.215-23.456 1.679-35.057a83.942 83.942 0 013.669-16.018 2.823 2.823 0 014.574-1.176c.464.423.773.988.878 1.607.095.538.185 1.08.271 1.618 4.264 26.173 8.023 52.44 11.968 78.664 15.107 2.075 28.238 5.79 43.663 4.55 5.728-.461 11.456-.917 17.17-1.533 1.06-.112 2.115-.232 3.174-.357l1.645-.202.457-.061c.861-.129 1.722-.254 2.584-.391a166.776 166.776 0 009.043-1.679c3.394-.74 6.766-1.601 10.082-2.647.732-.229 1.459-.47 2.183-.715 2.584-32.819-.982-66.111-3.82-98.771-1.546-17.735-3.523-35.427-6.554-52.973-1.555-8.971-3.015-17.881-2.197-27.016.862-9.419 3.476-18.562 6.029-27.623.659-2.333-2.962-3.327-3.621-.999-.991 3.478-1.968 6.97-2.86 10.478a1.592 1.592 0 00-.939-1.266c-11.166-5.596-23.466-6.556-35.743-7.412a273.117 273.117 0 01-43.418-6.354c-4.978-1.162-10.702-3.13-15.228-2.312a790.408 790.408 0 00-71.13-6.814 1.608 1.608 0 00-1.511.728 1.722 1.722 0 00-1.456 1.291c-4.478 14.94-8.959 29.879-13.44 44.816-4.26 14.205-8.863 28.372-11.882 42.9-6.15 29.595-2.067 60.266 1.542 89.968 1.645 13.28 3.596 26.551 5.796 39.788z" fill="#FEC9B9"/><path d="M141.834 521.356c1.059-2.583 1.02-4.529 1.434-6.888.926-5.299 2.342-10.916 3.475-16.172 1.981-9.161 2.343-20.263 2.584-29.608-2.903-.284-6.361 1.36-6.89-6.259a.467.467 0 00-.151-.314l.4-.431c.431-.43-.249-1.11-.663-.663l-18.724 20.267c-5.986 6.478-11.99 12.914-18.949 18.359-13.445 10.521-27.811 19.802-41.032 30.628-5.542 4.541-10.878 9.328-15.934 14.395 3.92-.543 7.855-1.003 11.783-1.485 10.129-1.244 19.926-3.444 29.844-5.786 8.449-1.989 16.89-4.016 25.296-6.173a597.734 597.734 0 0012.855-3.443c3.328-.922 7.872-1.49 10.835-3.315 1.046-.616 3.359-1.963 3.837-3.112z" fill="#5C2F2C"/><path d="M145.231 567.02a1337.683 1337.683 0 014.096-92.034c.047-.603-.892-.599-.939 0a1320.102 1320.102 0 00-4.087 91.259c-13.35-10.904-12.135-30.055-10.93-45.574a2598.092 2598.092 0 014.737-53.756c.061-.599-.861-.599-.938 0-1.874 19.112-3.596 38.251-5.009 57.402-1.111 15.097-.896 32.901 12.136 43.112-.06 6.259-.095 12.518-.065 18.776a.47.47 0 00.939 0c-.026-6.164-.006-12.334.06-18.51a.507.507 0 000-.675zm118.575-372.647a1.381 1.381 0 00-.831-.736c-54.464-18.872-113.196-11.153-166.824 6.651-1.533.512-1.111 2.75.237 2.794 13.207 6.629 23.72 16.969 34.921 26.387 9.75 8.179 21.795 32.285 35.153 32.32 15.112.051 29.284-22.996 43.031-28.437 14.581-5.764 29.133-11.687 43.193-18.648a303.455 303.455 0 0011.692-6.121c2.36-1.292 5.767-2.501 6.809-5.235 1.899-4.963-3.48-7.791-7.381-8.975z" fill="#5C2F2C"/><path d="M171.94 461.56a1.446 1.446 0 01-1.348-1.421c-.069-3.013-.952-5.57-4.578-7.055-4.845-1.989-30.335-2.385-36.984-1.623a5.567 5.567 0 00-4.461 4.533c-.19 1.214-.375 2.423-.552 3.637a1.444 1.444 0 01-1.373 1.236 478.37 478.37 0 00-15.732.809 1.448 1.448 0 00-1.352 1.481c.159 6.211.319 12.423.202 18.626 0 .861.741 1.761 1.529 1.464 7.351-2.781 63.353-.164 64.201-.108a480.763 480.763 0 0163.167 8.248 2.159 2.159 0 002.256-.978c.153-.248.255-.525.298-.813.564-3.784 1.723-11.395 2.304-15.927a3.446 3.446 0 00-2.748-3.814 510.386 510.386 0 00-64.829-8.295z" fill="#5C2F2C"/><path d="M199.962 458.985a169.3 169.3 0 01-6.249 39.345c-1.636 5.829 7.425 8.312 9.044 2.497a180.41 180.41 0 006.58-41.842c.254-6.043-9.138-6.035-9.375 0z" fill="#FEC9B9"/><path d="M175.424 9.673c-.573-.09-.818.787-.241.86a17.425 17.425 0 0114.452 14.486c.087.577.965.331.862-.246a18.292 18.292 0 00-15.073-15.1z" fill="#804332"/><path d="M129.229 560.184c-10.155-2.445-19.379-7.137-28.238-12.531l-1.292.314c9.164 5.639 18.733 10.585 29.284 13.121.59.142.84-.762.246-.904z" fill="#5C2F2C"/><path d="M291.875 199.982c-9.81-3.978-20.783-5.786-31.007-8.386l-33.711-8.557a2.571 2.571 0 00-.301-.056 2.237 2.237 0 01-1.103-.431c-3.6-2.725-7.415-5.165-11.166-7.701-4.617-3.108-6.499 4.051-7.886 7.021-1.752 3.75-3.307 7.589-4.788 11.451-2.644 6.887-6.71 13.344-10.62 19.577-8.393 13.345-14.285 20.788-24.409 32.853-1.344 1.602-4.703.147-5.749-1.661-5.052-8.708-9.793-18.712-12.549-31.028a167.068 167.068 0 01-3.191-18.614c-.276-2.561-1.542-6.917-1.422-10.266.091-2.363-.891-4.83-3.092-3.965-5.671 2.239-14.241 9.341-16.558 10.908a2.56 2.56 0 01-.758.349c-15.072 4.391-31.192 7.275-43.87 16.16a.733.733 0 00-.163.056c-8.312 5.428-16.688 15.669-21.102 24.36-5.474 10.8-10.28 21.975-14.892 33.146a659.343 659.343 0 00-22.824 65.474c-5.943 20.232-13.225 40.231-15.452 61.29-1.292 12.177.94 25.199 12.756 31.394 5.896 3.086 12.489 4.799 19.035 5.828 6.029.947 13.59-.323 19.12 1.291-4.672 35.893-19.443 70.403-24.697 106.326 0 .082-.03.163-.048.241a141.25 141.25 0 00-.883 3.547 7.314 7.314 0 001.845 6.691 7.32 7.32 0 006.605 2.142c13.617-2.583 92.063-24.502 99.768-31.351a2.58 2.58 0 00.861-1.898c.181-18.691 1.051-37.218 2.946-55.681a2.585 2.585 0 011.855-2.22 2.592 2.592 0 012.753.894l.038.052c2.98 3.831 5.879 7.748 8.958 11.506 1.765 2.152 3.54 3.939 6.421 4.356 3.656.534 7.23-1.338 10.628-2.371.724-.22 1.451-.431 2.183-.616.179-.048.363-.078.547-.09 15.379-.935 30.55 1.932 45.261 6.457 5.53 1.721 12.816 5.863 18.789 4.304 5.573-1.468 8.346-8.179 9.905-13.146 2.067-6.505 2.425-13.457 2.584-20.232.211-8.575.323-17.159.482-25.733l.948-51.377.784-43.197c.007-.314.07-.625.185-.917a461.226 461.226 0 018.182-19.418c6.133-13.612 13.781-25.91 23.884-36.947 8.811-9.643 21.631-19.492 22.746-33.379.044-.538.069-1.08.074-1.627.193-14.55-2.911-30.735-17.902-36.809z" fill="#FAEFE8"/><path d="M147.923 267.682a1438.78 1438.78 0 014.56-41.661 97.696 97.696 0 01-3.914-13.099c-1.103-4.933-2.042-9.901-2.726-14.92a1657.216 1657.216 0 00-12.864 129.441c-1.399 23.379-3.178 46.461-7.838 69.452-2.248 11.089-4.543 22.242-5.116 33.576-.559 11.158.556 22.324.496 33.491-.121 20.602-2.382 41.324.37 61.724 3.768-1.321 7.127-2.583 9.905-3.71-2.037-17.137-.487-34.588-.056-51.841.267-10.891-.504-21.73-.538-32.617-.039-11.623 1.873-22.948 4.168-34.317 9.027-44.656 9.207-90.282 13.553-135.519zm-23.617-76.697a2.56 2.56 0 01-.758.349l-2.153.611c-12.67 39.112-17.123 80.407-20.921 121.25-2.235 24.067-4.255 48.173-7.696 72.112-3.6 25.04-7.92 49.955-8.079 75.331-.155 25.028 2.68 49.935 5.909 74.708 3.346-.999 6.68-2.01 9.939-3.013-2.67-20.744-4.99-41.553-5.439-62.474-.542-25.187 2.868-49.801 6.58-74.639 7.029-47.063 8.691-94.745 16.046-141.752 3.743-23.99 9.216-47.718 17.696-70.472-4.677 2.97-9.479 6.874-11.124 7.989zM52.81 545.957c2.18-45.105 13.923-89.107 22.157-133.411 8.936-48.061 9.698-96.769 15.456-145.192 2.881-24.201 7.54-48.238 15.658-71.233-4.164 1.188-8.272 2.483-12.243 4.024C80.566 241.509 78.021 285.46 74.8 328.592c-1.856 24.851-4.181 49.608-8.518 74.166-4.41 24.967-10.125 49.719-14.892 74.634-4.491 23.503-8.105 47.248-9.043 71.165 2.696-.62 6.27-1.507 10.464-2.6zm171.945-364.266c-2.95-2.173-6.029-4.201-9.078-6.241-9.569 37.02-19.259 73.988-28.449 111.09-10.335 41.717-19.426 83.98-22.462 126.941a372.58 372.58 0 00.542 61.457c2.705-.353 5.344-1.592 7.89-2.367a47.523 47.523 0 012.183-.62c-6.89-80.928 16.11-160.943 36.11-238.694 4.424-17.187 8.845-34.376 13.264-51.566z" fill="#D0D2D9"/><path d="M165.041 246.834c.06-.594-.861-.59-.939 0-5.422 54.837-17.609 108.908-20.318 164.034a383.63 383.63 0 00.431 46.727c.043.59.982.598.939 0-4.04-55.384 6.227-110.294 14.146-164.869 2.197-15.269 4.225-30.55 5.741-45.892z" fill="#5C2F2C"/><path d="M164.507 247.721c3.983-.357 12.291-7.236 18.707-11.029 7.834-4.632 15.12-10.111 22.157-15.867 6.542-5.355 14.676-10.266 20.981-15.901 4.996-4.46 20.598-12.759 21.102-16.715 0 0-8.876-2.772-10.84-3.646-6.283-2.79-17.523-7.697-19.628-9.04-1.9-1.231-3.85-2.191-5.879-.646-1.877 1.429-3.148 3.93-4.28 6.1a282.3 282.3 0 00-4.966 9.901c-6.459 13.568-14.758 26.112-23.771 38.113a342.596 342.596 0 01-8.514 10.857 403.647 403.647 0 01-4.027 4.829c-.456.539-.861 1.12-1.292 1.666-3.94-5.48-6.89-12.079-9.44-18.307a116.326 116.326 0 01-6.21-20.349c-1.774-8.549-2.583-17.261-3.552-25.94a3.12 3.12 0 00-.517-1.661c-.685-.861-1.985-.741-3.015-.469-3.014.779-5.74 2.333-8.406 3.921a229.274 229.274 0 00-16.575 10.861 153.819 153.819 0 0033.65 41.949c1.895 1.674 13.919 11.084 14.315 11.373z" fill="#FAEFE8"/><path d="M123.897 354.593c5.473-10.086 10.917-20.193 16.575-30.18 1.43-2.523 2.894-5.037 4.307-7.572 2.297-4.899 4.582-9.812 6.856-14.739a.953.953 0 00.06-.68c.801-.947-.521-2.282-1.292-1.356-16.304 19.142-32.613 38.311-47.604 58.513-6.847 9.229-14.21 18.656-18.677 29.323-1.08 2.583-3.355 6.315-.861 8.709 2.726 2.63 8.535 3.977 12.489 5.028 9.991-15.308 19.4-30.938 28.147-47.046z" fill="#5C2F2C"/><path d="M10.8 417.394a22.537 22.537 0 007.18 5.832c.697.366 1.408.711 2.123 1.038 4.474-28.316 9.474-56.624 18.229-83.941 5.043-15.751 12.407-30.253 18.557-45.535 6.274-15.574 6.291-32.836 9.986-49.073a219.447 219.447 0 0112.36-37.942c-6.74 4.486-13.492 12.084-18.109 19.419a212.139 212.139 0 00-1.942 6.685 222.194 222.194 0 00-5.168 24.149c-1.36 8.713-1.933 17.611-4.35 26.125-2.226 7.908-6.106 15.226-9.504 22.72a278.015 278.015 0 00-9.07 22.608c-5.572 15.846-9.758 32.148-13.19 48.579-2.73 13.043-4.982 26.181-7.101 39.336z" fill="#D0D2D9"/><path d="M92.193 317.982L65.04 288.245c-4.419-4.843-8.777-9.75-13.269-14.528-2.45-2.609-6.408-5.299-9.633-2.243-.43.43.224 1.08.663.667 4.586-4.352 10.835 5.007 13.462 7.882l11.86 12.987 23.406 25.635c.387.447 1.05-.22.663-.663zm-7.817-17.494a52236.748 52236.748 0 01-8.22-30.654.474.474 0 00-.222-.285.475.475 0 00-.642.177.472.472 0 00-.045.358 66668.58 66668.58 0 018.22 30.653.47.47 0 10.91-.249z" fill="#5C2F2C"/><path d="M244.904 236.636a1206.53 1206.53 0 0117.407-44.846l-1.46-.357-8.613-2.183c-12.773 31.149-24.344 62.793-34.451 94.901a386.534 386.534 0 00-13.872 60.817c-2.928 20.201-4.814 40.528-7.321 60.786-2.743 22.285-6.459 44.493-13.173 65.956 3.548.056 7.08.297 10.598.702 11.305-37.292 13.596-76.434 18.518-114.909 2.64-20.663 6.391-41.097 12.291-61.096 5.968-20.146 12.867-40.047 20.076-59.771z" fill="#D0D2D9"/><path d="M89.114 427.656l-.763-.065c1.994-5.992 1.4-11.717-5.693-13.542-7.192-1.851-18.212-.564-24.379 3.745-4.487 3.142-30.007 2.411-24.116 5.127 3.72 1.722 28.25 2.949 32.04 3.495 8.213 1.188 16.494 2.467 22.906 3.117 1.206.125 1.198-1.752.005-1.877z" fill="#5C2F2C"/><path d="M250.671 446.166c-5.358-2.152-11.598-2.583-17.286-3.293-7.481-.926-15-1.451-22.519-1.933-30.64-1.959-60.902-5.704-90.802-12.828a481.442 481.442 0 01-24.137-6.41c-3.661-1.071-7.3-2.294-10.995-3.155 1.292 7.025 2.584 14.051 4.212 21.007.47 1.722.921 3.455 1.352 5.2 1.499 2.531 2.937 5.097 4.375 7.667 1.59 2.836 3.497 2.389 6.783 3.082 8.312 1.722 16.688 4.068 25.107 5.165 3.217.431 5.917-.103 8.987-.861 2.412-.601 4.9-.835 7.382-.693a2.586 2.586 0 014.018.078l.038.052c.082.099.16.206.242.309 1.291.194 2.626.431 3.996.676a804.561 804.561 0 0097.826 11.334c.236-.654.43-1.291.641-1.911 2.067-6.504 2.425-13.456 2.584-20.232 0-.787.03-1.571.048-2.354a14.513 14.513 0 00-1.852-.9z" fill="#5C2F2C"/><path d="M201.379 164.133c.693-5.403-2.192-20.271-7.201-18.149-10.839 1.481-17.225 2.325-28.056 3.806l4.444-2.919c3.338-2.182 6.71-4.847 10.504-6.1 3.794-1.252 7.644-.301 11.498-.099 4.229.224 2.295.108 6.46-.577 4.827-.792 8.875-8.661 4.069-7.873-8.44 1.382-17.467-1.687-25.533 1.52-5.598 2.23-10.654 5.716-15.602 9.186-3.183 2.234-6.275 5.226-9.552 7.839-.913.727-.801 14.989-2.657 28.135-2.153 15.282-5.568 19.857-14.254 32.952-.754 1.132-.19 2.376.391 3.194a4.233 4.233 0 001.865 3.384 95.041 95.041 0 017.993 6.095c1.589 1.352 3.837 1.606 5.392 0 .251-.274.46-.585.62-.921.101-.045.201-.095.297-.151 7.902-4.993 1.882-6.784 10.917-10.964 10.12-4.679 11.627-17.756 16.438-34.622.211-.736 4.448-.456 5.008-.461 2.89-.03 6.46.168 9.276-.564 2.059-.542 4.246-2.582 5.405-4.304 1.615-2.402 1.921-5.618 2.278-8.407zm-88.881 246.201a3.65 3.65 0 00-2.533-3.065L86.09 399.09c-1.95-1.769-8.453-1.614-8.798 1.959a35.624 35.624 0 004.432 20.822c.43.796-1.758.757-1.107 1.037.43.521-2.752-.202 2.777.551 5.78.788 10.504 4.223 14.875 5.721a3.635 3.635 0 001.615.198 3.238 3.238 0 002.231-.689c5.404-3.934 9.233-9.384 10.632-15.97a3.73 3.73 0 00-.249-2.385z" fill="#FEB793"/><path d="M158.241 203.628c-2.192-6.134-2.153-10.951-8.587-8.002-1.537.706-6.27 2.634-6.266 3.848-15.163 22.767-27.639 45.066-43.065 65.952a2084.179 2084.179 0 01-50.131 65.061 3.357 3.357 0 00-1.96 2.462l-.15.198c-3.282 4.089 2.635 9.901 5.956 5.755l.258-.353c8.027.758 24.784 2.648 32.2-.249 20.451-7.981 66.965-104.94 76.478-125.826 3.23-7.051-1.968-1.093-4.733-8.846z" fill="#FEB793"/><path d="M169.072 260.51c-7.726-13.568-32.152-46.701-33.453-48.643a2.73 2.73 0 00-1.944-1.187 2.746 2.746 0 00-2.169.696c-8.802 8.067-23.556 26.367-26.949 31.549-.461.702 1.188 1.451 1.093 2.282-.189 1.653-36.566 45.991-55.919 69.438-18.948 22.944-41.14 46.921-40.911 78.918 0 1.235-2.774 2.449-2.037 3.065 2.127 10.852 10.555 19.306 20.955 23.245 7.067 2.686 13.148 7.589 20.64 7.228 7.162-.345 11.198 2.152 17.847-.698 6.649-2.849 16.524-15.673 20.67-21.454 4.738-6.621 9.268-13.401 13.635-20.271 7.321-11.541 13.824-23.594 20.921-35.298 7.097-11.705 15.404-22.458 22.94-33.831 6.697-10.103 11.895-21.557 10.706-33.671 4.707-7.089 10.504-13.559 13.975-21.368z" fill="#FAEFE8"/><path d="M140.671 218.88a317.032 317.032 0 01-22.239 28.062 84.409 84.409 0 01-1.886 3.276c-5.9 13.723-15.598 24.881-25.606 35.767a1371.61 1371.61 0 00-33.672 38.032 2703.72 2703.72 0 00-32.299 38.707c-5.275 6.406-14.06 16.113-18.884 22.85-1.722 6.147-1.163 19.121-.275 21.093 7.092-12.454 18.948-27.55 28.082-38.579 10.938-13.237 21.898-26.461 33.052-39.517 10.732-12.561 21.77-24.82 32.919-37.02 9.995-10.929 19.719-22.384 25.619-36.112.182-.423.313-.867.387-1.321a336.353 336.353 0 0021.167-26.384 3356.243 3356.243 0 00-6.365-8.854zm-25.146 97.005c10.995-14.205 19.668-29.909 28.234-45.629a6.06 6.06 0 00.684-.586 110.583 110.583 0 0016.727-21.605 663.926 663.926 0 00-6.507-9.5 101.05 101.05 0 01-17.528 23.805l-.06.064a4.912 4.912 0 00-1.908 2.002c-8.781 16.121-17.566 32.461-29.077 46.856-11.14 13.943-24.116 26.448-36.605 39.173-19.116 19.478-39.62 37.752-57.276 58.522a43.302 43.302 0 008.682 7.447c18.225-21.416 38.655-41.058 58.335-61.127 12.459-12.741 25.357-25.303 36.299-39.422zm50.666-60.14a175.113 175.113 0 01-19.155 24.024 4.862 4.862 0 00-1.417 4.025C119.35 336.04 66.488 379.568 36.136 429.076c2.83.19 9.767.34 12.239.556 30.524-47.352 81.138-90.338 106.499-141.271.108-.216.203-.439.284-.667a36.586 36.586 0 00-.082-5.781c4.737-7.125 10.525-13.594 13.996-21.403a131.146 131.146 0 00-2.881-4.765z" fill="#D0D2D9"/><path d="M153.53 149.901a.446.446 0 01-.327-.133.469.469 0 010-.663c9.607-9.845 24.056-15.742 24.202-15.798 5.28-2.152 25.778-1.636 26.648-1.61a.461.461 0 01.426.298.458.458 0 01-.118.507.477.477 0 01-.334.133c-.211 0-21.166-.516-26.269 1.542-.142.055-14.405 5.88-23.879 15.582a.458.458 0 01-.349.142z" fill="#D68867"/><path d="M166.122 150.259a.463.463 0 01-.258-.078.463.463 0 01-.173-.206.457.457 0 01.129-.547c.431-.344 10.25-8.45 17.48-9.63.461-.073 2.446 0 5.672.099 2.041.069 4.151.143 4.875.117a69.37 69.37 0 005.133-.383.453.453 0 01.353.103.463.463 0 01.168.327.471.471 0 01-.43.525c-.026 0-2.52.293-5.216.388-.749.03-2.782-.043-4.939-.117-2.265-.077-5.09-.176-5.487-.112-5.451.892-12.725 6.096-15.688 8.369l24.512-3.323a.471.471 0 01.298.871.46.46 0 01-.173.058l-26.217 3.556-.039-.017zm5.077 6.952a.467.467 0 01-.446-.27.463.463 0 01.078-.516.462.462 0 01.325-.153l26.653-2.582a.468.468 0 01.494.604.473.473 0 01-.403.33l-26.653 2.582-.048.005zm5.702 7.744a.471.471 0 01-.465-.439.468.468 0 01.405-.495c3.522-.469 21.101-2.82 21.601-2.82a.471.471 0 01.332.801.471.471 0 01-.332.138c-.625.034-15.714 2.04-21.485 2.811l-.056.004zm3.17 12.29a.67.67 0 01-.173-.026c-.237-.06-.349-.086-.288-.56h-.052l.142-.572a.456.456 0 01.039-.103c.112-.504.293-1.223.551-2.256.861-3.444 13.234-4.034 15.706-4.111a.47.47 0 01.358.79.47.47 0 01-.328.148c-5.448.177-14.289 1.257-14.827 3.401-.289 1.162-.474 1.894-.582 2.333l-.06.246c-.064.241-.086.34-.09.353-.104.236-.203.357-.396.357z" fill="#D68867"/><path d="M302.478 207.812c-.031-.534-7.619-1.674-8.256-1.894-6.184-2.122-8.182-6.302-14.784-4.985-6.059 1.214-10.194 5.51-13.169 10.702-4.096 7.154-7.321 14.928-10.848 22.384-3.398 7.167-6.71 14.412-9.1 21.988-5.254 16.629-5.904 34.55-8.807 51.656-3.014 17.908-6.916 35.66-10.736 53.413l-12.002 55.732a310.035 310.035 0 004.681 3.207c6.378 4.305 12.786 8.536 19.461 12.355.673.01 1.328.223 1.878.611l3.062 2.079c8.432 4.348 17.583 7.318 26.39 10.942 9.599-30.95 17.656-63.481 25.343-94.75 8.252-33.49 14.608-68.052 15.254-102.632.28-15.079 1.15-28.548-8.367-40.808z" fill="#FAEFE8"/><path d="M203.369 407.282c3.273.499 6.584.981 9.771.986 2.627 0 3.445-.646 4.418-3.014 2.093-4.985 3.2-10.671 4.738-15.858a3808.262 3808.262 0 004.681-15.876 4296.72 4296.72 0 008.918-30.924c.134-.47.272-.939.405-1.408-11.313 21.863-21.868 44.114-32.931 66.094z" fill="#5C2F2C"/><path d="M302.478 207.812c-.031-.534-7.619-1.674-8.256-1.894-6.184-2.122-8.182-6.302-14.784-4.985-6.059 1.214-10.194 5.51-13.169 10.702-4.096 7.154-7.321 14.928-10.848 22.384-3.398 7.167-6.71 14.412-9.1 21.988-5.254 16.629-5.568 33.852-7.695 51.084-2.154 17.533-5.168 36.077-8.988 53.834-3.996 18.575-10.861 37.317-14.862 55.896a317.603 317.603 0 004.681 3.207c6.378 4.305 12.786 8.536 19.461 12.354a3.354 3.354 0 011.878.612l3.062 2.079c8.432 4.347 17.583 7.318 26.39 10.942 9.599-30.95 17.656-63.481 25.343-94.75 8.252-33.49 14.608-68.052 15.254-102.632.28-15.092 1.15-28.561-8.367-40.821z" fill="#FAEFE8"/><path d="M87.141 399.43c-2.2-1.214-5.168-1.209-7.751-1.674-5.676-1.016-11.141-5.394-16.46-7.624-.43-.181-23.255-3.444-23.922-3.444-.814-.03-1.792.031-2.2.736a1.994 1.994 0 00-.048 1.52 7.94 7.94 0 002.037 3.543c4.169 4.188 13.57 1.674 18.47 4.132a1.539 1.539 0 01.46 2.354 1.532 1.532 0 01-.761.487c-2.692.706-5.668 1.008-8.286 1.447-2.618.439-5.24.813-7.855.495-3.247-.396-6.261-1.834-9.168-3.323a190.036 190.036 0 01-12.765-7.189c-2.02-1.244-8.07-3.014-8.923 1.136-.305 1.49 1.374 2.303 2.558 2.966l14.974 8.398a201.743 201.743 0 00-18.371-5.561c-1.18-.297-2.455-.577-3.575-.112-.745.31-1.33.913-2.075 1.218-.677.271-1.447.284-2.093.62-1.417.74-1.645 2.738-1.12 4.244.977 2.803 3.695 4.568 6.274 6.027a145.505 145.505 0 0023.647 10.762c.095.895-1.292.994-2.153.71l-17.773-5.872c-1.352-.43-2.765-.899-4.194-.486a2.67 2.67 0 00-1.805 1.606c-.689 1.95 1.417 3.585 3.213 4.528 6.412 3.362 12.92 6.677 19.926 8.545 9.836 2.634 20.288 2.298 30.279.327 9.99-1.972 16.26-2.69 25.714-6.457.641-.254 4.66-3.388 5.004-3.986.43-.779.146-1.748 0-2.635-.478-2.729.568-5.458 1.253-8.144.685-2.686.913-5.824-.861-7.946a5.702 5.702 0 00-1.65-1.348z" fill="#FEB793"/><path d="M34.486 415.405a155.284 155.284 0 01-23.32-10.736.469.469 0 00-.473.809 156.225 156.225 0 0023.543 10.831c.586.207.832-.706.25-.904z" fill="#D68867"/><path d="M272.823 194.24a4100.576 4100.576 0 01-14.452 85.817c-6.059 33.672-12.028 67.48-19.939 100.777-4.384 18.458-9.608 36.715-16.317 54.476-2.352 6.224 7.635 8.915 9.965 2.746 9.905-26.258 16.468-53.49 22.105-80.928 0 0 9.474-49.805 9.754-50.425a4073.201 4073.201 0 0012.17-68.582 3874.665 3874.665 0 006.727-41.363 228.918 228.918 0 00-10.013-2.518zm-8.884 196.219c-4.16 16.037-8.359 32.061-12.596 48.075 3.187 1.36 6.429 2.617 9.676 3.874 8.273-31.218 16.477-62.461 24.293-93.794 8.462-33.938 16.145-68.122 20.835-102.809 1.141-8.441 2.015-16.9 2.769-25.367a37.333 37.333 0 00-6.46-12.613c0-.215-1.244-.525-2.752-.835-.771 10.387-1.636 20.766-2.911 31.114-2.153 17.339-5.133 34.571-8.613 51.686-6.83 33.831-15.581 67.269-24.241 100.669z" fill="#D0D2D9"/><path d="M31.58 403.954a.474.474 0 00-.456.366.47.47 0 00.253.525 79.933 79.933 0 009.69 3.724.45.45 0 00.181.02.466.466 0 00.377-.684.47.47 0 00-.275-.231 79.538 79.538 0 01-9.564-3.672.463.463 0 00-.207-.048z" fill="#D68867"/><path d="M270.584 419.766c-.056-2.398-.267-4.895-1.486-6.957a5.214 5.214 0 00-.715-.951c-3.316-3.564-11.124-2.742-15.4-3.087-7.459-.594.771-6.082-6.697-6.551-14.934-.93-22.94.891-42.78 2.768-20.434 1.932-77.947-2.153-93.558-4.103-.818-1.722.965-.861-.818-1.722-5.168-2.449-14.97-3.926-20.482-4.037a1.772 1.772 0 00-1.059.301 1.964 1.964 0 00-1.197 2.152 1679.726 1679.726 0 008.083 44.183c.77 3.909.482 8.829 5.043 9.785 6.783 1.425 14.086 1.653 20.981 2.281.93.086 1.99-.934 1.878-1.877a1.529 1.529 0 011.303-1.738c.267-.039.539-.006.79.094a45.466 45.466 0 007.708 2.394c22.213 4.911 67.457 8.609 90.337 8.609 11.584 0 29.185-.896 39.482-6.41 13.151-7.012 8.914-20.288 8.587-35.134z" fill="#FAEFE8"/><path d="M174.692 268.383c-6.649 0-6.658 10.332 0 10.332s6.645-10.332 0-10.332zm-9.393 53.055c-6.649 0-6.658 10.331 0 10.331s6.662-10.331 0-10.331zm-3.863 62.547a5.162 5.162 0 00-3.66-1.519 5.166 5.166 0 00-3.661 1.519 5.366 5.366 0 00-1.515 3.655v.469a5.317 5.317 0 001.515 3.65 5.18 5.18 0 003.661 1.52 5.166 5.166 0 003.66-1.52 5.35 5.35 0 001.516-3.65v-.486a5.325 5.325 0 00-1.516-3.638z" fill="#5C2F2C"/><path d="M269.025 412.047c-.319-2.204-.491-1.128-.715-1.369-2.054-2.204-5.319-2.621-8.915-2.785-3.333 8.05-11.993 11.42-16.459 11.623-7.2.335-14.414.508-21.623.762l-46.686 1.64c-28.078.986-55.872 2.109-83.877.301.643 3.487 1.296 6.969 1.96 10.448 31.617 1.902 63.124.236 94.802-.861l52.074-1.826c6.933-.249 14.379-.383 20.408-4.278 4.888-3.164 7.36-7.697 9.031-13.655z" fill="#D0D2D9"/><path d="M244.823 397.708c.099-.305-2.003-3.078-2.524-3.108-3.966-.249-4.793 1.722-7.911 2.235.039 1.183-1.722 3.163-2.364 3.783-2.33 2.256-5.599 2.407-8.648 2.794a979.71 979.71 0 01-20.106 2.325c-13.398 1.429-26.851 2.526-40.33 2.66a223.565 223.565 0 01-40.399-3.186c-11.809-2.031-23.402-4.007-35.313-2.819.574 3.36 1.162 6.719 1.765 10.077 13.544-1.429 27.075 2.385 40.408 4.223 14.159 1.95 28.422 2.367 42.711 1.804 14.095-.56 28.139-2.024 42.143-3.664 6.395-.753 13.871-.671 19.81-3.301 5.443-2.385 9.057-8.481 10.758-13.823zm26.342 31.821c-7.7 6.577-18.349 10.012-28.147 11.162-17.617 2.066-35.903.068-53.576-.582-18.475-.675-37.036-1.945-55.528-1.919-8.906 0-17.657 2.152-26.549 1.954-4.522-.095-8.984-.732-13.45-1.253.19.964.37 1.929.56 2.889.513 2.608.565 5.66 1.89 7.692 1.93.233 3.877.465 5.806.654 6.74.659 13.195-.137 19.84-.861v-.064l.103.052 1.762-.194c15.77-1.722 32.199.176 48.012.753 15.637.573 31.27 1.197 46.906 1.722 14.009.465 28.716.564 42.036-4.421a58.906 58.906 0 0010.305-5.032c.582-3.818.358-8.045.03-12.552z" fill="#D0D2D9"/><path d="M261.17 416.597c-9.298-7.679-20.107-14.429-32.626-13.878-.603.03-.607.969 0 .943 12.265-.543 22.855 6.078 31.963 13.598.461.383 1.128-.275.663-.663zm3.17-9.246a123.856 123.856 0 00-13.488-4.856c-4.578-1.343-9.233-2.544-14.039-2.376-.603 0-.608.96 0 .938 4.737-.163 9.293 1.025 13.78 2.342a121.495 121.495 0 0113.264 4.761c.56.233 1.025-.577.483-.809z" fill="#5C2F2C"/><path d="M182.078 405.935c-37.109 0-71.733-4.525-72.19-4.585a.468.468 0 01-.404-.525.455.455 0 01.211-.336 6.331 6.331 0 00-.888-.977c-1.817-1.722-17.105-4.102-20.128-3.909a1.756 1.756 0 00-1.417.672c-.637.912-.202 2.462-.198 2.479a.47.47 0 01-.904.263c0-.082-.564-1.997.331-3.276a2.66 2.66 0 012.123-1.072c2.8-.189 18.652 2.092 20.839 4.163.793.749 1.193 1.265 1.292 1.679 6.96.861 62.621 7.524 106.504 2.815a.47.47 0 01.35.105.469.469 0 01.166.325.461.461 0 01-.252.465.463.463 0 01-.178.052 335.844 335.844 0 01-35.257 1.662z" fill="#2F415B"/><path d="M252.281 438.93c4.737 1.98 9.565 3.758 14.349 5.63 1.68-.861 3.312-1.747 4.88-2.737a1038.965 1038.965 0 005.555-18.898c-5.542 8.343-15.004 13.405-24.784 16.005z" fill="#D0D2D9"/><path d="M291.926 240.566c-24.116 21.558-38.611 51.084-52.327 79.818-.263.542.547 1.02.809.473 13.686-28.66 28.109-58.113 52.182-79.636.452-.388-.216-1.059-.664-.655zM56.957 307.125a372.669 372.669 0 00-40.011 47.946c-.349.495.465.964.81.473a371.106 371.106 0 0139.864-47.773c.427-.431-.236-1.076-.663-.646zm220.539-14.834a202.54 202.54 0 00-32.63 31.855c-.379.465.279 1.132.663.667a202.112 202.112 0 0132.63-31.833c.478-.392-.19-1.055-.663-.689zm-129.793-18.484a177.518 177.518 0 01-36.993-31.252c-.404-.43-1.068.215-.667.663a178.64 178.64 0 0037.195 31.424c.508.301.973-.512.465-.835zM125.142 443.82c-4.407-12.509-8.816-25.02-13.226-37.532-.198-.569-1.106-.323-.904.249 4.41 12.51 8.818 25.02 13.225 37.533.198.568 1.116.322.905-.25zm96.434 100.574a111.716 111.716 0 00-67.37 23.022c-.474.361 0 1.179.474.809a110.884 110.884 0 0166.888-22.892.458.458 0 00.333-.135.46.46 0 00.14-.33.46.46 0 00-.134-.333.471.471 0 00-.331-.141zm-21.609 24.507a268.119 268.119 0 00-31.933-.431c-.599.03-.603.969 0 .939a267.908 267.908 0 0131.933.43c.602.048.598-.895 0-.938zm-66.57-3.328a127.208 127.208 0 01-20.184-5.196c-.573-.198-.819.711-.25.904a127.208 127.208 0 0020.184 5.196c.59.103.844-.801.25-.904zm112.769-375.685c-2.312 2.737-5.443 4.666-8.329 6.745l-9.073 6.539-18.518 13.344-37.036 26.689c-.486.349 0 1.167.474.81l37.798-27.227 18.905-13.625 9.07-6.539c2.583-1.864 5.309-3.62 7.389-6.069.379-.461-.288-1.128-.68-.667zm-119.134 20.158a89.84 89.84 0 01-8.906-13.727c-.284-.534-1.094-.061-.814.473a91.065 91.065 0 009.044 13.917c.383.474 1.046-.194.676-.663z" fill="#5C2F2C"/><path d="M214.966 106.033c-4.837 0-4.841 7.516 0 7.516 4.84 0 4.844-7.516 0-7.516z" fill="#FAEFE8"/></g><defs><clipPath id="a"><path fill="#fff" d="M0 0h311v680H0z"/></clipPath></defs></svg>