<svg xmlns="http://www.w3.org/2000/svg" viewBox="0 0 1086.05 420.71"><defs><style>.cls-1{fill:#e5a698}.cls-2{fill:#162040}.cls-3{fill:#c97f7d}.cls-4{fill:#0d497a}.cls-5{fill:#ed8e5f}.cls-6{fill:#ffb778}.cls-7{fill:#dcdee0}.cls-8{fill:#85bcda}.cls-9{fill:#fff}.cls-10{fill:#f4404d}.cls-11{fill:#0e172d}.cls-12{fill:#0e5c98}.cls-13{fill:#492716}.cls-14{fill:#ad8049}.cls-15{fill:#493222}.cls-16{fill:#6b3232}.cls-17{fill:#803c3a}.cls-18{fill:#cc3f2f}.cls-19{fill:#352019}.cls-20{fill:#d93946}.cls-21{fill:#cbcfd1}.cls-22{fill:#c65c54}</style></defs><g id="Слой_2" data-name="Слой 2"><g id="_1" data-name="1"><path class="cls-1" d="M1085.91 20.36a1 1 0 00-1.2-.24c-2.35 1.36-14.53 12.73-16.54 14.35 4.87-6.16 13-14.81 16.08-22.23.32-.78-.72-1.89-1.52-1.54-3.64 1.62-8.81 9.38-11.46 12.31s-4.94 4.94-7.77 7.63c2.8-4.24 5.26-7.7 8.2-11.85 2.32-3.26 8.09-11.34 8.74-14.1.16-.72-.94-1.5-1.66-1.19-2.14 1-7.28 7.35-9.81 10.62a142.42 142.42 0 01-11 11.33 138.77 138.77 0 0110.29-14.85 58.49 58.49 0 005.3-7.33c.75-1.18 1.14-2.44.61-2.85-1.57-1.23-3.18.52-4.72 1.67-3.42 2.57-14 14.23-16.15 18.3a26.32 26.32 0 001.8-7.35c.23-2 .45-5-.58-6.34-2.93-3.94-4.08.49-5 3.36a88.2 88.2 0 01-3.77 10.5c-1.67 3.67-4 6.78-5.13 10.7a31.29 31.29 0 00-1.08 10.24 39.23 39.23 0 00.46 4c-.84 7.54-5.18 13.47-9.8 19.3s-9.26 11.61-13.89 17.42c-1.56 2 .51 4.15 2.46 3.88a2.16 2.16 0 002.06 1.72 4.74 4.74 0 01.93.13 2.64 2.64 0 002.24.87c1.89.94 3.68 2 5.83.91 3.88-2.06 21-29.08 22.9-31.94 1.87-1.43 6.33-3.52 7.79-5.22q7.47-8.64 14.92-17.3c1.56-1.84 11.97-12.99 10.47-14.91zm-57.68 64.83c-.06 0-.28-.16-.55-.39l.18-.24a2.76 2.76 0 00.88-.21 6.83 6.83 0 00-.51.84zm-141.99 50.62a21.48 21.48 0 01.67-6.27c-1.83-.61-3.65-1.08-5.15-1.5-5.4-1.52-10.86-1.76-16.13.36s-9.83 5.29-15.06 7.34c-6.76 2.65-13.55 5.24-20.33 7.86-1.19.46-.23 2.22 1 1.76 2.51-1 5.07-1.9 7.64-2.84a7.28 7.28 0 00-2 2.33 1.06 1.06 0 00.06 1.08l-.11.1a1 1 0 00.38 1.66c-.17.13-.34.24-.5.37a1 1 0 00.29 1.63v.17a1.06 1.06 0 00.8 1.27c-.5.43-1 .87-1.46 1.33-.79.75.18 2.25 1.16 1.61l.56-.38a.91.91 0 00.73.28.86.86 0 00-.29.72l-.45.38a1 1 0 001.16 1.61c.54-.29 1.07-.6 1.61-.9a1 1 0 001.22.31 110.15 110.15 0 0013.96-7.48c5.58-3.53 10-7.56 17-7.28 4.7.18 9.68 1.28 14.28.8a27.45 27.45 0 01-1.04-6.32z"/><path class="cls-2" d="M698.49 420.62c2-3.48 3.64-8.18 5.23-11.64 3-6.66 6.75-19.33 9.36-26.17 2.06 8.07 3.22 22.07 5.31 30.14.63 2.44 1.36 5.22 2.07 7.63h46c.46-17.35-.49-35.2-.88-52.49-.48-21.37 0-43.19-5.48-64a1.93 1.93 0 00-.36-3.09c-6.78-3.92-14.61-4.63-22.26-5.32A211.2 211.2 0 00710 295a215.18 215.18 0 00-26 2.64c-4.35.7-8.74 1.46-13 2.53-1.74.44-3.42.75-3.83 2.41a1.9 1.9 0 00-1.09 1.25c-11.25 37.73-11.79 77.7-11.84 116.77z"/><path class="cls-1" d="M55.81 194.2a1.06 1.06 0 00-1.59-.82c-4.16 2.52-9 .71-13.54.6a31.8 31.8 0 00-10.21 1.33c-3.89 1.22-6.94 3.63-10.57 5.39a87.69 87.69 0 01-10.41 4c-2.85 1-7.25 2.26-3.24 5.09 1.41 1 4.37.7 6.35.42a26.16 26.16 0 007.32-2c-4 2.29-15.43 13.1-17.91 16.59-1.12 1.57-2.83 3.22-1.56 4.76.42.51 1.67.09 2.83-.68a59.19 59.19 0 007.2-5.48 139.22 139.22 0 0114.6-10.64A142.35 142.35 0 0114 224.11c-3.21 2.6-9.49 7.9-10.38 10.06-.3.73.51 1.81 1.22 1.63 2.75-.72 10.69-6.68 13.9-9.07 4.07-3 7.47-5.58 11.64-8.49-2.62 2.9-4.53 5.21-7.44 8s-10.5 8.07-12 11.75c-.33.8.8 1.82 1.57 1.48 7.36-3.23 15.8-11.6 21.84-16.62-1.56 2.06-12.64 14.5-13.94 16.89a1 1 0 00.27 1.19c1.95 1.45 12.85-9.27 14.6-10.86q8.48-7.67 16.94-15.33c5.99-5.48 12.32-14.35 3.59-20.54z"/><path class="cls-3" d="M55.39 201.54c-.61-2-1.36-5.24-2.79-7.42a15.26 15.26 0 01-6.77.33c-1.1 4.9-5.52 8.26-6.18 13.36-.43 3.31.23 6.48-.45 9.82a28.2 28.2 0 00-1.06 6.05 9.53 9.53 0 00.62 3.21l13.51-12.23a34.78 34.78 0 004.87-5.37 41.56 41.56 0 00-1.75-7.75z"/><path class="cls-4" d="M826.77 344.33c-2.34-3.4-7.22-4.11-11-4-5.27.14-8.79 2.8-12.71 6-4.89 4-9.75 8-14.63 12-2.51 2.06-1.57 4.8.44 6.36-2.44 1.09-4.39 1.82-4.64 1.43-3.06-4.91-10.85-.39-7.77 4.54 6 9.53 16 1.75 23.22-1.5 8.84-4 21.67-4.78 26.8-14.25 1.63-3.14 2.42-7.5.29-10.58z"/><path class="cls-5" d="M630.91 420.71c.21-14.55-.24-31-3.32-45.35-4-18.52-8.75-36.42-10.3-55.39a2.15 2.15 0 00-3.36-1.53 1.54 1.54 0 00-1.69-.83 302.68 302.68 0 01-59.65 1.86 2 2 0 00-.94.17L546 319a2 2 0 00-2 1.5c-5.9 18-12.52 36.07-15.77 54.82-2.51 14.45-2.17 31 .2 45.32z"/><path class="cls-6" d="M948.62 420.61c-.27-1.72-.59-3.42-.72-4.74q-1.32-13.22-2.75-26.42-1.65-15.17-3.47-30.3c-1.08-8.93-1.57-18.3-4.08-27a3.32 3.32 0 00-1.08-1.7 3.41 3.41 0 00-.49-1.24l.12.1c.68-1.71-.76-3.92-2.45-4.3-9.09-2.09-18.2-.71-27.32.57-10.57 1.49-21.09 3.36-31.59 5.31-10 1.86-20 3.84-29.93 6.28-4.92 1.21-9.94 2.38-14.74 4-1.87.64-3.33 1.38-4.19 2.7a3.33 3.33 0 00-1.33 1.9 419.9 419.9 0 00-14.13 74.78z"/><path class="cls-5" d="M941.76 359.15c-.65-5.39-1.09-10.93-1.89-16.39-9.87-3.22-20.34-3.76-30.87-4.21a296.52 296.52 0 00-42.15 1c-14.47 1.51-29.64 4-43.14 9.66a416.75 416.75 0 00-9.69 44.4c6.69.11 13.46-.95 20.3-1.94 14.94-2.16 30.07-3.55 45.18-3 14.28.55 27.83 3.88 41.78 6.59 8 1.55 16.49 2.81 24.79 2.4q-.43-4.12-.88-8.24-1.61-15.13-3.43-30.27z"/><path class="cls-7" d="M182.7 130c-13.79 2.31-27.87 4-41.45 7.39-12.75 3.17-23 10-34.56 15.87-5.75 2.9-11.56 4.18-17.81 5.43-5.39 1.08-10.69 2.82-14.77 6.67a28.72 28.72 0 00-7.43 12.89c-.82 2.73-1.4 4.12-2.11 6.85-.57 2.21-1.59 2.45-3.72 3.48-1.68.82-3.54 1.34-5.23 2.12-4.52 2.09-4.64 2.85-3.75 5.84 1.37 4.58 3.79 14.42 8.36 17 2.44 1.36 5 .62 7.4-.28 2.76-1 5.51-2.09 8.26-3.14 1.44-.34 1.86-1.49 4.28.09 3.92 2.56 5 4.53 9.43 6.21 9.13 3.43 17.79-3.19 25.36-6.79a48.33 48.33 0 0115.13-4.31c5-.57 10 .21 15.07-.12 19.8-1.28 27.27-23.54 27.75-39.57.27-8.68.19-18-9.59-21a25.52 25.52 0 00-8-1c9.87-1.87 19.89-3.2 29.74-4.85 5.73-1.07 3.32-9.78-2.36-8.78z"/><path class="cls-8" d="M230.1 420.62h119.55c.05-3 .06-6.22 0-9.21-.06-6.77-.33-13.54-.85-20.29a255.88 255.88 0 00-5.77-38.3c-1.46-6.29-3.2-12.53-5.24-18.68-1.5-4.54-2.57-11-7.7-13.11-5.67-2.36-12.52 1-17.91 2.67q-11.46 3.46-23 6.62c-7.68 2.1-15.42 4.3-23.32 5.54-8.76 1.38-17.69 1.34-26.54 1.32a3.44 3.44 0 00-3.11 1.58c-2.22-.64-12.65.28-12.47 3.05 1.74 26.19 4.33 52.67 6.36 78.81z"/><path class="cls-2" d="M338.5 383.39a269.42 269.42 0 01-.89 37.26h2a269.42 269.42 0 00.89-37.26c-.06-1.28-2.06-1.29-2 0zm-64.42-30.99c-1.39 9-2.47 18-3.15 27-.38 5.11-.64 10.24-.77 15.36-.05 1.92-.09 3.85-.11 5.77v3.85a2 2 0 01-2.75 1l-3.77.08c-2.66.16-4-.88-4-3.09-.86-2-.85-4.91-1-7-.44-5-.32-10.14-.37-15.2q-.17-14.88-.32-29.76a1 1 0 00-2 0c.15 13.75 0 27.53.49 41.26.14 3.81-.07 11 2.25 14.32s9.41 1.4 12.56 1.33a1 1 0 001-1 334.61 334.61 0 014-53.37c.07-1.28-1.86-1.82-2.06-.55z"/><path class="cls-9" d="M346.15 338.75c-28.87 1.23-57.47 5.37-86 9.55-12.42 1.83-26.93 2.64-38.33 8.31-4.26 2.11-8.09 5.47-9.93 9.94-2.47 6-.24 12.2-.84 18.37-3.69-.2-3.62 5.63.14 6 14.11 1.35 28.39 2.21 42.42-.36 14.39-2.63 27.29-10 41.65-12.89 13.45-2.72 28.51-3 41.13-8.8 10.76-4.94 12.53-16.45 12.78-27.12a3 3 0 00-3.02-3z"/><path class="cls-2" d="M317 76.09c-.19-4.89 1.28-9.68.53-14.57-.89-5.86-4.09-10.37-3.81-16.54.12-2.57-3.88-2.57-4 0v.14c-5.27-7.17-13-10.38-22-11.08-12.11-.94-24.44-.71-36.22 2.45a1.78 1.78 0 00-1.34 1.28 12.47 12.47 0 00-3.42 7.23c-.24 2.09.29 4.21 0 6.29-.41 2.66-2.29 3.89-3.82 5.9-2.25 3-2.66 6.6-2.65 10.21 0 5.63-.43 9.24-3.37 14.14-3.08 5.15-4.52 12.4 2.22 15.35 8.53 3.71 18.11-3.53 26.28 2.34a1.78 1.78 0 002.81-1.2 123.46 123.46 0 0013.23 2.53c6.75.89 13.37.76 19.74 3.47 3.24 1.37 7.9 5.31 11.69 4.19 2.48-.74 3.55-3.15 3.68-5.59.15-3-.3-4.82 1.08-7.79a19.78 19.78 0 001.94-4.91c.83-4.8-2.35-9.11-2.57-13.84z"/><path class="cls-7" d="M396.69 141.14c-24.2-7.29-93.21-26.92-106.28-29.39-12-2.28-29.25-2.12-33.25-1.11-17.37 4.38-70.92 14.89-90.64 22-8.45 3.08 17.37 4.09 12.1 11.52-5.57 7.86-6.29 17.75-5.06 27 2.94 22 14.45 42 20.28 63.27 6.11 22.29 6.92 45.45 9.64 68.26 2 16.75 3.49 39.75 19 50.55 8.39 5.85 18.56 5.12 28.22 3.58 12.07-1.92 24.11-3.68 36.31-4.64 11.42-.9 22.84-.85 34.28-1.38 8.78-.41 18-1.54 25.68-6 17.37-10 17.79-31.1 18.74-48.53a663.9 663.9 0 019.29-80.1q3.56-20 8.33-39.81c2.46-10.1 5.53-21.43 14.36-28.08 2.61-1.99 2.55-6.07-1-7.14z"/><path class="cls-1" d="M276.87 120.25c4-.38 8.51-1 12.16-2.87 2.1-9 4.78-21.15 6.8-26.27a1.84 1.84 0 00.31-.79c.06-.15.12-.3.17-.45.71-1.77-1.94-3.19-2.65-1.39l-.09.24q-15.51-1.52-30.9-3.92a1.48 1.48 0 00-1.12.25 1.3 1.3 0 00-1.63 1.12c-.63 4.41-2.95 20-3.79 27.89 5 5.72 12.65 6.94 20.74 6.19z"/><path class="cls-2" d="M838.35 360.43c-3.68 8.23-8.89 16.05-17.85 19-1.22.4-.69 2.33.53 1.93 9.47-3.14 15.13-11.19 19.05-19.94.52-1.14-1.2-2.16-1.73-.99zm101.44 19.03c-4.55-1.53-8.88-3.53-12.18-7.13a47 47 0 01-6.83-10.76c-.59-1.14-2.31-.13-1.73 1 2.18 4.3 4.51 8.65 8 12s7.73 5.26 12.2 6.77c1.23.46 1.75-1.47.54-1.88zm-58.01 24.66c-7.24-5.73-7.36-14.78-7.23-23.27a241.57 241.57 0 00-.84-25c-.11-1.27-2.11-1.29-2 0 .89 10.1.55 20.1.8 30.21.19 7.36 1.83 14.65 7.86 19.43 1 .84 2.42-.57 1.41-1.37zm3.09-20.69c0-1.28-2-1.41-2-.13q.51 14.16.22 28.32c0 1.28 2 1.41 2 .12q.29-14.16-.22-28.31z"/><path class="cls-3" d="M291.48 106.87c1.34-5.64 2.71-11.07 3.91-14.51a25.29 25.29 0 00-6.87-1.64 181.56 181.56 0 00-29-1.57c-.52 3.57-1.3 9-2 14.17a28.75 28.75 0 0015 7.49c7.2 1.28 13.48-.05 18.96-3.94z"/><path class="cls-1" d="M305.91 71.39c1.57-6.42 3.2-9.62 2.9-16.25-.29-6.28-5.72-9.76-10.84-12.41-6.31-3.27-10.27-12.44-17.36-11.07-5 1-10.71-.45-15.28 3.19-1.66-.75-7.67 10.48-8 12.92-1.92 12.46-7.72 27.12-1.92 39.13 2.56 5.32 8.65 11.4 13 14.36 4.92 3.37 7.23 3.31 13 2 6.34-1.41 12.18-5.19 16.75-9.62 4.73-4.64 6.22-15.98 7.75-22.25z"/><path class="cls-2" d="M308.79 420.52h14c0-26.08-.74-52.51-5.47-78-1.64-8.84-15.14-5.1-13.5 3.72 4.47 24.2 5.04 49.46 4.97 74.28zM268 64.05c-.34 1.61-1.41 2.75-2.39 2.55s-1.52-1.69-1.18-3.3 1.41-2.75 2.4-2.55 1.46 1.68 1.17 3.3zm27.61 3.44c-.33 1.62-1.39 2.76-2.38 2.56s-1.52-1.67-1.19-3.29 1.39-2.76 2.38-2.56 1.52 1.67 1.19 3.29zm16.56-17.07a1.47 1.47 0 00-2.54-.56c-.27-1.47-2.53-2-2.91-.26a1 1 0 000 .17 1.18 1.18 0 00-.43.38 17.88 17.88 0 00-.52-3.39 1.5 1.5 0 00-2.89.8c1.51 5.83-1.11 11.47-.79 17.33a60.43 60.43 0 001 6.41 20.6 20.6 0 01-.83 11c-2.37 7.13-.23 14.24 6 18.57a1.51 1.51 0 002.26-1.29c-.46-9 .57-17.69 1.81-26.6.99-7.6 1.57-15.04-.16-22.56zm-2.07 14.9a1.78 1.78 0 00-.89.06l.06-1a1.4 1.4 0 00.81-1.28c0-.91.11-1.82.2-2.71.01 1.61-.06 3.29-.18 4.93zm-5.59 19.4c.57-2.25 1.27-4.14 1.68-6.13a1.77 1.77 0 000 .23 1.36 1.36 0 00.18.57c-.17.83-.32 1.67-.5 2.5a1.58 1.58 0 002 1.82 112.47 112.47 0 00-.51 12.46 12.37 12.37 0 01-2.85-11.45zm-35.95-42.66A1.49 1.49 0 00266 42c-.14.3-.29.58-.44.86a11.29 11.29 0 00-2.2.94 1.54 1.54 0 00-2.52-.81 18 18 0 00-2.15 2 1.81 1.81 0 00-.83.1 1.61 1.61 0 00-1.39 1c-.14.34-.27.69-.41 1a64.33 64.33 0 00-5.86 9.87 1.48 1.48 0 00-.07 1.09 27.34 27.34 0 00-2.23 8.56 33.2 33.2 0 00-1.9 4.72c-1.13 3.56 1.44 5.26 4.48 3.17 5.18-3.56 4-10.85 6.76-15.76 2-3.61 6.26-4.2 9.17-6.81a13.94 13.94 0 004.33-8.1 1.61 1.61 0 00-2.18-1.77z"/><path class="cls-10" d="M318.76 46.48c.3-1.54.92-2.26.67-3.89a6.92 6.92 0 00-1.92-3.8c1.22-7.27 2-14.95-1.84-21.37C311.4 10.28 302 6.38 294.12 5.3a34.3 34.3 0 00-24.27 6c-7.47 5.27-10.34 13.72-16.54 19.92h-.1a2 2 0 00-1 .21c-2.63 1.28-3.36 3.22-3.9 6-.62 3.14-3.63 6.89-2.87 10.27 1.43 6.34 12.06 2 15.83 1.4 10.12-1.56 20.62-2.15 30.72 0a67.72 67.72 0 0113.65 4.54c2.72 1.22 6.45 4 9.68 3.4a4.39 4.39 0 003.54-3.52c.58-2.28-.57-4.61-.1-7.04z"/><path class="cls-3" d="M279.17 79.41c-4.64.68-3.49-3.65-2.54-6.42.82-2.39 1.75-4.76 2.63-7.13.44-1.21-1.39-2-1.84-.79-1.62 4.39-8.28 17.84 2 16.32a1 1 0 00-.25-1.98z"/><path class="cls-9" d="M285.09 86a74.06 74.06 0 01-15.66-1c-1.12-.2-1.44.86-.83 1.8a9.77 9.77 0 008.66 4.76c3.57 0 7.1-.81 8.73-4.06a1 1 0 00-.9-1.5z"/><path class="cls-2" d="M303.57 58.52a.4.4 0 00-.31-.48 38.1 38.1 0 00-10.77-1.38c-2 .06-5.7.78-5.82 3.38a.52.52 0 00.32.52c.64.18 5.32.06 7 .24 2.83.32 5.53.88 8.36 1.19 1.08.11 2.79.22 3-1.24.18-1.03-.84-1.75-1.78-2.23zm-45.79-5.1c-.21 1.46 1.46 1.86 2.52 2.07 2.8.54 5.54.8 8.34 1.33 1.66.32 6.09 1.82 6.76 1.83a.51.51 0 00.46-.4c.65-2.52-2.69-4.31-4.56-5a37.78 37.78 0 00-10.71-1.84.39.39 0 00-.43.36c-1.05.23-2.23.62-2.38 1.65z"/><path class="cls-11" d="M747.82 334c6.25-2.22 12.31-6.14 15.71-11.81a136.64 136.64 0 00-3.39-18.19 1.37 1.37 0 00.18-.24 14.54 14.54 0 00-2.52-1.12c-9.5-3.26-19.84-5-29.61-7.38l-1.34-.34c-5.59-.21-11.18-.24-16.77 0a217.21 217.21 0 00-26 2.63l-3 .51a99.27 99.27 0 00-17.14 13.84 259.88 259.88 0 00-5.65 29c4 2.21 8.19 3.62 12.67 2.63 4.21-.93 7.75-3.45 11.36-5.61a93.38 93.38 0 0113.32-6.63c4.73-1.89 10.1-4.31 15.14-2.3 3.9 1.55 7.29 4 11.33 5.29a40.64 40.64 0 0025.71-.28z"/><path class="cls-2" d="M926.34 215.57q-1.94-15.27-3.86-30.55c-1-7.68-.65-17.63-5.76-24-5-6.15-3.63-15.2-10.81-17.91-7.76-2.92-26.22 1-34.45.16a3.08 3.08 0 00-2.85-1 192.91 192.91 0 00-41.9 12.12c-12.24 5-24.38 10.5-34.42 19.26a2.51 2.51 0 00-.83 2.79 2.85 2.85 0 00-.49 1.65c-.08 17.6 6.59 34.69 9.66 51.88 3.31 18.53 5 37.32 6 56.1 1 18.06 1.19 35.55 7.61 52.71 1.29 3.47 2.71 6.88 4.15 10.29 1.33 3.15-.79 6.36 2.26 8.27 2.64 1.66 9 1.91 12 1.8 5-.19 9.94-.43 14.91-.64l56.65-2.43c6.23-.27 13.26 1.28 14.93-6.07 2.06-9.06 3.58-18.28 5.09-27.44 2.9-17.55 5.58-35.32 6.28-53.11.72-18.06-1.9-35.97-4.17-53.88z"/><path class="cls-11" d="M839.49 208.39c3.16-5.85 8.58-10 11.18-16.23 2.29-5.48 2.24-11.38 3.36-17.13 2.42-12.48 5.66-25.25 16.22-32.29.38-.25 4.87 1.24 5.14.93l.1-.07c-1.28-.18-2.57-.34-3.87-.46a3 3 0 00-2.84-1 181.42 181.42 0 00-29.17 7.38c-.61.47-1.24.92-1.85 1.4l-1.41.88a4.89 4.89 0 00-1.47 1.47c-1.39 1.17-2.75 2.39-4.09 3.63-7.54 3.48-15 7.63-19.83 14.37-6.66 9.26-6.07 21-6 31.84.07 13.49-1 27-.77 40.46.17 12.35 1.37 24.95 5.22 36.76 1.32 4 2.69 9.74 7.66 10.35a6 6 0 005.5-2.38 106.37 106.37 0 003.85 12.81c2.13 5.75 4.5 11.41 6.64 17.16-2.3-.77-5.35.11-6.18 2.87-.51 1.72-1 3.45-1.43 5.19-2.17-2.32-6.41-2.22-7.55 1.3a4.23 4.23 0 00-3.37 3.12 49.61 49.61 0 00-1.17 4.89c.34 1 .69 2 1.07 3 1.29 3.46 2.71 6.88 4.14 10.28 1.33 3.15-.78 6.37 2.27 8.28 2.64 1.66 9 1.91 12 1.79 1.5 0 3-.12 4.5-.18a66.17 66.17 0 005.09-6.33 23.89 23.89 0 004.57-18.63c-2.45-15.12-10.25-28.9-14.74-43.43a92.67 92.67 0 01-3.46-16.88c2.23-8.71 2.82-17.92 3.48-26.78.91-12.55 1.08-27.02 7.21-38.37z"/><path class="cls-1" d="M893.73 146.75c.94-9.07 2.15-25.22 3.56-31.64a2 2 0 00.18-.82c0-.16.07-.31.1-.47.41-1.86-1.9-2.61-2.32-.72a2 2 0 000 .24q-12.94 2.11-25.86 3.34a1.29 1.29 0 00-.9.51 1.34 1.34 0 00-1.23 1.44c-.1 4.16-.48 18.41-.46 26.44a56.49 56.49 0 0026.93 1.68z"/><path class="cls-12" d="M833 280.81c-11.66-38.92-32.78-77.24-26.86-119.17a1.65 1.65 0 00-.1-.81l1.34-.63c1.76-.79.23-3.37-1.52-2.59a160.35 160.35 0 00-60.81 47.85 1.52 1.52 0 00-.32.77 1.35 1.35 0 00-.65 1.23q.23 28.39 1.55 56.77c.86 18 1.32 36.46 3.82 54.37 1 7.53 3.18 14.46 7.65 20.67 2.37 3.3 5.13 6.36 6.46 10.28 1.19 3.53 1.37 7.16 3.11 10.53 2.66 5.15 8.53 12.41 14.15 14.52 3.86 1.45 37.68-28.76 47.26-44.19 4.36-7 8-14.47 8.78-22.81.88-9.07-1.25-18.16-3.86-26.79z"/><path class="cls-3" d="M866.77 137.78c8.58 3.15 19.76 1.73 28-2.62.52-5.47 1.08-11.15 1.69-15.48a19.36 19.36 0 00-4.2 2.46c-2.47 1.73-7.81 7.29-11.14 6.63a3.68 3.68 0 00-4.37 3.63 20.35 20.35 0 01-9.87-2.29c-.03 2.51-.08 5.15-.11 7.67z"/><path class="cls-1" d="M900.79 106.25a66.23 66.23 0 00.78-18.43c-.72-5.7-4.43-8.43-9.29-10.47-6-2.51-10.27-10.57-16.62-8.8-4.47 1.24-9.78.37-13.68 4-1.56-.56-6.05 11.93-6.21 14.18-.83 11.48-3.09 24.88 3.06 35.39a29.75 29.75 0 0010.75 10.67c4.73 2.71 8.53 4.15 13.14 1.27a49 49 0 0011.94-10.4c4.01-4.55 5.19-11.59 6.13-17.41z"/><path class="cls-4" d="M805.38 168.92c-5.93-1.1-12.26.38-18.39 2.08q-4.66 1.31-9.25 3a160 160 0 00-32.69 31.56 1.57 1.57 0 00-.33.77 1.35 1.35 0 00-.65 1.23q.23 28.39 1.55 56.77c.41 8.51.73 17.1 1.21 25.69a18 18 0 003.33-1c4.76-1.92 8.35-6 11.76-9.72a72.49 72.49 0 009.5-12.16c5.91-10.05 4.64-20.48 5.36-31.64a49.49 49.49 0 0115-33 101.55 101.55 0 0113.5-11.16l.69-.48a115.4 115.4 0 01-.59-21.94z"/><path class="cls-1" d="M903.27 99.07c-2.69-3.1-6.4-1.06-7.75 2.1a2.22 2.22 0 001.46 3c-1.14 2.17-1.92 4.67-1.32 6.79a2.74 2.74 0 003.38 1.94c1.78-.41 3.05-2.06 3.94-3.54 1.79-3.02 2.82-7.36.29-10.29z"/><path class="cls-9" d="M885.16 118.36c-2.31.24-5.2.69-7.54.76a45.3 45.3 0 01-8.13-.39c-1.81-.32-2.12.64-1.5 1.27 2.74 2.74 6.79 3.55 11.13 2.89 2.62-.4 6.12-1.58 7-3.31.3-.65-.05-1.32-.96-1.22z"/><path class="cls-7" d="M901 214.59c-.6-6.73-1.37-13.45-2.17-20.16-.31-2.53-.47-5.41-3.32-5.63-.16-.19.95.87.61.9-9.51.92-23 .5-32.5.17-5.5-.19-6.73-.72-6.92 5.25-.12 3.54-.84 20.86-.95 24.4-.07 2-1.11 6.51 0 8.38 1.62 2.62 7.14 2 9.66 2.17q10.85.88 21.74.8c3.44 0 7.48.37 10.87-.33.77-.15 1.47-.09 2.1-.7 2.88-2.84 1.16-11.75.88-15.25z"/><ellipse class="cls-2" cx="889.5" cy="97.93" rx="2.98" ry="1.82" transform="rotate(-85.89 889.513 97.922)"/><path class="cls-2" d="M867.4 98.06c-.11 1.64-1 2.92-2 2.85s-1.72-1.47-1.6-3.11 1-2.92 2-2.85 1.72 1.47 1.6 3.11z"/><path class="cls-3" d="M874.41 103.18a1 1 0 011.93.54 23.37 23.37 0 00-.85 4.91 3.54 3.54 0 00.32 2.37c.68 1.34 1.78 1.19 3.11.89s1.76 1.66.51 1.94c-2.18.48-4.83.32-5.76-2.11s.03-6.2.74-8.54z"/><path class="cls-13" d="M908.84 63.57c-1.91-5.77-5-13-11.64-14.16-3.81-.68-6.77 2-10.33.55a73.84 73.84 0 00-12-4.3c-6.88-1.58-15.45-1.86-22 1.08a8.83 8.83 0 00-5.22 5.63c-.22 1.05-.46 2.1-.7 3.14a12.59 12.59 0 01-3.14 3.84 16.42 16.42 0 00-2.5 3.65 11.24 11.24 0 00-.75 7.67 8.35 8.35 0 001.15 2.33 11.36 11.36 0 00-2.35 1.9 27.53 27.53 0 00-5.87 11.1 14.38 14.38 0 00-.25 4.72c.4 4.4.41 6.86-1.59 10.69a7.69 7.69 0 00.28 8.42 11.83 11.83 0 008.41 5.35c2.4.26 4.35-.62 6.3-1.6a1.5 1.5 0 00.8.08c12.39-1.87 7.91-17.2 14.66-24 3.64-3.68 9.62-2.94 13.89-5.53 1.92-1.16 3.15-2.89 4.55-4.59 3.28-4 7-4.37 11.12-1.42a1.75 1.75 0 00.27.28c11 9.07 6.21 18.27 8.86 19.14 5.69 1.87 4.43-7.77 5.13-11 1.59-7.32 5.67-14.67 2.92-22.97z"/><path class="cls-2" d="M390.83 410.14c.37 3.16.63 7 .92 10.5h116.36c3.46-17.64 6.65-35.73 9.36-53.5a4.73 4.73 0 00-3-5.28 5.06 5.06 0 00-1.93-2v-.08a4.94 4.94 0 00-5.42-5.6v-.09c.73-4.6-5.77-8.43-8.23-3.46a93.9 93.9 0 00-7.14 21l2.91-21.95c.69-5.14-7.47-5.9-8.84-1.19l-.27 1c-.74-3.77-6.28-6.15-8.23-1.8-.9 2-1.71 4.08-2.46 6.14.18-1.69.36-3.38.55-5.08.5-4.62-6.28-5.85-8.39-2.27a78.16 78.16 0 00-5.79 12.27c.08-.88.15-1.77.22-2.66.43-5.26-7.34-5.82-8.84-1.2a140.29 140.29 0 00-4.22 16.67q.45-6.8 1-13.59c.4-5.06-7.72-6.11-8.84-1.2-.59 2.58-1.07 5.16-1.5 7.76q.09-3.58.19-7.15c.13-5.08-7.55-6.1-8.84-1.2a153.78 153.78 0 00-4.1 24l-.1-19.06c0-4.89-7.95-6.34-8.84-1.19q-1 5.51-1.55 11.05-.17-3.72-.32-7.42c-.25-5.76-9-5.82-9 0v5.51a4.79 4.79 0 00-6.34-2.66c-.93-5.21-9.29-5.14-8.91.49 0 .37.05.74.07 1.11-2.51-.37-5.15 1-4.78 4.23q2.14 18.89 4.3 37.9z"/><path class="cls-10" d="M845.93 156.24c-.67-2.82-1.89-5.61-2.81-8.36-.71-2.11-1.24-5.7-3-7.32s-8.28-.19-8.72-.07c-8.18 2.16-16.37 4.59-24.68 6.24-9.44 1.88-19.08 2.34-28.61 3.6-17.37 2.3-34.23 8.18-51.89 8a3.22 3.22 0 00-3.35 3.09 79.31 79.31 0 01-30.08 1.39 3.46 3.46 0 00-3.72-1.58c-7.75 1.54-15.51 3.13-22.86 6.1-7 2.83-13.82 6.16-20.92 8.81a229.45 229.45 0 01-45.08 11.73c-2.53.39-3 2.76-2.12 4.59a3.8 3.8 0 00-.23 1.9c.48 3.41 3.36 6.27 5.15 9.11a102.12 102.12 0 015.6 10.15 2.87 2.87 0 003 1.75 3.27 3.27 0 003.37 3.39c8.34 0 40.62-2.55 41-2.58 7 24 1.14 49.48-.78 74.48-.5 6.48-3.21 27.52.62 28.83a52.7 52.7 0 007.67 1.29c8.51.34 22.83 1.54 31.35 1.52 6.88 0 9.71-3.57 12.56-9.54s5.38-12.07 7.94-18.16q1.32 4.74 2.66 9.48c1.4 4.92 2.12 11.85 5.41 15.95s9 2.79 13.52 2.57l20.77-1.06a18 18 0 004.29-1.22c5.08-5.72 2.4-15.46 2.57-22.58q.35-14.3.67-28.59c.37-15.79.69-31.58.81-47.37a24.84 24.84 0 0112.77-21.63c16-8.76 34.42-13.18 49.9-23 6.29-4.06 19.34-12.04 17.22-20.91z"/><path class="cls-14" d="M749.66 121c-2.06-5.67-4.79-9.59-4.83-15.94 0-5.21.68-10.53-.61-15.65a17 17 0 00-5.56-9.2c-2.88-2.32-7-2.26-10.26-3.62a15.91 15.91 0 00-7.4-6.51c-4.46-1.81-9.76-1-14.14.72-5.43 2.08-12 8.34-15.85 10.2-7.72 2.76-14.46 5.68-17.56 14.25-1.78 4.94-.55 10.11-1.82 15.09-1.39 5.45-5.29 9.91-6.74 15.4-2.54 9.6 1.15 17.8 8.61 23.94 8.81 7.25 22.16 7.18 29.56 16 1.43 1.71 3.55.54 4-1.16 2.1-.33 4.18.06 6.31 0a24.23 24.23 0 004.42-.8c.69 2.08 4.16 2.6 4.76 0 2.39-10.33 14.18-13.4 21.17-19.94 6.22-5.78 8.87-14.78 5.94-22.78z"/><path class="cls-2" d="M598.83 172.42c-9.47-9.88-24.77-13.77-38.11-15.37-7.78-.94-59.34-7.6-74.31-8.1-5.64-.19-11.81-.41-17.84-.54a12.83 12.83 0 00.22-1.76c.53-8.19-4.55-17.49-12-21a29.09 29.09 0 00-12.57-2.34c-4.48 0-9.82 0-13.59 2.68a2.61 2.61 0 00-.89 3.15 36.57 36.57 0 01-25.62 4.56 2.51 2.51 0 00-2.43-.85c-3.74.69-7.7 1.75-9.9 5.15-1.42 2.18-1.88 4.68-3.77 6.61-1.62 1.64-3.73 2.78-5.54 4.2a17.11 17.11 0 00-6.62 11.59 144.12 144.12 0 00-22.43 8.6c-7.16 3.61-14.31 8.8-22.29 10.53-7.73 1.67-16.22.73-24.09.91-16 .35-31.26 2.4-46.17 8.22-8.1 3.17-15.15 4.09-23.85 3.85-7.27-.2-14.53.26-20.69 4.38a3.79 3.79 0 00-1.57 4.45c-1.81 6.69-1 13.44.63 20.15 1.48 6.16 3.49 12.81 8.31 17.36s11.81 5.9 18.46 6.37c8.37.6 16 .38 24-2.26 8.17-2.7 15.12-2.24 23.44-.37 7.17 1.61 14.48 3.65 21.91 3.33 8.06-.34 14.87-4.27 22.62-5.83 6.13-1.24 12.45-1 18.7-.28a221.49 221.49 0 011.1 44.36c-1.21 15.48-4.25 35.07-1.72 50.6 1.06 6.51 1.44 8.88 5.89 13.9 4.57 5.18 10.67 8.89 14.45 14.74 1 1.54 2.26 3.38 2.59 5.19s-.41 3.69-.55 5.43c-.2 2.64 2.42 11.95 5.29 15.7s8 3.22 9.82 2.7a425.79 425.79 0 01124.84-15.58c3.33.08 4.47-3.16 3.45-5.45-1.32-17.71 9.6-21.3 10.08-33.21.62-15.49-15.05-17.62-15.6-33.11-.3-8.39-9.45-30.87-9.75-39.25-.26-7.46 21.3-16.11 24.65-23.12 3-6.31 10.62-10.24 16.32-14a143.29 143.29 0 0119.86-11.28c11.32-5.14 26-5.56 35.62-13.77 9.95-8.41 8.04-22.48-.35-31.24z"/><path class="cls-11" d="M468.65 148.5a14.76 14.76 0 00.23-1.77c.53-8.19-4.56-17.49-12-21a25.29 25.29 0 00-8.6-2.18c-3.61.59-7.32.48-10.56 2.37a2.76 2.76 0 00-1.25 3.47c-1.44 2.43 1.19 6.11 4 4.19s6.7-1.32 7.4 2.69c.27 1.59-.38 3.33-.21 5 .24 2.32 1.45 4.34 1.67 6.66a17.16 17.16 0 01-1.49 7.75c-2.51 6.61-6.13 13.69-2 20.51s11.67 5.18 17.89 2.76c8.95-3.48 17.31-8.41 27.05-9.3 8.89-.81 17.88.57 26.68-1.37 6.38-1.4 14.06-4.7 14.6-12.12a12 12 0 00-.09-2.56c-17.2-2-37-4.26-45.38-4.54-5.73-.22-11.91-.44-17.94-.56z"/><path class="cls-15" d="M593.77 115.74c.29-9.55-5-18.64-15.57-18.55-12 .1-19.79 10.49-28.59 17-4.34 3.24-9 6.32-11.78 11.09a17 17 0 00-2.28 6.32c-.48 3.44.63 7.15-1.94 10-3.15 3.48-8.44 4.4-11.74 7.92a18.12 18.12 0 00-4.82 13.51 18.52 18.52 0 005.47 11.74c2.87 2.88 4.81 4.51 2.57 8.8a42.8 42.8 0 00-3.79 9.18c-1 4-1.79 8.83.1 12.72a7.41 7.41 0 003.78 3.78c.82.34 1.73.3 2.54.58 3.59 1.27 3.47 2.06 5 4.55 4.5 7.54 14.72 8.71 21.75 4.11 9.44-6.16 48.37-3.53 48-13.9-.54-14.53-5.07-28.39 2.63-42 6.9-12.2-19.58-33.45-11.26-44.3a1.93 1.93 0 00-.07-2.55z"/><path class="cls-11" d="M452.91 124.23a34.28 34.28 0 00-8.62-1c-4.49 0-9.82 0-13.6 2.69a2.61 2.61 0 00-.88 3.15 36.61 36.61 0 01-25.63 4.56 2.49 2.49 0 00-2.43-.85c-3.74.69-7.7 1.75-9.9 5.15-1.42 2.18-1.88 4.68-3.77 6.61a16.78 16.78 0 01-2.25 1.85c7.53-.1 14.78 2.81 22.26 4.06a31.32 31.32 0 009.06.45c4.35-.54 6.52-2.76 10.1-4.91 3-1.78 5.52-1.53 8.12-4 2.81-2.69 4.09-6.22 6.66-9.13 3-3.35 7.23-6 10.82-8.62z"/><path class="cls-16" d="M438.61 89.37a86.31 86.31 0 00.82-9.61c0-3.07-.69-8.08-4.2-9-1.86-.48-2.85 2.35-1 2.84s2.41 3.16 2.4 6.39a11.58 11.58 0 00-.33-1.32c-.48-1.53-2.87-1.59-3 .21v.55a5.91 5.91 0 00-.93-.49c.29-1.07.26-2.26.55-3.49.43-1.87-2.4-2.86-2.84-1a16.7 16.7 0 01-1.18 4 16.06 16.06 0 00-3.85.71 1.5 1.5 0 00.61 2.94c1.16-.22 2.66-.14 3.93-.45a3.9 3.9 0 011.05.32c.3 3.47.66 6.94 1.13 10.4.24 1.76 0 5.28 1.33 6.68 1.7 1.87 3.67 1 4.47-1.15.98-2.6.77-5.84 1.04-8.53z"/><path class="cls-1" d="M442 157.39c-.4-4-8.76-28.26-10-36.81a1.71 1.71 0 00-.12-.84c0-.15 0-.31-.07-.47-.27-1.89-3.27-1.8-3 .11a2.17 2.17 0 010 .25q-14.2 6.39-28.77 11.93a1.47 1.47 0 00-.84.78 1.29 1.29 0 00-.86 1.78c2.13 5.38 11.18 28.61 12.55 30.13 1.91 2.13 5.82 1.52 8.42 1.34 5.89-.42 22.89-6.59 22.69-8.2z"/><path class="cls-3" d="M432.37 122.28a2.56 2.56 0 00-1.71.43c-8.21 5.44-21.08 14.84-31.85 12.35.9 2.28 2.44 6.21 4.14 10.47 5.93 1.35 13 .33 17.88-1.26 5.74-1.86 11.34-4.92 14.77-9.56-1.38-4.71-2.6-9.24-3.23-12.43z"/><path class="cls-1" d="M435.6 104.52c-.7-6.57-1.93-13.56-4.46-19.7-2.4-5.81-8.68-7.25-14.4-8-7-.94-13.87-8.23-20.08-4.54-4.36 2.59-10.23 3.2-13.29 8.17-1.82-.14-5.62 13.41-5.15 15.83 2.41 12.38 3.87 27.18 13.38 36.52 4.22 4.13 12 7.8 17.06 9.12 5.77 1.51 9.22.76 14.25-2.42 5.49-3.48 8.41-9.09 11.21-14.8 2.93-5.99 2.15-13.76 1.48-20.18z"/><path class="cls-2" d="M396.06 105.1c.19 1.64-.47 3.06-1.48 3.17s-2-1.13-2.14-2.76.48-3.06 1.48-3.17 1.96 1.12 2.14 2.76zm27.49-5.97c.19 1.64-.48 3.06-1.48 3.17s-2-1.13-2.14-2.76.48-3.06 1.48-3.17 1.96 1.12 2.14 2.76z"/><path class="cls-1" d="M437.54 95.39c-4.28-1.37-6.22 4.41-6.27 7.54a1.47 1.47 0 001.26 1.51v.15a16.76 16.76 0 00-.25 3.66l-.12.27c-.57 1.35-1.43 3.3.07 4.42 3.29 2.46 7.29-3.88 7.91-6.29.76-2.98 1.25-10.04-2.6-11.26zm-60.78 14.24c3-3.32 7.6.72 9.21 3.4a1.48 1.48 0 01-.34 1.94l.09.12a16.85 16.85 0 012 3l.23.17c1.18.89 2.89 2.14 2.15 3.86-1.62 3.77-8.25.28-10-1.49-2.1-2.15-6.1-8.01-3.34-11z"/><path class="cls-17" d="M424.09 87.6c-3.43-.45-9.39 1.53-10.45 3.24a1.33 1.33 0 00-.19 1.36c.35 1.3 2.59.88 3.79.7 2.44-.37 9.38-1.13 10.23-2.24 1.79-2.34-2.25-2.91-3.38-3.06zm-38.51 12.27c1.2.69 7.9-1.29 10.29-1.9 1.18-.29 3.41-.77 3.23-2.11-.12-.93-.56-1.1-.7-1.17-2-1-7.09-.61-10.09 1.13-.98.58-5.31 2.58-2.73 4.05z"/><path class="cls-3" d="M412.16 102.51c-.37-1.21-2.34-.82-2 .41.82 2.65 4.65 9.62-.48 10.19-1.27.14-.86 2.1.41 2a4.76 4.76 0 004.14-4.23c.49-2.99-1.23-5.66-2.07-8.37z"/><path class="cls-18" d="M423.29 118.13c-6.94 1.52-14.19 3.4-21.72 5.23-.67 0-1.49 1-.47 1.64a17.22 17.22 0 0014.23 2.21 15.34 15.34 0 009.09-8c.28-.53-.53-1.21-1.13-1.08z"/><path class="cls-9" d="M423.41 118.16h-.17c-10.12 1.18-12.54 2.22-21.48 5.18 4.16 3.07 9.7 1 14.24-.13 3.37-.86 6.18-2.05 7.41-5.05z"/><path class="cls-17" d="M431.93 58a5 5 0 00-2.09-5.05c-3.33-2.51-8.28-.93-11.7.55-1.83.79-2.74 1.6-4.81 1.41-1.64-.15-2.57-1-4-1.55a13.68 13.68 0 00-6.27-.9c-5.2.39-10.9 2.89-15.18 5.77a19.62 19.62 0 00-7.77 8 15.16 15.16 0 01-4 4.83A12.41 12.41 0 00372 77c-.61 2.17.33 5.78-.1 8.29-.46.42-1.34 2.51-.61 6.82 1.66 9.78 9.11 18.69 9.11 18.7 1.64 2.16 1.4-.17 1.43-.5.1-1.14-1.26-9.18-1.81-14.89-.51-5.15 0-8.07 3.19-10.74 5.74-2.39 9.78.94 15.52-.71 3.3-.94 6.34-2.42 9.86-2.45 4.21 0 6.35 1.49 10.23 3.15 4.87 2.47 10.76 2.6 15.11-1 2.7-2.22 4.87-5.81 4.67-9.22a10.6 10.6 0 002.25-5.85c.39-5.25-3.47-11.15-8.92-10.6z"/><path class="cls-3" d="M436 101.13c-.38-1.22-2.35-.83-2 .4a10 10 0 01.37 4.61c-.18 1.27 1.81 1.39 2 .12a11.42 11.42 0 00-.37-5.13zm-52.3 16.06a7 7 0 01-1.34-3.39c-.17-1.28-2.13-.87-2 .4a9 9 0 001.8 4.32c.84 1.03 2.31-.3 1.54-1.33z"/><path class="cls-2" d="M444.72 152.72l.28-.48a2.64 2.64 0 00-1.39-3.63l1.12-2.24a2.48 2.48 0 00-.5-3 68 68 0 001.34-7.89c.27-2.61-3.46-3.21-4.66-1.26-4.66 7.54-8.68 17.64-18.48 19-9 1.27-14.27-3.4-28-5.81-3.17-.56-3.38 3.25-.42 4.43s6.14 2.45 9.4 3.55c-2.2.84-1.84 4 .29 4.72l.64.22a2.43 2.43 0 00.6 4.44c1.14.36 2.28.66 3.43.93 5.79 11.63 17.54 6.71 26.93 0a2.33 2.33 0 002.23-.64l8.47-8.31a2.47 2.47 0 00-1.28-4.03z"/><path class="cls-19" d="M553.25 146.72a28.64 28.64 0 015.16-15.81c.72-1.07-1-2.07-1.73-1a30.18 30.18 0 00-5.39 19.17c.28 4 1.43 7.87 1.18 11.88-.31 5.14-2.7 8.89-5.42 13.06-5 7.69-5.79 24.72 5.57 27.49 11.8 2.88 16.41-14.49 16.49-22.89.11-11.62-4.58-26.57-15.86-31.9z"/><path class="cls-1" d="M589.42 194.66c1-3.93 2.52-29.13 4.37-37.55a2 2 0 00.18-.82c0-.16.07-.31.1-.47.41-1.86-1.9-2.61-2.32-.72a2 2 0 000 .24q-12.94 2.11-25.86 3.34a1.29 1.29 0 00-.9.51 1.34 1.34 0 00-1.23 1.44c-.13 5.68-.79 30.13-.24 32 .77 2.53 3.95 3 6 3.58 4.48 1.16 19.48.06 19.9-1.55z"/><path class="cls-3" d="M563.3 182.07a20.94 20.94 0 0016.2.87 36.79 36.79 0 0012-7.08c.65-6.84 1.37-13.82 2.16-17.89a5 5 0 00-2.91 1.1c-1.91 1.45-3.3 3.62-5.27 5.12a53.57 53.57 0 01-6.47 4.27c-5 2.77-10 4-15.52 3.08-.09 3.46-.16 7.18-.19 10.53z"/><path class="cls-1" d="M596.75 150.5a66.13 66.13 0 002.49-18.28c-.18-5.74-3.63-8.8-8.27-11.28-5.73-3.07-9.24-11.49-15.73-10.32-4.56.82-9.77-.54-14 2.74-1.51-.71-7.13 11.31-7.51 13.53-1.89 11.36-5.39 24.49-.24 35.52A35.31 35.31 0 00564 175.14c4.45 3.14 6.55 3.89 11.37 1.38 5.75-3 9.15-5.07 13.62-9.24 5.55-5.14 6.28-11.07 7.76-16.78z"/><path class="cls-20" d="M662 286.28c8.3-5.26 11.5-16.42 14.36-25.2a63.71 63.71 0 003.51-17.7c.19-6.11-1.67-11.48-3-17.35-1.55-7 .16-13.21 2.82-19.68 2.25-5.43 2.93-10.52.84-16.15s-5.92-10.86-9.84-15.43c-2-2.28-4.32-4.39-6.55-6.62-6.32 2.64-12.5 5.59-18.93 8a225.51 225.51 0 01-32.21 9.34c-2.69 4.38-5.6 9.09-7.13 13.94a15.33 15.33 0 00-.4 8.32c1.08 1.93 2.1 3.88 3.07 5.87a2.88 2.88 0 003 1.76 3.29 3.29 0 003.38 3.39c8.34 0 40.62-2.56 41-2.58 6.78 23.32 1.47 48-.6 72.29a13.68 13.68 0 006.68-2.2z"/><path class="cls-3" d="M714.27 169c2.11 0 5.32.31 6.7-1.95 1-1.62 6.53-25.45 7.84-31a1.34 1.34 0 00-.83-1.7 1.27 1.27 0 00-.74-.71q-12.19-4.44-24.17-9.77a2.09 2.09 0 010-.25c.07-1.93-2.36-1.79-2.44.12v.47a2.41 2.41 0 000 .85c-.34 8.61-5.24 33.37-5.25 37.43-.05 1.66 14.17 6.51 18.89 6.51z"/><path class="cls-14" d="M745.87 130.16a6.88 6.88 0 00-.42-.92c-.63-1.18-1.73-2.1-2.21-3.37a1.55 1.55 0 00-1.65-1 1.51 1.51 0 00-2.94-.26c-2.52 9.61-9.55 16.36-15.93 23.57-5.08 5.73-10.2 12-10.33 20a1.52 1.52 0 001.5 1.5c9.15-.72 11.41-8.7 16.36-15.23 5.54-7.29 15.39-13 17.31-22.43a1.59 1.59 0 00-1.69-1.86z"/><path class="cls-1" d="M700.26 140.11c4.23 4 12.35 7.44 18.15 8.66 5.33 1.11 8.06 1.18 11.38-1.25 3-2.18 5-8 6.62-13.13 3.88-12.12 1-23.31-.87-34.67-.37-2.21-6-14.24-7.5-13.53-4.22-3.27-9.43-1.92-14-2.74-6.49-1.16-10 7.26-15.73 10.32-4.65 2.48-8.09 5.55-8.28 11.29a66.57 66.57 0 002.5 18.28c1.47 5.66 3.32 12.6 7.73 16.77zm-101.1 56.78c-1.87-.68-5.16-1.39-6.88-2.5s-2-5.5-1.87-9.25c.07-1.55-23.17 5.23-23.12 2.25 0-2.57-4-2.57-4 0-.08 4.78-4.65 6.63-8.35 8.28-1.79.8-4.72 1.54-5.82 3.37-2 3.39 1.86 6.06 4.48 7.41 4.92 2.54 10.69 3 16.13 3.13a167.72 167.72 0 0021.62-.65c3.5-.38 8.62-.94 10.47-4.49a5.5 5.5 0 00-2.66-7.55z"/><path class="cls-14" d="M739.81 105.31c-.78-.1-2-3.09-2.75-4.45a1.47 1.47 0 001.18-1.8 1.37 1.37 0 00.89-2.12c-.69-1.06-1.34-2.12-2-3.19a1.28 1.28 0 00.27-1.75l-.24-.3v-.06A61.54 61.54 0 01733 86.1c-.65-1.32-1.28-2.65-1.87-4-.67-1.53-3.1-.5-2.77 1a21.21 21.21 0 00-2.06-1.24c-4.54-2.33-10-3.4-15-3.89-1.46-.14-2 2-.93 2.75a22.68 22.68 0 00-3.85.42 1.43 1.43 0 00-.55 2.51 16 16 0 00-4.67.17 1.41 1.41 0 00-.51 2.53 1 1 0 00-.13.09 10.68 10.68 0 00-3.6 6c-.34-1.39-2.52-1.83-2.87-.15a1.36 1.36 0 00-.74.92c-.17.66-.32 1.32-.49 2a1.63 1.63 0 00-2 1c-.79 2.18-6.88 16.5-1.12 16.64-.37.92-.76 1.85-1.19 2.77-.57 1.23 2.32 6.11 3.69 5.19 3.65-2.45 5.41-.9 6.12-5.62 1-6.31-1.26-22 4.31-26.68a1.27 1.27 0 00.08-2c5.53-.67 7.68 2.59 11.31 6.13 2.53 2.46 5.88 2.76 9.19 3.43 5.11 1 9.35 3.07 12.09 7.64 1.25 2.09 1.86 4.13 4.42 4.47 1.86.38 1.84-2.62-.05-2.87z"/><path class="cls-9" d="M608.47 291.22c-.36-6.24-.32-12.48-.13-18.72.73-24.94 3.37-50.47-6.92-74a2 2 0 00-2.26-.92c-15.34 5.86-33.38 10.9-47.82.13a1.57 1.57 0 00-1.9-.11 2 2 0 00-2.08 1.34c-1.84 4.9-5.84 8.19-9.07 12.13a31.87 31.87 0 00-6.18 12.46c-2.81 10.82-3.36 22.6-3.86 33.72a329.21 329.21 0 00.42 35.54c.59 9.31 1.23 20.47 6.86 28.33 5.82 8.11 15.58 6.27 24.36 6 11.47-.29 23.44.15 34.77-1.82 3.66-.63 7.82-1.57 10.63-4.2 3.36-3.13 3.91-8 4.12-12.36.29-5.81-.6-11.67-.94-17.52z"/><path class="cls-2" d="M711 116.06c.12 1.64-.61 3-1.61 3.1s-1.91-1.21-2-2.85.62-3 1.62-3.1 1.92 1.21 1.99 2.85zm22-4.88c.11 1.64-.61 3-1.62 3.1s-1.91-1.21-2-2.86.61-3 1.62-3.1 1.93 1.21 2 2.86z"/><path class="cls-14" d="M704.05 142.1c-4.21-8.69-13-15.35-12.11-25.88a1.27 1.27 0 00-1.33-1.44 1.38 1.38 0 00-2.44.07A71.51 71.51 0 00682 134.6c-.56 3.71-1.94 10-.84 14.13-.34.64-2.22 4.63-1.33 4.91 15.25 4.88 13.39 6.53 19.9 10.32 4 2.35 6.84 2.51 7.54-2.73a34.25 34.25 0 00-3.22-19.13z"/><path class="cls-1" d="M690.14 123.11c1.81-3.68 5.91-2.66 8 0a2.22 2.22 0 01-.65 3.25c1.65 1.82 3 4 3 6.24a2.73 2.73 0 01-2.77 2.74c-1.83.05-3.47-1.22-4.71-2.43-2.47-2.39-4.58-6.33-2.87-9.8z"/><path class="cls-3" d="M725.34 116.72c-.67-1.09-2.4-.09-1.72 1a24.09 24.09 0 012 4.54 3.59 3.59 0 01.29 2.37c-.32 1.47-1.43 1.6-2.79 1.65s-1.29 2 0 2c2.22-.08 4.75-.91 5-3.49s-1.5-5.99-2.78-8.07z"/><path class="cls-9" d="M730.68 131.58c-1.9.65-4 1.24-5.92 1.72s-5.08 1.1-7.2 1.45c-1.65.27-1.69 1-1.07 1.52 2.72 2.21 7.08 2.59 10.63 1.16 2.14-.86 4.23-2.28 4.79-4.62a1 1 0 00-1.23-1.23z"/><path class="cls-14" d="M713.47 107.66c-.46-2.28-5.62-2-7.17-1.6a9.41 9.41 0 00-6.45 6v.11a.41.41 0 00.06.42c1.53 2 4.4-1 6-1.76a16.54 16.54 0 013.83-1.26c.91-.2 2.43-.14 3.21-.7.49-.41.64-.61.52-1.21zm12.02-2.38c.94.21 2.32-.42 3.24-.59a17.46 17.46 0 014-.31c1.75.08 5.56 1.78 6.2-.67a.37.37 0 00-.1-.4.33.33 0 00-.06-.1 9.42 9.42 0 00-8.24-3c-1.58.23-6.46 2-6 4.22.13.57.35.71.96.85z"/><path class="cls-13" d="M897.46 88.83a.42.42 0 00-.24-.14 11.64 11.64 0 00-3.56-1.15 16.92 16.92 0 00-10.77 2.55c-.3.18-.17.46-.12.73.16 1 3.14.58 3.5.51a20.72 20.72 0 018.66-.25c.86.15 2.25.69 3-.12s.37-1.58-.47-2.13zm-40.13 2.07c.75.81 2.14.27 3 .11a21.11 21.11 0 018.67.25c.35.08 3.34.47 3.5-.5 0-.27.17-.55-.13-.73a16.88 16.88 0 00-10.76-2.55 11.76 11.76 0 00-3.61 1.14.45.45 0 00-.24.15c-.76.55-1.23 1.23-.43 2.13z"/><path class="cls-1" d="M324.28 235c-.69-4.65-5.13-5.57-8.78-3.56-5.3 2.93-8.94 8.59-13.23 12.73a177.88 177.88 0 01-17.16 14.18c-5.76 4.31-11.6 8.52-17.21 13-.42-.5-.82-1-1.21-1.47-5.08-6.25-23.22-33.83-29.94-33.59-3.17.11-7.4 6.19-10.37 7.21-1.9.65-3.16 1.31-3.86 3.29a2.29 2.29 0 001.1 2.88c0 .06 0 .11.07.16a125.13 125.13 0 0013.05 20.59c4.73 6.06 9.68 12.71 15.56 17.69.83.69 6.92 7 14.48 6.76 8.78-.22 19.34-7.18 23.18-10.75 10.42-9.67 19.17-21.58 26.85-33.48 2.65-4.07 8.25-10.36 7.47-15.64z"/><path class="cls-21" d="M154.48 180.73c-10.76-7.57-22.49 11.81-29.95 16.41a16.54 16.54 0 01-10 2.58c-2.39-.08-4.82-.22-6.92 1.17-4.5 3-6.71 10.57-8.05 16 5.45-1.41 10.62-4.85 15.36-7.11a48 48 0 0115.13-4.3c5-.57 10 .2 15.07-.12a25.77 25.77 0 003.94-.57c6.27-6.51 13.94-18.09 5.42-24.06zm164.65 150.63c-5.32-.2-10.64.83-16 .74-7.58-.12-13.09-2.61-19.63-6.13a48.25 48.25 0 00-17.56-5.1c-6.56-.79-14.4-.15-18.3-6.52-3.32-5.42-4-11.69-8.35-16.62a17.21 17.21 0 00-13.94-6.1 3.13 3.13 0 00-1.7 5.58c-2.41 2.32-5.2 4.26-7.39 6.81a21.83 21.83 0 00-5 13.37c-.5 9.8 3.48 20.41 8.47 28.7a48.89 48.89 0 007.54 9.68c7.31 3 15.52 2.23 23.39 1 12.07-1.92 24.11-3.68 36.31-4.65 11.42-.9 22.84-.84 34.28-1.37a93.7 93.7 0 0010.9-1.06 14.88 14.88 0 001.16-4.13c1.2-9.01-6.02-13.88-14.18-14.2z"/><path class="cls-22" d="M258.94 266a15 15 0 001.44-4.67c-1.67-2.29-3.51-4.79-5.42-7.31a2.74 2.74 0 00-.43 1.72q.06 1.07 0 2a2.92 2.92 0 00-3.46.49c-.16.17-.3.35-.46.53a2.39 2.39 0 00-.89.44c-1.07.82-2.07 1.65-3 2.54a2.49 2.49 0 00-1.48.26 3 3 0 00-4.35-.19 21.47 21.47 0 00-2.33 2.52 2.93 2.93 0 00-3.33 2.06c-.16.46-.32.92-.47 1.38.65.88 1.3 1.75 2 2.61 4.15 5.32 8.47 11.1 13.45 15.8 1.19-4 1.26-9 3-12s4.21-5.18 5.73-8.18z"/><path class="cls-1" d="M120.06 224.94a.81.81 0 00-.1-.09 2.07 2.07 0 00-3-2.13q-12.82 7-25.58 14.08c-5.41 3-11.55 5.75-17 9.13-.21-.71-.44-1.43-.67-2.16-1.69-5.25-8.45-32.62-10.9-42.63a12.83 12.83 0 003.32-4.1c1.1-2.22 2.33-4.81 2.51-6.94a30.07 30.07 0 011.27-7.59c.32-.93 1.09-2.16.39-3.13-1.75-2.38-3.93 2.62-4.38 3.62-.52 1.14-1 2.31-1.4 3.5a35 35 0 01-1.94-7.62c-.44-4.53-1.5-13.28-3-17.62a1 1 0 00-2 .26c-.17 2.41.51 16.16-.12 17.86q-.4-6.91-1.33-13.78c-.38-2.82-.13-6.77-2.67-8.59a1 1 0 00-1.5.86c-.31 5.8.89 11.45 1 17.22a35.36 35.36 0 01-.21 4.36c-.28 2.48-.72 3.14-1.64-1.11 0 0-1.05-11.27-2.75-16a1 1 0 00-1.92 0c-1.24 3.52-.35 7.31 0 10.94.21 2.07.42 4.14.48 6.22 0 1.18 0 3.45-.19 3.42-.28-1.59-1.11-3-1.34-4.59-.42-2.91-.33-7.69-2.69-9.75a1 1 0 00-1.71.7 61.78 61.78 0 003.84 20.75C46.57 194.55 50 198 52 202.2c1.09 14.18.56 19.26 1.92 34.93.91 10.51-.88 30.89 10.88 34.93 6.63 2.27 64.09-24.34 64.24-30.64.19-6.74-4.56-11.97-8.98-16.48z"/><path d="M215.41 197.69a19.18 19.18 0 00.4-2.63 2.07 2.07 0 00-2.11-2.37c.08-.27.17-.54.24-.81a2.39 2.39 0 00-1.09-2.7l.42-1.25a2.28 2.28 0 00-1.73-3c.17-.47.35-.95.53-1.42a2.27 2.27 0 00-2.15-3 2.39 2.39 0 00-1.79-1.39c-1-1.23-3.25-.86-4.15.4-4 5.56-8.7 15.35-8.59 22.3a2.46 2.46 0 001.42 2.18c-.3 1-.6 1.94-.88 2.92-.51 1.79 1.47 3.76 3.2 3.07a3.1 3.1 0 001.86.31 3.88 3.88 0 001.46-.59 2.49 2.49 0 003.2.49 2.32 2.32 0 002.74.16 8.93 8.93 0 001.46-1.36 2.4 2.4 0 003.35-.87c.24-.46.46-.91.68-1.37l.18-.21a14.25 14.25 0 002.28-6.06c0-.22.07-.44.1-.67a2 2 0 00-1.03-2.13z" fill="#f5a85b"/><path class="cls-2" d="M232 420.6c.06-.35.11-.71.16-1.1a204.42 204.42 0 001.63-21.4 210.54 210.54 0 00-2.96-40.1 213.91 213.91 0 00-13.43-46.22 2.8 2.8 0 00-3.7-1.29 497.81 497.81 0 00-67 2.38c-.17 0-.31.06-.46.09-1.26 0-2.45.7-2.29 2.15.27 2.32-2.11 5.69-3.08 7.77q-1.31 2.78-2.52 5.56-2.82 6.45-5.19 13.05A208.64 208.64 0 00121 420.6z"/><path class="cls-11" d="M150.8 334.09a88.44 88.44 0 0125.12 5c7.64 2.8 14.36 7.91 22.28 9.91a36.3 36.3 0 0020-.44 22.57 22.57 0 009.47-5.93 217.06 217.06 0 00-7.08-22.91c-4.79-1.76-10.35-1.5-15.32-1.54l-27.41-.18c-3.83 0-23.09-1.3-35 1.07-.68 1.39-1.52 2.76-2 3.8-.86 1.84-1.7 3.7-2.52 5.56-.37.86-.72 1.74-1.08 2.6 4.08 2.33 8.74 2.76 13.54 3.06z"/><path class="cls-6" d="M247.77 231.59c-3.76-7.33-8.6-14.5-16-18.52-8.86-4.8-15.49-9.64-25.35-11.3-10.94-1.85-20-1.11-31.06-.39a3 3 0 00-1.69-.56 95.83 95.83 0 00-39.72 7.25c-6.46 2.68-20.07 9.85-25.78 13.9-4.08 2.9-4.57 2.21-4.51 7.79.08 7.24 4.94 18.38 6.26 25.51 1.08 5.83 3.27 4.15 8.74 3.47 2.76-.35 12.76-2.6 13.64-3.22 0 0 .63 11.91.93 15 .71 7.42.11 14.9-.57 22.3-.64 7-2.83 15.73 1.26 22.05 3.73 5.77 11.71 9.29 18.25 10.73 1.57.35 24.91 3 29.84 2.94a168.76 168.76 0 0029.25-2.54c7.82-1.47 10.73-1.89 16.9-7.11 6.53-5.52 2.5-44.31 2.25-46.75s12.6-5.11 16.13-7c6-3.2 14-3.89 13.7-11-.17-3.91-10.33-18.37-12.47-22.55z"/><path class="cls-5" d="M206.31 201.72c-10.94-1.84-20-1.1-31.07-.38a2.89 2.89 0 00-1.68-.56h-1a2.22 2.22 0 00-.91 1.38 44.41 44.41 0 00-1.26 13.29c.4 5.9 2.19 11.17-3.83 14.75a30.24 30.24 0 01-13.94 4.28c-4.89.23-9.78-.64-14.67-.21-15.09 1.3-17.9 15.37-26.76 24.51 1.36 1.34 3.57.41 7.32-.06 2.77-.35 12.77-2.6 13.64-3.23a12.12 12.12 0 014.13-.87c7.73-.22 14.44 1.6 22.09-.83 6.84-2.16 10.78-6.66 14.15-10.66 4.38-5.19 16-4.83 18.86-11.59 1.34-3.1 1.55-6.43 2.32-9.68a16.82 16.82 0 017.16-10.56c3.14-2.23 9.16-4.29 10.48-8.39a42.08 42.08 0 00-5.03-1.19zm53.59 54.65c-2-3.2-5.56-5-8.92-6.38-6.75-2.86-10.33-5.79-14-12.05-1.65-2.79-4.12-5.44-7.66-5.07-3.19.33-5.22 3-5.57 6.07-.62 5.46 2 12 3.2 17.24s2.29 10.41 3.44 15.62c.85-2.39 12.7-4.85 16.07-6.63 5.29-2.83 12.14-3.71 13.44-8.8z"/><path class="cls-2" d="M244.24 220.81c-1-8.59-1.67-17.25-3.45-25.72-1.86-8.9-4.86-17.52-7.69-26.15a160.63 160.63 0 01-7.51-32.44c-.85-7.64-2.09-15-6.38-21.36a1.93 1.93 0 00-.26-1.08c-7.36-13.18-24.22-17.54-38-12.77-13.53 4.67-23 16.92-27.39 30.14-2.77 8.28-3.78 17.08-4 25.77-.23 10 1.62 20.39-.34 30.27-1.75 8.82-6.34 16.61-7.53 25.63s-1.4 18.33-2 27.46a2 2 0 002 2l25.31-1.49c3.83-.23 13.27 1.18 15.31-3.32 1.1-2.43.27-6.27-.31-8.7-5.63-23.91-4.64-25.92-5.8-34.24-1.18-8.55-1.35-17.93.45-26.47 1.72-8.12 6.1-15.62 11.21-22.07.72-.9 1.48-1.75 2.26-2.58a143.84 143.84 0 007.72 16.4 95.15 95.15 0 018.73 26.6c1.86 9.87-3.18 6.4-1.37 16.28.83 4.49 3.64 21.58 4.47 26.06.48 2.65.33 7.19 2.87 8.94s12.23 1.67 15.16 1.41c4.72-.42 9.85-.45 14.48-1.43 2-.44 3.1-1.19 3.46-3.27.75-4.06-.95-9.78-1.4-13.87z"/><path class="cls-11" d="M226.46 177.75c-.41-8.86-3.84-17.38-4.58-26.27-.27-3.19-5.27-3.21-5 0 .17 2.05.42 4.08.73 6.09-1.18-1.42-4-1.45-4.37.72a2.15 2.15 0 00-1.91 1.74l-.06.26a2.57 2.57 0 00-1.46 1.48c-.46 1.27-.89 2.55-1.3 3.83a2.08 2.08 0 00-.94 1.48l-.87 4.92c-.62 2.5-1.14 5-1.59 7.58.58 2.33-1.63 13.52.18 23.4.78 4.3 3.4 20.17 4.34 25.43a22.36 22.36 0 003-5c3.28-7.48 2.71-16 5.54-23.66s8.69-13.41 8.29-22zm-54.55 17.74c.75 1.69 3.62 6.49 5.27 7.92-.33-3-.45-5.33-.9-8.6a81.6 81.6 0 010-23.87 39.35 39.35 0 00-1.69-3.68c-2.16-4.09-5.38-10.91-9.58-13.27a2.52 2.52 0 00-2.53 0l-.15.12a41.22 41.22 0 013.76-8.75c1.62-2.79-2.7-5.31-4.31-2.52-5.42 9.32-8.32 22.18-3.26 32.2 2.4 4.75 6.14 8.64 9.22 12.93a41 41 0 014.17 7.52z"/><path class="cls-1" d="M205 203.39c.48-6 .33-22.48 1.7-31 .11-.27-32.14-2.45-32.08-1.51.35 5.76 1.77 30.57 2.56 32.42 1.11 2.59 7.73 4 10.17 4.34 7.44 1 17.47-2.59 17.65-4.25z"/><path class="cls-3" d="M204 175.28a78.61 78.61 0 01-18.33 2.72c-3 .07-7.62-2-10.74-.62.21 3.44.47 7.61.75 11.6 5.09 4.3 12.13 6.91 18.23 4.88a27.69 27.69 0 0011.23-7.49l.39-.43c.16-4 .39-8 .78-11.29-.81.18-1.64.44-2.31.63z"/><path class="cls-1" d="M217.47 155.17c1.15-6.5 1.9-13.56 1.17-20.16-.69-6.25-6.33-9.37-11.61-11.69-6.51-2.85-11.06-11.74-18.05-9.92-4.9 1.28-10.71.24-15 4.18-1.71-.65-7.21 12.66-7.43 15.11-1.11 12.56-3.81 27.19 2.75 38.8a34.35 34.35 0 0012 12.16c5.13 3 8.65 3.27 14.37 1.61 6.23-1.82 10.59-6.4 14.86-11.12 4.4-4.93 5.81-12.61 6.94-18.97z"/><path class="cls-2" d="M179.29 147.73c-.18 1.64-1.14 2.88-2.14 2.77s-1.66-1.53-1.48-3.17 1.14-2.87 2.14-2.76 1.67 1.53 1.48 3.16zm27.3 1.27c-.18 1.64-1.13 2.88-2.13 2.78s-1.67-1.52-1.5-3.16 1.13-2.88 2.13-2.78 1.67 1.54 1.5 3.16z"/><path class="cls-2" d="M221.63 134.59a26.17 26.17 0 00-2.57-6c-1.31-2-3.84-3.26-5.18-5.15a1.78 1.78 0 00.68-1.52 9.88 9.88 0 00-1.19-4.61 2 2 0 00-3.42 0 2.14 2.14 0 00-.55-.26 17.05 17.05 0 001.94-2.47c1.4-2.18-2.06-4.19-3.45-2a13.39 13.39 0 01-2.15 2.56 2.28 2.28 0 00-2.28.84 2.3 2.3 0 00-.17-.48 2.61 2.61 0 00-.17-.28 2.07 2.07 0 00-2-2.31c.46-1.3-1.12-2.79-2.54-2.55l-1.24.22a2 2 0 00-1.12-.3c-3.61.1-6.8 1.29-10.27 2.1-1 .23-1.68.41-2.17.55.07-.1 0-.21-.14-.32-.47-.28-.71-1-1.34-1.26-1.89-.87-4.32.69-6 1.41a69.62 69.62 0 00-10.76 5.87 2 2 0 001.54 3.66c.55-.14 1.08-.31 1.6-.49-2.43 2.25-4.85 4.52-7.29 6.77a1.76 1.76 0 00.18 2.85l-.85.32a2.24 2.24 0 00-1.34 2.51c-1.31.39-1.37 4.11-.09 5.32 6.8 6.45 19.57-3 26-6.83 5-2.92 9.75-6.27 14.78-9.14 1.35-.77 2.67-1.52 3.94-2.32a30.61 30.61 0 007.45 11.72c5.62 5.83 7.68 12.86 9.53 20.54.56 2.29 3.78 1.63 3.93-.53.45-6.41-1.23-12.44-3.29-18.42z"/><path class="cls-3" d="M192.13 160.46c-.83 0-2-.16-2.47-1s.12-2 .33-2.74c.41-1.49.83-3 1.24-4.47a1 1 0 00-1.93-.53c-.65 2.35-2.2 5.56-1.62 8 .51 2.16 2.48 2.66 4.45 2.75 1.28.05 1.28-1.95 0-2.01z"/><path class="cls-2" d="M211.18 137.6a14.29 14.29 0 00-8.24-1.76c-1.78.14-5.25.4-6.24 2.28a.62.62 0 000 .5c.59 1.38 4.06.82 5.54.83a41.84 41.84 0 0110.29 1.47c.31.09.53-.19.54-.51a3.41 3.41 0 00-1.89-2.81zm-40.35 1.02c0 .31.16.61.48.57a41.59 41.59 0 0110.39-.28c1.48.15 4.86 1.11 5.6-.19a.59.59 0 00.08-.5c-.76-2-4.19-2.64-5.94-3a14.33 14.33 0 00-8.39.8 3.44 3.44 0 00-2.22 2.6z"/><path class="cls-1" d="M219.05 145.81c-2.51-.12-4.25 2.63-5.34 4.5a1.67 1.67 0 00.54 2.31 23.21 23.21 0 00-2 3.81 1.6 1.6 0 00-.52 1.65c-.47 2.06 0 3.67 2.5 3.69 5.46 0 8.52-6.26 8.51-10.92-.04-2.27-1.03-4.92-3.69-5.04zm-54.27-4.04c2.51.21 3.87 3.17 4.7 5.17a1.66 1.66 0 01-.84 2.21 22.69 22.69 0 011.51 4 1.63 1.63 0 01.3 1.71c.2 2.1-.49 3.63-3 3.32-5.42-.67-7.62-7.32-7-11.94.35-2.24 1.68-4.7 4.33-4.47z"/><path d="M582 207.15c-10.63 3.45-22.11 2.7-30.87-4.74-1-.83-2.4.58-1.42 1.42 9.33 7.91 21.45 8.94 32.82 5.25 1.2-.4.68-2.33-.53-1.93z" fill="#e5e5e5"/><path class="cls-9" d="M199 168.55a104 104 0 01-16.85-.73c-1.21-.16-1.57.71-.92 1.48 2.28 2.52 5 3.85 9.3 3.85 3.85 0 7.65-.71 9.43-3.39.32-.54-.16-1.24-.96-1.21z"/><path class="cls-22" d="M218.72 151.05c-.27-1.25-2.26-1-2 .25a5.25 5.25 0 01-1.08 3.89c-.66 1.09.91 2.33 1.58 1.23 1-1.64 1.93-3.42 1.5-5.37z"/><path class="cls-19" d="M544.11 202.87c-6.51-6.57-7.86-18.13-4.19-26.49.51-1.17-1.21-2.19-1.72-1-4.06 9.23-2.73 21.63 4.5 28.92.9.9 2.3-.51 1.41-1.43z"/><path class="cls-9" d="M704.45 171.19c-.88 9.83-1.35 19.69-1.3 29.57 0 7.79.54 15.61.1 23.4-.43 7.5-1.77 14.91-2.47 22.39-1.43 15.4 2.48 30.51 1.87 45.89-.38 9.7-1.93 19.3-2.66 28.94a11.79 11.79 0 005.43-5c.76-7.67 1.82-15.32 2.19-23 .72-15.06-3.13-29.9-2-45 .54-7.17 1.83-14.27 2.43-21.44.61-7.42.27-14.84.14-22.26a318.35 318.35 0 011.18-32.84 24 24 0 01-4.91-.65zm-15.3 48.65c.69-7.75.82-15.55 1.09-23.33q.6-16.75 1.19-33.52c-.48-.58-.93-1.18-1.37-1.81a3.69 3.69 0 00-1 .06l-2.6.52-1.24 34.75c-.27 7.78-.41 15.58-1.09 23.33-.67 7.55-2.34 14.94-3.37 22.44a66.51 66.51 0 00.28 21c1.36 7.77 3.3 15.32 3.92 23.22.93 11.83.15 23.68-1 35.48 1.71.09 3.38.17 5 .23 1.15-11.88 1.94-23.8 1-35.71a168.18 168.18 0 00-3.39-20.92 67.33 67.33 0 01-.62-24.47c1.11-7.11 2.56-14.11 3.2-21.27zm39.64 5.44c.54-7.88.47-15.79.51-23.68q.11-19.41.19-38.83a26.6 26.6 0 01-5 4.51l-.16 33.34c0 7.89 0 15.8-.45 23.67-.51 8.19-2.12 16.24-2.82 24.4-1.29 15.12 2 30.18 2.89 45.24a253.34 253.34 0 01.16 26.86 8.33 8.33 0 004.91 2.06 258.2 258.2 0 000-28c-.86-15.37-4.27-30.77-3-46.2.69-7.8 2.23-15.52 2.77-23.37zm-54.85-60.56c-1.71.49-3.41 1-5.09 1.62-.6 9.9-1.94 19.76-1.71 29.69.36 15.25 3.3 30 2.24 45.34s-4 30.44-5.1 45.75c-.82 11.16 0 22.59-2 33.58.38 0 .77.07 1.18.09 1.18 0 2.48.11 3.85.19 1.69-10.17 1.17-20.66 1.77-31 .92-15.66 3.93-31.09 5.15-46.71 1.21-15.39-1.39-30.07-2-45.36-.5-11.1 1.15-22.13 1.71-33.19zM648.87 206c-.07 3.59-.06 7.17 0 10.74l5-.37c-.05-3.45-.06-6.91 0-10.37.25-11.59 2.43-23 2.81-34.57q-2.53 1.11-5.1 2.21c-.58 10.78-2.49 21.5-2.71 32.36zm-17.72-8.4c0 6.85-.37 13.65-.92 20.45l5.06-.34c.51-6 .9-12.1.88-18.18a205 205 0 011-20.51c-1.73.57-3.46 1.11-5.2 1.64-.55 5.6-.85 11.23-.82 16.93zm113.07-40.82c-1 11.18-.41 22.52-.14 33.81a187 187 0 01-1.1 26.24c-1.06 9.09-2.54 18.17-2.42 27.35.11 8.91 2.12 17.61 2.8 26.47s-.15 17.53-.68 26.28a121.83 121.83 0 00.69 24.89l.06.47 5-.26a128.14 128.14 0 01-.83-24.16c.51-8.75 1.4-17.5.82-26.27-.57-8.55-2.52-16.95-2.84-25.52-.64-17.31 3.77-34.39 3.55-51.75-.16-12.83-1.19-25.75.18-38.46q-2.53.48-5.09.9zM806 153a45.59 45.59 0 01.9-6.29h-.14c-1.68.34-3.37.61-5.06.87a37.05 37.05 0 00-.75 7.14c.05 7.27 2.15 14.22 1.59 21.57a113.18 113.18 0 01-2.22 14.18c1.94-.78 3.89-1.55 5.83-2.34a107.17 107.17 0 001.53-14.39c.19-6.95-2.11-13.74-1.68-20.74zm24.1 19.47c-.93-6.8-2.81-13.27-4.2-20a41 41 0 01-.59-10.36l-5.15 1.39a42 42 0 00.12 5.26c.55 5.94 2.62 11.67 3.76 17.51a118.75 118.75 0 011.76 12.61q1.47-.85 2.91-1.77l1.8-1.14c-.15-1.13-.27-2.31-.43-3.48zm-69.17-19a154 154 0 00-.63 31.05 95.39 95.39 0 01-.8 25.2c-1.4 7.79-2.69 15.42-2.64 23.37.11 16.57 3.84 32.87 4.8 49.39a218 218 0 01-1.17 38.4c.83-.28 1.49-.55 1.5-.56 5.08-5.72 2.4-15.46 2.57-22.58q.35-14.29.67-28.59v-.77c-1.29-10.49-2.89-20.94-3.3-31.5-.63-16.52 4.9-32.21 3.65-48.74a175.52 175.52 0 01.56-35.75c-1.74.36-3.49.72-5.23 1.09zm23.07 5.92a49.33 49.33 0 01.62-9.8c-1.71.18-3.42.38-5.13.59a47.17 47.17 0 00-.54 8.32c.3 7.75 1.58 15.43 1.89 23.2q.33 8.72-.09 17.41c1.68-.88 3.39-1.71 5.11-2.52q.23-6.48 0-13c-.17-8.1-1.38-16.11-1.86-24.2z"/><path class="cls-11" d="M501.56 260.3c1.66-3.19 12-3.5 15-5.41 4.84-3.14.33-10.94-4.54-7.77-5.18 3.36-15.86 24.3-16.71 26.61-4.26 11.52-4.44 23.86-4 36 .19 5.78.51 11.56.46 17.35-.06 6.7-1.74 10.64-5.92 15.74-3.11 3.79-5.86 7.57-6.8 12.49-1 5.1-.24 10.55.56 15.62a28.8 28.8 0 001.81 6.53q16.56-.88 33.21-.51c3.33.08 4.47-3.16 3.45-5.45.64-19.84 13.15-21.69 10.08-33.2-7.91-29.43-21.85-71.62-26.6-78z"/><path class="cls-22" d="M166 147.46c.25-1.26-1.68-1.8-1.93-.53a13 13 0 000 5c.24 1.26 2.17.73 1.93-.53a10.45 10.45 0 010-3.94z"/><path d="M614 318.65a1.54 1.54 0 00-1.69-.83 302.86 302.86 0 01-59.67 1.86 1.84 1.84 0 00-.94.17l-5.68-.61a2 2 0 00-1.93 1.47c-3.24 9.91-6.7 19.82-9.7 29.86h.64c9.39.17 19.17-5 27.88-8 3.84-1.32 9.36-3.72 13.17-1.13 3 2 3 6.82 5.42 9.46 2.58 2.79 6 3.19 9.6 3.35 5.53.24 11.07.41 16.61.62 4.2.15 10.25 1.25 15.51.7-2.57-11.66-4.87-23.33-5.85-35.43a2.15 2.15 0 00-3.37-1.49z" fill="#d47955"/><path class="cls-11" d="M176.63 129.71c-3.57 2.86-7.28 5.72-12 6.22-1.27.14-1.28 2.14 0 2 5.28-.57 9.35-3.58 13.38-6.81 1.04-.8-.39-2.21-1.38-1.41zm-11.89 3.13a33.27 33.27 0 003.74-3.38c.89-.93-.52-2.34-1.41-1.41a35.32 35.32 0 01-3.75 3.38 1 1 0 000 1.41 1 1 0 001.42 0zM151 197.17c-2.38 5.32-4.63 10.67-5.45 16.48s-1 11.84-1.48 17.73c-.1 1.29 1.9 1.28 2 0 .42-5.5.66-11.06 1.34-16.54.74-5.91 2.9-11.25 5.32-16.66.52-1.18-1.21-2.18-1.73-1.01zm.3 25.58a55.23 55.23 0 00-1.46 14.89c0 1.29 2 1.29 2 0a53 53 0 011.39-14.36c.29-1.28-1.63-1.79-1.93-.53zm75.77 1.78a34.14 34.14 0 011.48 10.47 1 1 0 002 0 36.06 36.06 0 00-1.55-11 1 1 0 00-1.93.53zm7.46-22.53a1 1 0 00-1.93.53 114.35 114.35 0 013.87 28.62 1 1 0 002 0 116.73 116.73 0 00-3.94-29.15z"/><path class="cls-8" d="M555.56 316.64c-.87-7.18-2-14.3-3.6-21.36a161.11 161.11 0 01-3.53-48.76c1.33-16.6 4.21-33 5.84-49.6.13-1.36-1.33-1.75-2.26-1.19a1.59 1.59 0 00-.43 0 84 84 0 00-33.53 15l-9.12 4.76c-2.32 1.21-5.33 2.26-6.84 4.55-2.57 3.9-1.34 11.06-1.5 15.46-.3 8.47-.59 18.2 1.54 26.49.66 2.6 5.55 6.5 8.62 7.88-.14 2.1-4.28 41.66-3.37 50 1.7 15.68 6.64 10.06 9 25.62a1.49 1.49 0 001.84 1c7.3-3 11.84-5.2 19.58-6.88 5.28-1.15 13.44-1.62 17.64-5.46 1.44-1.3 1.48-2.66 1.51-4.51.1-4.18-.88-8.81-1.39-13z"/><path class="cls-11" d="M352.86 239.85v.28l.28-12.53c.1-4.53 1.84-12-1.35-15.9-7.85-9.47-21.11 1-28.08 5.63-11.59 7.69-26.54 7-39.38 11.48-6.8 2.35-12.94 6.93-15.19 13.33 6.93-1.71 13.16-1.15 20.46.49s14.48 3.65 21.91 3.33c6.93-.29 12.94-3.24 19.42-5.05.06-.09.14-.17.2-.26l-.1.23c1-.28 2.05-.54 3.1-.75 6.16-1.24 12.48-.98 18.73-.28z"/><path class="cls-8" d="M656.7 217a4.22 4.22 0 00-.8-.83 2.63 2.63 0 00-1.74-1.17c-10.27-2.22-15.49-4.07-25.24-8-8.83-3.55-16.64-9-29.4-10.1-.65-.1-1.3-.2-1.94-.28-2-.25-2.67.37-2.58 1.77A837.3 837.3 0 01592.46 338a1.52 1.52 0 001.5 1.5l36.81-.52a1.54 1.54 0 001.5-1.5c.12-3.84-.62-7.64-.45-11.46s1.67-7.51 2.59-11.3c1.58-6.57 1.89-13.37 2.3-20.09.81-13.22 1.52-26.48 1.3-39.73 6.75.74 13.11.89 20.65 1.14 1.68.03 1.01-34.93-1.96-39.04z"/><path class="cls-3" d="M698.23 129c-1-.63-2.38-1.59-2.07-3s-1.66-1.79-1.93-.53c-.52 2.36 1.13 4.07 3 5.23 1.08.75 2.09-.98 1-1.7z"/><path class="cls-12" d="M1044.44 58.81c-2.92-2.39-8.09-8.83-12.54-7-1.88.77-3 2.76-4.16 4.28a46.32 46.32 0 01-4.29 4.76 27.69 27.69 0 00-21.65 5.84c-5.74 4.65-9.27 11.27-13.63 17.1-3.11 4.15-6.78 7.89-11.82 9.55s-10 2-14.73 4.13a40.19 40.19 0 00-11.62 7.87c-4.34 4.21-11.46 11.14-17.16 12.29-6.34 1.29-12.93 1.87-18.19 6.14-6.3 5.12-8 15.9-17 17.17-1 .14-2.15.17-2.7.7-.73.71-.82 1.51-.87 2.82-.71 18.91-3.64 37.23-2.16 56.22 1.43 18.33 4.6 36.53 4.57 54.95 0 19-3 37.76-3.82 56.68-.73 16.47-.34 34.95 6.28 50.36 2.9 6.77 11 2.94 16.62 1.92l31.02-5.59a1.74 1.74 0 00.94-.46l.33-.21c5.26-4.21 5.56-11.9 6.49-18.08 1.26-8.36 2.13-16.79 2.55-25.24.89-17.47-.84-34.65-2-52-2.19-32.27 1.75-65.65 18.42-93.93a2.08 2.08 0 00.26-.73c6.67-6.77 13.52-13.49 21.59-18.56 7.6-4.77 17.41-5.86 24.27-11.68s7.63-13.73 9.45-21.93c1.19-5.31 3.57-8.7 7.67-12.22a24 24 0 006.77-9 23.62 23.62 0 00.61-16.92 67 67 0 005.42-7.22c3.54-5.61-.73-8.58-4.92-12.01z"/><path class="cls-22" d="M899.45 103.3c.34 1.13.73 2.76-.41 3.59s.06 2.44 1.1 1.68c2-1.44 1.83-3.81 1.21-5.91-.35-1.23-2.27-.6-1.9.64z"/><path class="cls-10" d="M334.57 215.51c-2-3.81-4.11-7.62-5.07-11.87-1.07-4.74-.63-9.83-.6-14.65 0-3 0-6 .05-9a89 89 0 01-15 .55c0 2.81 0 5.62-.05 8.43-.06 10.81.66 20.06 5.53 29.89 3.84 7.74 7.85 14.44 9 22.86a53.42 53.42 0 015.81-1.57 46.74 46.74 0 019-.86c-1.24-8.54-4.5-16.01-8.67-23.78zm-32.47 6.65c-2.08-9.07.36-18.75.18-27.93a85.65 85.65 0 00-1.35-13.48c-5.08.26-10.09.73-15 1.47a74.55 74.55 0 011.32 17.33c-.43 10.32-2 20.76 1.72 30.7 1.75 4.62 4.31 8.83 6.21 13.36.05.12.1.23.14.35 5.36 1.22 10.8 2.28 16.3 2h.19a82 82 0 00-4.39-11.5c-1.95-4.04-4.3-7.88-5.32-12.3z"/><path class="cls-11" d="M308.18 95.24c-1.36-7.16 2.38-14 .92-21.14-.26-1.26-2.19-.73-1.93.53 1.33 6.54-2 12.72-1.23 19.27.56 5 2.17 9.14 2.41 13.86a10.17 10.17 0 002 .56c-.1-4.42-1.29-8.42-2.17-13.08zm6.82-8.01c-.14-1.27-2.14-1.28-2 0a14.82 14.82 0 01-.87 7.07c-.45 1.2 1.48 1.72 1.93.53a16.13 16.13 0 00.94-7.6zm-69.08-6.32a106.86 106.86 0 005.23-11.16c.43-1.21-1.5-1.73-1.93-.53-1.91 5.31-5.12 10-7.07 15.29-1.61 4.36-1.63 8.59-1.11 13a13 13 0 002 .37 28.2 28.2 0 012.88-16.97zm210.99 73.42c-5.87 8.51-14.55 19.07-25.43 20.57-1.27.17-.73 2.1.53 1.93 11.47-1.58 20.45-12.54 26.62-21.5.74-1.06-1-2.06-1.72-1zm-11.47-9.44a36.9 36.9 0 01-6.6 8c-.95.87.47 2.28 1.42 1.41a38.06 38.06 0 006.9-8.43 1 1 0 00-1.72-.98zm-29.03 29.28a60.42 60.42 0 01-27-7c-1.14-.6-2.15 1.13-1 1.73a63 63 0 0028 7.29 1 1 0 000-2.02zM516.48 374c-3.4-.75-7-.3-10.39.06q-8.2.87-16.4 1.93c-11 1.44-22.05 3.13-33 5-11.46 1.95-50.8 6.67-57.88 8.33a38.52 38.52 0 00-10 3.37q.76 6.6 1.51 13.2c7.42 1.11 14.93-.56 22.25-2.54a274.89 274.89 0 0131.86-7 139.75 139.75 0 0117.07-1.81c5.87-.13 9.87 2.1 15 4.42 7.74 3.48 16.41 3.75 24.62 1.93a61.66 61.66 0 0011.42-3.6q2.1-11.64 3.94-23.29z"/><path d="M656.7 217.06a3.9 3.9 0 00-.8-.82 2.6 2.6 0 00-1.74-1.17 120.74 120.74 0 01-18-5.17c-8.37 5.37-15.13 12.45-12.44 23.35 1.3 5.25 2.09 9.64 1.33 15.08-.58 4.13-1.53 8.2-2 12.35a41.23 41.23 0 0013.58 35.16c0-.39.05-.78.07-1.17.64-10.48 1.22-21 1.32-31.49a7.64 7.64 0 018-7.59c4 .23 7.25 2.09 12.6.49 1.65-.48 1.05-34.91-1.92-39.02z" fill="#73a8bf"/><path class="cls-11" d="M712.36 375c-1.27-5.6-5-12.46-11-14-6.25-1.64-10.29 4-11.25 9.42-.61 3.45-.24 7.29-1.61 10.55s-4.58 5.17-6.75 7.85c-4.72 5.83-5 13.54-6 20.68-.46 3.29-1.39 7.4-1.63 11.11h24.43c2-3.48 3.68-8.12 5.27-11.58 3-6.66 6.75-19.33 9.36-26.17v.17a37.25 37.25 0 00-.82-8.03z"/><path class="cls-4" d="M1043.93 78a67 67 0 005.42-7.22c1.55-2.45 1.61-4.4.83-6.1-2.28-1.81-4.75-3.34-7.38-3.63-4.89-.53-7.93 2.66-8.62 7.24-1 6.55-5.08 9.38-10.1 13.29a35.29 35.29 0 00-10.23 11.74 40.23 40.23 0 00-3.69 14c-.6 5.38-.44 12-4.7 16-3.83 3.61-9.58 4.82-14.2 7.12a44.64 44.64 0 00-12.61 9.09c-6.76 7.17-10.6 17.68-7.68 27.42a20.48 20.48 0 001.48 3.65c.29-.5.57-1 .86-1.5a2.08 2.08 0 00.26-.73c6.67-6.77 13.52-13.49 21.59-18.56 7.6-4.78 17.41-5.86 24.27-11.69s7.63-13.72 9.45-21.92c1.19-5.31 3.57-8.7 7.67-12.22a24 24 0 006.77-9 23.62 23.62 0 00.61-16.98z"/><path class="cls-11" d="M410.17 363.23c-10.1.35-20.17.85-29.83 4.11-1.21.41-.69 2.34.53 1.93 9.49-3.2 19.38-3.7 29.3-4 1.29-.09 1.29-2.09 0-2.04zm76.41-15.49a300 300 0 01-43.42 9.83c-1.27.19-.73 2.12.53 1.93a299.71 299.71 0 0043.42-9.83c1.23-.38.71-2.31-.53-1.93z"/><path class="cls-21" d="M285.73 128.53a40.64 40.64 0 01-20.28-.79c-6.12-1.86-13.84-5.51-17.1-11.3a1 1 0 00-1.73 1c3.31 5.87 10.67 9.62 16.82 11.74a42.77 42.77 0 0022.82 1.27c1.26-.26.74-2.18-.53-1.92zm13.54-9.53a19 19 0 01-8.51 7.67c-1.16.53-.15 2.26 1 1.72A20.75 20.75 0 00301 120a1 1 0 00-1.73-1z"/><path class="cls-2" d="M514.54 247a80.13 80.13 0 01-7.93 15.61c-.71 1.08 1 2.08 1.73 1a82.32 82.32 0 008.12-16.09c.46-1.25-1.46-1.77-1.92-.52zm119.83-5.91c-3-6.81-6.5-13.61-8.93-20.66-.42-1.21-2.36-.69-1.93.53 2.49 7.23 6 14.16 9.14 21.14.52 1.18 2.24.16 1.72-1.01zm.04 5.8q-3.87-3.63-7.76-7.24c-.94-.87-2.36.54-1.42 1.42l7.77 7.23c.94.88 2.36-.53 1.41-1.41z"/><path class="cls-11" d="M184.76 382.62a93 93 0 00-8 20.28 1 1 0 001.93.53 90.71 90.71 0 017.79-19.8c.61-1.14-1.12-2.15-1.72-1.01zm-33.55-63.23a69.53 69.53 0 00-2.6-6.92c-.51-1.17-2.23-.16-1.72 1a68.25 68.25 0 012.39 6.44c.39 1.23 2.32.71 1.93-.52zm6.93-5.77q-.67 3.12-1.37 6.25c-.28 1.25 1.65 1.79 1.93.53.45-2.08.91-4.17 1.37-6.25.28-1.25-1.65-1.79-1.93-.53z"/><path class="cls-2" d="M78.47 206.14a37.24 37.24 0 00-5.71-11.87c-.74-1-2.48 0-1.72 1a35.77 35.77 0 015.5 11.39 1 1 0 001.93-.52zM82.88 184A109.49 109.49 0 0076 194.31a1 1 0 001.73 1A107.58 107.58 0 0184.61 185c.78-1-.96-2-1.73-1zm5.9 14.17c-3-.4-5.9-.67-8.87-.82-1.29-.06-1.28 1.94 0 2 3 .15 5.92.42 8.87.82 1.27.17 1.22-1.83 0-2zM334.65 328a107.45 107.45 0 01-33.24 6.31c-1.29 0-1.29 2 0 2a109.36 109.36 0 0033.77-6.38c1.21-.48.69-2.41-.53-1.93z"/><path d="M691.83 139.92c-4.15-.9-10.36-3.7-11.67-8.2a1 1 0 00-1.93.53c1.52 5.21 8.18 8.54 13.06 9.6 1.26.27 1.8-1.65.54-1.93zm-.66 5.62a28.33 28.33 0 01-8.27-3.07c-1.13-.63-2.14 1.1-1 1.73a30.12 30.12 0 008.75 3.27c1.24.25 1.78-1.67.52-1.93zm50-10.57a12.36 12.36 0 01-3.42 7.15c-.89.93.52 2.35 1.41 1.42a14.64 14.64 0 004-8.57c.14-1.28-1.87-1.27-2.02.03zm-3.3-44.09a12.51 12.51 0 00-3.45-6.72 1 1 0 00-1.42 1.42 10.57 10.57 0 012.94 5.84c.18 1.26 2.11.72 1.9-.54zm-51.09 4.93a11.79 11.79 0 012.45-6.19c.78-1-.63-2.43-1.42-1.42a14.34 14.34 0 00-3 7.61c-.18 1.28 1.82 1.27 1.94 0z" fill="#7a5222"/><path class="cls-2" d="M712.41 190.89a1.5 1.5 0 000 3 1.5 1.5 0 000-3zm.75 28.25a1.5 1.5 0 000 3 1.5 1.5 0 000-3zm.5 28a1.5 1.5 0 000 3 1.5 1.5 0 000-3zm1 30.5a1.5 1.5 0 000 3 1.5 1.5 0 000-3z"/><path class="cls-16" d="M424 76.63c-4.64 3.09-9-1.13-13.42-2.37a19.78 19.78 0 00-9.55-.13c-1.26.26-.73 2.19.53 1.93 5.81-1.21 9.73.93 14.92 2.86 3 1.11 5.83 1.24 8.53-.56 1.07-.72.07-2.45-1.01-1.73zm5.05-9.99c-1 2-2.74 4-5.06 2.3-1.05-.75-2.05 1-1 1.73a4.7 4.7 0 004.61.53 7 7 0 003.18-3.55c.59-1.14-1.14-2.15-1.73-1.01z"/><path class="cls-2" d="M833.16 276c-2.13 20.24-16.54 35.29-30.17 49.1-.9.92.51 2.34 1.42 1.42 14.06-14.28 28.59-29.71 30.75-50.52.14-1.31-1.86-1.3-2 0zm-47.75 64.49A47.37 47.37 0 00772.2 360c-.44 1.21 1.49 1.73 1.92.53a45.46 45.46 0 0112.71-18.65c.96-.83-.46-2.24-1.42-1.39zm144.39 1.16a116.53 116.53 0 01-35.73 5.06 1 1 0 000 2 118 118 0 0022.09-1.71 61.43 61.43 0 012.66 13.36c.11 1.27 2.11 1.29 2 0a64.28 64.28 0 00-2.68-13.73 121 121 0 0012.19-3c1.23-.43.67-2.36-.53-1.98zm109.83-268.49q-6.06-4.69-11.84-9.76c-1-.84-2.39.57-1.42 1.42q5.78 5.06 11.85 9.76c1.01.78 2.43-.58 1.41-1.42zM928 160.09q-7.51-7.16-14.54-14.81c-.87-.95-2.28.47-1.41 1.42q7 7.65 14.54 14.81c.97.88 2.41-.51 1.41-1.42zm-1.58 10.96q-3.39-4.63-6.52-9.44c-.7-1.07-2.43-.07-1.73 1q3.14 4.81 6.52 9.44c.76 1.03 2.49.04 1.73-1zm-362.65-30.7c-.38 1.61-1.49 2.71-2.47 2.48s-1.46-1.73-1.07-3.33 1.49-2.71 2.47-2.47 1.46 1.72 1.07 3.32zm20.69 2.32c-.38 1.6-1.49 2.71-2.47 2.47s-1.46-1.73-1.07-3.33 1.49-2.71 2.47-2.47 1.46 1.73 1.07 3.33z"/><path class="cls-3" d="M571 153.41c-.83 0-2-.16-2.46-1s.12-2 .33-2.74c.41-1.49.82-3 1.24-4.47a1 1 0 00-1.93-.53c-.65 2.35-2.21 5.56-1.62 8 .5 2.16 2.48 2.66 4.44 2.75 1.32.05 1.31-1.95 0-2.01z"/><path class="cls-2" d="M597.58 267.16a128.28 128.28 0 016.17-17.73c1.41-3.24 3.23-6.44 4.14-9.87 1.25-4.76-.17-8.12-.89-12.66-.81-5.13 3-7.48 5.11-11.59 2.68-5.3-4.81-13.2-7.9-17.47-.76-1 1-2 1.72-1 2 2.78 4 5.61 5.81 8.52 1.25 2 3.48 4.47 3.61 6.92a7 7 0 01-1.51 4c-.81 1.26-2.27 2.73-3 3.92a12.37 12.37 0 00-1.22 8.65c.45 2.76 1.26 4.72.91 7.62a31.85 31.85 0 01-2.81 8.92 154.81 154.81 0 00-8.24 22.26 1 1 0 01-1.9-.49z"/><path class="cls-18" d="M563.49 157.61a1 1 0 00-1.29 1.21c2.18 9 15.25 9.47 18.47 1 .28-.73-.33-1.21-.95-1.21-.4-.01-15.93-.93-16.23-1z"/><path class="cls-9" d="M579.44 158.59c-2.07-.1-14.29-.83-15.78-1 1 3.69 4.6 4.21 8.26 4.3 3.08.11 6.27-.49 7.52-3.3z"/><path class="cls-15" d="M590 133.73c-.13-.57-1.29-1.35-1.44-1.43-2.11-1.12-6.5-2.64-8.7-1a1.67 1.67 0 00-.37 2.43c.9 1.1 3 1 4.28 1.21s6.84 1.59 6.23-1.21zm-33.7-3.32c.25-.53 1.55-1 1.71-1.08 2.31-.64 6.92-1.18 8.71.92a1.67 1.67 0 01-.16 2.45c-1.12.88-3.18.37-4.44.25s-7.07.05-5.82-2.54z"/><path class="cls-15" d="M636.25 167c-1.91-6.4-6.06-10.37-11.4-14-4.21-2.9-7.66-6.23-9.29-11.23-1.27-3.88-1.26-8-1.84-12-1.06-7.18-4.61-13.46-11.43-16.55-5.58-2.54-9.67-1.18-13.25 2.39a23.71 23.71 0 00-4.14-1l-.33-.13a1.63 1.63 0 00-1.82-1.66l-.26-.19c.29 0 .57-.1.87-.17a1 1 0 00.48-1.63 1 1 0 00-.78-1.53c-2.16-.08-5.37-.55-7.83.1a1.11 1.11 0 00-.77-.46 3 3 0 00-2 .17.9.9 0 00-.48.33 2.69 2.69 0 00-.64.11.66.66 0 00-.24.11 1.49 1.49 0 00-2-.51l-.17.1a1.51 1.51 0 00-1.4-1 1.61 1.61 0 00-2.28-.27c-8.17 6.08-9 9.94-6.67 14.28s5.68 3.56 9.12 1.67a7.07 7.07 0 004.07 4.52c3.79 1.55 7.39-.68 9.83-3.81 1.5 3.47 5.1 5 6.11 8.51s1 9.18 4 11.73a8.2 8.2 0 002.71 1.54c.71 5.52 1.79 11 1.61 16.61-.27 8.59-3.73 17.26-2.92 25.89.54 5.79 5.52 10.79 11.06 12.36 7 2 8-5.9 13.51-7.11 3.55-.78 6.79.87 10.25-.93 2.65-1.39 4.57-4 6-6.61a26.14 26.14 0 002.32-19.63z"/><path class="cls-19" d="M604.63 187.1c-1.49-7-6.55-12.42-5.37-20 1-6.14 3.44-11.53 1.46-17.74-.38-1.22-2.32-.7-1.92.54 0 .11.05.22.08.33a44.69 44.69 0 00-3.33 3.27c.42 3.15-2.13 6-2.56 9.19-1 7.41-3.14 20-2.33 28.58.46 4.91 6.7 6.86 11.17 9a10.57 10.57 0 001-.74c3.46-3.05 2.67-8.31 1.8-12.43z"/><path class="cls-1" d="M600.4 147.59c-1.81-3.68-5.91-2.66-8 0a2.22 2.22 0 00.65 3.25c-1.65 1.82-3 4-3 6.24a2.75 2.75 0 002.78 2.74c1.82 0 3.47-1.22 4.71-2.43 2.46-2.39 4.57-6.33 2.86-9.8z"/><path class="cls-3" d="M596 150.93a1 1 0 00-1.93.54 3.09 3.09 0 01-.4 2.67c-.7 1.08 1 2.09 1.73 1a5.1 5.1 0 00.6-4.21z"/><path class="cls-19" d="M607.18 122.88c-.74-1-2.47 0-1.73 1a13.71 13.71 0 012.52 9.26c-.11 1.28 1.89 1.28 2 0a15.45 15.45 0 00-2.79-10.26zm-2.18 8.5c-.45-1.2-2.38-.68-1.93.53a9.19 9.19 0 01.54 4.64c-.18 1.26 1.74 1.8 1.93.53a11.29 11.29 0 00-.54-5.7zm-37.72-24.33a19.17 19.17 0 00-6.81 5.51c-.78 1 .63 2.43 1.42 1.41a18 18 0 016.4-5.2c1.16-.56.15-2.28-1.01-1.72zm61.25 72.07a9.39 9.39 0 01-5.65 7.48c-1.18.52-.16 2.24 1 1.73a11.21 11.21 0 006.57-8.67c.19-1.26-1.74-1.81-1.92-.54zM527 170.29a11.82 11.82 0 01-2-8.89c.21-1.25-1.71-1.8-1.93-.53a13.86 13.86 0 002.22 10.43c.71 1.05 2.43.05 1.71-1.01z"/><path class="cls-11" d="M394.65 316.19a101.67 101.67 0 008.35-29.28c.16-1.28-1.84-1.26-2 0a98.19 98.19 0 01-12 35.9q-2.13 3.72-4.57 7.25c-1.19 1.72-3 3.39-3.63 5.4-.55 1.72 0 3 .57 4.71 1.19 3.44 2.49 6.85 3.73 10.28.43 1.2 2.36.68 1.92-.54-1.09-3-2.67-6.2-3.38-9.33-1.06-4.66.59-6.66 3-10.21a97.41 97.41 0 008.01-14.18z"/><path class="cls-11" d="M491.8 284.08a26.93 26.93 0 01-4.64-6.48 1 1 0 00-1.14-.44c-27.36 7.4-55.73 8.13-83.89 8.72a1 1 0 000 2c16-.34 32.11-.68 48.09-2.3 7.26-.73 14.5-1.72 21.67-3.1 3.64-.7 7.36-2.05 11-2.44 2.79-.3 2.42-.29 4.13 1.47 1.19 1.23 2.13 2.76 3.34 4 .94.93 2.33-.51 1.44-1.43z"/><path class="cls-20" d="M275.05 22.88A71.72 71.72 0 00281 12.61a19.4 19.4 0 001.55-6.84 34.88 34.88 0 00-12.63 5.56c-7.47 5.27-10.34 13.72-16.54 19.92h-.1a2.07 2.07 0 00-1 .21c-2.62 1.28-3.35 3.23-3.9 6-.62 3.15-3.63 6.9-2.87 10.28 1.43 6.34 12.06 2 15.83 1.39 4.06-.62 15.5-2.71 33.58.54.83-12-18.08-11.85-21.87-15.18-2-1.74-2.18-3.62-1.06-6.54a31.46 31.46 0 013.06-5.07z"/><path class="cls-2" d="M277.53 29.91a124.6 124.6 0 00-13.25-.16c-1.28.05-1.29 2.05 0 2a124.6 124.6 0 0113.25.16c1.29.09 1.28-1.91 0-2zm35.87 8.15a65.4 65.4 0 00-8.82-4.21c-1.2-.46-1.72 1.47-.53 1.93a61.39 61.39 0 018.34 4 1 1 0 001.01-1.72zm31.03 121.39q-6.51-8.62-13.56-16.81c-.84-1-2.25.45-1.42 1.42q6.9 8 13.25 16.4c.77 1.01 2.5.02 1.73-1.01zm612.62 138.82a65 65 0 01-13.68-9.51c-1-.86-2.37.55-1.41 1.42a67.12 67.12 0 0015.14 10.34c-.01-.75-.03-1.52-.05-2.25zm-24.83-39c1.77-.19 7.06 7.13 8.27 8.39 5.29 5.56 10.75 10.94 15.9 16.63l-.21-3.22c-7.53-8.14-15.64-15.74-22.73-24.29a1 1 0 00-1.41 0 73.41 73.41 0 00-8.89 9.26c-.58.49-1.08.77-.65 1.44a138.15 138.15 0 0014.36 18.68c.87 1 2.28-.46 1.42-1.41a135.64 135.64 0 01-13.54-17.51c1.27-1.57 2.56-3.11 4-4.56.42-.49 2.81-3.35 3.48-3.42z"/><path class="cls-11" d="M500.84 215.14c-4.29-6.72-8.7-13.31-15.09-18.23-1-.79-2 1-1 1.73 6.09 4.68 10.29 11.11 14.38 17.51.68 1.09 2.41.08 1.71-1.01z"/><path class="cls-3" d="M1053.47 27.57c.14-1.28-1.87-1.27-2 0-.81 7.66 1.88 14.75-2 22-.62 1.13 1.11 2.14 1.73 1 4.06-7.57 1.42-14.94 2.27-23zM59.22 196.25a13.54 13.54 0 00-6.33-8.73 1 1 0 00-1 1.73 11.51 11.51 0 015.41 7.53c.27 1.22 2.19.73 1.92-.53zm-22.49 8.41a26 26 0 01-9.65.91c-1.28-.11-1.28 1.89 0 2a27.34 27.34 0 0010.18-1 1 1 0 00-.53-1.91z"/><path d="M880.84 60.66c-1.21-.43-1.74 1.5-.53 1.93 3.09 1.11 3.9 6 2.64 8.71-.53 1.16 1.19 2.18 1.73 1 1.84-3.97.6-10.05-3.84-11.64zm-11.64 15c-4.46 2.65-9 3-12.49 7.23-3.27 3.92-4.76 8.87-6.18 13.68a1 1 0 001.93.54c1.42-4.84 2.9-9.93 6.44-13.68 3.13-3.32 7.54-3.81 11.3-6a1 1 0 00-1-1.79zm-22.3 13.12a33.42 33.42 0 00-3.48 14.45 1 1 0 002 0 31 31 0 013.21-13.44c.57-1.15-1.16-2.17-1.73-1.01zm39.82-30.41a8.51 8.51 0 00-6.12-4.24c-1.26-.19-1.81 1.74-.53 1.93a6.66 6.66 0 014.93 3.32 1 1 0 001.72-1.01zm19.45 28.5c1.29-5.92 4-12.66 3.47-19a19.75 19.75 0 01-4.83 8.68c-1.5 1.64-3.1 3-4.07 5a20.29 20.29 0 00-1.67 7.13c1.26 4.7.15 8.23 1.74 8.75 5.69 1.96 4.66-7.35 5.36-10.56z" fill="#1c0e0a"/><path class="cls-2" d="M548 265.81c-.09-2.39-.14-4.79-.12-7.2-1.12-3.34-2.36-6.63-3.77-9.86s-3.23-6.45-4.14-9.88c-1.26-4.76.16-8.12.88-12.66.81-5.12-3-7.48-5.1-11.59-2.52-5 3.91-12.23 7.28-16.63-1.06.33-2.11.68-3.16 1.06-1.29 1.84-2.55 3.7-3.75 5.61s-3.49 4.47-3.61 6.92a7 7 0 001.51 4c.8 1.26 2.26 2.73 3 3.93a12.35 12.35 0 011.23 8.64c-.45 2.76-1.26 4.72-.92 7.62a31.54 31.54 0 002.82 8.92 157.59 157.59 0 017.85 21.12zm357.35-117.5c.26-3.32 1.3-8.66 0-12.05a16 16 0 01-1.6 1.69c.66 3.08-.15 7.85-.36 10.36a62.84 62.84 0 01-2.3 13 41 41 0 01-9.29 16.53c0 1-.1 1.93-.14 2.9a42.18 42.18 0 0011.1-18 63.82 63.82 0 002.59-14.43z"/><path class="cls-10" d="M734.07 160.94c-1.44-2.5-3.45-2.88-6.22-4.42-.31-.17-12.66 6.08-16 9.35-.43.42-.82.82-1.15 1.21A7.7 7.7 0 00709 165c-3.36-3.27-16.05-8.14-16.36-8-2.77 1.55-3.47 1.68-4.91 4.18-1.15 2 .57 4.81 1.49 6.67a29.58 29.58 0 005.67 7.78c1.5 1.5 4.61 5.12 7.29 5.34 2.18.18 2.94-1.88 3.85-3.1a42.25 42.25 0 004.21-7.36c1.2 3.15 3.59 4.46 5.57 7.1.91 1.22 1.67 3.28 3.85 3.1 2.68-.22 5.79-3.84 7.29-5.34a29.58 29.58 0 005.67-7.78c.88-1.84 2.6-4.59 1.45-6.65z"/><path class="cls-2" d="M765.18 197.25A62.8 62.8 0 00754 177.07c-.82-1-2.23.43-1.42 1.41a60.13 60.13 0 0110.69 19.3c.39 1.22 2.32.69 1.91-.53zm.13 11.87a65.12 65.12 0 00-5.46-7.92c-.81-1-2.21.42-1.41 1.41a64 64 0 015.15 7.51 1 1 0 001.72-1z"/><path class="cls-9" d="M708.94 165a18.32 18.32 0 00-3.73-2.54c-1.56 1.88-3 3.91-4.41 5.84l-5.73 7.6a39.08 39.08 0 003.57 3.41c3.36-4.74 6.68-9.81 10.61-14zm-13.81-7.13q-3.37 4.29-6.64 8.68c.24.47.47.92.67 1.33a27.26 27.26 0 002 3.38q4.24-5.79 8.72-11.41c-1.74-.8-3.43-1.49-4.75-1.99zm18.14 6.81q5 7.11 10.26 14c1.37-1.15 2.59-2.51 3.38-3.3l.2-.21q-5-6.51-9.68-13.23c-1.56.94-3.02 1.89-4.16 2.74zm13.54-7.77c-1 .45-2.55 1.24-4.34 2.19 1.16 1.62 2.41 3.19 3.58 4.78l4.87 6.57a29.16 29.16 0 001.66-2.84c.26-.52.58-1.11.88-1.74-2.33-2.87-4.65-5.87-6.65-8.96z"/><path class="cls-2" d="M733.39 163.07A52.92 52.92 0 01723.25 177c-.77.77-2.75 2.94-4.07 2.64-.73-.16-2.59-2.67-3-3.23a34.2 34.2 0 01-4.5-7.33.79.79 0 00-.8-.49h-.13a.8.8 0 00-.81.49 34.2 34.2 0 01-4.5 7.33c-.45.56-2.32 3.07-3 3.23-1.31.3-3.3-1.87-4.06-2.64a52.73 52.73 0 01-10.15-13.94c-.55-1.16-2.28-.15-1.72 1a47.74 47.74 0 0015 18.12 1 1 0 001.21-.15 36.28 36.28 0 008.11-10.24 36.28 36.28 0 008.11 10.24 1 1 0 001.22.15 47.92 47.92 0 0015-18.12c.51-1.14-1.22-2.15-1.77-.99z"/><path class="cls-7" d="M219.49 143.13a17.7 17.7 0 00-2.85 1.44v-1.21c0-1.3 0-2.59-1-3.56-2.27-2.2-7.16-2.11-10.05-2a10.77 10.77 0 00-10.62 6.38 22.81 22.81 0 00-7.73-.19c-1.17-4.4-5.58-7.52-10.69-7.44-2.89-.19-7.77-.41-10.1 1.73a3.3 3.3 0 00-1 2 5.07 5.07 0 00-1.5-1.26c-1.14-.59-2.16 1.13-1 1.73a5.49 5.49 0 011.69 1.67l.65.87c0 1.26.08 2.51.21 3.77v.44a9.36 9.36 0 003.9 6.73 11.68 11.68 0 008 2.15c.38 0 .74-.09 1.11-.15 5.32-1 9.19-5.34 9-10.25a20.11 20.11 0 016.92.16l-.06.32c-.6 5.09 3.24 9.81 8.71 11 .36.07.73.13 1.1.18 6.05.71 11.49-3.13 12.13-8.56v-.44c.07-.49.12-1 .17-1.48a14.4 14.4 0 013.53-2c1.19-.57.68-2.51-.52-2.03zm-42.29 11.23a9.64 9.64 0 01-6.62-1.77 7.47 7.47 0 01-3-4.6c0-.24-.07-.5-.11-.78a7.14 7.14 0 01.18-2.17.84.84 0 00.45-1.31 9.12 9.12 0 016.74-5q.45-.08.93-.12c5-.45 9.32 2.71 9.72 7.06s-3.32 8.23-8.29 8.69zm37.12-5.68c0 .27-.1.53-.13.77-.88 4-5.1 6.67-9.79 6.12-5-.57-8.56-4.58-8.05-8.92s5-7.39 9.91-6.8 8.5 4.53 8.06 8.83zm-50.99 5.63a1.5 1.5 0 000 3 1.5 1.5 0 000-3zm54.58 3.58a1.5 1.5 0 000 3 1.5 1.5 0 000-3z"/><path class="cls-2" d="M312.32 47.31a4.63 4.63 0 01-1.79 3.45c-1 .81.42 2.22 1.41 1.42a6.58 6.58 0 002.38-4.87c.05-1.31-1.95-1.31-2 0zm-9-2.27a3.39 3.39 0 01-.89 1.56 1 1 0 001.43 1.4 5.42 5.42 0 001.41-2.44 1 1 0 00-1.93-.56zm-51.72-3.91a9 9 0 00-.81 3.66c0 .89 0 2.43.94 2.88 1.16.56 2.17-1.16 1-1.73.3.15.07-.66.06-.79a6.76 6.76 0 010-.9 6.35 6.35 0 01.52-2.11c.52-1.14-1.2-2.14-1.71-1.01zm7 2a1 1 0 00-1-1 1 1 0 00-1 1 9.93 9.93 0 00.2 3.52c.3 1.25 2.23.72 1.93-.53a8.35 8.35 0 01-.12-2.97zm259.14 295.95l.82 4.32c.24 1.27 2.17.73 1.93-.53-.27-1.44-.55-2.88-.82-4.32-.24-1.26-2.17-.73-1.93.53zm31.45-4.8a71.11 71.11 0 00-2.19-7.58l1.39-.32c1.25-.29.72-2.22-.54-1.93-11 2.57-22.7 4.27-32.79 9.5-1.14.59-.13 2.32 1 1.72a58.79 58.79 0 018.56-3.53l1.3 5a1 1 0 001.93-.53l-1.32-5.09c6-1.84 12.37-3.06 18.5-4.4a70.68 70.68 0 012.18 7.68c.34 1.27 2.26.74 1.98-.52z"/><path class="cls-2" d="M538.58 332.22c-.31-1.25-2.24-.72-1.93.54.46 1.88.78 4.31 2 5.9.76 1 2.49 0 1.73-1-1.1-1.43-1.38-3.74-1.8-5.44zm89.58-8.11a124.32 124.32 0 00-26.51-.34c-1.27.12-1.29 2.12 0 2a122.89 122.89 0 0117.47-.4.85.85 0 00-.39.78 38.52 38.52 0 01-1.19 10.9 1 1 0 001.93.53 40.44 40.44 0 001.26-11.43 1 1 0 00-.33-.72c2.59.15 5.17.37 7.76.68 1.28.15 1.27-1.85 0-2z"/><path class="cls-2" d="M608.13 326.48a52 52 0 01-.76 9.23c-.21 1.26 1.71 1.8 1.93.53a55 55 0 00.83-9.76 1 1 0 00-2 0zm16.93 2.83a20.58 20.58 0 01-.32 6.41c-.27 1.26 1.66 1.79 1.93.53a22.45 22.45 0 00.39-6.94c-.12-1.31-2.12-1.31-2 0zM907 351.63c-.27-1.26-2.2-.72-1.92.53q1.14 5.16 2.14 10.34c.25 1.26 2.18.73 1.93-.53q-.97-5.19-2.15-10.34zm21.15-.01c-.24-1.26-2.16-.72-1.93.54.33 1.74.61 3.5.85 5.26.17 1.27 2.1.72 1.93-.54q-.36-2.64-.85-5.26zm13.85-2.84c-.21-1.27-2.13-.73-1.92.53a24.82 24.82 0 01.18 6.5c-.13 1.28 1.87 1.27 2 0a26.69 26.69 0 00-.26-7.03zM785.58 366a46.58 46.58 0 01-7-8.15c-.72-1.06-2.45-.06-1.73 1a49 49 0 007.32 8.56c.93.86 2.35-.55 1.41-1.41zm2.01-7.93l-3-4.25c-.74-1.05-2.47-.05-1.73 1l3 4.24c.74 1.06 2.48.06 1.73-.99zM809.75 346a53.86 53.86 0 01-8.75-10.41c-.7-1.07-2.43-.07-1.73 1a55.87 55.87 0 009.1 10.78c.92.88 2.33-.53 1.38-1.37zm5.05-14.16a36.55 36.55 0 01-5.63-7.24 1 1 0 00-1.73 1 38 38 0 005.95 7.64c.91.92 2.33-.5 1.41-1.4zm10.34-5.41a83.25 83.25 0 01-7.58-9c-.77-1-2.51 0-1.73 1a85.33 85.33 0 007.9 9.39c.91.93 2.33-.49 1.41-1.39zm207.59-272.09l-4.14 4.24c-.89.92.52 2.34 1.42 1.41l4.13-4.24c.86-.92-.51-2.34-1.41-1.41zm6.6 4.98a56.94 56.94 0 00-4 4.61c-.78 1 .62 2.42 1.41 1.41a55.17 55.17 0 014-4.61c.9-.92-.51-2.34-1.41-1.41zm6.22 6.34a1 1 0 00-1.37.36 13.16 13.16 0 01-2 3.16c-.83 1 .58 2.39 1.42 1.41a14.86 14.86 0 002.3-3.56 1 1 0 00-.35-1.37zM578.5 348.87c-3.22 0-3.22 5 0 5s3.22-5 0-5zm.25 26.5c-3.22 0-3.22 5 0 5s3.25-5 0-5zm1.25 25.25c-3.22 0-3.22 5 0 5s3.22-5 0-5zm371.22-63.89A74.59 74.59 0 01941 339c-1.26.19-.73 2.12.54 1.93a74.45 74.45 0 0010.23-2.28 1 1 0 00-.55-1.92z"/><path class="cls-11" d="M497.92 260.36A96.19 96.19 0 01478.3 221c-.29-1.25-2.22-.72-1.93.53a98.45 98.45 0 0020.13 40.3c.83.94 2.23-.48 1.42-1.47z"/></g></g></svg>