<svg xmlns="http://www.w3.org/2000/svg" xmlns:xlink="http://www.w3.org/1999/xlink"><symbol id="fb" viewBox="0 0 15 28"><path d="M9.725 27.03v-12.1h4.345l.62-4.665H9.726V7.203c0-1.312.466-2.332 2.483-2.332h2.638V.643c-.466 0-2.018-.146-3.88-.146-3.878 0-6.516 2.187-6.516 6.269v3.499H.105v4.665H4.45v12.1h5.275z"/></symbol><symbol id="in" viewBox="0 0 30 30"><path d="M15 7.389A7.6 7.6 0 007.389 15 7.6 7.6 0 0015 22.611 7.6 7.6 0 0022.611 15 7.6 7.6 0 0015 7.389zm0 12.558A4.957 4.957 0 0110.053 15 4.957 4.957 0 0115 10.053 4.957 4.957 0 0119.947 15 4.957 4.957 0 0115 19.947zm7.923-14.644c-.983 0-1.778.794-1.778 1.778 0 .983.794 1.777 1.778 1.777.983 0 1.777-.79 1.777-1.777a1.776 1.776 0 00-1.777-1.778zM29.836 15c0-2.049.019-4.078-.096-6.123-.115-2.375-.657-4.483-2.394-6.22C25.606.917 23.502.38 21.126.264 19.079.149 17.049.167 15.005.167c-2.049 0-4.079-.018-6.123.097C6.506.379 4.398.92 2.66 2.657.921 4.397.383 6.502.268 8.877.153 10.925.17 12.955.17 15s-.018 4.078.097 6.123c.115 2.375.656 4.483 2.393 6.22 1.74 1.74 3.845 2.278 6.22 2.393 2.048.115 4.078.097 6.123.097 2.048 0 4.078.018 6.123-.097 2.375-.115 4.483-.657 6.22-2.393 1.74-1.74 2.278-3.845 2.393-6.22.119-2.045.096-4.075.096-6.123zm-3.265 8.75a4.717 4.717 0 01-1.121 1.7 4.748 4.748 0 01-1.7 1.12c-1.952.776-6.587.602-8.75.602-2.164 0-6.802.174-8.754-.598a4.716 4.716 0 01-1.7-1.12 4.748 4.748 0 01-1.12-1.7c-.772-1.956-.598-6.59-.598-8.754 0-2.164-.174-6.802.598-8.754.27-.676.597-1.18 1.12-1.7a4.797 4.797 0 011.7-1.12c1.952-.772 6.59-.598 8.754-.598 2.163 0 6.802-.174 8.754.598.675.27 1.18.597 1.7 1.12a4.74 4.74 0 011.12 1.7c.772 1.952.598 6.59.598 8.754 0 2.163.174 6.798-.601 8.75z" fill="#0A2782"/></symbol><symbol id="ok" viewBox="0 0 19 29"><path d="M9.221 14.77c4.073 0 7.468-3.229 7.468-7.102S13.294.568 9.22.568s-7.467 3.227-7.467 7.1c0 3.873 3.394 7.101 7.467 7.101zm0-10.652c2.037 0 3.734 1.614 3.734 3.55 0 1.937-1.697 3.55-3.734 3.55-2.036 0-3.733-1.613-3.733-3.55 0-1.936 1.697-3.55 3.733-3.55zm8.655 11.62c-.339-.807-1.527-1.453-3.224-.323-2.036 1.613-5.43 1.613-5.43 1.613s-3.395 0-5.431-1.613c-1.528-1.13-2.716-.484-3.225.322-.679 1.453.17 2.098 2.037 3.228 1.527.968 3.733 1.291 5.26 1.452l-1.187 1.13-4.413 4.196c-.679.646-.679 1.614 0 2.26l.17.16a1.7 1.7 0 002.376 0l4.412-4.195 4.413 4.196a1.7 1.7 0 002.376 0l.17-.162c.678-.645.678-1.613 0-2.26l-4.413-4.195-1.188-1.13c1.358-.161 3.564-.484 5.261-1.452 2.037-1.13 2.885-1.937 2.037-3.228z"/></symbol><symbol id="tw" viewBox="0 0 26 21"><path d="M25.412 3.201c-.885.417-1.916.695-2.948.695 1.032-.556 1.916-1.528 2.21-2.639-1.031.556-2.063.972-3.242 1.111-.884-.972-2.211-1.527-3.685-1.527-2.8 0-5.16 2.083-5.16 4.86 0 .416 0 .694.148 1.11A14.324 14.324 0 012.27 1.814c-.442.694-.737 1.527-.737 2.36A4.79 4.79 0 003.743 8.2c-.884 0-1.62-.278-2.358-.555 0 2.36 1.77 4.304 4.128 4.72-.443.14-.885.14-1.327.14-.295 0-.59 0-1.032-.14.59 1.945 2.506 3.333 4.717 3.333-1.769 1.25-3.98 2.083-6.338 2.083H.353c2.212 1.389 4.865 2.222 7.813 2.222 9.433 0 14.445-7.36 14.445-13.608V5.84c1.327-.833 2.064-1.667 2.8-2.639z"/></symbol><symbol id="vk" viewBox="0 0 18 19"><path d="M16.07 10.125c-.694-.694-1.25-1.25-2.637-1.388v-.139c.971-.416 1.665-.833 2.082-1.527.555-.694.694-1.388.694-2.36 0-.694-.139-1.388-.555-1.943-.417-.556-.972-1.11-1.666-1.388-.694-.278-1.388-.556-2.221-.695C11.073.547 9.407.547 7.74.547H.384v17.907H8.99c1.388 0 2.637-.139 3.609-.277.972-.278 1.804-.556 2.498-1.111.695-.416 1.25-.972 1.527-1.666.417-.694.556-1.388.556-2.36 0-1.25-.417-2.22-1.11-2.915zM5.66 4.017h2.22c.694 0 1.388.139 1.943.278.556.277.833.694.833 1.527 0 .694-.277 1.11-.694 1.388-.416.278-.971.416-1.666.416H5.66V4.017zm4.58 10.55a5.179 5.179 0 01-1.665.278H5.659V10.54h3.054c.694 0 1.25.14 1.527.278.694.278.972.833.972 1.666.138 1.11-.278 1.805-.972 2.082z"/></symbol><symbol id="yt" viewBox="0 0 38 28"><path d="M37.375 13.885c0-.09 0-.193-.004-.312-.004-.332-.012-.705-.02-1.103a61.675 61.675 0 00-.181-3.359c-.123-1.48-.304-2.715-.55-3.642a5.722 5.722 0 00-4.031-4.04c-1.161-.312-3.433-.505-6.633-.624-1.521-.057-3.15-.094-4.778-.115-.57-.008-1.1-.012-1.575-.016h-1.206c-.476.004-1.005.008-1.575.016-1.628.021-3.257.058-4.778.115-3.2.123-5.476.316-6.632.624a5.716 5.716 0 00-4.032 4.04C1.13 6.396.953 7.63.83 9.11a61.755 61.755 0 00-.18 3.36c-.013.397-.017.77-.02 1.102 0 .12-.005.222-.005.312v.23c0 .09 0 .193.004.312.004.332.012.705.02 1.103.033 1.144.09 2.284.181 3.36.123 1.48.304 2.714.55 3.641a5.715 5.715 0 004.032 4.04c1.156.312 3.433.505 6.632.624 1.521.057 3.15.094 4.778.115.57.008 1.1.012 1.575.016h1.206c.476-.004 1.005-.008 1.575-.016 1.628-.02 3.257-.058 4.778-.115 3.2-.123 5.476-.316 6.633-.624a5.708 5.708 0 004.031-4.04c.25-.927.427-2.161.55-3.642a61.203 61.203 0 00.2-4.462c0-.12.005-.222.005-.312v-.23zm-2.953.213c0 .087 0 .181-.004.292-.004.32-.012.672-.02 1.054a55.477 55.477 0 01-.173 3.195c-.11 1.32-.267 2.403-.46 3.13a2.76 2.76 0 01-1.944 1.948c-.86.23-3.03.414-5.98.525a186.41 186.41 0 01-6.255.127h-1.172l-1.55-.012a191.092 191.092 0 01-4.705-.115c-2.95-.115-5.123-.296-5.98-.525a2.77 2.77 0 01-1.945-1.949c-.192-.726-.348-1.808-.459-3.13a59.42 59.42 0 01-.172-3.194 42.352 42.352 0 01-.02-1.054c0-.111-.005-.21-.005-.292v-.196c0-.086 0-.18.004-.292.004-.32.013-.672.02-1.054a55.47 55.47 0 01.173-3.195c.11-1.32.267-2.403.46-3.13a2.76 2.76 0 011.944-1.948c.86-.23 3.03-.414 5.98-.525a186.357 186.357 0 016.254-.127h1.174l1.55.013c1.604.02 3.207.057 4.704.114 2.95.115 5.123.296 5.98.525a2.77 2.77 0 011.945 1.949c.192.726.348 1.808.459 3.13a58.62 58.62 0 01.192 4.248c0 .111.005.21.005.292v.197zM15.35 19.496l9.515-5.537-9.515-5.455v10.992z" fill="#0A2782"/></symbol></svg>