<svg xmlns="http://www.w3.org/2000/svg" xmlns:xlink="http://www.w3.org/1999/xlink"><symbol id="fb" viewBox="0 0 15 28"><path d="M9.725 27.03v-12.1h4.345l.62-4.665H9.726V7.203c0-1.312.466-2.332 2.483-2.332h2.638V.643c-.466 0-2.018-.146-3.88-.146-3.878 0-6.516 2.187-6.516 6.269v3.499H.105v4.665H4.45v12.1h5.275z"/></symbol><symbol id="ok" viewBox="0 0 19 29"><path d="M9.221 14.77c4.073 0 7.468-3.229 7.468-7.102S13.294.568 9.22.568s-7.467 3.227-7.467 7.1c0 3.873 3.394 7.101 7.467 7.101zm0-10.652c2.037 0 3.734 1.614 3.734 3.55 0 1.937-1.697 3.55-3.734 3.55-2.036 0-3.733-1.613-3.733-3.55 0-1.936 1.697-3.55 3.733-3.55zm8.655 11.62c-.339-.807-1.527-1.453-3.224-.323-2.036 1.613-5.43 1.613-5.43 1.613s-3.395 0-5.431-1.613c-1.528-1.13-2.716-.484-3.225.322-.679 1.453.17 2.098 2.037 3.228 1.527.968 3.733 1.291 5.26 1.452l-1.187 1.13-4.413 4.196c-.679.646-.679 1.614 0 2.26l.17.16a1.7 1.7 0 002.376 0l4.412-4.195 4.413 4.196a1.7 1.7 0 002.376 0l.17-.162c.678-.645.678-1.613 0-2.26l-4.413-4.195-1.188-1.13c1.358-.161 3.564-.484 5.261-1.452 2.037-1.13 2.885-1.937 2.037-3.228z"/></symbol><symbol id="tw" viewBox="0 0 26 21"><path d="M25.412 3.201c-.885.417-1.916.695-2.948.695 1.032-.556 1.916-1.528 2.21-2.639-1.031.556-2.063.972-3.242 1.111-.884-.972-2.211-1.527-3.685-1.527-2.8 0-5.16 2.083-5.16 4.86 0 .416 0 .694.148 1.11A14.324 14.324 0 012.27 1.814c-.442.694-.737 1.527-.737 2.36A4.79 4.79 0 003.743 8.2c-.884 0-1.62-.278-2.358-.555 0 2.36 1.77 4.304 4.128 4.72-.443.14-.885.14-1.327.14-.295 0-.59 0-1.032-.14.59 1.945 2.506 3.333 4.717 3.333-1.769 1.25-3.98 2.083-6.338 2.083H.353c2.212 1.389 4.865 2.222 7.813 2.222 9.433 0 14.445-7.36 14.445-13.608V5.84c1.327-.833 2.064-1.667 2.8-2.639z"/></symbol><symbol id="vk" viewBox="0 0 18 19"><path d="M16.07 10.125c-.694-.694-1.25-1.25-2.637-1.388v-.139c.971-.416 1.665-.833 2.082-1.527.555-.694.694-1.388.694-2.36 0-.694-.139-1.388-.555-1.943-.417-.556-.972-1.11-1.666-1.388-.694-.278-1.388-.556-2.221-.695C11.073.547 9.407.547 7.74.547H.384v17.907H8.99c1.388 0 2.637-.139 3.609-.277.972-.278 1.804-.556 2.498-1.111.695-.416 1.25-.972 1.527-1.666.417-.694.556-1.388.556-2.36 0-1.25-.417-2.22-1.11-2.915zM5.66 4.017h2.22c.694 0 1.388.139 1.943.278.556.277.833.694.833 1.527 0 .694-.277 1.11-.694 1.388-.416.278-.971.416-1.666.416H5.66V4.017zm4.58 10.55a5.179 5.179 0 01-1.665.278H5.659V10.54h3.054c.694 0 1.25.14 1.527.278.694.278.972.833.972 1.666.138 1.11-.278 1.805-.972 2.082z"/></symbol></svg>