<svg viewBox="0 0 468 560" fill="none" xmlns="http://www.w3.org/2000/svg"><g clip-path="url(#a)"><path d="M302.594 58.894a29.656 29.656 0 00-.978 2.54.453.453 0 00-.129.098c-2.242 2.598-2.781 5.8-3.422 9.07-.348 1.78-.711 3.59-1.506 5.233-.974 2.01-2.612 3.539-3.968 5.284-2.062 2.657-2.821 5.599-2.971 8.91-.227 4.9-.029 9.514-1.37 14.322a.486.486 0 00.71.545 13.822 13.822 0 005.808-7.384c1.407-4.252.044-8.705 2.411-12.726 2.051-3.491 3.806-6.115 3.986-10.3.223-5.325.047-10.096 2.264-15.102.249-.567-.582-1.057-.835-.49z" fill="#D66431"/><path d="M88.615 556.667h-8.086c6.69-28.359 13.383-56.716 20.078-85.072h24.801c-10.944 28.355-25.849 56.713-36.793 85.072zm213.535-90.655l26.956.841c6.309 31.047 12.619 62.096 18.931 93.147l-8.793-.274c-10.919-31.194-26.157-62.52-37.094-93.714z" fill="#401D1D"/><path d="M467.85 339.164c-.048-.581-.096-1.17-.154-1.752a43.24 43.24 0 00-.367-2.785 46.358 46.358 0 00-.542-2.927c-1.202-5.514-3.371-10.78-6.848-15.431-4.726-6.33-11.849-10.692-20.103-12.298-10.072-1.965-20.654-.095-30.378 2.485-9.196 2.44-7.906 2.041-16.692 5.572.93-1.653 2.297-3.973 3.971-6.879a.036.036 0 000-.025c3.965-6.832 9.669-16.832 15.502-28.582 14.425-29.035 29.634-68.769 21.251-97.911-2.697-9.363-7.083-19.455-16.063-24.263-10.581-5.661-22.544-8.782-34.44-11.157-12.487-2.507-25.12-4.45-37.808-5.91a481.93 481.93 0 00-156.591 7.641c-20.577 4.457-42.886 9.488-59.898 21.552-7.566 5.372-13.688 12.309-16.916 20.561-4.067 10.392-3.389 21.68-1.993 32.449 3.235 25.021 7.35 49.961 11.05 74.935.953 6.403 1.903 12.808 2.851 19.214.146.984.92 3.055.077 3.849-.524.502-4.302.447-5.13.524-3.634.329-7.276.578-10.918.772a283.234 283.234 0 01-40.841-.802c-.942-.076-1.873-.183-2.81-.281a34.542 34.542 0 00-5.387-2.679.437.437 0 00-.175-.311c-9.395-7.42-22.999-7.885-34.075-3.395-12.592 5.122-20.206 16.524-23.027 28.405-3.298 13.942-.242 28.176 4.583 41.506a328.114 328.114 0 0017.836 40.675c5.445 10.37 11.952 20.443 20.331 29.09a92.142 92.142 0 005.173 4.954c10.966 9.646 24.549 16.382 38.808 21.161 4.36 1.464 10.435 2.737 17.701 3.849.366.059.733.106 1.099.165 8.35 1.248 18.206 2.283 28.813 3.154 49.763 4.054 116.116 4.307 122.187 4.296 8.427 0 16.286.212 23.815.483 13.766.505 26.34 1.16 38.808.67l.997-.041c16.616-.732 33.085-3.549 51.983-11.486 32.975-13.853 54.31-44.524 73.153-72.772.037-.07.085-.128.125-.194a171.867 171.867 0 004.613-7.403 130.536 130.536 0 0014.113-34.886c.271-1.098.524-2.225.755-3.348.289-1.394.553-2.807.777-4.248.154-.959.289-1.926.406-2.902.059-.494.114-.977.165-1.464.052-.486.096-.987.143-1.463.048-.476.077-.988.106-1.464.03-.476.059-.995.081-1.489.055-1.23.084-2.459.066-3.689a66.373 66.373 0 00-.183-3.725z" fill="#EDB04F"/><path d="M446.365 401.231c-1.125-8.416-3.382-16.796-6.093-24.828-2.316-6.839-5.397-13.623-10.377-18.954-11.083-11.859-29.875-14.018-45.212-14.494-18.385-.578-36.928 1.588-55.112 4.113-18.657 2.594-37.189 5.99-55.743 9.239-35.36 6.195-71.079 11.805-107.114 10.187-17.147-.761-34.264-3.161-50.781-7.911a168.693 168.693 0 01-24.387-9.06c-7.943-3.688-15.528-8.097-23.189-12.327-5.92-3.261-11.918-6.374-18.147-8.987.157-.542.293-1.098.447-1.617a.489.489 0 00-.942-.26c-.135.501-.26 1.006-.395 1.5a92.544 92.544 0 00-3.217-1.259c-.58-.223-.832.732-.253.93 1.077.407 2.15.829 3.217 1.266a273.36 273.36 0 00-7.694 104.307 284.207 284.207 0 002.77 17.93 92.178 92.178 0 005.173 4.954c10.966 9.646 24.548 16.382 38.808 21.161 4.36 1.463 10.435 2.737 17.7 3.849.367.059.733.106 1.099.165 8.35 1.248 18.206 2.283 28.813 3.154 49.763 4.054 116.116 4.307 122.187 4.296 8.427 0 16.286.212 23.816.483 13.765.505 26.339 1.16 38.808.669l.996-.04c16.616-.732 33.085-3.549 51.984-11.486 32.975-13.853 54.309-44.524 73.153-72.772.036-.07.084-.129.124-.194a75.588 75.588 0 00-.439-4.014z" fill="#DB9437"/><path d="M257.901 488.57c-2.429 2.342-9.182 2.272-11.208-.282a4138.328 4138.328 0 01-8.474-10.71 772.964 772.964 0 01-7.24-9.247c-2.198-2.865-3.807-5.06-5.027-6.842-5.752-8.475-6.595-10.67-14.879-16.832-.205-.146-.418-.3-.649-.476-3.07-2.155-8.709-5.437-13.64-8.193a431.677 431.677 0 00-7.277-3.988c-1.725-.922-3.565-1.83-5.367-2.726 1.271-8.197 1.736-16.466 2.539-24.71.154-1.595.348-3.224.483-4.848 6.229 5.854 17.1 22.58 24.395 24.614 8.214 2.284 15.945-3.831 20.723 3.55 4.638 7.179 6.8 15.617 10.702 23.173 1.066 2.049 1.96 3.659 2.773 4.98 2.353 3.89 4.031 5.65 7.09 10.593.366.582.733 1.211 1.154 1.899 2.964 4.995 9.512 14.64 3.902 20.045z" fill="#F7EFEB"/><path d="M325.735 445.539c-.696 8.39-1.403 16.777-2.199 25.156a1217.12 1217.12 0 01-1.26 12.807c-.212 2.06-.418 4.139-.766 6.192l-.996.04c.366-2.053.582-4.142.795-6.221.92-8.851 1.733-17.706 2.499-26.569.649-7.591 1.276-15.189 1.879-22.792.524-6.51 1.704-13.748-.641-20.045-2.392-6.436-8.427-9.203-14.82-10.315-7.328-1.277-14.931-1.431-22.35-2.013-31.436-2.466-62.865-4.936-94.287-7.409-14.655-1.153-29.421-2.865-44.139-2.419-7.379.212-14.761 1.065-21.884 3.066-6.478 1.83-14.355 4.315-17.502 10.798-1.62 3.319-2.133 7.092-2.686 10.7a226.37 226.37 0 00-1.568 12.075 242.598 242.598 0 00-1.261 22.657c-.066 7.509.059 15.123.891 22.592a38.184 38.184 0 001.443 7.296c-.366-.059-.733-.106-1.099-.165-1.209-4.091-1.509-8.485-1.773-12.682a243.264 243.264 0 01-.242-25.058 248.012 248.012 0 012.228-24.15c.93-6.484 1.579-14.135 7.005-18.607 5.085-4.197 12.497-6.162 18.821-7.508 7.2-1.537 14.583-2.049 21.936-2.049 16.312 0 32.686 1.924 48.939 3.201 33.975 2.671 67.987 5.039 101.933 8.021 5.573.494 11.596 1.277 16.198 4.731 4.763 3.579 6.305 9.316 6.463 15.003.253 7.87-.916 15.862-1.557 23.667z" fill="#B06727"/><path d="M224.732 434.668a9.53 9.53 0 00-4.832-3.455c-1.213-.387-2.481-.475-3.712-.775a5.82 5.82 0 01-2.77-1.596c.048-.029.095-.047.143-.076.564-.271.07-1.098-.484-.835-.135.07-.271.128-.395.194l-.03-.029a.512.512 0 00-.59-.077 1.63 1.63 0 01-.175.124c-.147.11-5.401-12.338-5.361-12.155-4.961 2.466-20.481 9.06-25.431 11.53 4.932 2.755 26.259 14.541 29.311 16.696 2.829-1.372 5.863-2.254 8.827-3.267 2.964-1.014 8.251-2.258 5.499-6.279z" fill="#CCB6B6"/><path d="M410.638 250.958c-4.719-12.489-15.755-22.028-26.592-29.273a105.533 105.533 0 00-37.64-15.672 97.735 97.735 0 00-4.213-.754c3.506-3.07 6.961-6.173 10.076-9.668.406-.453-.272-1.141-.689-.677-3.272 3.66-6.936 6.927-10.626 10.158-1.384-.201-2.78-.384-4.173-.53-.612-.07-.612.9 0 .966 1.074.117 2.151.252 3.214.406a247.149 247.149 0 00-4.958 4.391 150.004 150.004 0 00-13.952 14.581 156.253 156.253 0 00-33.634 71.042c-1.1 5.855-2.565 12.441-1.744 18.402.732 5.372 4.125 8.273 9.398 9.045 7.932 1.171 15.992.07 23.965.224 4.233.058 8.444.617 12.545 1.665 3.752.976 7.431 2.254 11.212 3.135 13.556 3.162 26.834-1.493 38.02-9.184a87.674 87.674 0 0015.909-14.058.039.039 0 000-.026c3.964-6.832 9.669-16.832 15.501-28.581 1.887-8.292 1.642-16.96-1.619-25.592z" fill="#DB9437"/><path d="M245.755 456.066a16.77 16.77 0 00-3.722 1.607c-1.781 1.035-3.407 2.323-5.13 3.443-1.465.951-3.334 1.522-4.649 2.612-1.502 1.241-1.627 2.928-1.271 4.618a781.918 781.918 0 007.239 9.247c4.492-4.109 9.527-7.593 14.627-10.934-3.074-4.943-4.741-6.703-7.094-10.593z" fill="#CCB6B6"/><path d="M232.676 415.797c-.367-1.555-.806-3.135-1.173-4.724-5.323 6.671-13.699 24.78-20.624 27.832-7.808 3.436-16.333-1.522-20.005 6.473-3.568 7.764-4.334 16.466-7.283 24.457-8.098 21.878-7.973 34.641-4.958 36.372 2.162 1.241 8.193 2.777 10.816-1.646 7.097-11.951 11.607-25.051 12.483-26.844 4.492-9.203 5.02-11.5 12.325-18.76 3.924-3.901 15.074-12.335 19.536-15.603a201.338 201.338 0 014.921-3.465c-2.426-7.929-4.06-16.045-6.038-24.092z" fill="#F7EFEB"/><path d="M435.124 326.193c-9.892-23.744-41.281-22.423-62.22-18.592-20.939 3.831-56.75 10.296-75.942 19.528l13.19-18.661-6.228-43.997a.599.599 0 00-.216-.313.597.597 0 00-.359-.123 384.006 384.006 0 00-101.63 3.908c0-.029.022-.055.037-.084.29-.706-.865-1.017-1.15-.315-.092.212-.173.432-.26.644-1.466.264-2.932.516-4.419.794-.751.143-.432 1.292.319 1.149 1.19-.223 2.385-.417 3.579-.629-6.159 15.163-4.309 25.248-8.822 40.949-12.945-6.118-33.173-6.634-46.693-11.402-14.604-5.148-29.696-8.573-45.011-10.809-14.29-2.085-29.355-4.391-43.787-2.927-11.516 1.164-22.925 5.708-29.945 15.299-7.643 10.45-5.4 22.577.033 33.488 11.101 22.284 29.806 39.588 50.027 53.617 25.984 18.029 54.734 32.347 82.851 46.687a.563.563 0 00.513 0 247.305 247.305 0 015.741 4.391c3.166 2.474 5.262 1.808 8.398-.234 4.745-3.088 9.424-6.287 14.062-9.536 5.496-3.842 10.743-5.8 16.088-9.836 1.949 6.005 4.782 9.792 7.328 15.57l13.102 29.584c1.198 2.708 2.565 6.524 5.903 7.179 3.627.706 7.694-2.868 10.537-4.574 1.678-1.006 70.27-37.645 83.808-44.187 13.538-6.543 27.289-12.734 41.072-18.794 13.721-6.033 27.97-11.42 40.944-18.987 10.655-6.22 20.54-14.439 26.53-25.394 5.54-10.132 7.119-22.584 2.62-33.393z" fill="#804040"/><path d="M260.411 91.738c9.255-4.816 21.298-9.104 31.033-13.14 1.231 21.099 2.023 37.817 4.163 63.259-9.618 1.533-21.72 3.191-31.206 5.295-2.092-22.844-2.601-36.935-3.99-55.414z" fill="#FFBDA3"/><path d="M364.678 198.142c-2.268-21.615-2.817-31.502-12.146-44.096-9.632-13.005-24.588-20.773-39.683-26.174a75.17 75.17 0 00-8.493-2.232c-.66-.147-1.349-.282-2.056-.428a14.51 14.51 0 01-3.682 1.624c-5.862 1.658-11.409 3.348-17.524 3.842-5.942.45-11.916.19-17.796-.772-4.312-.658-7.471-3.582-9.339-7.267-.425.095-.843.176-1.268.271-19.785 4.314-42.413 10.593-56.926 23.034-13.19 11.322-22.881 26.104-31.744 40.982a1141.062 1141.062 0 00-5.444 9.251c-.583 1.006-1.173 2.012-1.755 3.008a859.911 859.911 0 00-18.891 33.953 17.78 17.78 0 00-1.415-1.23c-.666-.505-1.509.472-.842.988.576.449 1.12.938 1.627 1.464-.308.582-.627 1.163-.938 1.752-.367.732.802 1.277 1.179.542.224-.424.458-.842.682-1.266 3.525 4.292 4.492 10.07 5.58 15.489 1.18 5.855 2.653 11.512 6.536 16.254 6.881 8.39 21.551 11.892 33.43 13.315-.678 5.657-5.599 11.622-6.687 16.745-.733 3.553.399 6.718 1.099 10.168.543 2.686.499 5.021-1.341 7.234-.941 1.135-2.03 2.101-2.583 3.502-2.524 6.4 6.298 12.364 10.497 15.5 6.639 4.962 14.04 8.519 22.266 9.825 8.742 1.387 17.623.732 26.424 1.398 9.372.695 18.169 3.75 27.266 5.854 8.032 1.83 16.122 2.481 24.043-.124 3.909-1.281 7.635-3.037 11.508-4.42 4.03-1.442 7.969-1.903 12.208-2.32 2.891-.282 6.082-.878 7.848-3.432 2.25-3.246 2.103-8.596 2.473-12.368.663-6.829.869-13.694.62-20.55l.175-.468c1.638-4.366 32.514 1.73 44.989-10.162 6.918-6.586 9.527-16.06 10.919-25.376.483-3.201.813-6.385 1.132-9.433.114-1.106.173-2.218.176-3.33.143-17.377-10.457-44.594-12.124-60.547z" fill="#F7E9E1"/><path d="M288.257 12.01c-8.354-6.082-19.206-5.032-28.417-1.289-4.705 1.914-9.314 4.391-12.919 7.908-3.921 3.827-6.775 8.522-11.124 11.95-.322-.08-1.41.926-1.465 1.354-2.433 20.674 2.33 50.039 5.367 59.296 2.459 7.498 9.49 17.231 16.488 21.933 6.998 4.702 10.196 2.712 17.436-.809 17.854-8.679 20.02-29.763 21.797-47.246 1.718-17 8.749-41.513-7.163-53.098zm-28.531 289.813c-1.425-4.435-1.788-9.514-3.59-13.799a.51.51 0 00-.232-.286.507.507 0 00-.366-.05 181.73 181.73 0 00-10.482 2.151c-.048-.201-.092-.399-.136-.596-.139-.608-1.073-.366-.934.256l.128.567c-.787.19-1.579.366-2.363.582a.487.487 0 00-.293.227.49.49 0 00.039.536.492.492 0 00.511.17c.773-.198 1.546-.384 2.319-.571.454 1.988.906 3.973 1.356 5.954.293 1.291.366 4.643 1.524 5.488 1.077.805 3.982.026 5.21-.062 2.704-.19 5.403-.416 8.097-.677.293-.011-.682.432-.788.11z" fill="#FFBDA3"/><path d="M247.833 75.901c1.554 0 2.814-2.488 2.814-5.558s-1.26-5.558-2.814-5.558-2.814 2.488-2.814 5.558 1.26 5.558 2.814 5.558zm28.109-.995c1.554 0 2.814-2.489 2.814-5.558 0-3.07-1.26-5.558-2.814-5.558s-2.814 2.488-2.814 5.558 1.26 5.558 2.814 5.558z" fill="#401D1D"/><path d="M357.493 329.142a112.256 112.256 0 00-29.857 13.788c-5.052 3.293-9.892 6.56-15.85 8.006-5.536 1.343-11.263 1.617-16.817 2.869a57.226 57.226 0 00-25.853 13.491c-3.729 3.399-6.774 7.424-10.299 11.021-4.276 4.362-9.042 6.733-14.916 8.277-5.327 1.405-10.354 2.883-14.842 6.22a31.643 31.643 0 00-9.423 11.212 4.765 4.765 0 00-1.389-1.775c-1.572-1.299-3.565-1.943-5.298-2.982a23.46 23.46 0 01-5.639-4.929c-3.279-3.809-5.708-8.251-8.702-12.276-6.005-8.072-14.706-12.075-23.188-16.993-4.569-2.657-8.812-5.712-12.249-9.759-3.011-3.553-5.419-7.578-7.716-11.614-4.917-8.643-9.555-17.93-18.209-23.448-.528-.336-1.012.502-.488.835 14.898 9.513 17.536 29.478 31.261 40.25 7.668 6.012 17.253 9.122 24.606 15.57 6.672 5.854 9.816 14.552 16.305 20.538a22.154 22.154 0 005.287 3.605c2.476 1.225 7.327 3.845 3.253 6.751-2.484 1.782-5.664 2.898-8.405 4.244l-9.313 4.574c-.561.274-.07 1.098.487.838 5.672-2.785 11.79-5.214 17.191-8.486 1.619-.98 2.524-2.378 2.458-3.805a.397.397 0 00.367-.238 30.794 30.794 0 019.581-11.482c4.334-3.136 9.211-4.545 14.318-5.888 4.635-1.218 8.856-2.817 12.564-5.931s6.675-7.055 9.999-10.586a56.367 56.367 0 0126.581-15.807c5.309-1.395 10.787-1.76 16.162-2.781a39.966 39.966 0 0014.395-5.855c5.093-3.26 10.068-6.586 15.491-9.294a111.567 111.567 0 0118.396-7.212.49.49 0 10-.249-.948z" fill="#662D2D"/><path d="M234.966 154.858c-1.466 3.341-5.13 4.969-8.149 3.633-3.019-1.335-4.279-5.122-2.803-8.459 1.477-3.338 5.13-4.97 8.149-3.634 3.019 1.336 4.279 5.123 2.803 8.46zm-65.229 40.982c-1.465 3.337-5.129 4.962-8.148 3.637a5.66 5.66 0 01-3.012-3.271 918.306 918.306 0 015.445-9.269 5.45 5.45 0 012.931.418c3.008 1.335 4.257 5.126 2.784 8.485zm101.717 24.169c-1.465 3.337-5.129 4.965-8.148 3.633-3.019-1.332-4.28-5.123-2.803-8.463 1.477-3.341 5.129-4.966 8.148-3.634 3.02 1.332 4.28 5.123 2.803 8.464zm105.344 38.658a33.364 33.364 0 01-.175 3.33c-.319 3.048-.649 6.22-1.133 9.433a5.54 5.54 0 01-3.198-.366c-3.023-1.335-4.279-5.123-2.799-8.467 1.337-3.037 4.47-4.673 7.305-3.93zm-57.229-110.9c-1.466 3.34-5.13 4.969-8.149 3.633-3.019-1.335-4.279-5.123-2.803-8.46 1.477-3.337 5.13-4.969 8.152-3.633 3.023 1.335 4.276 5.119 2.8 8.46zm29.057 62.873c1.476-3.34.221-7.13-2.803-8.463-3.025-1.334-6.674.293-8.151 3.634-1.477 3.34-.222 7.13 2.803 8.463 3.025 1.334 6.674-.293 8.151-3.634zm-30.67 77.092c-1.465 3.341-5.129 4.965-8.148 3.633-3.019-1.332-4.28-5.122-2.803-8.463 1.476-3.341 5.129-4.966 8.148-3.634 3.019 1.332 4.28 5.123 2.803 8.464z" fill="#8A9177"/><path d="M262.687 65.941c.135-.604-.799-.863-.935-.256-1.018 4.625-3.341 8.811-4.484 13.392-.323 1.281-.649 2.69-.172 3.97.707 1.918 2.729 3.597 4.03 5.123.406.472 1.099-.216.685-.684-1.297-1.496-3.298-3.224-3.788-5.148-.491-1.925.483-4.278 1.154-6.159 1.227-3.428 2.729-6.7 3.51-10.238zm10.639 26.946c-.366.022-.7.04-1.048.051a238.51 238.51 0 01-17.718.212l-1.25-.029a.483.483 0 00-.474.388.478.478 0 00.009.22c.183.516 3.642 7.954 12.208 7.373 4.62-.3 7.768-3.242 8.739-7.604a.491.491 0 00-.253-.56.485.485 0 00-.213-.051z" fill="#E38662"/><path d="M254.56 93.15c.213 1.036.506 1.896 1.59 2.543 1.532.912 3.565 1 5.298 1.036 3.177.077 8.632.018 10.494-3.143.135-.234.249-.454.337-.648-5.911.298-11.818.368-17.719.212z" fill="#fff"/><path d="M263.097 120.956a.527.527 0 00-.495-.117c-3.18.648-6.5 1.325-9.893 2.071 1.832 5.91 6.625 10.663 12.516 12.895 8.709 3.293 18.32 1.346 26.523-2.496 4.159-1.954 8.427-4.303 12.043-7.179.195-.154.389-.318.583-.49-11.567-2.47-29.74-4.973-41.277-4.684z" fill="#FFBDA3"/><path d="M314.241 245.864c-1.257-10.41-4.499-20.436-6.229-30.759a118.112 118.112 0 01-.073-37.751c.095-.607-.835-.871-.934-.256a120.613 120.613 0 00-1.026 29.829c.927 9.898 3.532 19.427 5.591 29.12 1.052 4.954 2.25 10.205 2.052 15.298-.224 5.687-4.03 8.852-9.508 9.324-4.521.388-9.053-.838-13.556.073-3.664.732-6.896 2.701-9.812 4.955-3.822 2.952-7.189 6.44-11.091 9.294a52.695 52.695 0 01-14.886 7.538.49.49 0 00-.341.596c1.375 4.83 2.747 9.66 4.115 14.49a.47.47 0 00.227.293.49.49 0 00.537-.039.487.487 0 00.17-.51l-3.979-14.066c8.709-2.927 15.579-7.999 22.438-13.996 3.396-2.971 7.06-5.986 11.478-7.271 5.082-1.463 10.259.154 15.389-.461 3.213-.366 6.496-1.65 8.269-4.511 2.059-3.301 1.62-7.527 1.169-11.19zm31.707-96.557a46.455 46.455 0 00-24.401 10.897c-.473.406.216 1.098.685.684a45.297 45.297 0 0123.716-10.611c.612-.081.62-1.051 0-.97zm-152.553 19.188a1046.52 1046.52 0 01-3.84 40.251c-.069.615.898.611.971 0a1062.652 1062.652 0 003.836-40.251c.048-.622-.919-.618-.967 0zm162.739 99.756a47.165 47.165 0 00-33.433-11.805c-.619.03-.623.996 0 .966a46.205 46.205 0 0132.748 11.523c.465.413 1.15-.278.685-.684zm-5.76 23.092a77.735 77.735 0 00-24.181-25.281c-.524-.343-1.008.494-.491.835a76.59 76.59 0 0123.837 24.937.486.486 0 00.887-.124.486.486 0 00-.052-.367zm-34.323 22.742a3013.222 3013.222 0 01-25.702 9.781c-8.643 3.234-17.547 7.208-26.89 7.629-15.282.684-30.238-7.629-45.432-3.037-.597.179-.238 1.098.366.896 15.594-4.705 31.111 4.391 46.847 2.99 8.687-.772 16.956-4.391 25.043-7.414 8.734-3.264 17.44-6.586 26.145-9.945a.49.49 0 00.262-.639.488.488 0 00-.639-.261z" fill="#D1A38C"/><path d="M301.385 15.606c.886-9.312-6.419-16.407-18.367-14.15-4.276.809-7.248 1.365-11.666 1.57-3.957.187-9.039-3.158-13-3.022-6.983.245-14.201 1.525-20.104 5.47a24.276 24.276 0 00-6.067 5.708 19.55 19.55 0 00-2.264 3.923c-.817 1.899-.964 4.087-2.799 5.35-2.627 1.8-5.767 2.616-8.325 4.632-2.11 1.661-3.964 3.86-4.591 6.524a9.331 9.331 0 001.059 7.022 6.447 6.447 0 002.565 2.353c1.546.772 3.506.465 4.983 1.346 3.048 1.83.7 6.66 1.883 9.463.81 1.917 2.634 2.719 4.554 3.114 1.887.303 3.642-.3 4.43-1.19 2.29-3.406 3.437-7.574 5.804-10.977 4.059-5.854 11.559-7.431 18.224-8.05 3.817-.366 7.657-.53 11.49-.604 4.03-.076 8.346-.34 12.149 1.179 6.152 2.455 9.416 9.13 10.215 15.368.366 2.927-.293 6.363 1.18 9.053.619 1.134 1.586 1.83 2.667 2.506 2.074 1.263 3.664 2.561 4.833 4.731a.484.484 0 00.835 0 19.248 19.248 0 001.986-4.8.44.44 0 00.238-.282c2.565-8.017 2.36-15.661 1.539-23.93-.799-8.065-4.21-14.352-3.451-22.307z" fill="#D66431"/><path d="M301.513 61.744c-3.664-2.276-6.984.78-8.493 4.025a10.47 10.47 0 00-.612 1.661.51.51 0 00.759.55c.051.704.039 1.412-.037 2.114a109.338 109.338 0 00-.462 5.207c-.102 1.537-1.799 6.177-.487 7.373 1.312 1.197 3.902-1.573 4.792-2.327a28.241 28.241 0 005.496-6.22c2.297-3.601 3.408-9.671-.956-12.383z" fill="#FFBDA3"/><path d="M246.034 52.655c-1.854.212-8.108 2.623-7.826 5.262a1.907 1.907 0 00.942 2.001c.806.502 1.971.432 2.836.337 2.106-.223 4.114-.68 6.228-.527 2.114.154 5.661 1.04 6.995-1.559 2.564-4.98-7.05-5.767-9.175-5.514zm21.885 5.148c1.395 2.562 4.96 1.588 7.027 1.39 2.125-.204 4.144.206 6.254.367.868.073 2.034.117 2.829-.407a1.915 1.915 0 00.901-1.994c.216-2.642-6.093-4.903-7.951-5.071-2.139-.213-11.731.801-9.06 5.715zm33.018-9.528c-.754-4.391-5.433-6.989-9.614-5.694a.463.463 0 00-.3.278.516.516 0 00-.535.732c3.272 6.587-.018 13.824 1.073 20.73.213 1.32.671 4.357 2.532 4.514 1.861.158 2.389-2.56 2.627-3.863.572-3.136 2.242-5.456 3.298-8.384.934-2.528 1.374-5.65.919-8.313z" fill="#D66431"/><path d="M295.082 70.632a32.826 32.826 0 00-2.498 6.136.484.484 0 10.934.26 31.655 31.655 0 012.403-5.91c.29-.548-.545-1.038-.839-.486z" fill="#E38662"/><path d="M293.503 22.511a14.966 14.966 0 01-.762 1.676c-10.163-4.505-21.364-2.218-31.604 1.05-9.618 3.07-19.529 6.894-26.882 14.062-2.265 2.196-6.731 6.546-4.119 9.971 2.353 3.085 7.614 1.658 10.45.216 2.282-1.156 4.51-4.069 7.13-4.065.769 0 1.692.567 2.564.604 1.407-.002 2.8-.267 4.108-.783a23.416 23.416 0 0010.68-7.952c.989-1.303 1.931-2.817 3.462-3.553 1.876-.904 4.031-.417 6.009-.252 3.005.299 6.04.027 8.944-.802a16.888 16.888 0 009.654-7.278l.183.08c.553.275 1.099-.533.524-.811l-.205-.092c.303-.574.571-1.165.802-1.771.205-.585-.718-.878-.938-.3zm17.807 2.448a7.888 7.888 0 00-3.052-5.287c-1.132-.853-2.352-1.139-3.664-1.534-1.407-.42-2.323-.699-2.847-2.148a5.366 5.366 0 01-.253-2.488 6.806 6.806 0 01-1.648-.176c-1.319 4.951-1.466 10.125-1.415 15.281.03 3.886.077 7.772.118 11.658.018 1.928-.418 4.757 2.176 5.046 5.957.648 6.379-8.866 7.954-12.335 1.165-2.616 2.997-5.01 2.631-8.017z" fill="#D66431"/><path d="M282.424 103.905a27.205 27.205 0 01-8.509 7.781 27.242 27.242 0 01-10.972 3.562c-.616.066-.619 1.032 0 .97a28.332 28.332 0 0011.451-3.711 28.277 28.277 0 008.869-8.13c.359-.491-.48-.977-.839-.472z" fill="#E38662"/><path d="M284.838 21.062c-6.441-.297-11.607 4.025-15.205 8.913-.366.502.469.985.836.487 3.096-4.204 7.368-8.002 12.823-8.416 5.295-.395 10.549 3.088 10.626 8.724a.485.485 0 00.483.483.485.485 0 00.484-.483c-.062-5.478-4.723-9.47-10.047-9.708zm-41.094 6.894a19.02 19.02 0 00-10.97 16.675c0 .621.949.621.968 0a18.044 18.044 0 012.993-9.407 18.074 18.074 0 017.496-6.43c.568-.264.077-1.098-.487-.838z" fill="#BA3F20"/><path d="M328.622 311.856H195.106l-1.686-10.637h122.741a12.637 12.637 0 018.191 3.027 12.608 12.608 0 014.266 7.61h.004z" fill="#947C70"/><path d="M263.592 311.856H130.079l-13.223-90.131h127.171a7.335 7.335 0 014.802 1.783 7.312 7.312 0 012.459 4.489l12.304 83.859z" fill="#B8A59C"/><path d="M263.591 311.856h-6.382l-13.223-90.131a7.392 7.392 0 017.328 6.308l12.277 83.823zm-73.534-47.415c1.099 3.484-.304 7.019-3.114 7.897-2.81.878-5.969-1.244-7.057-4.728-1.088-3.483.304-7.022 3.115-7.896 2.81-.875 5.968 1.258 7.056 4.727z" fill="#947C70"/></g><defs><clipPath id="a"><path fill="#fff" d="M0 0h468v560H0z"/></clipPath></defs></svg>