<svg viewBox="0 0 243 55" fill="none" xmlns="http://www.w3.org/2000/svg"><path d="M70.044 2.144V0h-15.01v2.144h7.25L51.257 40.74 40.74 2.144h6.535V0H28.079v2.144H34L23.076 40.74 12.559 2.144h6.535V0H0v2.144h4.799l14.193 51.972h2.45L34.716 7.454l.306-1.736 12.15 48.398h2.349L64.428 2.144h5.616zm5.514 10.925s-.102 0 0 0c-7.76 0-12.355 4.8-12.355 13.785v7.658c0 8.883 4.595 13.784 12.355 13.784 7.76 0 12.252-4.8 12.355-13.784v-7.658C87.81 17.97 83.318 13.07 75.558 13.07zm6.228 25.323c0 7.351-2.042 8.474-6.33 8.474-4.187 0-6.33-1.123-6.33-8.27V22.872c0-7.25 2.143-8.27 6.33-8.27 4.288 0 6.33 1.122 6.33 8.474v15.316zM145.5 12.457h-1.94l-10.517 33.695h-3.267v1.43h9.904v-1.43h-4.697l3.268-10.21h8.985l2.859 10.21h-3.778v1.43h11.946v-1.43h-3.267L145.5 12.457zm-6.943 22.055l4.186-13.376h.306l3.676 13.376h-8.168zM124.568 46.05V14.6h3.268v-1.43h-9.19l-9.7 27.263-9.19-27.262H90.67v1.43h3.166v31.447h-3.063v1.43h9.597v-1.43h-4.492V16.236L106.7 48.602h1.532l11.333-32.06V46.05h-3.471v1.429h12.15v-1.43h-3.676c.205-3.675 0 0 0 0zm52.176-31.45h4.901v22.667l-14.294-24.096h-8.373v1.43h2.961v31.447h-2.961v1.43h9.496v-1.43h-5.003V17.563l18.174 30.632v-.102.102h1.532V14.499h3.267v-1.43h-9.7v1.532zm13.376 23.484c-1.838 0-3.267 1.634-3.267 3.676 0 2.042 1.429 3.676 3.267 3.676 1.838 0 3.267-1.634 3.267-3.676 0-2.042-1.531-3.676-3.267-3.676zm23.586-18.583c0-.102-.102-.102-.102-.204-.204-.204-.306-.408-.51-.51-.409-.307-1.123-.511-2.042-.511-2.451 0-3.676 1.225-4.697 2.859-.715 1.123-1.43 2.552-1.94 3.37 0-.511-.102-1.43-.715-2.86-.715-1.94-1.429-2.654-1.532-2.654h-5.82v1.43h3.676v22.666h-3.676v1.43h13.274v-1.43h-5.309V27.466c.612-1.43 1.429-3.267 2.756-5.207 1.328-1.634 2.043-2.144 2.757-2.144.307 0 .307 1.531.307 2.246v.408c0 3.268 1.021 4.187 2.144 4.187 1.225 0 2.144-.817 2.144-4.186.204-1.226-.102-2.451-.715-3.268.102 0 0 0 0 0zm25.731 23.689c-.613 0-.715-.715-.715-.715V18.992h-4.39v19.297c-.103.103-2.859 5.514-6.841 5.514-2.043 0-2.655-1.123-2.655-2.348V18.992h-8.169v1.43h3.88v18.786s-.204 6.025 6.433 6.025c4.493 0 6.943-4.085 7.454-4.8v.103c-.102 2.348.714 3.88 1.94 3.88h6.126v-1.43l-3.063.205z" fill="#0A2782"/></svg>